<svg xmlns="http://www.w3.org/2000/svg" xmlns:xlink="http://www.w3.org/1999/xlink" width="1904" zoomAndPan="magnify" viewBox="0 0 1428 1106.99995" height="1476" preserveAspectRatio="xMidYMid meet" version="1.0"><defs><g/><clipPath id="d47f0c86fb"><path d="M 1215 480 L 1388 480 L 1388 1106.25 L 1215 1106.25 Z M 1215 480 " clip-rule="nonzero"/></clipPath><clipPath id="c403ee3a08"><path d="M 1113 530 L 1427.839844 530 L 1427.839844 824 L 1113 824 Z M 1113 530 " clip-rule="nonzero"/></clipPath><clipPath id="9ad4a0967e"><path d="M 1091.839844 601 L 1418 601 L 1418 1046 L 1091.839844 1046 Z M 1091.839844 601 " clip-rule="nonzero"/></clipPath><clipPath id="8dfde4034f"><path d="M 0.34375 145 L 30 145 L 30 292 L 0.34375 292 Z M 0.34375 145 " clip-rule="nonzero"/></clipPath><clipPath id="0ff50c4bec"><path d="M 1398 145 L 1427.59375 145 L 1427.59375 292 L 1398 292 Z M 1398 145 " clip-rule="nonzero"/></clipPath><clipPath id="7df7a87cb8"><path d="M 1398 291 L 1427.59375 291 L 1427.59375 321 L 1398 321 Z M 1398 291 " clip-rule="nonzero"/></clipPath><clipPath id="c675539d2a"><path d="M 0.34375 291 L 30 291 L 30 321 L 0.34375 321 Z M 0.34375 291 " clip-rule="nonzero"/></clipPath><clipPath id="a79d7483e6"><path d="M 146.011719 29.128906 L 1281.988281 29.128906 L 1281.988281 58.261719 L 146.011719 58.261719 Z M 87.757812 58.261719 L 1340.242188 58.261719 L 1340.242188 87.390625 L 87.757812 87.390625 Z M 58.628906 87.390625 L 1369.367188 87.390625 L 1369.367188 145.652344 L 58.628906 145.652344 Z M 29.5 145.652344 L 1398.496094 145.652344 L 1398.496094 291.304688 L 29.5 291.304688 Z M 58.628906 291.304688 L 1369.367188 291.304688 L 1369.367188 349.566406 L 58.628906 349.566406 Z M 87.757812 349.566406 L 1340.242188 349.566406 L 1340.242188 378.695312 L 87.757812 378.695312 Z M 146.011719 378.695312 L 1281.988281 378.695312 L 1281.988281 407.828125 L 146.011719 407.828125 Z M 1019.839844 407.828125 L 1165.480469 407.828125 L 1165.480469 436.957031 L 1019.839844 436.957031 Z M 1048.964844 436.957031 L 1136.347656 436.957031 L 1136.347656 466.089844 L 1048.964844 466.089844 Z M 1048.964844 466.089844 L 1107.222656 466.089844 L 1107.222656 495.21875 L 1048.964844 495.21875 Z M 1048.964844 495.21875 L 1078.09375 495.21875 L 1078.09375 524.351562 L 1048.964844 524.351562 Z M 1048.964844 495.21875 " clip-rule="nonzero"/></clipPath><linearGradient x1="253.011" gradientTransform="matrix(3.236394, 0, 0, 3.23674, -104.840821, -551.088735)" y1="179.259996" x2="253.011" gradientUnits="userSpaceOnUse" y2="332.260016" id="26b1545341"><stop stop-opacity="1" stop-color="rgb(100%, 100%, 100%)" offset="0"/><stop stop-opacity="1" stop-color="rgb(100%, 100%, 100%)" offset="0.25"/><stop stop-opacity="1" stop-color="rgb(100%, 100%, 100%)" offset="0.375"/><stop stop-opacity="1" stop-color="rgb(99.934387%, 99.934387%, 99.934387%)" offset="0.390625"/><stop stop-opacity="1" stop-color="rgb(99.697876%, 99.697876%, 99.697876%)" offset="0.40625"/><stop stop-opacity="1" stop-color="rgb(99.353027%, 99.353027%, 99.353027%)" offset="0.421875"/><stop stop-opacity="1" stop-color="rgb(99.008179%, 99.008179%, 99.008179%)" offset="0.4375"/><stop stop-opacity="1" stop-color="rgb(98.664856%, 98.664856%, 98.664856%)" offset="0.453125"/><stop stop-opacity="1" stop-color="rgb(98.320007%, 98.320007%, 98.320007%)" offset="0.46875"/><stop stop-opacity="1" stop-color="rgb(97.975159%, 97.975159%, 97.975159%)" offset="0.484375"/><stop stop-opacity="1" stop-color="rgb(97.63031%, 97.63031%, 97.63031%)" offset="0.5"/><stop stop-opacity="1" stop-color="rgb(97.285461%, 97.285461%, 97.285461%)" offset="0.515625"/><stop stop-opacity="1" stop-color="rgb(96.942139%, 96.942139%, 96.942139%)" offset="0.53125"/><stop stop-opacity="1" stop-color="rgb(96.59729%, 96.59729%, 96.59729%)" offset="0.546875"/><stop stop-opacity="1" stop-color="rgb(96.252441%, 96.252441%, 96.252441%)" offset="0.5625"/><stop stop-opacity="1" stop-color="rgb(95.907593%, 95.907593%, 95.907593%)" offset="0.578125"/><stop stop-opacity="1" stop-color="rgb(95.562744%, 95.562744%, 95.562744%)" offset="0.59375"/><stop stop-opacity="1" stop-color="rgb(95.219421%, 95.219421%, 95.219421%)" offset="0.609375"/><stop stop-opacity="1" stop-color="rgb(94.874573%, 94.874573%, 94.874573%)" offset="0.625"/><stop stop-opacity="1" stop-color="rgb(94.529724%, 94.529724%, 94.529724%)" offset="0.640625"/><stop stop-opacity="1" stop-color="rgb(94.184875%, 94.184875%, 94.184875%)" offset="0.65625"/><stop stop-opacity="1" stop-color="rgb(93.840027%, 93.840027%, 93.840027%)" offset="0.671875"/><stop stop-opacity="1" stop-color="rgb(93.496704%, 93.496704%, 93.496704%)" offset="0.6875"/><stop stop-opacity="1" stop-color="rgb(93.312073%, 93.312073%, 93.312073%)" offset="0.75"/><stop stop-opacity="1" stop-color="rgb(93.299866%, 93.299866%, 93.299866%)" offset="1"/></linearGradient></defs><g clip-path="url(#d47f0c86fb)"><path fill="#f5d133" d="M 1266.101562 1065.855469 L 1286.316406 1065.855469 L 1286.316406 1106.265625 L 1215.566406 1106.265625 L 1215.566406 1086.058594 L 1225.671875 1086.058594 L 1225.671875 1075.957031 L 1266.101562 1075.957031 Z M 1367.160156 1065.855469 L 1367.160156 1075.957031 L 1326.730469 1075.957031 L 1326.730469 1086.058594 L 1316.625 1086.058594 L 1316.625 1106.265625 L 1387.359375 1106.265625 L 1387.359375 1065.855469 Z M 1245.886719 540.597656 L 1255.992188 540.597656 L 1255.992188 530.511719 L 1326.730469 530.511719 L 1326.730469 540.613281 L 1336.835938 540.613281 L 1336.835938 560.816406 L 1346.945312 560.816406 L 1346.945312 581.023438 L 1367.160156 581.023438 L 1367.160156 570.921875 L 1377.265625 570.921875 L 1377.265625 540.597656 L 1367.160156 540.597656 L 1367.160156 510.308594 L 1357.050781 510.308594 L 1357.050781 490.101562 L 1346.945312 490.101562 L 1346.945312 480 L 1286.316406 480 L 1286.316406 490.101562 L 1276.207031 490.101562 L 1276.207031 500.203125 L 1266.101562 500.203125 L 1266.101562 510.308594 L 1255.992188 510.308594 L 1255.992188 520.410156 L 1235.78125 520.410156 L 1235.78125 530.511719 L 1245.886719 530.511719 Z M 1245.886719 540.597656 " fill-opacity="1" fill-rule="nonzero"/></g><path fill="#ff7200" d="M 1397.480469 813.328125 L 1397.480469 833.535156 L 1225.671875 833.535156 L 1225.671875 813.328125 L 1235.78125 813.328125 L 1235.78125 752.730469 L 1245.886719 752.730469 L 1245.886719 742.628906 L 1235.78125 713.199219 L 1237.164062 674.265625 L 1255.980469 651.722656 L 1367.144531 651.722656 L 1387.359375 678.304688 L 1392.414062 711.753906 L 1377.253906 722.425781 L 1377.253906 752.730469 L 1387.359375 752.730469 L 1387.359375 813.328125 Z M 1276.207031 510.308594 L 1266.101562 510.308594 L 1266.101562 520.410156 L 1276.207031 520.410156 Z M 1286.316406 500.203125 L 1276.207031 500.203125 L 1276.207031 510.308594 L 1286.316406 510.308594 Z M 1296.421875 490.101562 L 1286.316406 490.101562 L 1286.316406 500.203125 L 1296.421875 500.203125 Z M 1296.421875 520.410156 L 1306.53125 520.410156 L 1306.53125 510.308594 L 1296.421875 510.308594 Z M 1326.730469 520.410156 L 1336.835938 520.410156 L 1336.835938 510.308594 L 1326.730469 510.308594 Z M 1346.945312 500.203125 L 1336.835938 500.203125 L 1336.835938 510.308594 L 1346.945312 510.308594 Z M 1316.636719 500.203125 L 1306.53125 500.203125 L 1306.53125 510.308594 L 1316.636719 510.308594 Z M 1326.730469 490.101562 L 1316.625 490.101562 L 1316.625 500.203125 L 1326.730469 500.203125 Z M 1326.730469 490.101562 " fill-opacity="1" fill-rule="nonzero"/><g clip-path="url(#c403ee3a08)"><path fill="#8d6036" d="M 1323.0625 542.667969 L 1336.835938 546.425781 L 1336.835938 601.226562 L 1326.730469 601.226562 L 1326.730469 661.839844 L 1296.410156 661.839844 L 1296.410156 631.535156 L 1266.085938 631.535156 L 1266.085938 611.3125 L 1276.195312 611.3125 L 1276.195312 601.210938 L 1255.980469 601.210938 L 1255.980469 581.007812 L 1266.085938 581.007812 L 1266.085938 530.511719 L 1319.992188 530.511719 Z M 1225.671875 722.425781 L 1205.457031 722.425781 L 1205.457031 732.527344 L 1185.257812 732.527344 L 1185.257812 722.425781 L 1154.933594 722.425781 L 1154.933594 712.320312 L 1144.828125 712.320312 L 1144.828125 722.425781 L 1113.386719 722.425781 L 1113.386719 742.628906 L 1165.042969 742.628906 L 1165.042969 752.730469 L 1185.257812 752.730469 L 1185.257812 762.832031 L 1205.472656 762.832031 L 1205.472656 752.730469 L 1225.6875 752.730469 L 1225.6875 742.628906 L 1245.902344 742.628906 L 1245.902344 702.21875 L 1225.671875 702.21875 Z M 1417.695312 722.425781 L 1407.589844 722.425781 L 1407.589844 712.320312 L 1397.480469 712.320312 L 1397.480469 702.21875 L 1377.265625 702.21875 L 1377.265625 722.425781 L 1387.375 722.425781 L 1387.375 732.527344 L 1397.480469 732.527344 L 1397.480469 742.628906 L 1407.589844 742.628906 L 1407.589844 762.832031 L 1397.480469 762.832031 L 1397.480469 772.933594 L 1387.375 772.933594 L 1387.375 783.039062 L 1377.265625 783.039062 L 1377.265625 793.140625 L 1367.160156 793.140625 L 1367.160156 803.242188 L 1346.945312 803.242188 L 1346.945312 823.445312 L 1377.265625 823.445312 L 1377.265625 813.34375 L 1387.375 813.34375 L 1387.375 803.242188 L 1397.480469 803.242188 L 1397.480469 793.140625 L 1407.589844 793.140625 L 1407.589844 783.039062 L 1417.695312 783.039062 L 1417.695312 772.933594 L 1427.804688 772.933594 L 1427.804688 732.527344 L 1417.695312 732.527344 Z M 1417.695312 722.425781 " fill-opacity="1" fill-rule="nonzero"/></g><path fill="#1f2d4c" d="M 1306.53125 581.007812 L 1296.421875 581.007812 L 1296.421875 560.804688 L 1306.53125 560.804688 Z M 1276.207031 581.007812 L 1276.207031 560.804688 L 1266.101562 560.804688 L 1266.101562 581.007812 Z M 1326.730469 570.90625 L 1336.835938 570.90625 L 1336.835938 591.109375 L 1326.730469 591.109375 L 1326.730469 611.3125 L 1336.835938 611.3125 L 1336.835938 601.210938 L 1346.945312 601.210938 L 1346.945312 591.109375 L 1357.050781 591.109375 L 1357.050781 581.007812 L 1346.945312 581.007812 L 1346.945312 560.804688 L 1336.835938 560.804688 L 1336.835938 540.597656 L 1326.730469 540.597656 L 1326.730469 530.511719 L 1306.515625 530.511719 L 1306.515625 550.714844 L 1326.730469 550.714844 Z M 1276.207031 530.511719 L 1255.992188 530.511719 L 1255.992188 550.714844 L 1276.207031 550.714844 Z M 1367.160156 560.804688 L 1357.050781 560.804688 L 1357.050781 581.007812 L 1367.160156 581.007812 Z M 1387.375 843.636719 L 1387.375 833.535156 L 1377.265625 833.535156 L 1377.265625 823.433594 L 1346.945312 823.433594 L 1346.945312 813.328125 L 1255.992188 813.328125 L 1255.992188 823.433594 L 1245.886719 823.433594 L 1245.886719 833.535156 L 1235.78125 833.535156 L 1235.78125 843.636719 L 1225.671875 843.636719 L 1225.671875 1075.957031 L 1296.410156 1075.957031 L 1296.410156 884.03125 L 1306.515625 884.03125 L 1306.515625 873.929688 L 1316.625 873.929688 L 1316.625 884.03125 L 1326.730469 884.03125 L 1326.730469 1075.957031 L 1397.46875 1075.957031 L 1397.46875 843.636719 Z M 1124.613281 762.832031 L 1144.828125 762.832031 L 1144.828125 697.824219 L 1124.613281 697.824219 Z M 1124.613281 762.832031 " fill-opacity="1" fill-rule="nonzero"/><g clip-path="url(#9ad4a0967e)"><path fill="#46525b" d="M 1154.933594 692.117188 L 1165.042969 692.117188 L 1165.042969 702.21875 L 1091.90625 702.21875 L 1091.90625 682.015625 L 1104.027344 682.015625 L 1104.027344 691.28125 L 1113.121094 691.28125 L 1113.121094 682.015625 L 1154.933594 682.015625 Z M 1316.636719 601.210938 L 1296.421875 601.210938 L 1296.421875 621.417969 L 1316.636719 621.417969 Z M 1326.730469 661.8125 L 1296.410156 661.8125 L 1296.410156 815.863281 L 1326.730469 815.863281 Z M 1225.671875 671.914062 L 1205.457031 671.914062 L 1205.457031 702.21875 L 1255.992188 702.21875 L 1255.992188 651.707031 L 1225.671875 651.707031 Z M 1397.480469 671.914062 L 1397.480469 651.707031 L 1367.160156 651.707031 L 1367.160156 702.21875 L 1417.695312 702.21875 L 1417.695312 671.914062 Z M 1225.671875 934.542969 L 1255.992188 934.542969 L 1255.992188 924.4375 L 1225.671875 924.4375 Z M 1357.050781 924.4375 L 1326.730469 924.4375 L 1326.730469 934.542969 L 1357.050781 934.542969 Z M 1367.160156 985.050781 L 1397.480469 985.050781 L 1397.480469 974.949219 L 1367.160156 974.949219 Z M 1266.101562 995.15625 L 1296.421875 995.15625 L 1296.421875 985.050781 L 1266.101562 985.050781 Z M 1225.671875 1035.550781 L 1255.992188 1035.550781 L 1255.992188 1025.445312 L 1225.671875 1025.445312 Z M 1336.835938 1045.652344 L 1367.160156 1045.652344 L 1367.160156 1035.550781 L 1336.835938 1035.550781 Z M 1336.835938 1045.652344 " fill-opacity="1" fill-rule="nonzero"/></g><path fill="#000000" d="M 1136.347656 436.957031 L 1165.476562 436.957031 L 1165.476562 466.089844 L 1136.347656 466.089844 Z M 1136.347656 436.957031 " fill-opacity="1" fill-rule="nonzero"/><path fill="#000000" d="M 1107.222656 466.089844 L 1136.347656 466.089844 L 1136.347656 495.21875 L 1107.222656 495.21875 Z M 1107.222656 466.089844 " fill-opacity="1" fill-rule="nonzero"/><path fill="#000000" d="M 1078.09375 495.21875 L 1107.222656 495.21875 L 1107.222656 524.351562 L 1078.09375 524.351562 Z M 1078.09375 495.21875 " fill-opacity="1" fill-rule="nonzero"/><path fill="#000000" d="M 1048.964844 436.957031 L 1019.839844 436.957031 L 1019.839844 582.613281 L 1048.964844 582.613281 L 1048.964844 553.480469 L 1078.09375 553.480469 L 1078.09375 524.351562 L 1048.964844 524.351562 Z M 1048.964844 436.957031 " fill-opacity="1" fill-rule="nonzero"/><path fill="#000000" d="M 146.015625 407.828125 L 1019.839844 407.828125 L 1019.839844 436.957031 L 146.015625 436.957031 Z M 146.015625 407.828125 " fill-opacity="1" fill-rule="nonzero"/><path fill="#000000" d="M 87.757812 378.695312 L 87.757812 407.828125 L 146.011719 407.828125 L 146.011719 378.695312 L 87.757812 378.695312 L 87.757812 349.566406 L 58.628906 349.566406 L 58.628906 378.695312 Z M 87.757812 378.695312 " fill-opacity="1" fill-rule="nonzero"/><path fill="#000000" d="M 29.5 291.304688 L 58.628906 291.304688 L 58.628906 349.566406 L 29.5 349.566406 Z M 29.5 291.304688 " fill-opacity="1" fill-rule="nonzero"/><g clip-path="url(#8dfde4034f)"><path fill="#000000" d="M 0.375 145.652344 L 29.5 145.652344 L 29.5 291.304688 L 0.375 291.304688 Z M 0.375 145.652344 " fill-opacity="1" fill-rule="nonzero"/></g><path fill="#000000" d="M 146.011719 0 L 1281.988281 0 L 1281.988281 29.128906 L 146.011719 29.128906 Z M 146.011719 0 " fill-opacity="1" fill-rule="nonzero"/><path fill="#000000" d="M 87.757812 29.128906 L 146.011719 29.128906 L 146.011719 58.261719 L 87.757812 58.261719 Z M 87.757812 29.128906 " fill-opacity="1" fill-rule="nonzero"/><path fill="#000000" d="M 58.628906 58.261719 L 87.757812 58.261719 L 87.757812 87.390625 L 58.628906 87.390625 Z M 58.628906 58.261719 " fill-opacity="1" fill-rule="nonzero"/><path fill="#000000" d="M 29.5 87.390625 L 58.628906 87.390625 L 58.628906 145.652344 L 29.5 145.652344 Z M 29.5 87.390625 " fill-opacity="1" fill-rule="nonzero"/><path fill="#000000" d="M 1281.988281 378.695312 L 1340.242188 378.695312 L 1340.242188 407.828125 L 1281.988281 407.828125 Z M 1281.988281 378.695312 " fill-opacity="1" fill-rule="nonzero"/><path fill="#000000" d="M 1340.242188 349.566406 L 1369.367188 349.566406 L 1369.367188 378.695312 L 1340.242188 378.695312 Z M 1340.242188 349.566406 " fill-opacity="1" fill-rule="nonzero"/><path fill="#000000" d="M 1369.367188 291.304688 L 1398.496094 291.304688 L 1398.496094 349.566406 L 1369.367188 349.566406 Z M 1369.367188 291.304688 " fill-opacity="1" fill-rule="nonzero"/><g clip-path="url(#0ff50c4bec)"><path fill="#000000" d="M 1398.496094 145.652344 L 1427.625 145.652344 L 1427.625 291.304688 L 1398.496094 291.304688 Z M 1398.496094 145.652344 " fill-opacity="1" fill-rule="nonzero"/></g><path fill="#000000" d="M 1281.988281 29.128906 L 1340.242188 29.128906 L 1340.242188 58.261719 L 1281.988281 58.261719 Z M 1281.988281 29.128906 " fill-opacity="1" fill-rule="nonzero"/><path fill="#000000" d="M 1340.242188 58.261719 L 1369.367188 58.261719 L 1369.367188 87.390625 L 1340.242188 87.390625 Z M 1340.242188 58.261719 " fill-opacity="1" fill-rule="nonzero"/><path fill="#000000" d="M 1369.367188 87.390625 L 1398.496094 87.390625 L 1398.496094 145.652344 L 1369.367188 145.652344 Z M 1369.367188 87.390625 " fill-opacity="1" fill-rule="nonzero"/><path fill="#000000" d="M 1165.480469 407.828125 L 1281.988281 407.828125 L 1281.988281 436.957031 L 1165.480469 436.957031 Z M 1165.480469 407.828125 " fill-opacity="1" fill-rule="nonzero"/><path fill="#dddddd" d="M 1136.347656 466.089844 L 1165.476562 466.089844 L 1165.476562 495.21875 L 1136.347656 495.21875 Z M 1136.347656 466.089844 " fill-opacity="1" fill-rule="nonzero"/><path fill="#dddddd" d="M 1107.222656 495.21875 L 1136.347656 495.21875 L 1136.347656 524.351562 L 1107.222656 524.351562 Z M 1107.222656 495.21875 " fill-opacity="1" fill-rule="nonzero"/><path fill="#dddddd" d="M 1078.09375 524.351562 L 1107.222656 524.351562 L 1107.222656 553.480469 L 1078.09375 553.480469 Z M 1078.09375 524.351562 " fill-opacity="1" fill-rule="nonzero"/><path fill="#dddddd" d="M 1019.839844 582.613281 L 1048.964844 582.613281 L 1048.964844 611.742188 L 1019.839844 611.742188 Z M 1019.839844 582.613281 " fill-opacity="1" fill-rule="nonzero"/><path fill="#dddddd" d="M 1048.964844 553.480469 L 1078.09375 553.480469 L 1078.09375 582.613281 L 1048.964844 582.613281 Z M 1048.964844 553.480469 " fill-opacity="1" fill-rule="nonzero"/><path fill="#dddddd" d="M 1281.988281 407.828125 L 1340.242188 407.828125 L 1340.242188 436.957031 L 1281.988281 436.957031 Z M 1281.988281 407.828125 " fill-opacity="1" fill-rule="nonzero"/><path fill="#dddddd" d="M 1340.242188 378.695312 L 1369.367188 378.695312 L 1369.367188 407.828125 L 1340.242188 407.828125 Z M 1340.242188 378.695312 " fill-opacity="1" fill-rule="nonzero"/><path fill="#dddddd" d="M 1369.367188 349.566406 L 1398.496094 349.566406 L 1398.496094 378.695312 L 1369.367188 378.695312 Z M 1369.367188 349.566406 " fill-opacity="1" fill-rule="nonzero"/><g clip-path="url(#7df7a87cb8)"><path fill="#dddddd" d="M 1398.496094 291.304688 L 1427.625 291.304688 L 1427.625 320.4375 L 1398.496094 320.4375 Z M 1398.496094 291.304688 " fill-opacity="1" fill-rule="nonzero"/></g><path fill="#dddddd" d="M 1165.480469 436.957031 L 1281.988281 436.957031 L 1281.988281 466.089844 L 1165.480469 466.089844 Z M 1165.480469 436.957031 " fill-opacity="1" fill-rule="nonzero"/><path fill="#dddddd" d="M 146.015625 436.957031 L 1019.839844 436.957031 L 1019.839844 466.089844 L 146.015625 466.089844 Z M 146.015625 436.957031 " fill-opacity="1" fill-rule="nonzero"/><path fill="#dddddd" d="M 87.757812 378.695312 L 58.628906 378.695312 L 58.628906 407.828125 L 87.757812 407.828125 L 87.757812 436.957031 L 146.011719 436.957031 L 146.011719 407.828125 L 87.757812 407.828125 Z M 87.757812 378.695312 " fill-opacity="1" fill-rule="nonzero"/><path fill="#dddddd" d="M 29.5 349.566406 L 58.628906 349.566406 L 58.628906 378.695312 L 29.5 378.695312 Z M 29.5 349.566406 " fill-opacity="1" fill-rule="nonzero"/><g clip-path="url(#c675539d2a)"><path fill="#dddddd" d="M 0.375 291.304688 L 29.5 291.304688 L 29.5 320.4375 L 0.375 320.4375 Z M 0.375 291.304688 " fill-opacity="1" fill-rule="nonzero"/></g><g clip-path="url(#a79d7483e6)"><path fill="url(#26b1545341)" d="M 29.5 29.128906 L 29.5 524.351562 L 1398.496094 524.351562 L 1398.496094 29.128906 Z M 29.5 29.128906 " fill-rule="nonzero"/></g><g fill="#000000" fill-opacity="0.4"><g transform="translate(316.150654, 181.597661)"><g><path d="M 4.496094 8.558594 L 105.207031 8.558594 L 105.207031 -1.753906 L 96.101562 -1.753906 L 96.101562 -10.75 L 85.898438 -10.75 L 85.898438 -1.753906 L 60.007812 -1.753906 L 60.007812 -36.640625 L 87.105469 -36.640625 L 87.105469 -46.953125 L 78.109375 -46.953125 L 78.109375 -55.949219 L 67.796875 -55.949219 L 67.796875 -46.953125 L 60.007812 -46.953125 L 60.007812 -72.84375 L 96.101562 -72.84375 L 96.101562 -83.046875 L 87.105469 -83.046875 L 87.105469 -92.042969 L 76.902344 -92.042969 L 76.902344 -83.046875 L 13.601562 -83.046875 L 13.601562 -72.84375 L 49.804688 -72.84375 L 49.804688 -1.753906 L 32.910156 -1.753906 L 32.910156 -55.949219 L 22.707031 -55.949219 L 22.707031 -1.753906 L 4.496094 -1.753906 Z M 4.496094 8.558594 "/></g></g></g><g fill="#000000" fill-opacity="0.4"><g transform="translate(425.84411, 181.597661)"><g><path d="M 22.707031 8.558594 L 32.910156 8.558594 L 32.910156 -54.742188 L 41.90625 -54.742188 L 41.90625 -63.738281 L 105.207031 -63.738281 L 105.207031 -74.050781 L 96.101562 -74.050781 L 96.101562 -83.046875 L 85.898438 -83.046875 L 85.898438 -74.050781 L 51.011719 -74.050781 L 51.011719 -92.042969 L 40.699219 -92.042969 L 40.699219 -74.050781 L 13.601562 -74.050781 L 13.601562 -63.738281 L 31.703125 -63.738281 L 31.703125 -55.949219 L 22.707031 -55.949219 L 22.707031 -37.847656 L 13.601562 -37.847656 L 13.601562 -28.851562 L 4.496094 -28.851562 L 4.496094 -18.648438 L 14.808594 -18.648438 L 14.808594 -27.644531 L 22.707031 -27.644531 Z M 40.699219 8.558594 L 105.207031 8.558594 L 105.207031 -1.753906 L 96.101562 -1.753906 L 96.101562 -10.75 L 85.898438 -10.75 L 85.898438 -1.753906 L 69.003906 -1.753906 L 69.003906 -27.644531 L 96.101562 -27.644531 L 96.101562 -37.847656 L 87.105469 -37.847656 L 87.105469 -46.953125 L 76.902344 -46.953125 L 76.902344 -37.847656 L 69.003906 -37.847656 L 69.003906 -55.949219 L 58.800781 -55.949219 L 58.800781 -37.847656 L 40.699219 -37.847656 L 40.699219 -27.644531 L 58.800781 -27.644531 L 58.800781 -1.753906 L 40.699219 -1.753906 Z M 40.699219 8.558594 "/></g></g></g><g fill="#000000" fill-opacity="0.4"><g transform="translate(535.537567, 181.597661)"><g><path d="M 4.496094 -0.4375 L 22.707031 -0.4375 L 22.707031 8.558594 L 41.90625 8.558594 L 41.90625 -0.4375 L 60.007812 -0.4375 L 60.007812 -9.542969 L 67.796875 -9.542969 L 67.796875 -0.4375 L 85.898438 -0.4375 L 85.898438 8.558594 L 105.207031 8.558594 L 105.207031 -1.753906 L 87.105469 -1.753906 L 87.105469 -9.542969 L 96.101562 -9.542969 L 96.101562 -18.648438 L 105.207031 -18.648438 L 105.207031 -28.851562 L 96.101562 -28.851562 L 96.101562 -37.847656 L 85.898438 -37.847656 L 85.898438 -28.851562 L 60.007812 -28.851562 L 60.007812 -37.847656 L 51.011719 -37.847656 L 51.011719 -63.738281 L 67.796875 -63.738281 L 67.796875 -55.949219 L 58.800781 -55.949219 L 58.800781 -45.746094 L 96.101562 -45.746094 L 96.101562 -55.949219 L 78.109375 -55.949219 L 78.109375 -63.738281 L 105.207031 -63.738281 L 105.207031 -74.050781 L 96.101562 -74.050781 L 96.101562 -83.046875 L 85.898438 -83.046875 L 85.898438 -74.050781 L 78.109375 -74.050781 L 78.109375 -92.042969 L 67.796875 -92.042969 L 67.796875 -74.050781 L 51.011719 -74.050781 L 51.011719 -92.042969 L 40.699219 -92.042969 L 40.699219 -83.046875 L 23.914062 -83.046875 L 23.914062 -92.042969 L 13.601562 -92.042969 L 13.601562 -72.84375 L 40.699219 -72.84375 L 40.699219 -64.945312 L 4.496094 -64.945312 L 4.496094 -54.742188 L 13.601562 -54.742188 L 13.601562 -46.953125 L 4.496094 -46.953125 L 4.496094 -36.640625 L 14.808594 -36.640625 L 14.808594 -45.746094 L 23.914062 -45.746094 L 23.914062 -54.742188 L 40.699219 -54.742188 L 40.699219 -36.640625 L 49.804688 -36.640625 L 49.804688 -28.851562 L 4.496094 -28.851562 L 4.496094 -18.648438 L 22.707031 -18.648438 L 22.707031 -10.75 L 4.496094 -10.75 Z M 69.003906 -10.75 L 69.003906 -18.648438 L 85.898438 -18.648438 L 85.898438 -10.75 Z M 41.90625 -10.75 L 41.90625 -18.648438 L 58.800781 -18.648438 L 58.800781 -10.75 Z M 23.914062 -1.753906 L 23.914062 -9.542969 L 31.703125 -9.542969 L 31.703125 -1.753906 Z M 23.914062 -1.753906 "/></g></g></g><g fill="#000000" fill-opacity="0.4"><g transform="translate(645.231023, 181.597661)"><g><path d="M 49.804688 -9.542969 L 69.003906 -9.542969 L 69.003906 -18.648438 L 87.105469 -18.648438 L 87.105469 -27.644531 L 96.101562 -27.644531 L 96.101562 -37.847656 L 87.105469 -37.847656 L 87.105469 -45.746094 L 105.207031 -45.746094 L 105.207031 -55.949219 L 87.105469 -55.949219 L 87.105469 -63.738281 L 96.101562 -63.738281 L 96.101562 -72.84375 L 105.207031 -72.84375 L 105.207031 -83.046875 L 96.101562 -83.046875 L 96.101562 -92.042969 L 85.898438 -92.042969 L 85.898438 -83.046875 L 69.003906 -83.046875 L 69.003906 -92.042969 L 58.800781 -92.042969 L 58.800781 -74.050781 L 49.804688 -74.050781 L 49.804688 -63.738281 L 67.796875 -63.738281 L 67.796875 -55.949219 L 49.804688 -55.949219 L 49.804688 -45.746094 L 67.796875 -45.746094 L 67.796875 -37.847656 L 49.804688 -37.847656 L 49.804688 -27.644531 L 67.796875 -27.644531 L 67.796875 -19.855469 L 49.804688 -19.855469 Z M 13.601562 8.558594 L 23.914062 8.558594 L 23.914062 -72.84375 L 32.910156 -72.84375 L 32.910156 -92.042969 L 22.707031 -92.042969 L 22.707031 -74.050781 L 13.601562 -74.050781 L 13.601562 -55.949219 L 4.496094 -55.949219 L 4.496094 -45.746094 L 13.601562 -45.746094 Z M 49.804688 8.558594 L 78.109375 8.558594 L 78.109375 -0.4375 L 96.101562 -0.4375 L 96.101562 -9.542969 L 105.207031 -9.542969 L 105.207031 -19.855469 L 94.894531 -19.855469 L 94.894531 -10.75 L 76.902344 -10.75 L 76.902344 -1.753906 L 49.804688 -1.753906 Z M 31.703125 -9.542969 L 41.90625 -9.542969 L 41.90625 -64.945312 L 31.703125 -64.945312 Z M 69.003906 -28.851562 L 69.003906 -36.640625 L 85.898438 -36.640625 L 85.898438 -28.851562 Z M 69.003906 -46.953125 L 69.003906 -54.742188 L 85.898438 -54.742188 L 85.898438 -46.953125 Z M 69.003906 -64.945312 L 69.003906 -72.84375 L 85.898438 -72.84375 L 85.898438 -64.945312 Z M 69.003906 -64.945312 "/></g></g></g><g fill="#000000" fill-opacity="0.4"><g transform="translate(754.92448, 181.597661)"><g><path d="M 8.996094 -18.648438 L 19.308594 -18.648438 L 19.308594 -27.644531 L 45.199219 -27.644531 L 45.199219 8.558594 L 55.398438 8.558594 L 55.398438 -27.644531 L 81.289062 -27.644531 L 81.289062 -18.648438 L 91.492188 -18.648438 L 91.492188 -63.738281 L 100.597656 -63.738281 L 100.597656 -74.050781 L 91.492188 -74.050781 L 91.492188 -83.046875 L 81.289062 -83.046875 L 81.289062 -74.050781 L 55.398438 -74.050781 L 55.398438 -92.042969 L 45.199219 -92.042969 L 45.199219 -74.050781 L 19.308594 -74.050781 L 19.308594 -83.046875 L 8.996094 -83.046875 Z M 55.398438 -37.847656 L 55.398438 -63.738281 L 81.289062 -63.738281 L 81.289062 -37.847656 Z M 19.308594 -37.847656 L 19.308594 -63.738281 L 45.199219 -63.738281 L 45.199219 -37.847656 Z M 19.308594 -37.847656 "/></g></g></g><g fill="#000000" fill-opacity="0.4"><g transform="translate(864.617936, 181.597661)"><g><path d="M 18.210938 -0.4375 L 28.414062 -0.4375 L 28.414062 -19.855469 L 18.210938 -19.855469 Z M 18.210938 -0.4375 "/></g></g></g><g fill="#000000" fill-opacity="0.4"><g transform="translate(919.464663, 181.597661)"><g><path d="M 18.210938 -0.4375 L 28.414062 -0.4375 L 28.414062 -19.855469 L 18.210938 -19.855469 Z M 18.210938 -0.4375 "/></g></g></g><g fill="#000000" fill-opacity="0.4"><g transform="translate(974.31139, 181.597661)"><g><path d="M 18.210938 -0.4375 L 28.414062 -0.4375 L 28.414062 -19.855469 L 18.210938 -19.855469 Z M 18.210938 -0.4375 "/></g></g></g><g fill="#000000" fill-opacity="0.4"><g transform="translate(1029.158117, 181.597661)"><g><path d="M 18.210938 -0.4375 L 28.414062 -0.4375 L 28.414062 -19.855469 L 18.210938 -19.855469 Z M 18.210938 -0.4375 "/></g></g></g><g fill="#000000" fill-opacity="0.4"><g transform="translate(1084.004844, 181.597661)"><g><path d="M 18.210938 -0.4375 L 28.414062 -0.4375 L 28.414062 -19.855469 L 18.210938 -19.855469 Z M 18.210938 -0.4375 "/></g></g></g><g fill="#000000" fill-opacity="0.4"><g transform="translate(1138.851571, 181.597661)"><g><path d="M 18.210938 -0.4375 L 28.414062 -0.4375 L 28.414062 -19.855469 L 18.210938 -19.855469 Z M 18.210938 -0.4375 "/></g></g></g><g fill="#000000" fill-opacity="1"><g transform="translate(311.301641, 176.748656)"><g><path d="M 4.496094 8.558594 L 105.207031 8.558594 L 105.207031 -1.753906 L 96.101562 -1.753906 L 96.101562 -10.75 L 85.898438 -10.75 L 85.898438 -1.753906 L 60.007812 -1.753906 L 60.007812 -36.640625 L 87.105469 -36.640625 L 87.105469 -46.953125 L 78.109375 -46.953125 L 78.109375 -55.949219 L 67.796875 -55.949219 L 67.796875 -46.953125 L 60.007812 -46.953125 L 60.007812 -72.84375 L 96.101562 -72.84375 L 96.101562 -83.046875 L 87.105469 -83.046875 L 87.105469 -92.042969 L 76.902344 -92.042969 L 76.902344 -83.046875 L 13.601562 -83.046875 L 13.601562 -72.84375 L 49.804688 -72.84375 L 49.804688 -1.753906 L 32.910156 -1.753906 L 32.910156 -55.949219 L 22.707031 -55.949219 L 22.707031 -1.753906 L 4.496094 -1.753906 Z M 4.496094 8.558594 "/></g></g></g><g fill="#000000" fill-opacity="1"><g transform="translate(420.995098, 176.748656)"><g><path d="M 22.707031 8.558594 L 32.910156 8.558594 L 32.910156 -54.742188 L 41.90625 -54.742188 L 41.90625 -63.738281 L 105.207031 -63.738281 L 105.207031 -74.050781 L 96.101562 -74.050781 L 96.101562 -83.046875 L 85.898438 -83.046875 L 85.898438 -74.050781 L 51.011719 -74.050781 L 51.011719 -92.042969 L 40.699219 -92.042969 L 40.699219 -74.050781 L 13.601562 -74.050781 L 13.601562 -63.738281 L 31.703125 -63.738281 L 31.703125 -55.949219 L 22.707031 -55.949219 L 22.707031 -37.847656 L 13.601562 -37.847656 L 13.601562 -28.851562 L 4.496094 -28.851562 L 4.496094 -18.648438 L 14.808594 -18.648438 L 14.808594 -27.644531 L 22.707031 -27.644531 Z M 40.699219 8.558594 L 105.207031 8.558594 L 105.207031 -1.753906 L 96.101562 -1.753906 L 96.101562 -10.75 L 85.898438 -10.75 L 85.898438 -1.753906 L 69.003906 -1.753906 L 69.003906 -27.644531 L 96.101562 -27.644531 L 96.101562 -37.847656 L 87.105469 -37.847656 L 87.105469 -46.953125 L 76.902344 -46.953125 L 76.902344 -37.847656 L 69.003906 -37.847656 L 69.003906 -55.949219 L 58.800781 -55.949219 L 58.800781 -37.847656 L 40.699219 -37.847656 L 40.699219 -27.644531 L 58.800781 -27.644531 L 58.800781 -1.753906 L 40.699219 -1.753906 Z M 40.699219 8.558594 "/></g></g></g><g fill="#000000" fill-opacity="1"><g transform="translate(530.688554, 176.748656)"><g><path d="M 4.496094 -0.4375 L 22.707031 -0.4375 L 22.707031 8.558594 L 41.90625 8.558594 L 41.90625 -0.4375 L 60.007812 -0.4375 L 60.007812 -9.542969 L 67.796875 -9.542969 L 67.796875 -0.4375 L 85.898438 -0.4375 L 85.898438 8.558594 L 105.207031 8.558594 L 105.207031 -1.753906 L 87.105469 -1.753906 L 87.105469 -9.542969 L 96.101562 -9.542969 L 96.101562 -18.648438 L 105.207031 -18.648438 L 105.207031 -28.851562 L 96.101562 -28.851562 L 96.101562 -37.847656 L 85.898438 -37.847656 L 85.898438 -28.851562 L 60.007812 -28.851562 L 60.007812 -37.847656 L 51.011719 -37.847656 L 51.011719 -63.738281 L 67.796875 -63.738281 L 67.796875 -55.949219 L 58.800781 -55.949219 L 58.800781 -45.746094 L 96.101562 -45.746094 L 96.101562 -55.949219 L 78.109375 -55.949219 L 78.109375 -63.738281 L 105.207031 -63.738281 L 105.207031 -74.050781 L 96.101562 -74.050781 L 96.101562 -83.046875 L 85.898438 -83.046875 L 85.898438 -74.050781 L 78.109375 -74.050781 L 78.109375 -92.042969 L 67.796875 -92.042969 L 67.796875 -74.050781 L 51.011719 -74.050781 L 51.011719 -92.042969 L 40.699219 -92.042969 L 40.699219 -83.046875 L 23.914062 -83.046875 L 23.914062 -92.042969 L 13.601562 -92.042969 L 13.601562 -72.84375 L 40.699219 -72.84375 L 40.699219 -64.945312 L 4.496094 -64.945312 L 4.496094 -54.742188 L 13.601562 -54.742188 L 13.601562 -46.953125 L 4.496094 -46.953125 L 4.496094 -36.640625 L 14.808594 -36.640625 L 14.808594 -45.746094 L 23.914062 -45.746094 L 23.914062 -54.742188 L 40.699219 -54.742188 L 40.699219 -36.640625 L 49.804688 -36.640625 L 49.804688 -28.851562 L 4.496094 -28.851562 L 4.496094 -18.648438 L 22.707031 -18.648438 L 22.707031 -10.75 L 4.496094 -10.75 Z M 69.003906 -10.75 L 69.003906 -18.648438 L 85.898438 -18.648438 L 85.898438 -10.75 Z M 41.90625 -10.75 L 41.90625 -18.648438 L 58.800781 -18.648438 L 58.800781 -10.75 Z M 23.914062 -1.753906 L 23.914062 -9.542969 L 31.703125 -9.542969 L 31.703125 -1.753906 Z M 23.914062 -1.753906 "/></g></g></g><g fill="#000000" fill-opacity="1"><g transform="translate(640.382011, 176.748656)"><g><path d="M 49.804688 -9.542969 L 69.003906 -9.542969 L 69.003906 -18.648438 L 87.105469 -18.648438 L 87.105469 -27.644531 L 96.101562 -27.644531 L 96.101562 -37.847656 L 87.105469 -37.847656 L 87.105469 -45.746094 L 105.207031 -45.746094 L 105.207031 -55.949219 L 87.105469 -55.949219 L 87.105469 -63.738281 L 96.101562 -63.738281 L 96.101562 -72.84375 L 105.207031 -72.84375 L 105.207031 -83.046875 L 96.101562 -83.046875 L 96.101562 -92.042969 L 85.898438 -92.042969 L 85.898438 -83.046875 L 69.003906 -83.046875 L 69.003906 -92.042969 L 58.800781 -92.042969 L 58.800781 -74.050781 L 49.804688 -74.050781 L 49.804688 -63.738281 L 67.796875 -63.738281 L 67.796875 -55.949219 L 49.804688 -55.949219 L 49.804688 -45.746094 L 67.796875 -45.746094 L 67.796875 -37.847656 L 49.804688 -37.847656 L 49.804688 -27.644531 L 67.796875 -27.644531 L 67.796875 -19.855469 L 49.804688 -19.855469 Z M 13.601562 8.558594 L 23.914062 8.558594 L 23.914062 -72.84375 L 32.910156 -72.84375 L 32.910156 -92.042969 L 22.707031 -92.042969 L 22.707031 -74.050781 L 13.601562 -74.050781 L 13.601562 -55.949219 L 4.496094 -55.949219 L 4.496094 -45.746094 L 13.601562 -45.746094 Z M 49.804688 8.558594 L 78.109375 8.558594 L 78.109375 -0.4375 L 96.101562 -0.4375 L 96.101562 -9.542969 L 105.207031 -9.542969 L 105.207031 -19.855469 L 94.894531 -19.855469 L 94.894531 -10.75 L 76.902344 -10.75 L 76.902344 -1.753906 L 49.804688 -1.753906 Z M 31.703125 -9.542969 L 41.90625 -9.542969 L 41.90625 -64.945312 L 31.703125 -64.945312 Z M 69.003906 -28.851562 L 69.003906 -36.640625 L 85.898438 -36.640625 L 85.898438 -28.851562 Z M 69.003906 -46.953125 L 69.003906 -54.742188 L 85.898438 -54.742188 L 85.898438 -46.953125 Z M 69.003906 -64.945312 L 69.003906 -72.84375 L 85.898438 -72.84375 L 85.898438 -64.945312 Z M 69.003906 -64.945312 "/></g></g></g><g fill="#000000" fill-opacity="1"><g transform="translate(750.075467, 176.748656)"><g><path d="M 8.996094 -18.648438 L 19.308594 -18.648438 L 19.308594 -27.644531 L 45.199219 -27.644531 L 45.199219 8.558594 L 55.398438 8.558594 L 55.398438 -27.644531 L 81.289062 -27.644531 L 81.289062 -18.648438 L 91.492188 -18.648438 L 91.492188 -63.738281 L 100.597656 -63.738281 L 100.597656 -74.050781 L 91.492188 -74.050781 L 91.492188 -83.046875 L 81.289062 -83.046875 L 81.289062 -74.050781 L 55.398438 -74.050781 L 55.398438 -92.042969 L 45.199219 -92.042969 L 45.199219 -74.050781 L 19.308594 -74.050781 L 19.308594 -83.046875 L 8.996094 -83.046875 Z M 55.398438 -37.847656 L 55.398438 -63.738281 L 81.289062 -63.738281 L 81.289062 -37.847656 Z M 19.308594 -37.847656 L 19.308594 -63.738281 L 45.199219 -63.738281 L 45.199219 -37.847656 Z M 19.308594 -37.847656 "/></g></g></g><g fill="#000000" fill-opacity="1"><g transform="translate(859.768924, 176.748656)"><g><path d="M 18.210938 -0.4375 L 28.414062 -0.4375 L 28.414062 -19.855469 L 18.210938 -19.855469 Z M 18.210938 -0.4375 "/></g></g></g><g fill="#000000" fill-opacity="1"><g transform="translate(914.615651, 176.748656)"><g><path d="M 18.210938 -0.4375 L 28.414062 -0.4375 L 28.414062 -19.855469 L 18.210938 -19.855469 Z M 18.210938 -0.4375 "/></g></g></g><g fill="#000000" fill-opacity="1"><g transform="translate(969.462378, 176.748656)"><g><path d="M 18.210938 -0.4375 L 28.414062 -0.4375 L 28.414062 -19.855469 L 18.210938 -19.855469 Z M 18.210938 -0.4375 "/></g></g></g><g fill="#000000" fill-opacity="1"><g transform="translate(1024.309105, 176.748656)"><g><path d="M 18.210938 -0.4375 L 28.414062 -0.4375 L 28.414062 -19.855469 L 18.210938 -19.855469 Z M 18.210938 -0.4375 "/></g></g></g><g fill="#000000" fill-opacity="1"><g transform="translate(1079.155832, 176.748656)"><g><path d="M 18.210938 -0.4375 L 28.414062 -0.4375 L 28.414062 -19.855469 L 18.210938 -19.855469 Z M 18.210938 -0.4375 "/></g></g></g><g fill="#000000" fill-opacity="1"><g transform="translate(1134.002559, 176.748656)"><g><path d="M 18.210938 -0.4375 L 28.414062 -0.4375 L 28.414062 -19.855469 L 18.210938 -19.855469 Z M 18.210938 -0.4375 "/></g></g></g><g fill="#000000" fill-opacity="0.4"><g transform="translate(535.53788, 333.320403)"><g><path d="M 13.601562 -0.4375 L 23.914062 -0.4375 L 23.914062 -9.542969 L 31.703125 -9.542969 L 31.703125 -0.4375 L 40.699219 -0.4375 L 40.699219 8.558594 L 69.003906 8.558594 L 69.003906 -0.4375 L 78.109375 -0.4375 L 78.109375 -9.542969 L 85.898438 -9.542969 L 85.898438 -0.4375 L 94.894531 -0.4375 L 94.894531 8.558594 L 105.207031 8.558594 L 105.207031 -1.753906 L 96.101562 -1.753906 L 96.101562 -10.75 L 87.105469 -10.75 L 87.105469 -27.644531 L 96.101562 -27.644531 L 96.101562 -54.742188 L 105.207031 -54.742188 L 105.207031 -74.050781 L 94.894531 -74.050781 L 94.894531 -64.945312 L 78.109375 -64.945312 L 78.109375 -81.839844 L 87.105469 -81.839844 L 87.105469 -92.042969 L 67.796875 -92.042969 L 67.796875 -64.945312 L 58.800781 -64.945312 L 58.800781 -55.949219 L 23.914062 -55.949219 L 23.914062 -63.738281 L 32.910156 -63.738281 L 32.910156 -72.84375 L 40.699219 -72.84375 L 40.699219 -63.738281 L 51.011719 -63.738281 L 51.011719 -72.84375 L 60.007812 -72.84375 L 60.007812 -83.046875 L 51.011719 -83.046875 L 51.011719 -92.042969 L 40.699219 -92.042969 L 40.699219 -83.046875 L 32.910156 -83.046875 L 32.910156 -92.042969 L 22.707031 -92.042969 L 22.707031 -83.046875 L 4.496094 -83.046875 L 4.496094 -72.84375 L 22.707031 -72.84375 L 22.707031 -64.945312 L 13.601562 -64.945312 L 13.601562 -46.953125 L 4.496094 -46.953125 L 4.496094 -27.644531 L 13.601562 -27.644531 Z M 41.90625 -1.753906 L 41.90625 -37.847656 L 14.808594 -37.847656 L 14.808594 -45.746094 L 49.804688 -45.746094 L 49.804688 -1.753906 Z M 60.007812 -1.753906 L 60.007812 -45.746094 L 67.796875 -45.746094 L 67.796875 -27.644531 L 76.902344 -27.644531 L 76.902344 -10.75 L 67.796875 -10.75 L 67.796875 -1.753906 Z M 78.109375 -28.851562 L 78.109375 -46.953125 L 69.003906 -46.953125 L 69.003906 -54.742188 L 85.898438 -54.742188 L 85.898438 -28.851562 Z M 23.914062 -19.855469 L 23.914062 -27.644531 L 31.703125 -27.644531 L 31.703125 -19.855469 Z M 23.914062 -19.855469 "/></g></g></g><g fill="#000000" fill-opacity="0.4"><g transform="translate(645.231337, 333.320403)"><g><path d="M 4.496094 8.558594 L 14.808594 8.558594 L 14.808594 -0.4375 L 31.703125 -0.4375 L 31.703125 8.558594 L 41.90625 8.558594 L 41.90625 -36.640625 L 49.804688 -36.640625 L 49.804688 8.558594 L 60.007812 8.558594 L 60.007812 -18.648438 L 85.898438 -18.648438 L 85.898438 -1.753906 L 76.902344 -1.753906 L 76.902344 8.558594 L 96.101562 8.558594 L 96.101562 -36.640625 L 105.207031 -36.640625 L 105.207031 -46.953125 L 78.109375 -46.953125 L 78.109375 -54.742188 L 96.101562 -54.742188 L 96.101562 -64.945312 L 78.109375 -64.945312 L 78.109375 -72.84375 L 96.101562 -72.84375 L 96.101562 -92.042969 L 85.898438 -92.042969 L 85.898438 -83.046875 L 78.109375 -83.046875 L 78.109375 -92.042969 L 67.796875 -92.042969 L 67.796875 -83.046875 L 49.804688 -83.046875 L 49.804688 -72.84375 L 67.796875 -72.84375 L 67.796875 -64.945312 L 49.804688 -64.945312 L 49.804688 -54.742188 L 67.796875 -54.742188 L 67.796875 -46.953125 L 41.90625 -46.953125 L 41.90625 -55.949219 L 4.496094 -55.949219 L 4.496094 -45.746094 L 40.699219 -45.746094 L 40.699219 -37.847656 L 4.496094 -37.847656 Z M 4.496094 -63.738281 L 41.90625 -63.738281 L 41.90625 -74.050781 L 4.496094 -74.050781 Z M 4.496094 -81.839844 L 32.910156 -81.839844 L 32.910156 -92.042969 L 4.496094 -92.042969 Z M 14.808594 -10.75 L 14.808594 -27.644531 L 31.703125 -27.644531 L 31.703125 -10.75 Z M 60.007812 -28.851562 L 60.007812 -36.640625 L 85.898438 -36.640625 L 85.898438 -28.851562 Z M 60.007812 -28.851562 "/></g></g></g><g fill="#000000" fill-opacity="0.4"><g transform="translate(754.924793, 333.320403)"><g><path d="M 4.496094 8.558594 L 14.808594 8.558594 L 14.808594 -0.4375 L 23.914062 -0.4375 L 23.914062 -9.542969 L 31.703125 -9.542969 L 31.703125 -0.4375 L 40.699219 -0.4375 L 40.699219 8.558594 L 51.011719 8.558594 L 51.011719 -1.753906 L 41.90625 -1.753906 L 41.90625 -9.542969 L 58.800781 -9.542969 L 58.800781 8.558594 L 69.003906 8.558594 L 69.003906 -9.542969 L 78.109375 -9.542969 L 78.109375 -18.648438 L 94.894531 -18.648438 L 94.894531 -1.753906 L 85.898438 -1.753906 L 85.898438 8.558594 L 105.207031 8.558594 L 105.207031 -92.042969 L 94.894531 -92.042969 L 94.894531 -83.046875 L 78.109375 -83.046875 L 78.109375 -92.042969 L 67.796875 -92.042969 L 67.796875 -10.75 L 60.007812 -10.75 L 60.007812 -19.855469 L 51.011719 -19.855469 L 51.011719 -63.738281 L 60.007812 -63.738281 L 60.007812 -74.050781 L 51.011719 -74.050781 L 51.011719 -92.042969 L 40.699219 -92.042969 L 40.699219 -74.050781 L 23.914062 -74.050781 L 23.914062 -92.042969 L 13.601562 -92.042969 L 13.601562 -74.050781 L 4.496094 -74.050781 L 4.496094 -63.738281 L 13.601562 -63.738281 L 13.601562 -19.855469 L 4.496094 -19.855469 L 4.496094 -9.542969 L 13.601562 -9.542969 L 13.601562 -1.753906 L 4.496094 -1.753906 Z M 78.109375 -55.949219 L 78.109375 -72.84375 L 94.894531 -72.84375 L 94.894531 -55.949219 Z M 78.109375 -28.851562 L 78.109375 -45.746094 L 94.894531 -45.746094 L 94.894531 -28.851562 Z M 23.914062 -37.847656 L 23.914062 -45.746094 L 40.699219 -45.746094 L 40.699219 -37.847656 Z M 23.914062 -55.949219 L 23.914062 -63.738281 L 40.699219 -63.738281 L 40.699219 -55.949219 Z M 23.914062 -19.855469 L 23.914062 -27.644531 L 40.699219 -27.644531 L 40.699219 -19.855469 Z M 23.914062 -19.855469 "/></g></g></g><g fill="#000000" fill-opacity="0.4"><g transform="translate(864.61825, 333.320403)"><g><path d="M 40.699219 -27.644531 L 49.804688 -27.644531 L 49.804688 -18.648438 L 58.800781 -18.648438 L 58.800781 -9.542969 L 69.003906 -9.542969 L 69.003906 -19.855469 L 60.007812 -19.855469 L 60.007812 -27.644531 L 85.898438 -27.644531 L 85.898438 -1.753906 L 67.796875 -1.753906 L 67.796875 8.558594 L 96.101562 8.558594 L 96.101562 -27.644531 L 105.207031 -27.644531 L 105.207031 -37.847656 L 96.101562 -37.847656 L 96.101562 -45.746094 L 105.207031 -45.746094 L 105.207031 -64.945312 L 94.894531 -64.945312 L 94.894531 -55.949219 L 78.109375 -55.949219 L 78.109375 -72.84375 L 96.101562 -72.84375 L 96.101562 -92.042969 L 85.898438 -92.042969 L 85.898438 -83.046875 L 78.109375 -83.046875 L 78.109375 -92.042969 L 67.796875 -92.042969 L 67.796875 -83.046875 L 49.804688 -83.046875 L 49.804688 -72.84375 L 67.796875 -72.84375 L 67.796875 -55.949219 L 40.699219 -55.949219 L 40.699219 -45.746094 L 85.898438 -45.746094 L 85.898438 -37.847656 L 40.699219 -37.847656 Z M 13.601562 8.558594 L 23.914062 8.558594 L 23.914062 -54.742188 L 32.910156 -54.742188 L 32.910156 -64.945312 L 22.707031 -64.945312 L 22.707031 -55.949219 L 13.601562 -55.949219 L 13.601562 -46.953125 L 4.496094 -46.953125 L 4.496094 -36.640625 L 13.601562 -36.640625 Z M 4.496094 -63.738281 L 14.808594 -63.738281 L 14.808594 -72.84375 L 23.914062 -72.84375 L 23.914062 -81.839844 L 32.910156 -81.839844 L 32.910156 -92.042969 L 22.707031 -92.042969 L 22.707031 -83.046875 L 13.601562 -83.046875 L 13.601562 -74.050781 L 4.496094 -74.050781 Z M 4.496094 -63.738281 "/></g></g></g><g fill="#000000" fill-opacity="1"><g transform="translate(530.688868, 328.471398)"><g><path d="M 13.601562 -0.4375 L 23.914062 -0.4375 L 23.914062 -9.542969 L 31.703125 -9.542969 L 31.703125 -0.4375 L 40.699219 -0.4375 L 40.699219 8.558594 L 69.003906 8.558594 L 69.003906 -0.4375 L 78.109375 -0.4375 L 78.109375 -9.542969 L 85.898438 -9.542969 L 85.898438 -0.4375 L 94.894531 -0.4375 L 94.894531 8.558594 L 105.207031 8.558594 L 105.207031 -1.753906 L 96.101562 -1.753906 L 96.101562 -10.75 L 87.105469 -10.75 L 87.105469 -27.644531 L 96.101562 -27.644531 L 96.101562 -54.742188 L 105.207031 -54.742188 L 105.207031 -74.050781 L 94.894531 -74.050781 L 94.894531 -64.945312 L 78.109375 -64.945312 L 78.109375 -81.839844 L 87.105469 -81.839844 L 87.105469 -92.042969 L 67.796875 -92.042969 L 67.796875 -64.945312 L 58.800781 -64.945312 L 58.800781 -55.949219 L 23.914062 -55.949219 L 23.914062 -63.738281 L 32.910156 -63.738281 L 32.910156 -72.84375 L 40.699219 -72.84375 L 40.699219 -63.738281 L 51.011719 -63.738281 L 51.011719 -72.84375 L 60.007812 -72.84375 L 60.007812 -83.046875 L 51.011719 -83.046875 L 51.011719 -92.042969 L 40.699219 -92.042969 L 40.699219 -83.046875 L 32.910156 -83.046875 L 32.910156 -92.042969 L 22.707031 -92.042969 L 22.707031 -83.046875 L 4.496094 -83.046875 L 4.496094 -72.84375 L 22.707031 -72.84375 L 22.707031 -64.945312 L 13.601562 -64.945312 L 13.601562 -46.953125 L 4.496094 -46.953125 L 4.496094 -27.644531 L 13.601562 -27.644531 Z M 41.90625 -1.753906 L 41.90625 -37.847656 L 14.808594 -37.847656 L 14.808594 -45.746094 L 49.804688 -45.746094 L 49.804688 -1.753906 Z M 60.007812 -1.753906 L 60.007812 -45.746094 L 67.796875 -45.746094 L 67.796875 -27.644531 L 76.902344 -27.644531 L 76.902344 -10.75 L 67.796875 -10.75 L 67.796875 -1.753906 Z M 78.109375 -28.851562 L 78.109375 -46.953125 L 69.003906 -46.953125 L 69.003906 -54.742188 L 85.898438 -54.742188 L 85.898438 -28.851562 Z M 23.914062 -19.855469 L 23.914062 -27.644531 L 31.703125 -27.644531 L 31.703125 -19.855469 Z M 23.914062 -19.855469 "/></g></g></g><g fill="#000000" fill-opacity="1"><g transform="translate(640.382324, 328.471398)"><g><path d="M 4.496094 8.558594 L 14.808594 8.558594 L 14.808594 -0.4375 L 31.703125 -0.4375 L 31.703125 8.558594 L 41.90625 8.558594 L 41.90625 -36.640625 L 49.804688 -36.640625 L 49.804688 8.558594 L 60.007812 8.558594 L 60.007812 -18.648438 L 85.898438 -18.648438 L 85.898438 -1.753906 L 76.902344 -1.753906 L 76.902344 8.558594 L 96.101562 8.558594 L 96.101562 -36.640625 L 105.207031 -36.640625 L 105.207031 -46.953125 L 78.109375 -46.953125 L 78.109375 -54.742188 L 96.101562 -54.742188 L 96.101562 -64.945312 L 78.109375 -64.945312 L 78.109375 -72.84375 L 96.101562 -72.84375 L 96.101562 -92.042969 L 85.898438 -92.042969 L 85.898438 -83.046875 L 78.109375 -83.046875 L 78.109375 -92.042969 L 67.796875 -92.042969 L 67.796875 -83.046875 L 49.804688 -83.046875 L 49.804688 -72.84375 L 67.796875 -72.84375 L 67.796875 -64.945312 L 49.804688 -64.945312 L 49.804688 -54.742188 L 67.796875 -54.742188 L 67.796875 -46.953125 L 41.90625 -46.953125 L 41.90625 -55.949219 L 4.496094 -55.949219 L 4.496094 -45.746094 L 40.699219 -45.746094 L 40.699219 -37.847656 L 4.496094 -37.847656 Z M 4.496094 -63.738281 L 41.90625 -63.738281 L 41.90625 -74.050781 L 4.496094 -74.050781 Z M 4.496094 -81.839844 L 32.910156 -81.839844 L 32.910156 -92.042969 L 4.496094 -92.042969 Z M 14.808594 -10.75 L 14.808594 -27.644531 L 31.703125 -27.644531 L 31.703125 -10.75 Z M 60.007812 -28.851562 L 60.007812 -36.640625 L 85.898438 -36.640625 L 85.898438 -28.851562 Z M 60.007812 -28.851562 "/></g></g></g><g fill="#000000" fill-opacity="1"><g transform="translate(750.075781, 328.471398)"><g><path d="M 4.496094 8.558594 L 14.808594 8.558594 L 14.808594 -0.4375 L 23.914062 -0.4375 L 23.914062 -9.542969 L 31.703125 -9.542969 L 31.703125 -0.4375 L 40.699219 -0.4375 L 40.699219 8.558594 L 51.011719 8.558594 L 51.011719 -1.753906 L 41.90625 -1.753906 L 41.90625 -9.542969 L 58.800781 -9.542969 L 58.800781 8.558594 L 69.003906 8.558594 L 69.003906 -9.542969 L 78.109375 -9.542969 L 78.109375 -18.648438 L 94.894531 -18.648438 L 94.894531 -1.753906 L 85.898438 -1.753906 L 85.898438 8.558594 L 105.207031 8.558594 L 105.207031 -92.042969 L 94.894531 -92.042969 L 94.894531 -83.046875 L 78.109375 -83.046875 L 78.109375 -92.042969 L 67.796875 -92.042969 L 67.796875 -10.75 L 60.007812 -10.75 L 60.007812 -19.855469 L 51.011719 -19.855469 L 51.011719 -63.738281 L 60.007812 -63.738281 L 60.007812 -74.050781 L 51.011719 -74.050781 L 51.011719 -92.042969 L 40.699219 -92.042969 L 40.699219 -74.050781 L 23.914062 -74.050781 L 23.914062 -92.042969 L 13.601562 -92.042969 L 13.601562 -74.050781 L 4.496094 -74.050781 L 4.496094 -63.738281 L 13.601562 -63.738281 L 13.601562 -19.855469 L 4.496094 -19.855469 L 4.496094 -9.542969 L 13.601562 -9.542969 L 13.601562 -1.753906 L 4.496094 -1.753906 Z M 78.109375 -55.949219 L 78.109375 -72.84375 L 94.894531 -72.84375 L 94.894531 -55.949219 Z M 78.109375 -28.851562 L 78.109375 -45.746094 L 94.894531 -45.746094 L 94.894531 -28.851562 Z M 23.914062 -37.847656 L 23.914062 -45.746094 L 40.699219 -45.746094 L 40.699219 -37.847656 Z M 23.914062 -55.949219 L 23.914062 -63.738281 L 40.699219 -63.738281 L 40.699219 -55.949219 Z M 23.914062 -19.855469 L 23.914062 -27.644531 L 40.699219 -27.644531 L 40.699219 -19.855469 Z M 23.914062 -19.855469 "/></g></g></g><g fill="#000000" fill-opacity="1"><g transform="translate(859.769238, 328.471398)"><g><path d="M 40.699219 -27.644531 L 49.804688 -27.644531 L 49.804688 -18.648438 L 58.800781 -18.648438 L 58.800781 -9.542969 L 69.003906 -9.542969 L 69.003906 -19.855469 L 60.007812 -19.855469 L 60.007812 -27.644531 L 85.898438 -27.644531 L 85.898438 -1.753906 L 67.796875 -1.753906 L 67.796875 8.558594 L 96.101562 8.558594 L 96.101562 -27.644531 L 105.207031 -27.644531 L 105.207031 -37.847656 L 96.101562 -37.847656 L 96.101562 -45.746094 L 105.207031 -45.746094 L 105.207031 -64.945312 L 94.894531 -64.945312 L 94.894531 -55.949219 L 78.109375 -55.949219 L 78.109375 -72.84375 L 96.101562 -72.84375 L 96.101562 -92.042969 L 85.898438 -92.042969 L 85.898438 -83.046875 L 78.109375 -83.046875 L 78.109375 -92.042969 L 67.796875 -92.042969 L 67.796875 -83.046875 L 49.804688 -83.046875 L 49.804688 -72.84375 L 67.796875 -72.84375 L 67.796875 -55.949219 L 40.699219 -55.949219 L 40.699219 -45.746094 L 85.898438 -45.746094 L 85.898438 -37.847656 L 40.699219 -37.847656 Z M 13.601562 8.558594 L 23.914062 8.558594 L 23.914062 -54.742188 L 32.910156 -54.742188 L 32.910156 -64.945312 L 22.707031 -64.945312 L 22.707031 -55.949219 L 13.601562 -55.949219 L 13.601562 -46.953125 L 4.496094 -46.953125 L 4.496094 -36.640625 L 13.601562 -36.640625 Z M 4.496094 -63.738281 L 14.808594 -63.738281 L 14.808594 -72.84375 L 23.914062 -72.84375 L 23.914062 -81.839844 L 32.910156 -81.839844 L 32.910156 -92.042969 L 22.707031 -92.042969 L 22.707031 -83.046875 L 13.601562 -83.046875 L 13.601562 -74.050781 L 4.496094 -74.050781 Z M 4.496094 -63.738281 "/></g></g></g></svg>