<svg xmlns="http://www.w3.org/2000/svg" version="1.1" xmlns:xlink="http://www.w3.org/1999/xlink" xmlns:svgjs="http://svgjs.com/svgjs" width="450" height="331.8"><svg xmlns="http://www.w3.org/2000/svg" xmlns:xlink="http://www.w3.org/1999/xlink" height="331.8" preserveAspectRatio="xMidYMid meet" version="1.1" viewBox="-0.0 -0.0 450.0 331.8" width="450.0" zoomAndPan="magnify">
    <defs>
        <clipPath id="SvgjsClipPath1020">
            <path d="m17 231h433v100.8h-433z"></path>
        </clipPath>
    </defs>
    <g id="SvgjsG1019">
        <g id="SvgjsG1018">
            <path d="m246.44-0.0039062c-1.29 0-2.39 1.1055-2.39 2.3945v263.38c0 1.28 1.1 2.2 2.39 2.2s2.21-0.92 2.21-2.2v-263.38c0-1.2884-0.92-2.3939-2.21-2.3939" fill="#342021" fill-rule="evenodd"></path>
        </g>
        <g id="SvgjsG1017">
            <path d="m66.258 90.551c-1.289 0-2.395 0.918-2.395 2.207v173.01c0 1.28 1.106 2.2 2.395 2.2 1.105 0 2.207-0.92 2.207-2.2v-173.01c0-1.291-1.102-2.209-2.207-2.209" fill="#342021" fill-rule="evenodd"></path>
        </g>
        <g id="SvgjsG1016">
            <path d="m405.09 58.895c-1.29 0-2.39 0.917-2.39 2.207v204.67c0 1.28 1.1 2.2 2.39 2.2 1.11 0 2.21-0.92 2.21-2.2v-204.67c0-1.288-1.1-2.205-2.21-2.205" fill="#342021" fill-rule="evenodd"></path>
        </g>
        <g id="SvgjsG1015">
            <path d="m95.891 243.31c100.49 2.76 199.51 0.19 293.93-18.04 0.73 14.36 1.65 28.53 2.57 42.89-10.49 14.17-21.16 28.34-31.84 42.7h-264.66c0.001-22.46 0.001-45.09 0.001-67.55" fill="#6a2e20" fill-rule="evenodd"></path>
        </g>
        <g clip-path="url(#clip1)" id="SvgjsG1014">
            <path d="m17.852 247.36c65.339 11.04 133.44 16.56 204.85 15.09v18.78c24.48 5.15 49.51 5.52 75.09 0 1.84-7 3.68-13.99 5.52-20.99 50.43-5.52 99.39-14.54 146.69-28.53v20.43c-10.31 3.69-20.61 7.37-30.92 11.05-9.76 19.88-19.51 39.94-29.45 59.81-97.54 13.07-195.09 10.31-292.64 0-11.408-14.72-20.056-25.76-31.467-40.49-9.941-0.55-22.64-2.21-32.027-3.68-5.152-10.49-10.305-20.98-15.644-31.47" fill="#6a2e20" fill-rule="evenodd"></path>
        </g>
        <g id="SvgjsG1013">
            <path d="m222.7 268.16v18.59c24.48 5.34 49.51 5.7 75.09 0 1.84-6.81 3.68-13.81 5.52-20.8 50.43-5.52 99.39-14.54 146.69-28.53v14.72c-10.31 3.69-20.61 7.37-30.92 11.05l-3.13 6.26c-34.97 6.44-67.54 13.98-101.78 14.35-1.1 4.05-1.29 4.6-2.39 8.84-29.26 11.22-66.63 12.7-98.83 3.68-0.37-3.13-0.74-6.26-0.93-9.21-47.48 7.37-92.94 5.16-141.9 1.48l-4.597-6.08c-9.941-0.55-22.64-2.21-32.027-3.68l-12.516-25.21c64.418 10.67 131.41 16.01 201.72 14.54" fill="#4e2822" fill-rule="evenodd"></path>
        </g>
        <g id="SvgjsG1012">
            <path d="m17.852 247.36c65.339 11.04 133.44 16.56 204.85 15.09v18.78c24.48 5.15 49.51 5.52 75.09 0 1.84-7 3.68-13.99 5.52-20.99 50.43-5.52 99.39-14.54 146.69-28.53v20.43c-8.84 4.97-19.88 8.1-30.92 11.05-36.07 6.44-72.88 14.54-108.22 14.91-1.11 4.04-1.29 4.78-2.4 8.83-29.26 11.23-60 12.7-92.2 3.68-0.37-3.13-0.74-6.07-0.92-9.2-48.96 7.73-99.39 4.97-149.82 1.1-9.938-0.55-22.637-2.21-32.024-3.68-5.152-10.49-10.305-20.98-15.644-31.47" fill="#80351b" fill-rule="evenodd"></path>
        </g>
        <g id="SvgjsG1011">
            <path d="m444.11 199.51c0.37-31.47-8.83-62.95-20.98-94.24-14.91-21.161-29.82-42.329-44.72-63.493-5.53 14.539-16.39 26.688-36.63 34.969 3.31 19.141 2.02 38.094-11.6 56.324 5.16 13.06 8.47 26.13 6.26 39.02 9.2 11.41 15.09 23.92 13.44 39.01 31.47-3.86 62.76-7.73 94.23-11.59" fill="#e11d25" fill-rule="evenodd"></path>
        </g>
        <g id="SvgjsG1010">
            <path d="m333.31 224.54c-7.91-46.38-21.16-92.58-38.46-138.96-24.12-27.975-48.41-55.951-72.7-83.928-17.12 29.45-41.23 54.114-73.99 73.438-1.29 21.535-8.1 41.23-22.64 58.16 4.42 16.38 2.39 34.97-4.05 55.21 3.68 11.42 3.68 21.91 0 32.03 70.68 1.47 141.17 2.76 211.84 4.05" fill="#e11d25" fill-rule="evenodd"></path>
        </g>
        <g id="SvgjsG1009">
            <path d="m85.766 173c-10.121-21.16-20.243-42.33-30.551-63.49-7.18 13.25-20.613 22.82-37.547 30.37 0 12.51-3.863 22.82-11.227 30.73 1.8402 9.94 0.184 19.69-6.441 28.9 3.3125 8.65 4.2344 17.48 0.92188 26.13h86.871c-0.555-17.48-1.289-35.15-2.027-52.64" fill="#e11d25" fill-rule="evenodd"></path>
        </g>
        <g id="SvgjsG1008">
            <path d="m336.81 169.69l103.99-5.71c0.36 1.66 0.55 3.32 0.92 4.98l-103.44 5.52c-0.55-0.74-1.1-1.48-1.84-2.39 0.18-0.74 0.37-1.66 0.37-2.4" fill="#b11e2a" fill-rule="evenodd"></path>
        </g>
        <g id="SvgjsG1007">
            <path d="m331.66 130.86l104.35 12.51c0.55 1.66 0.92 3.32 1.29 5.16l-106.19-12.7c-0.38-0.92-0.74-1.85-0.93-2.76 0.55-0.74 1.11-1.48 1.48-2.21" fill="#b11e2a" fill-rule="evenodd"></path>
        </g>
        <g id="SvgjsG1006">
            <path d="m344.73 75.457l83 41.783c0.73 2.39 1.66 4.6 2.39 6.81l-87.97-44.359c0-0.921-0.19-2.023-0.37-2.945 0.92-0.367 2.02-0.918 2.95-1.289" fill="#b11e2a" fill-rule="evenodd"></path>
        </g>
        <g id="SvgjsG1005">
            <path d="m122.21 186.07l203.37 0.37c0.37 1.47 0.74 3.13 1.11 4.79l-204.48-0.19c-0.19-0.92-0.37-1.66-0.74-2.58 0.19-0.73 0.55-1.65 0.74-2.39" fill="#b11e2a" fill-rule="evenodd"></path>
        </g>
        <g id="SvgjsG1004">
            <path d="m127.55 131.04l189.2 20.98c0.37 1.66 0.92 3.32 1.47 5.16l-191.96-21.35c-0.19-0.92-0.55-1.66-0.74-2.58 0.74-0.73 1.29-1.47 2.03-2.21" fill="#b11e2a" fill-rule="evenodd"></path>
        </g>
        <g id="SvgjsG1003">
            <path d="m151.11 73.434l156.07 47.486c0.73 1.84 1.28 3.68 1.84 5.7l-161.04-48.952c0.18-0.922 0.18-1.84 0.18-2.578 1.11-0.551 2.02-1.106 2.95-1.656" fill="#b11e2a" fill-rule="evenodd"></path>
        </g>
        <g id="SvgjsG1002">
            <path d="m1.4727 197.3c-0.3672 0.74-0.92192 1.47-1.4727 2.21 0.36719 0.92 0.55078 1.84 0.92188 2.58l86.683 16.19-0.183-5.15-85.949-15.83" fill="#b11e2a" fill-rule="evenodd"></path>
        </g>
        <g id="SvgjsG1001">
            <path d="m8.0977 168.59c-0.5508 0.73-1.1055 1.47-1.6563 2.02 0.1836 0.92 0.1836 1.84 0.3672 2.76l80.062 27.43-0.183-5.16-78.59-27.05" fill="#b11e2a" fill-rule="evenodd"></path>
        </g>
        <g id="SvgjsG1000">
            <path d="m85.766 173l-0.184-0.36-64.969-34.05c-0.922 0.36-1.84 0.73-2.945 1.29v2.76l68.281 35.7-0.183-5.34" fill="#b11e2a" fill-rule="evenodd"></path>
        </g>
    </g>
</svg><style>@media (prefers-color-scheme: light) { :root { filter: none; } }
@media (prefers-color-scheme: dark) { :root { filter: contrast(0.8333333333333334) brightness(1.7); } }
</style></svg>