<?xml version="1.0" standalone="no"?>
<!DOCTYPE svg PUBLIC "-//W3C//DTD SVG 20010904//EN"
 "http://www.w3.org/TR/2001/REC-SVG-20010904/DTD/svg10.dtd">
<svg version="1.0" xmlns="http://www.w3.org/2000/svg"
 width="450.000000pt" height="450.000000pt" viewBox="0 0 450.000000 450.000000"
 preserveAspectRatio="xMidYMid meet">
<metadata>
Created by potrace 1.14, written by Peter Selinger 2001-2017
</metadata>
<g transform="translate(0.000000,450.000000) scale(0.100000,-0.100000)"
fill="#000000" stroke="none">
<path d="M2445 3888 c-3 -13 -6 -72 -8 -133 l-2 -109 -95 109 c-52 61 -100
116 -107 123 -9 9 -24 -6 -68 -74 -153 -235 -369 -447 -609 -599 l-73 -47 -12
-86 c-23 -167 -82 -320 -169 -435 l-47 -62 11 -55 c22 -112 2 -338 -41 -459
-9 -25 -9 -43 -2 -61 12 -30 15 -211 4 -261 l-7 -35 47 -1 c65 -1 743 -14 923
-18 80 -2 169 -4 198 -4 l52 -1 0 -95 c0 -69 -3 -95 -12 -96 -19 -2 -94 -6
-263 -14 -133 -6 -900 -7 -1124 -2 l-84 2 -1 -70 c-1 -40 -5 -69 -11 -68 -5 0
-46 4 -90 8 -44 4 -87 9 -95 11 -8 1 -28 3 -45 3 l-30 1 0 145 -1 145 26 1
c14 0 57 1 95 2 l70 2 -1 85 c-1 47 -4 165 -8 262 l-7 177 -87 178 -86 178 -2
220 c-2 267 0 245 -24 245 -23 0 -22 10 -21 -220 l0 -145 -42 87 -42 87 -42
-54 c-57 -73 -156 -153 -250 -200 -43 -22 -80 -41 -82 -42 -2 -1 -5 -23 -8
-50 -8 -91 -32 -156 -80 -221 -22 -29 -25 -45 -27 -120 -1 -77 -5 -94 -34
-150 -31 -62 -32 -64 -18 -105 15 -42 15 -165 1 -199 -6 -15 18 -16 282 -16
158 0 300 -1 315 -1 l27 -1 -1 -140 c0 -77 -3 -140 -7 -140 -7 0 -282 41 -398
59 -29 4 -53 6 -53 4 0 -11 153 -309 161 -314 6 -3 59 -12 117 -18 214 -23
198 -19 229 -59 15 -21 32 -42 38 -48 22 -24 201 -256 215 -280 18 -29 54 -40
165 -49 44 -4 94 -8 110 -10 17 -2 66 -6 110 -10 44 -3 99 -7 122 -9 23 -3 86
-7 140 -11 54 -3 117 -8 141 -10 310 -26 1208 -26 1517 -1 22 2 83 7 135 10
52 4 106 9 120 11 14 2 59 7 100 10 41 4 86 8 100 10 14 2 54 7 90 11 36 4 68
9 73 10 4 1 13 2 21 3 7 0 36 47 64 104 27 56 93 190 147 298 l97 196 61 17
c34 9 104 33 155 53 l92 36 0 103 c0 57 -4 104 -9 104 -5 0 -37 -9 -72 -19
-52 -16 -258 -69 -330 -85 -14 -3 -16 18 -16 189 l0 193 96 12 c53 6 110 13
126 16 17 2 56 7 89 11 l59 6 -7 116 c-3 64 -8 130 -11 146 -3 17 -8 46 -11
65 -10 63 -53 234 -84 336 -60 197 -90 264 -174 384 l-81 115 -1 113 c-1 69
-6 118 -13 125 -22 22 -34 -10 -34 -88 1 -41 0 -75 -1 -75 -1 0 -56 76 -121
170 l-119 170 -34 -65 c-59 -111 -193 -231 -299 -266 l-35 -11 8 -62 c22 -183
-16 -358 -103 -474 -21 -28 -23 -38 -15 -55 37 -74 64 -212 61 -306 -2 -62 0
-69 39 -126 57 -84 83 -157 89 -248 l6 -78 56 6 c31 3 67 8 81 10 14 2 50 6
80 10 30 3 73 8 95 11 22 3 51 7 65 9 14 2 53 6 87 10 l61 7 0 -196 0 -195
-55 -11 c-30 -7 -56 -10 -58 -8 -5 5 -13 98 -14 160 -1 33 -5 46 -13 43 -7 -2
-26 -6 -43 -9 -16 -3 -95 -16 -175 -30 -80 -13 -165 -27 -190 -30 -25 -3 -60
-8 -78 -11 -142 -20 -297 -37 -437 -49 -38 -3 -92 -8 -120 -11 -77 -8 -178
-15 -273 -20 l-87 -5 2 77 c0 43 1 86 2 95 1 18 50 18 719 4 82 -2 122 1 122
8 0 6 -9 58 -21 116 -11 58 -23 119 -26 135 -8 49 -102 425 -123 490 -10 33
-31 101 -45 150 -29 93 -140 420 -159 467 -11 25 -92 122 -375 445 -39 45 -77
92 -84 105 -8 17 -12 66 -10 154 2 146 -1 174 -22 174 -8 0 -17 -10 -20 -22z"/>
</g>
</svg>
