<?xml version="1.0" encoding="UTF-8" standalone="no"?>
<svg xmlns="http://www.w3.org/2000/svg" xmlns:xlink="http://www.w3.org/1999/xlink" fill="#000000"
    height="135.6" preserveAspectRatio="xMidYMid meet" version="1" viewBox="78.4 432.2 842.9 135.6"
    width="842.9" zoomAndPan="magnify">
    <g fill="#ffffff" id="change1_1">
        <path
            d="M 847.710938 492.914062 C 857.175781 498.640625 866.195312 504.863281 874.523438 511.410156 C 875.539062 512.210938 876.746094 512.597656 877.945312 512.597656 C 879.589844 512.597656 881.214844 511.871094 882.308594 510.480469 C 884.203125 508.070312 883.785156 504.585938 881.378906 502.691406 C 872.695312 495.867188 863.300781 489.386719 853.449219 483.425781 C 850.828125 481.839844 847.421875 482.679688 845.835938 485.300781 C 844.25 487.917969 845.089844 491.328125 847.710938 492.914062" />
        <path
            d="M 247.949219 552.601562 C 237.042969 554.289062 226.09375 555.488281 215.402344 556.175781 C 212.347656 556.371094 210.027344 559.007812 210.222656 562.0625 C 210.410156 564.996094 212.851562 567.253906 215.75 567.253906 C 215.871094 567.253906 215.988281 567.25 216.109375 567.242188 C 227.128906 566.535156 238.410156 565.296875 249.644531 563.5625 C 252.671875 563.09375 254.746094 560.261719 254.277344 557.234375 C 253.808594 554.210938 250.980469 552.132812 247.949219 552.601562" />
        <path
            d="M 373.703125 514.613281 C 362.855469 519.179688 352.816406 523.175781 343.007812 526.835938 C 340.136719 527.90625 338.679688 531.101562 339.75 533.96875 C 340.582031 536.199219 342.699219 537.578125 344.945312 537.578125 C 345.589844 537.578125 346.246094 537.464844 346.882812 537.226562 C 356.835938 533.511719 367.015625 529.460938 378.007812 524.835938 C 380.828125 523.648438 382.152344 520.394531 380.964844 517.574219 C 379.777344 514.75 376.527344 513.425781 373.703125 514.613281" />
        <path
            d="M 311.835938 537.539062 C 301.085938 540.886719 290.421875 543.824219 280.136719 546.269531 C 277.160156 546.976562 275.316406 549.964844 276.027344 552.945312 C 276.632812 555.492188 278.90625 557.207031 281.414062 557.207031 C 281.839844 557.207031 282.273438 557.160156 282.703125 557.054688 C 293.234375 554.550781 304.144531 551.546875 315.132812 548.125 C 318.054688 547.214844 319.6875 544.109375 318.777344 541.183594 C 317.867188 538.261719 314.761719 536.628906 311.835938 537.539062" />
        <path
            d="M 182.695312 556.71875 C 171.839844 556.375 160.867188 555.492188 150.089844 554.097656 C 147.050781 553.699219 144.269531 555.847656 143.878906 558.882812 C 143.484375 561.917969 145.628906 564.699219 148.664062 565.09375 C 159.800781 566.535156 171.132812 567.449219 182.347656 567.800781 C 182.40625 567.800781 182.46875 567.804688 182.527344 567.804688 C 185.507812 567.804688 187.96875 565.433594 188.0625 562.433594 C 188.160156 559.371094 185.757812 556.8125 182.695312 556.71875" />
        <path
            d="M 434.246094 487.460938 C 424.953125 491.765625 414.421875 496.644531 404.054688 501.328125 C 401.261719 502.589844 400.023438 505.871094 401.285156 508.664062 C 402.210938 510.714844 404.226562 511.925781 406.339844 511.925781 C 407.101562 511.925781 407.878906 511.769531 408.617188 511.433594 C 419.035156 506.726562 429.59375 501.835938 438.90625 497.523438 C 441.683594 496.234375 442.894531 492.941406 441.605469 490.160156 C 440.320312 487.382812 437.023438 486.175781 434.246094 487.460938" />
        <path
            d="M 117.867188 548.335938 C 107.390625 545.949219 96.769531 543.011719 86.296875 539.609375 C 83.382812 538.660156 80.257812 540.253906 79.3125 543.167969 C 78.363281 546.078125 79.957031 549.207031 82.871094 550.152344 C 93.65625 553.660156 104.605469 556.6875 115.402344 559.148438 C 115.820312 559.242188 116.234375 559.289062 116.640625 559.289062 C 119.171875 559.289062 121.457031 557.546875 122.042969 554.976562 C 122.722656 551.988281 120.855469 549.019531 117.867188 548.335938" />
        <path
            d="M 495.230469 460.230469 C 486.089844 463.988281 476.335938 468.21875 464.53125 473.546875 C 461.742188 474.804688 460.5 478.089844 461.761719 480.878906 C 462.6875 482.929688 464.703125 484.144531 466.816406 484.144531 C 467.578125 484.144531 468.355469 483.988281 469.09375 483.652344 C 480.78125 478.378906 490.425781 474.195312 499.449219 470.484375 C 502.28125 469.320312 503.632812 466.078125 502.46875 463.246094 C 501.300781 460.414062 498.0625 459.0625 495.230469 460.230469" />
        <path
            d="M 693.523438 434.117188 C 682.601562 433.121094 671.3125 432.476562 659.972656 432.199219 C 656.9375 432.15625 654.367188 434.542969 654.289062 437.605469 C 654.214844 440.664062 656.636719 443.207031 659.699219 443.28125 C 670.796875 443.554688 681.835938 444.1875 692.519531 445.160156 C 692.691406 445.175781 692.859375 445.183594 693.027344 445.183594 C 695.863281 445.183594 698.28125 443.019531 698.542969 440.140625 C 698.820312 437.09375 696.574219 434.394531 693.523438 434.117188" />
        <path
            d="M 821.21875 478.113281 C 823.308594 478.113281 825.3125 476.921875 826.25 474.902344 C 827.539062 472.125 826.335938 468.828125 823.558594 467.535156 C 813.535156 462.882812 802.996094 458.621094 792.230469 454.863281 C 789.339844 453.851562 786.179688 455.382812 785.167969 458.269531 C 784.160156 461.160156 785.6875 464.324219 788.578125 465.332031 C 798.996094 468.96875 809.195312 473.09375 818.886719 477.597656 C 819.640625 477.945312 820.4375 478.113281 821.21875 478.113281" />
        <path
            d="M 759.898438 445.214844 C 749.234375 442.539062 738.132812 440.238281 726.902344 438.378906 C 723.878906 437.871094 721.027344 439.917969 720.527344 442.941406 C 720.027344 445.960938 722.070312 448.816406 725.089844 449.316406 C 736.023438 451.128906 746.824219 453.367188 757.199219 455.972656 C 757.652344 456.085938 758.105469 456.140625 758.554688 456.140625 C 761.035156 456.140625 763.296875 454.460938 763.925781 451.941406 C 764.671875 448.972656 762.867188 445.960938 759.898438 445.214844" />
        <path
            d="M 626.386719 432.386719 C 615.445312 432.765625 604.175781 433.46875 592.886719 434.46875 C 589.835938 434.738281 587.582031 437.433594 587.855469 440.484375 C 588.109375 443.367188 590.527344 445.535156 593.371094 445.535156 C 593.535156 445.535156 593.699219 445.53125 593.867188 445.515625 C 604.960938 444.53125 616.03125 443.84375 626.773438 443.46875 C 629.832031 443.359375 632.226562 440.792969 632.121094 437.734375 C 632.011719 434.671875 629.480469 432.277344 626.386719 432.386719" />
        <path
            d="M 559.304688 439.25 C 549.003906 441.484375 538.34375 444.46875 526.703125 448.378906 C 523.800781 449.351562 522.238281 452.496094 523.214844 455.398438 C 523.992188 457.714844 526.152344 459.179688 528.46875 459.179688 C 529.054688 459.179688 529.648438 459.085938 530.234375 458.890625 C 541.480469 455.113281 551.757812 452.234375 561.652344 450.085938 C 564.644531 449.4375 566.546875 446.484375 565.894531 443.492188 C 565.246094 440.5 562.292969 438.601562 559.304688 439.25" />
        <path
            d="M 920.789062 546.183594 C 920.894531 545.765625 920.960938 545.332031 920.960938 544.882812 C 920.960938 543.703125 920.839844 542.996094 919.730469 541.328125 L 900.886719 454.9375 C 900.234375 451.945312 897.28125 450.042969 894.289062 450.703125 C 891.296875 451.355469 889.402344 454.308594 890.054688 457.300781 L 904.660156 524.269531 C 902.714844 523.484375 900.40625 523.832031 898.777344 525.367188 C 896.554688 527.472656 896.453125 530.980469 898.554688 533.207031 C 899.015625 533.691406 899.457031 534.167969 899.890625 534.636719 C 883.875 529.265625 856.429688 522.992188 813.304688 521.46875 C 810.230469 521.347656 807.675781 523.753906 807.566406 526.816406 C 807.460938 529.875 809.851562 532.441406 812.914062 532.550781 C 886.144531 535.132812 912.03125 551.875 912.257812 552.027344 C 913.203125 552.675781 914.296875 552.996094 915.394531 552.996094 C 916.472656 552.996094 917.550781 552.683594 918.488281 552.054688 C 920.375 550.785156 921.292969 548.492188 920.808594 546.269531 L 920.789062 546.183594" />
    </g>
</svg>