<svg xmlns="http://www.w3.org/2000/svg" xmlns:xlink="http://www.w3.org/1999/xlink" width="3467" zoomAndPan="magnify" viewBox="0 0 2600.25 1376.250003" height="1835" preserveAspectRatio="xMidYMid meet" version="1.0"><defs><g/><clipPath id="44b0fb2508"><path d="M 514.804688 960.257812 L 2394.832031 960.257812 L 2394.832031 1358.34375 L 514.804688 1358.34375 Z M 514.804688 960.257812 " clip-rule="nonzero"/></clipPath><clipPath id="cf15e58895"><path d="M 576.269531 960.257812 L 2333.171875 960.257812 C 2349.476562 960.257812 2365.109375 966.734375 2376.636719 978.261719 C 2388.164062 989.789062 2394.640625 1005.421875 2394.640625 1021.726562 L 2394.640625 1296.878906 C 2394.640625 1313.179688 2388.164062 1328.816406 2376.636719 1340.34375 C 2365.109375 1351.871094 2349.476562 1358.34375 2333.171875 1358.34375 L 576.269531 1358.34375 C 559.96875 1358.34375 544.335938 1351.871094 532.808594 1340.34375 C 521.28125 1328.816406 514.804688 1313.179688 514.804688 1296.878906 L 514.804688 1021.726562 C 514.804688 1005.421875 521.28125 989.789062 532.808594 978.261719 C 544.335938 966.734375 559.96875 960.257812 576.269531 960.257812 Z M 576.269531 960.257812 " clip-rule="nonzero"/></clipPath><clipPath id="3b999ec990"><path d="M 514.820312 960.257812 L 2394.765625 960.257812 L 2394.765625 1358.292969 L 514.820312 1358.292969 Z M 514.820312 960.257812 " clip-rule="nonzero"/></clipPath><clipPath id="5e2900c80a"><path d="M 576.285156 960.257812 L 2333.160156 960.257812 C 2349.460938 960.257812 2365.09375 966.734375 2376.621094 978.261719 C 2388.148438 989.789062 2394.625 1005.421875 2394.625 1021.722656 L 2394.625 1296.871094 C 2394.625 1313.175781 2388.148438 1328.808594 2376.621094 1340.335938 C 2365.09375 1351.863281 2349.460938 1358.339844 2333.160156 1358.339844 L 576.285156 1358.339844 C 559.984375 1358.339844 544.351562 1351.863281 532.824219 1340.335938 C 521.296875 1328.808594 514.820312 1313.175781 514.820312 1296.871094 L 514.820312 1021.722656 C 514.820312 1005.421875 521.296875 989.789062 532.824219 978.261719 C 544.351562 966.734375 559.984375 960.257812 576.285156 960.257812 Z M 576.285156 960.257812 " clip-rule="nonzero"/></clipPath><clipPath id="2e2217470c"><path d="M 100 0.210938 L 151 0.210938 L 151 51 L 100 51 Z M 100 0.210938 " clip-rule="nonzero"/></clipPath><clipPath id="6bbde08c6d"><path d="M 700 0.210938 L 951 0.210938 L 951 51 L 700 51 Z M 700 0.210938 " clip-rule="nonzero"/></clipPath><clipPath id="4a5bf38477"><path d="M 900 50 L 1000.289062 50 L 1000.289062 655 L 900 655 Z M 900 50 " clip-rule="nonzero"/></clipPath><clipPath id="5693af4a39"><path d="M 0.332031 1257 L 251 1257 L 251 1358.472656 L 0.332031 1358.472656 Z M 0.332031 1257 " clip-rule="nonzero"/></clipPath><clipPath id="a0c112c256"><path d="M 254 955.039062 L 295 955.039062 L 295 996 L 254 996 Z M 254 955.039062 " clip-rule="nonzero"/></clipPath><clipPath id="ed5c022df7"><path d="M 294 955.039062 L 335 955.039062 L 335 996 L 294 996 Z M 294 955.039062 " clip-rule="nonzero"/></clipPath><clipPath id="3ce37843e9"><path d="M 334 955.039062 L 376 955.039062 L 376 996 L 334 996 Z M 334 955.039062 " clip-rule="nonzero"/></clipPath><clipPath id="96a9a3d9da"><path d="M 375 955.039062 L 416 955.039062 L 416 996 L 375 996 Z M 375 955.039062 " clip-rule="nonzero"/></clipPath><clipPath id="7944014c1f"><path d="M 415 955.039062 L 456 955.039062 L 456 996 L 415 996 Z M 415 955.039062 " clip-rule="nonzero"/></clipPath><clipPath id="2f21e4e4c0"><path d="M 455 955.039062 L 497 955.039062 L 497 996 L 455 996 Z M 455 955.039062 " clip-rule="nonzero"/></clipPath><clipPath id="59ae2de55f"><path d="M 496 955.039062 L 537 955.039062 L 537 996 L 496 996 Z M 496 955.039062 " clip-rule="nonzero"/></clipPath><clipPath id="cd6595501c"><path d="M 536 955.039062 L 578 955.039062 L 578 996 L 536 996 Z M 536 955.039062 " clip-rule="nonzero"/></clipPath><clipPath id="8df504ea71"><path d="M 576 955.039062 L 618 955.039062 L 618 996 L 576 996 Z M 576 955.039062 " clip-rule="nonzero"/></clipPath><clipPath id="3c50c9271b"><path d="M 617 955.039062 L 658 955.039062 L 658 996 L 617 996 Z M 617 955.039062 " clip-rule="nonzero"/></clipPath><clipPath id="de223d8c45"><path d="M 657 955.039062 L 699 955.039062 L 699 996 L 657 996 Z M 657 955.039062 " clip-rule="nonzero"/></clipPath><clipPath id="340849be96"><path d="M 173 1317 L 214 1317 L 214 1358.320312 L 173 1358.320312 Z M 173 1317 " clip-rule="nonzero"/></clipPath><clipPath id="e0b7ae7bb6"><path d="M 213 1317 L 255 1317 L 255 1358.320312 L 213 1358.320312 Z M 213 1317 " clip-rule="nonzero"/></clipPath><clipPath id="b71b4ef7a5"><path d="M 254 1317 L 295 1317 L 295 1358.320312 L 254 1358.320312 Z M 254 1317 " clip-rule="nonzero"/></clipPath><clipPath id="0b614da113"><path d="M 294 1317 L 335 1317 L 335 1358.320312 L 294 1358.320312 Z M 294 1317 " clip-rule="nonzero"/></clipPath><clipPath id="07e7eb463e"><path d="M 334 1317 L 376 1317 L 376 1358.320312 L 334 1358.320312 Z M 334 1317 " clip-rule="nonzero"/></clipPath><clipPath id="7acd5499b0"><path d="M 375 1317 L 416 1317 L 416 1358.320312 L 375 1358.320312 Z M 375 1317 " clip-rule="nonzero"/></clipPath><clipPath id="744a0ef50d"><path d="M 416 1317 L 457 1317 L 457 1358.320312 L 416 1358.320312 Z M 416 1317 " clip-rule="nonzero"/></clipPath><clipPath id="5cebce7162"><path d="M 456 1317 L 497 1317 L 497 1358.320312 L 456 1358.320312 Z M 456 1317 " clip-rule="nonzero"/></clipPath><clipPath id="1af3460c6c"><path d="M 496 1317 L 537 1317 L 537 1358.320312 L 496 1358.320312 Z M 496 1317 " clip-rule="nonzero"/></clipPath><clipPath id="493d316a56"><path d="M 536 1317 L 578 1317 L 578 1358.320312 L 536 1358.320312 Z M 536 1317 " clip-rule="nonzero"/></clipPath><clipPath id="1abe28cb2a"><path d="M 577 1317 L 619 1317 L 619 1358.320312 L 577 1358.320312 Z M 577 1317 " clip-rule="nonzero"/></clipPath><clipPath id="746383c077"><path d="M 618 1317 L 659 1317 L 659 1358.320312 L 618 1358.320312 Z M 618 1317 " clip-rule="nonzero"/></clipPath><clipPath id="4318160a1d"><path d="M 658 1317 L 699 1317 L 699 1358.320312 L 658 1358.320312 Z M 658 1317 " clip-rule="nonzero"/></clipPath><clipPath id="c0cdecc68a"><path d="M 698 1317 L 740 1317 L 740 1358.320312 L 698 1358.320312 Z M 698 1317 " clip-rule="nonzero"/></clipPath><clipPath id="c598ea7931"><path d="M 739 1317 L 780 1317 L 780 1358.320312 L 739 1358.320312 Z M 739 1317 " clip-rule="nonzero"/></clipPath></defs><g clip-path="url(#44b0fb2508)"><g clip-path="url(#cf15e58895)"><path fill="#e99357" d="M 514.804688 960.257812 L 2394.832031 960.257812 L 2394.832031 1358.34375 L 514.804688 1358.34375 Z M 514.804688 960.257812 " fill-opacity="1" fill-rule="nonzero"/></g></g><g clip-path="url(#3b999ec990)"><g clip-path="url(#5e2900c80a)"><path stroke-linecap="butt" transform="matrix(0.749591, 0, 0, 0.749591, 514.820584, 960.258572)" fill="none" stroke-linejoin="miter" d="M 81.997428 -0.00101374 L 2425.774087 -0.00101374 C 2447.520307 -0.00101374 2468.375417 8.639109 2483.753585 24.017277 C 2499.131753 39.395446 2507.771876 60.250555 2507.771876 81.996776 L 2507.771876 449.0613 C 2507.771876 470.812731 2499.131753 491.667841 2483.753585 507.046009 C 2468.375417 522.424177 2447.520307 531.0643 2425.774087 531.0643 L 81.997428 531.0643 C 60.251207 531.0643 39.396098 522.424177 24.017929 507.046009 C 8.639761 491.667841 -0.000361728 470.812731 -0.000361728 449.0613 L -0.000361728 81.996776 C -0.000361728 60.250555 8.639761 39.395446 24.017929 24.017277 C 39.396098 8.639109 60.251207 -0.00101374 81.997428 -0.00101374 Z M 81.997428 -0.00101374 " stroke="#000000" stroke-width="84" stroke-opacity="1" stroke-miterlimit="4"/></g></g><g fill="#100f0d" fill-opacity="1"><g transform="translate(841.486119, 1227.51463)"><g><path d="M 21.769531 -0.71875 L 68.183594 -0.71875 L 68.183594 -15.652344 L 83.113281 -15.652344 L 83.113281 -62.066406 L 68.183594 -62.066406 L 68.183594 -75.019531 L 83.113281 -75.019531 L 83.113281 -121.433594 L 68.183594 -121.433594 L 68.183594 -136.1875 L 21.769531 -136.1875 L 21.769531 -121.433594 L 6.835938 -121.433594 L 6.835938 -89.769531 L 23.746094 -89.769531 L 23.746094 -119.453125 L 66.203125 -119.453125 L 66.203125 -76.996094 L 21.769531 -76.996094 L 21.769531 -60.085938 L 66.203125 -60.085938 L 66.203125 -17.628906 L 23.746094 -17.628906 L 23.746094 -47.3125 L 6.835938 -47.3125 L 6.835938 -15.652344 L 21.769531 -15.652344 Z M 21.769531 -0.71875 "/></g></g><g transform="translate(931.437101, 1227.51463)"><g><path d="M 29.863281 -0.71875 L 46.59375 -0.71875 L 46.59375 -32.5625 L 29.863281 -32.5625 Z M 29.863281 -0.71875 "/></g></g></g><g fill="#100f0d" fill-opacity="1"><g transform="translate(1021.388082, 1227.51463)"><g><path d="M 51.992188 -0.71875 L 66.742188 -0.71875 L 66.742188 14.03125 L 142.84375 14.03125 L 142.84375 -32.5625 L 126.109375 -32.5625 L 126.109375 -2.878906 L 68.722656 -2.878906 L 68.722656 -121.433594 L 51.992188 -121.433594 Z M 7.375 -15.652344 L 24.285156 -15.652344 L 24.285156 -45.335938 L 39.21875 -45.335938 L 39.21875 -91.75 L 22.308594 -91.75 L 22.308594 -47.3125 L 7.375 -47.3125 Z M 140.863281 -60.085938 L 155.613281 -60.085938 L 155.613281 -30.582031 L 172.527344 -30.582031 L 172.527344 -62.066406 L 157.59375 -62.066406 L 157.59375 -91.75 L 140.863281 -91.75 Z M 96.425781 -104.523438 L 113.160156 -104.523438 L 113.160156 -136.1875 L 98.40625 -136.1875 L 98.40625 -150.9375 L 81.675781 -150.9375 L 81.675781 -134.207031 L 96.425781 -134.207031 Z M 96.425781 -104.523438 "/></g></g></g><g fill="#100f0d" fill-opacity="1"><g transform="translate(1201.290045, 1227.51463)"><g><path d="M 51.992188 14.03125 L 172.527344 14.03125 L 172.527344 -2.878906 L 157.59375 -2.878906 L 157.59375 -17.628906 L 140.863281 -17.628906 L 140.863281 -2.878906 L 113.160156 -2.878906 L 113.160156 -30.582031 L 157.59375 -30.582031 L 157.59375 -47.3125 L 113.160156 -47.3125 L 113.160156 -60.085938 L 157.59375 -60.085938 L 157.59375 -150.9375 L 140.863281 -150.9375 L 140.863281 -136.1875 L 83.65625 -136.1875 L 83.65625 -150.9375 L 66.742188 -150.9375 L 66.742188 -60.085938 L 96.425781 -60.085938 L 96.425781 -47.3125 L 66.742188 -47.3125 L 66.742188 -30.582031 L 96.425781 -30.582031 L 96.425781 -2.878906 L 51.992188 -2.878906 Z M 7.375 -0.71875 L 39.21875 -0.71875 L 39.21875 -15.652344 L 53.96875 -15.652344 L 53.96875 -32.5625 L 39.21875 -32.5625 L 39.21875 -60.085938 L 53.96875 -60.085938 L 53.96875 -76.996094 L 39.21875 -76.996094 L 39.21875 -104.523438 L 53.96875 -104.523438 L 53.96875 -136.1875 L 37.238281 -136.1875 L 37.238281 -121.433594 L 7.375 -121.433594 L 7.375 -104.523438 L 22.308594 -104.523438 L 22.308594 -76.996094 L 7.375 -76.996094 L 7.375 -60.085938 L 22.308594 -60.085938 L 22.308594 -17.628906 L 7.375 -17.628906 Z M 113.160156 -76.996094 L 113.160156 -89.769531 L 140.863281 -89.769531 L 140.863281 -76.996094 Z M 113.160156 -106.503906 L 113.160156 -119.453125 L 140.863281 -119.453125 L 140.863281 -106.503906 Z M 83.65625 -76.996094 L 83.65625 -89.769531 L 96.425781 -89.769531 L 96.425781 -76.996094 Z M 83.65625 -106.503906 L 83.65625 -119.453125 L 96.425781 -119.453125 L 96.425781 -106.503906 Z M 83.65625 -106.503906 "/></g></g></g><g fill="#100f0d" fill-opacity="1"><g transform="translate(1381.192007, 1227.51463)"><g><path d="M 51.992188 14.03125 L 68.722656 14.03125 L 68.722656 -15.652344 L 83.65625 -15.652344 L 83.65625 -30.582031 L 113.160156 -30.582031 L 113.160156 -150.9375 L 96.425781 -150.9375 L 96.425781 -136.1875 L 68.722656 -136.1875 L 68.722656 -150.9375 L 51.992188 -150.9375 L 51.992188 -30.582031 L 66.742188 -30.582031 L 66.742188 -17.628906 L 51.992188 -17.628906 Z M 140.863281 14.03125 L 172.527344 14.03125 L 172.527344 -150.9375 L 155.613281 -150.9375 L 155.613281 -2.878906 L 140.863281 -2.878906 Z M 126.109375 -30.582031 L 142.84375 -30.582031 L 142.84375 -136.1875 L 126.109375 -136.1875 Z M 7.375 14.03125 L 24.285156 14.03125 L 24.285156 -15.652344 L 39.21875 -15.652344 L 39.21875 -47.3125 L 22.308594 -47.3125 L 22.308594 -17.628906 L 7.375 -17.628906 Z M 22.308594 -119.453125 L 39.21875 -119.453125 L 39.21875 -136.1875 L 24.285156 -136.1875 L 24.285156 -150.9375 L 7.375 -150.9375 L 7.375 -134.207031 L 22.308594 -134.207031 Z M 22.308594 -75.019531 L 39.21875 -75.019531 L 39.21875 -91.75 L 24.285156 -91.75 L 24.285156 -106.503906 L 7.375 -106.503906 L 7.375 -89.769531 L 22.308594 -89.769531 Z M 96.425781 14.03125 L 113.160156 14.03125 L 113.160156 -17.628906 L 96.425781 -17.628906 Z M 68.722656 -47.3125 L 68.722656 -60.085938 L 96.425781 -60.085938 L 96.425781 -47.3125 Z M 68.722656 -106.503906 L 68.722656 -119.453125 L 96.425781 -119.453125 L 96.425781 -106.503906 Z M 68.722656 -76.996094 L 68.722656 -89.769531 L 96.425781 -89.769531 L 96.425781 -76.996094 Z M 68.722656 -76.996094 "/></g></g></g><g fill="#100f0d" fill-opacity="1"><g transform="translate(1561.09397, 1227.51463)"><g><path d="M 37.238281 14.03125 L 68.722656 14.03125 L 68.722656 -62.066406 L 53.96875 -62.066406 L 53.96875 -89.769531 L 68.722656 -89.769531 L 68.722656 -106.503906 L 53.96875 -106.503906 L 53.96875 -119.453125 L 68.722656 -119.453125 L 68.722656 -150.9375 L 51.992188 -150.9375 L 51.992188 -136.1875 L 24.285156 -136.1875 L 24.285156 -150.9375 L 7.375 -150.9375 L 7.375 -45.335938 L 51.992188 -45.335938 L 51.992188 -32.5625 L 37.238281 -32.5625 L 37.238281 -15.652344 L 51.992188 -15.652344 L 51.992188 -2.878906 L 37.238281 -2.878906 Z M 81.675781 14.03125 L 98.40625 14.03125 L 98.40625 -0.71875 L 111.179688 -0.71875 L 111.179688 14.03125 L 142.84375 14.03125 L 142.84375 -0.71875 L 155.613281 -0.71875 L 155.613281 14.03125 L 172.527344 14.03125 L 172.527344 -2.878906 L 157.59375 -2.878906 L 157.59375 -30.582031 L 172.527344 -30.582031 L 172.527344 -76.996094 L 126.109375 -76.996094 L 126.109375 -62.066406 L 113.160156 -62.066406 L 113.160156 -76.996094 L 81.675781 -76.996094 L 81.675781 -30.582031 L 96.425781 -30.582031 L 96.425781 -2.878906 L 81.675781 -2.878906 Z M 81.675781 -89.769531 L 142.84375 -89.769531 L 142.84375 -104.523438 L 155.613281 -104.523438 L 155.613281 -89.769531 L 172.527344 -89.769531 L 172.527344 -106.503906 L 157.59375 -106.503906 L 157.59375 -121.433594 L 142.84375 -121.433594 L 142.84375 -136.1875 L 128.089844 -136.1875 L 128.089844 -150.9375 L 111.179688 -150.9375 L 111.179688 -121.433594 L 96.425781 -121.433594 L 96.425781 -106.503906 L 81.675781 -106.503906 Z M 113.160156 -2.878906 L 113.160156 -30.582031 L 140.863281 -30.582031 L 140.863281 -2.878906 Z M 7.375 -0.71875 L 24.285156 -0.71875 L 24.285156 -32.5625 L 7.375 -32.5625 Z M 24.285156 -62.066406 L 24.285156 -89.769531 L 37.238281 -89.769531 L 37.238281 -62.066406 Z M 113.160156 -106.503906 L 113.160156 -119.453125 L 140.863281 -119.453125 L 140.863281 -106.503906 Z M 24.285156 -106.503906 L 24.285156 -119.453125 L 37.238281 -119.453125 L 37.238281 -106.503906 Z M 98.40625 -47.3125 L 98.40625 -60.085938 L 111.179688 -60.085938 L 111.179688 -47.3125 Z M 142.84375 -47.3125 L 142.84375 -60.085938 L 155.613281 -60.085938 L 155.613281 -47.3125 Z M 142.84375 -47.3125 "/></g></g></g><g fill="#100f0d" fill-opacity="1"><g transform="translate(1740.995933, 1227.51463)"><g><path d="M 7.375 -15.652344 L 81.675781 -15.652344 L 81.675781 -2.878906 L 51.992188 -2.878906 L 51.992188 14.03125 L 98.40625 14.03125 L 98.40625 -15.652344 L 172.527344 -15.652344 L 172.527344 -32.5625 L 157.59375 -32.5625 L 157.59375 -47.3125 L 140.863281 -47.3125 L 140.863281 -32.5625 L 98.40625 -32.5625 L 98.40625 -60.085938 L 157.59375 -60.085938 L 157.59375 -76.996094 L 128.089844 -76.996094 L 128.089844 -89.769531 L 142.84375 -89.769531 L 142.84375 -104.523438 L 172.527344 -104.523438 L 172.527344 -121.433594 L 142.84375 -121.433594 L 142.84375 -136.1875 L 113.160156 -136.1875 L 113.160156 -150.9375 L 66.742188 -150.9375 L 66.742188 -136.1875 L 37.238281 -136.1875 L 37.238281 -121.433594 L 7.375 -121.433594 L 7.375 -104.523438 L 37.238281 -104.523438 L 37.238281 -75.019531 L 96.425781 -75.019531 L 96.425781 -62.066406 L 22.308594 -62.066406 L 22.308594 -45.335938 L 81.675781 -45.335938 L 81.675781 -32.5625 L 7.375 -32.5625 Z M 53.96875 -91.75 L 53.96875 -104.523438 L 126.109375 -104.523438 L 126.109375 -91.75 Z M 68.722656 -121.433594 L 68.722656 -134.207031 L 111.179688 -134.207031 L 111.179688 -121.433594 Z M 39.21875 -106.503906 L 39.21875 -119.453125 L 51.992188 -119.453125 L 51.992188 -106.503906 Z M 128.089844 -106.503906 L 128.089844 -119.453125 L 140.863281 -119.453125 L 140.863281 -106.503906 Z M 128.089844 -106.503906 "/></g></g></g><g fill="#100f0d" fill-opacity="1"><g transform="translate(1920.897895, 1227.51463)"><g><path d="M 7.375 -15.652344 L 24.285156 -15.652344 L 24.285156 -45.335938 L 37.238281 -45.335938 L 37.238281 14.03125 L 68.722656 14.03125 L 68.722656 -0.71875 L 83.65625 -0.71875 L 83.65625 -15.652344 L 96.425781 -15.652344 L 96.425781 14.03125 L 157.59375 14.03125 L 157.59375 -30.582031 L 172.527344 -30.582031 L 172.527344 -76.996094 L 155.613281 -76.996094 L 155.613281 -32.5625 L 140.863281 -32.5625 L 140.863281 -2.878906 L 113.160156 -2.878906 L 113.160156 -45.335938 L 128.089844 -45.335938 L 128.089844 -60.085938 L 142.84375 -60.085938 L 142.84375 -89.769531 L 157.59375 -89.769531 L 157.59375 -121.433594 L 142.84375 -121.433594 L 142.84375 -136.1875 L 128.089844 -136.1875 L 128.089844 -150.9375 L 111.179688 -150.9375 L 111.179688 -134.207031 L 126.109375 -134.207031 L 126.109375 -119.453125 L 140.863281 -119.453125 L 140.863281 -91.75 L 126.109375 -91.75 L 126.109375 -62.066406 L 113.160156 -62.066406 L 113.160156 -121.433594 L 96.425781 -121.433594 L 96.425781 -91.75 L 81.675781 -91.75 L 81.675781 -62.066406 L 68.722656 -62.066406 L 68.722656 -76.996094 L 53.96875 -76.996094 L 53.96875 -89.769531 L 68.722656 -89.769531 L 68.722656 -106.503906 L 53.96875 -106.503906 L 53.96875 -134.207031 L 68.722656 -134.207031 L 68.722656 -150.9375 L 37.238281 -150.9375 L 37.238281 -136.1875 L 7.375 -136.1875 L 7.375 -119.453125 L 37.238281 -119.453125 L 37.238281 -106.503906 L 7.375 -106.503906 L 7.375 -89.769531 L 37.238281 -89.769531 L 37.238281 -76.996094 L 22.308594 -76.996094 L 22.308594 -47.3125 L 7.375 -47.3125 Z M 53.96875 -2.878906 L 53.96875 -60.085938 L 66.742188 -60.085938 L 66.742188 -45.335938 L 83.65625 -45.335938 L 83.65625 -60.085938 L 96.425781 -60.085938 L 96.425781 -32.5625 L 81.675781 -32.5625 L 81.675781 -17.628906 L 66.742188 -17.628906 L 66.742188 -2.878906 Z M 53.96875 -2.878906 "/></g></g></g><g fill="#100f0d" fill-opacity="1"><g transform="translate(2100.799858, 1227.51463)"><g><path d="M 7.375 14.03125 L 53.96875 14.03125 L 53.96875 -0.71875 L 126.109375 -0.71875 L 126.109375 14.03125 L 172.527344 14.03125 L 172.527344 -2.878906 L 142.84375 -2.878906 L 142.84375 -60.085938 L 157.59375 -60.085938 L 157.59375 -91.75 L 142.84375 -91.75 L 142.84375 -104.523438 L 157.59375 -104.523438 L 157.59375 -119.453125 L 172.527344 -119.453125 L 172.527344 -136.1875 L 157.59375 -136.1875 L 157.59375 -150.9375 L 140.863281 -150.9375 L 140.863281 -136.1875 L 98.40625 -136.1875 L 98.40625 -150.9375 L 81.675781 -150.9375 L 81.675781 -136.1875 L 39.21875 -136.1875 L 39.21875 -150.9375 L 22.308594 -150.9375 L 22.308594 -136.1875 L 7.375 -136.1875 L 7.375 -104.523438 L 22.308594 -104.523438 L 22.308594 -89.769531 L 37.238281 -89.769531 L 37.238281 -76.996094 L 22.308594 -76.996094 L 22.308594 -60.085938 L 37.238281 -60.085938 L 37.238281 -2.878906 L 7.375 -2.878906 Z M 53.96875 -47.3125 L 53.96875 -60.085938 L 126.109375 -60.085938 L 126.109375 -47.3125 Z M 53.96875 -17.628906 L 53.96875 -30.582031 L 126.109375 -30.582031 L 126.109375 -17.628906 Z M 53.96875 -106.503906 L 53.96875 -119.453125 L 81.675781 -119.453125 L 81.675781 -106.503906 Z M 53.96875 -76.996094 L 53.96875 -89.769531 L 81.675781 -89.769531 L 81.675781 -76.996094 Z M 128.089844 -76.996094 L 128.089844 -89.769531 L 140.863281 -89.769531 L 140.863281 -76.996094 Z M 24.285156 -106.503906 L 24.285156 -119.453125 L 37.238281 -119.453125 L 37.238281 -106.503906 Z M 83.65625 -91.75 L 83.65625 -104.523438 L 96.425781 -104.523438 L 96.425781 -91.75 Z M 98.40625 -76.996094 L 98.40625 -89.769531 L 111.179688 -89.769531 L 111.179688 -76.996094 Z M 98.40625 -106.503906 L 98.40625 -119.453125 L 111.179688 -119.453125 L 111.179688 -106.503906 Z M 128.089844 -106.503906 L 128.089844 -119.453125 L 140.863281 -119.453125 L 140.863281 -106.503906 Z M 128.089844 -106.503906 "/></g></g></g><path fill="#d21e25" d="M 200.375 151.21875 L 200.375 654.1875 L 250.363281 654.1875 L 250.363281 704.492188 L 400.335938 704.492188 L 400.335938 654.1875 L 550.292969 654.1875 L 550.292969 603.898438 L 700.28125 603.898438 L 700.28125 553.59375 L 900.226562 553.59375 L 900.226562 603.898438 L 950.21875 603.898438 L 950.21875 50.609375 L 700.28125 50.609375 L 700.28125 100.914062 L 600.296875 100.914062 L 600.296875 151.21875 L 450.328125 151.21875 L 450.328125 201.507812 L 250.363281 201.507812 L 250.363281 151.21875 L 200.375 151.21875 " fill-opacity="1" fill-rule="nonzero"/><g clip-path="url(#2e2217470c)"><path fill="#100f0d" d="M 150.382812 0.304688 L 100.390625 0.304688 L 100.390625 50.609375 L 150.382812 50.609375 L 150.382812 0.304688 " fill-opacity="1" fill-rule="nonzero"/></g><path fill="#100f0d" d="M 300.355469 201.507812 L 450.328125 201.507812 L 450.328125 151.21875 L 250.363281 151.21875 L 250.363281 201.507812 L 300.355469 201.507812 " fill-opacity="1" fill-rule="nonzero"/><path fill="#100f0d" d="M 550.292969 151.21875 L 600.296875 151.21875 L 600.296875 100.914062 L 450.328125 100.914062 L 450.328125 151.21875 L 550.292969 151.21875 " fill-opacity="1" fill-rule="nonzero"/><path fill="#100f0d" d="M 700.28125 100.914062 L 700.28125 50.609375 L 600.296875 50.609375 L 600.296875 100.914062 L 700.28125 100.914062 " fill-opacity="1" fill-rule="nonzero"/><g clip-path="url(#6bbde08c6d)"><path fill="#100f0d" d="M 800.246094 50.609375 L 950.21875 50.609375 L 950.21875 0.304688 L 700.28125 0.304688 L 700.28125 50.609375 L 800.246094 50.609375 " fill-opacity="1" fill-rule="nonzero"/></g><g clip-path="url(#4a5bf38477)"><path fill="#100f0d" d="M 950.21875 50.609375 L 950.21875 603.898438 L 900.226562 603.898438 L 900.226562 654.1875 L 1000.207031 654.1875 L 1000.207031 50.609375 L 950.21875 50.609375 " fill-opacity="1" fill-rule="nonzero"/></g><path fill="#100f0d" d="M 850.234375 553.59375 L 700.28125 553.59375 L 700.28125 603.898438 L 900.226562 603.898438 L 900.226562 553.59375 L 850.234375 553.59375 " fill-opacity="1" fill-rule="nonzero"/><path fill="#100f0d" d="M 600.296875 603.898438 L 550.292969 603.898438 L 550.292969 654.1875 L 700.28125 654.1875 L 700.28125 603.898438 L 600.296875 603.898438 " fill-opacity="1" fill-rule="nonzero"/><path fill="#100f0d" d="M 450.328125 654.1875 L 400.335938 654.1875 L 400.335938 704.492188 L 550.292969 704.492188 L 550.292969 654.1875 L 450.328125 654.1875 " fill-opacity="1" fill-rule="nonzero"/><path fill="#100f0d" d="M 300.355469 704.492188 L 250.363281 704.492188 L 250.363281 754.796875 L 400.335938 754.796875 L 400.335938 704.492188 L 300.355469 704.492188 " fill-opacity="1" fill-rule="nonzero"/><path fill="#100f0d" d="M 200.375 654.1875 L 200.375 151.21875 L 250.363281 151.21875 L 250.363281 100.914062 L 200.375 100.914062 L 200.375 50.609375 L 150.382812 50.609375 L 150.382812 1257.765625 L 200.375 1257.765625 L 200.375 704.492188 L 250.363281 704.492188 L 250.363281 654.1875 L 200.375 654.1875 " fill-opacity="1" fill-rule="nonzero"/><g clip-path="url(#5693af4a39)"><path fill="#100f0d" d="M 150.382812 1308.070312 L 50.402344 1308.070312 L 50.402344 1257.765625 L 0.410156 1257.765625 L 0.410156 1358.375 L 250.363281 1358.375 L 250.363281 1257.765625 L 200.375 1257.765625 L 200.375 1308.070312 L 150.382812 1308.070312 " fill-opacity="1" fill-rule="nonzero"/></g><path fill="#100f0d" d="M 100.390625 1207.476562 L 100.390625 50.609375 L 50.402344 50.609375 L 50.402344 1257.765625 L 100.390625 1257.765625 L 100.390625 1207.476562 " fill-opacity="1" fill-rule="nonzero"/><path fill="#571615" d="M 150.382812 1257.765625 L 150.382812 50.609375 L 100.390625 50.609375 L 100.390625 1257.765625 L 50.402344 1257.765625 L 50.402344 1308.070312 L 200.375 1308.070312 L 200.375 1257.765625 L 150.382812 1257.765625 " fill-opacity="1" fill-rule="nonzero"/><path fill="#281412" d="M 150.382812 50.609375 L 100.390625 50.609375 L 100.390625 100.914062 L 150.382812 100.914062 L 150.382812 50.609375 " fill-opacity="1" fill-rule="nonzero"/><path fill="#281412" d="M 150.382812 654.1875 L 100.390625 654.1875 L 100.390625 704.492188 L 150.382812 704.492188 L 150.382812 654.1875 " fill-opacity="1" fill-rule="nonzero"/><path fill="#5f1316" d="M 250.363281 151.21875 L 200.375 151.21875 L 200.375 201.507812 L 250.363281 201.507812 L 250.363281 151.21875 " fill-opacity="1" fill-rule="nonzero"/><path fill="#5f1316" d="M 250.363281 603.898438 L 200.375 603.898438 L 200.375 654.1875 L 250.363281 654.1875 L 250.363281 603.898438 " fill-opacity="1" fill-rule="nonzero"/><path fill="#5f1316" d="M 400.335938 654.1875 L 250.363281 654.1875 L 250.363281 704.492188 L 400.335938 704.492188 L 400.335938 654.1875 " fill-opacity="1" fill-rule="nonzero"/><path fill="#5f1316" d="M 550.292969 603.898438 L 400.335938 603.898438 L 400.335938 654.1875 L 550.292969 654.1875 L 550.292969 603.898438 " fill-opacity="1" fill-rule="nonzero"/><path fill="#5f1316" d="M 700.28125 553.59375 L 550.292969 553.59375 L 550.292969 603.898438 L 700.28125 603.898438 L 700.28125 553.59375 " fill-opacity="1" fill-rule="nonzero"/><path fill="#5f1316" d="M 900.226562 503.304688 L 700.28125 503.304688 L 700.28125 553.59375 L 900.226562 553.59375 L 900.226562 503.304688 " fill-opacity="1" fill-rule="nonzero"/><path fill="#5f1316" d="M 950.21875 151.21875 L 900.226562 151.21875 L 900.226562 603.898438 L 950.21875 603.898438 L 950.21875 151.21875 " fill-opacity="1" fill-rule="nonzero"/><path fill="#5f1316" d="M 950.21875 50.609375 L 700.28125 50.609375 L 700.28125 100.914062 L 950.21875 100.914062 L 950.21875 50.609375 " fill-opacity="1" fill-rule="nonzero"/><path fill="#5f1316" d="M 700.28125 100.914062 L 600.296875 100.914062 L 600.296875 151.21875 L 700.28125 151.21875 L 700.28125 100.914062 " fill-opacity="1" fill-rule="nonzero"/><path fill="#5f1316" d="M 250.363281 201.507812 L 200.375 201.507812 L 200.375 251.796875 L 250.363281 251.796875 L 250.363281 201.507812 " fill-opacity="1" fill-rule="nonzero"/><path fill="#5f1316" d="M 600.296875 151.21875 L 450.328125 151.21875 L 450.328125 201.507812 L 600.296875 201.507812 L 600.296875 151.21875 " fill-opacity="1" fill-rule="nonzero"/><path fill="#5f1316" d="M 450.328125 201.507812 L 250.363281 201.507812 L 250.363281 251.796875 L 450.328125 251.796875 L 450.328125 201.507812 " fill-opacity="1" fill-rule="nonzero"/><path fill="#5f1316" d="M 950.21875 100.914062 L 700.28125 100.914062 L 700.28125 151.21875 L 950.21875 151.21875 L 950.21875 100.914062 " fill-opacity="1" fill-rule="nonzero"/><path fill="#5f1316" d="M 700.28125 151.21875 L 600.296875 151.21875 L 600.296875 201.507812 L 700.28125 201.507812 L 700.28125 151.21875 " fill-opacity="1" fill-rule="nonzero"/><path fill="#5f1316" d="M 250.363281 251.796875 L 200.375 251.796875 L 200.375 302.101562 L 250.363281 302.101562 L 250.363281 251.796875 " fill-opacity="1" fill-rule="nonzero"/><path fill="#5f1316" d="M 600.296875 201.507812 L 450.328125 201.507812 L 450.328125 251.796875 L 600.296875 251.796875 L 600.296875 201.507812 " fill-opacity="1" fill-rule="nonzero"/><path fill="#5f1316" d="M 450.328125 251.796875 L 250.363281 251.796875 L 250.363281 302.101562 L 450.328125 302.101562 L 450.328125 251.796875 " fill-opacity="1" fill-rule="nonzero"/><path fill="#281412" d="M 200.375 1257.765625 L 50.402344 1257.765625 L 50.402344 1308.070312 L 200.375 1308.070312 L 200.375 1257.765625 " fill-opacity="1" fill-rule="nonzero"/><path fill="#fbc308" d="M 173.476562 1035.675781 L 213.8125 1035.675781 L 213.8125 1076 L 173.476562 1076 L 173.476562 1035.675781 " fill-opacity="1" fill-rule="nonzero"/><path fill="#8d391c" d="M 213.8125 995.34375 L 254.171875 995.34375 L 254.171875 1035.675781 L 213.8125 1035.675781 L 213.8125 995.34375 " fill-opacity="1" fill-rule="nonzero"/><g clip-path="url(#a0c112c256)"><path fill="#5a2310" d="M 254.171875 955.023438 L 294.519531 955.023438 L 294.519531 995.34375 L 254.171875 995.34375 L 254.171875 955.023438 " fill-opacity="1" fill-rule="nonzero"/></g><g clip-path="url(#ed5c022df7)"><path fill="#bf4b25" d="M 294.585938 955.023438 L 334.941406 955.023438 L 334.941406 995.34375 L 294.585938 995.34375 L 294.585938 955.023438 " fill-opacity="1" fill-rule="nonzero"/></g><g clip-path="url(#3ce37843e9)"><path fill="#5a2310" d="M 334.863281 955.023438 L 375.21875 955.023438 L 375.21875 995.34375 L 334.863281 995.34375 L 334.863281 955.023438 " fill-opacity="1" fill-rule="nonzero"/></g><g clip-path="url(#96a9a3d9da)"><path fill="#5a2310" d="M 375.292969 955.023438 L 415.628906 955.023438 L 415.628906 995.34375 L 375.292969 995.34375 L 375.292969 955.023438 " fill-opacity="1" fill-rule="nonzero"/></g><g clip-path="url(#7944014c1f)"><path fill="#5a2310" d="M 415.5625 955.023438 L 455.917969 955.023438 L 455.917969 995.34375 L 415.5625 995.34375 L 415.5625 955.023438 " fill-opacity="1" fill-rule="nonzero"/></g><g clip-path="url(#2f21e4e4c0)"><path fill="#5a2310" d="M 455.984375 955.023438 L 496.335938 955.023438 L 496.335938 995.34375 L 455.984375 995.34375 L 455.984375 955.023438 " fill-opacity="1" fill-rule="nonzero"/></g><g clip-path="url(#59ae2de55f)"><path fill="#5a2310" d="M 496.269531 955.023438 L 536.613281 955.023438 L 536.613281 995.34375 L 496.269531 995.34375 L 496.269531 955.023438 " fill-opacity="1" fill-rule="nonzero"/></g><g clip-path="url(#cd6595501c)"><path fill="#5a2310" d="M 536.683594 955.023438 L 577.027344 955.023438 L 577.027344 995.34375 L 536.683594 995.34375 L 536.683594 955.023438 " fill-opacity="1" fill-rule="nonzero"/></g><g clip-path="url(#8df504ea71)"><path fill="#5a2310" d="M 576.960938 955.023438 L 617.3125 955.023438 L 617.3125 995.34375 L 576.960938 995.34375 L 576.960938 955.023438 " fill-opacity="1" fill-rule="nonzero"/></g><g clip-path="url(#3c50c9271b)"><path fill="#5a2310" d="M 617.386719 955.023438 L 657.734375 955.023438 L 657.734375 995.34375 L 617.386719 995.34375 L 617.386719 955.023438 " fill-opacity="1" fill-rule="nonzero"/></g><g clip-path="url(#de223d8c45)"><path fill="#5a2310" d="M 657.703125 995.34375 L 698.054688 995.34375 L 698.054688 955.023438 L 657.703125 955.023438 L 657.703125 995.34375 " fill-opacity="1" fill-rule="nonzero"/></g><path fill="#8d391c" d="M 254.171875 1035.675781 L 294.519531 1035.675781 L 294.519531 1076 L 254.171875 1076 L 254.171875 1035.675781 " fill-opacity="1" fill-rule="nonzero"/><path fill="#bf4b25" d="M 213.8125 1035.675781 L 254.171875 1035.675781 L 254.171875 1076 L 213.8125 1076 L 213.8125 1035.675781 " fill-opacity="1" fill-rule="nonzero"/><path fill="#8d391c" d="M 294.585938 1035.675781 L 334.941406 1035.675781 L 334.941406 1076 L 294.585938 1076 L 294.585938 1035.675781 " fill-opacity="1" fill-rule="nonzero"/><path fill="#8d391c" d="M 334.863281 1035.675781 L 375.21875 1035.675781 L 375.21875 1076 L 334.863281 1076 L 334.863281 1035.675781 " fill-opacity="1" fill-rule="nonzero"/><path fill="#8d391c" d="M 375.292969 1035.675781 L 415.628906 1035.675781 L 415.628906 1076 L 375.292969 1076 L 375.292969 1035.675781 " fill-opacity="1" fill-rule="nonzero"/><path fill="#8d391c" d="M 415.5625 1035.675781 L 455.917969 1035.675781 L 455.917969 1076 L 415.5625 1076 L 415.5625 1035.675781 " fill-opacity="1" fill-rule="nonzero"/><path fill="#8d391c" d="M 455.984375 1035.675781 L 496.335938 1035.675781 L 496.335938 1076 L 455.984375 1076 L 455.984375 1035.675781 " fill-opacity="1" fill-rule="nonzero"/><path fill="#8d391c" d="M 496.269531 1035.675781 L 536.613281 1035.675781 L 536.613281 1076 L 496.269531 1076 L 496.269531 1035.675781 " fill-opacity="1" fill-rule="nonzero"/><path fill="#8d391c" d="M 536.683594 1035.675781 L 577.027344 1035.675781 L 577.027344 1076 L 536.683594 1076 L 536.683594 1035.675781 " fill-opacity="1" fill-rule="nonzero"/><path fill="#8d391c" d="M 576.960938 1035.675781 L 617.3125 1035.675781 L 617.3125 1076 L 576.960938 1076 L 576.960938 1035.675781 " fill-opacity="1" fill-rule="nonzero"/><path fill="#8d391c" d="M 617.386719 1035.675781 L 657.734375 1035.675781 L 657.734375 1076 L 617.386719 1076 L 617.386719 1035.675781 " fill-opacity="1" fill-rule="nonzero"/><path fill="#8d391c" d="M 657.703125 1076 L 698.054688 1076 L 698.054688 1035.675781 L 657.703125 1035.675781 L 657.703125 1076 " fill-opacity="1" fill-rule="nonzero"/><path fill="#8d391c" d="M 698.054688 1076 L 738.410156 1076 L 738.410156 1035.675781 L 698.054688 1035.675781 L 698.054688 1076 " fill-opacity="1" fill-rule="nonzero"/><path fill="#8d391c" d="M 254.171875 1075.722656 L 294.519531 1075.722656 L 294.519531 1116.042969 L 254.171875 1116.042969 L 254.171875 1075.722656 " fill-opacity="1" fill-rule="nonzero"/><path fill="#8d391c" d="M 213.8125 1075.722656 L 254.171875 1075.722656 L 254.171875 1116.042969 L 213.8125 1116.042969 L 213.8125 1075.722656 " fill-opacity="1" fill-rule="nonzero"/><path fill="#8d391c" d="M 294.585938 1075.722656 L 334.941406 1075.722656 L 334.941406 1116.042969 L 294.585938 1116.042969 L 294.585938 1075.722656 " fill-opacity="1" fill-rule="nonzero"/><path fill="#8d391c" d="M 334.863281 1075.722656 L 375.21875 1075.722656 L 375.21875 1116.042969 L 334.863281 1116.042969 L 334.863281 1075.722656 " fill-opacity="1" fill-rule="nonzero"/><path fill="#fff647" d="M 375.292969 1075.722656 L 415.628906 1075.722656 L 415.628906 1116.042969 L 375.292969 1116.042969 L 375.292969 1075.722656 " fill-opacity="1" fill-rule="nonzero"/><path fill="#fbc308" d="M 415.5625 1075.722656 L 455.917969 1075.722656 L 455.917969 1116.042969 L 415.5625 1116.042969 L 415.5625 1075.722656 " fill-opacity="1" fill-rule="nonzero"/><path fill="#fbc308" d="M 455.984375 1075.722656 L 496.335938 1075.722656 L 496.335938 1116.042969 L 455.984375 1116.042969 L 455.984375 1075.722656 " fill-opacity="1" fill-rule="nonzero"/><path fill="#fbc308" d="M 496.269531 1075.722656 L 536.613281 1075.722656 L 536.613281 1116.042969 L 496.269531 1116.042969 L 496.269531 1075.722656 " fill-opacity="1" fill-rule="nonzero"/><path fill="#fbc308" d="M 536.683594 1075.722656 L 577.027344 1075.722656 L 577.027344 1116.042969 L 536.683594 1116.042969 L 536.683594 1075.722656 " fill-opacity="1" fill-rule="nonzero"/><path fill="#8d391c" d="M 576.960938 1075.722656 L 617.3125 1075.722656 L 617.3125 1116.042969 L 576.960938 1116.042969 L 576.960938 1075.722656 " fill-opacity="1" fill-rule="nonzero"/><path fill="#8d391c" d="M 617.386719 1075.722656 L 657.734375 1075.722656 L 657.734375 1116.042969 L 617.386719 1116.042969 L 617.386719 1075.722656 " fill-opacity="1" fill-rule="nonzero"/><path fill="#8d391c" d="M 657.703125 1116.042969 L 698.054688 1116.042969 L 698.054688 1075.722656 L 657.703125 1075.722656 L 657.703125 1116.042969 " fill-opacity="1" fill-rule="nonzero"/><path fill="#8d391c" d="M 698.054688 1116.042969 L 738.410156 1116.042969 L 738.410156 1075.722656 L 698.054688 1075.722656 L 698.054688 1116.042969 " fill-opacity="1" fill-rule="nonzero"/><path fill="#5a2310" d="M 254.171875 1156.792969 L 294.519531 1156.792969 L 294.519531 1197.117188 L 254.171875 1197.117188 L 254.171875 1156.792969 " fill-opacity="1" fill-rule="nonzero"/><path fill="#5a2310" d="M 213.8125 1156.792969 L 254.171875 1156.792969 L 254.171875 1197.117188 L 213.8125 1197.117188 L 213.8125 1156.792969 " fill-opacity="1" fill-rule="nonzero"/><path fill="#5a2310" d="M 294.585938 1156.792969 L 334.941406 1156.792969 L 334.941406 1197.117188 L 294.585938 1197.117188 L 294.585938 1156.792969 " fill-opacity="1" fill-rule="nonzero"/><path fill="#5a2310" d="M 334.863281 1156.792969 L 375.21875 1156.792969 L 375.21875 1197.117188 L 334.863281 1197.117188 L 334.863281 1156.792969 " fill-opacity="1" fill-rule="nonzero"/><path fill="#fbc308" d="M 375.292969 1156.792969 L 415.628906 1156.792969 L 415.628906 1197.117188 L 375.292969 1197.117188 L 375.292969 1156.792969 " fill-opacity="1" fill-rule="nonzero"/><path fill="#fbc308" d="M 415.5625 1156.792969 L 455.917969 1156.792969 L 455.917969 1197.117188 L 415.5625 1197.117188 L 415.5625 1156.792969 " fill-opacity="1" fill-rule="nonzero"/><path fill="#fbc308" d="M 455.984375 1156.792969 L 496.335938 1156.792969 L 496.335938 1197.117188 L 455.984375 1197.117188 L 455.984375 1156.792969 " fill-opacity="1" fill-rule="nonzero"/><path fill="#fbc308" d="M 496.269531 1156.792969 L 536.613281 1156.792969 L 536.613281 1197.117188 L 496.269531 1197.117188 L 496.269531 1156.792969 " fill-opacity="1" fill-rule="nonzero"/><path fill="#fbc308" d="M 536.683594 1156.792969 L 577.027344 1156.792969 L 577.027344 1197.117188 L 536.683594 1197.117188 L 536.683594 1156.792969 " fill-opacity="1" fill-rule="nonzero"/><path fill="#5a2310" d="M 576.960938 1156.792969 L 617.3125 1156.792969 L 617.3125 1197.117188 L 576.960938 1197.117188 L 576.960938 1156.792969 " fill-opacity="1" fill-rule="nonzero"/><path fill="#5a2310" d="M 617.386719 1156.792969 L 657.734375 1156.792969 L 657.734375 1197.117188 L 617.386719 1197.117188 L 617.386719 1156.792969 " fill-opacity="1" fill-rule="nonzero"/><path fill="#5a2310" d="M 657.703125 1197.117188 L 698.054688 1197.117188 L 698.054688 1156.792969 L 657.703125 1156.792969 L 657.703125 1197.117188 " fill-opacity="1" fill-rule="nonzero"/><path fill="#5a2310" d="M 698.054688 1197.117188 L 738.410156 1197.117188 L 738.410156 1156.792969 L 698.054688 1156.792969 L 698.054688 1197.117188 " fill-opacity="1" fill-rule="nonzero"/><path fill="#8d391c" d="M 254.171875 1196.980469 L 294.519531 1196.980469 L 294.519531 1237.304688 L 254.171875 1237.304688 L 254.171875 1196.980469 " fill-opacity="1" fill-rule="nonzero"/><path fill="#8d391c" d="M 213.8125 1196.980469 L 254.171875 1196.980469 L 254.171875 1237.304688 L 213.8125 1237.304688 L 213.8125 1196.980469 " fill-opacity="1" fill-rule="nonzero"/><path fill="#8d391c" d="M 294.585938 1196.980469 L 334.941406 1196.980469 L 334.941406 1237.304688 L 294.585938 1237.304688 L 294.585938 1196.980469 " fill-opacity="1" fill-rule="nonzero"/><path fill="#8d391c" d="M 334.863281 1196.980469 L 375.21875 1196.980469 L 375.21875 1237.304688 L 334.863281 1237.304688 L 334.863281 1196.980469 " fill-opacity="1" fill-rule="nonzero"/><path fill="#8d391c" d="M 375.292969 1196.980469 L 415.628906 1196.980469 L 415.628906 1237.304688 L 375.292969 1237.304688 L 375.292969 1196.980469 " fill-opacity="1" fill-rule="nonzero"/><path fill="#8d391c" d="M 415.5625 1196.980469 L 455.917969 1196.980469 L 455.917969 1237.304688 L 415.5625 1237.304688 L 415.5625 1196.980469 " fill-opacity="1" fill-rule="nonzero"/><path fill="#8d391c" d="M 455.984375 1196.980469 L 496.335938 1196.980469 L 496.335938 1237.304688 L 455.984375 1237.304688 L 455.984375 1196.980469 " fill-opacity="1" fill-rule="nonzero"/><path fill="#8d391c" d="M 496.269531 1196.980469 L 536.613281 1196.980469 L 536.613281 1237.304688 L 496.269531 1237.304688 L 496.269531 1196.980469 " fill-opacity="1" fill-rule="nonzero"/><path fill="#8d391c" d="M 536.683594 1196.980469 L 577.027344 1196.980469 L 577.027344 1237.304688 L 536.683594 1237.304688 L 536.683594 1196.980469 " fill-opacity="1" fill-rule="nonzero"/><path fill="#8d391c" d="M 576.960938 1196.980469 L 617.3125 1196.980469 L 617.3125 1237.304688 L 576.960938 1237.304688 L 576.960938 1196.980469 " fill-opacity="1" fill-rule="nonzero"/><path fill="#8d391c" d="M 617.386719 1196.980469 L 657.734375 1196.980469 L 657.734375 1237.304688 L 617.386719 1237.304688 L 617.386719 1196.980469 " fill-opacity="1" fill-rule="nonzero"/><path fill="#8d391c" d="M 657.703125 1237.304688 L 698.054688 1237.304688 L 698.054688 1196.980469 L 657.703125 1196.980469 L 657.703125 1237.304688 " fill-opacity="1" fill-rule="nonzero"/><path fill="#8d391c" d="M 698.054688 1237.304688 L 738.410156 1237.304688 L 738.410156 1196.980469 L 698.054688 1196.980469 L 698.054688 1237.304688 " fill-opacity="1" fill-rule="nonzero"/><path fill="#8d391c" d="M 254.171875 1237.164062 L 294.519531 1237.164062 L 294.519531 1277.492188 L 254.171875 1277.492188 L 254.171875 1237.164062 " fill-opacity="1" fill-rule="nonzero"/><path fill="#8d391c" d="M 213.8125 1237.164062 L 254.171875 1237.164062 L 254.171875 1277.492188 L 213.8125 1277.492188 L 213.8125 1237.164062 " fill-opacity="1" fill-rule="nonzero"/><path fill="#8d391c" d="M 294.585938 1237.164062 L 334.941406 1237.164062 L 334.941406 1277.492188 L 294.585938 1277.492188 L 294.585938 1237.164062 " fill-opacity="1" fill-rule="nonzero"/><path fill="#8d391c" d="M 334.863281 1237.164062 L 375.21875 1237.164062 L 375.21875 1277.492188 L 334.863281 1277.492188 L 334.863281 1237.164062 " fill-opacity="1" fill-rule="nonzero"/><path fill="#8d391c" d="M 375.292969 1237.164062 L 415.628906 1237.164062 L 415.628906 1277.492188 L 375.292969 1277.492188 L 375.292969 1237.164062 " fill-opacity="1" fill-rule="nonzero"/><path fill="#8d391c" d="M 415.5625 1237.164062 L 455.917969 1237.164062 L 455.917969 1277.492188 L 415.5625 1277.492188 L 415.5625 1237.164062 " fill-opacity="1" fill-rule="nonzero"/><path fill="#8d391c" d="M 455.984375 1237.164062 L 496.335938 1237.164062 L 496.335938 1277.492188 L 455.984375 1277.492188 L 455.984375 1237.164062 " fill-opacity="1" fill-rule="nonzero"/><path fill="#8d391c" d="M 496.269531 1237.164062 L 536.613281 1237.164062 L 536.613281 1277.492188 L 496.269531 1277.492188 L 496.269531 1237.164062 " fill-opacity="1" fill-rule="nonzero"/><path fill="#8d391c" d="M 536.683594 1237.164062 L 577.027344 1237.164062 L 577.027344 1277.492188 L 536.683594 1277.492188 L 536.683594 1237.164062 " fill-opacity="1" fill-rule="nonzero"/><path fill="#8d391c" d="M 576.960938 1237.164062 L 617.3125 1237.164062 L 617.3125 1277.492188 L 576.960938 1277.492188 L 576.960938 1237.164062 " fill-opacity="1" fill-rule="nonzero"/><path fill="#8d391c" d="M 617.386719 1237.164062 L 657.734375 1237.164062 L 657.734375 1277.492188 L 617.386719 1277.492188 L 617.386719 1237.164062 " fill-opacity="1" fill-rule="nonzero"/><path fill="#8d391c" d="M 657.703125 1277.492188 L 698.054688 1277.492188 L 698.054688 1237.164062 L 657.703125 1237.164062 L 657.703125 1277.492188 " fill-opacity="1" fill-rule="nonzero"/><path fill="#8d391c" d="M 698.054688 1277.492188 L 738.410156 1277.492188 L 738.410156 1237.164062 L 698.054688 1237.164062 L 698.054688 1277.492188 " fill-opacity="1" fill-rule="nonzero"/><path fill="#8d391c" d="M 254.171875 1277.351562 L 294.519531 1277.351562 L 294.519531 1317.679688 L 254.171875 1317.679688 L 254.171875 1277.351562 " fill-opacity="1" fill-rule="nonzero"/><path fill="#8d391c" d="M 213.8125 1277.351562 L 254.171875 1277.351562 L 254.171875 1317.679688 L 213.8125 1317.679688 L 213.8125 1277.351562 " fill-opacity="1" fill-rule="nonzero"/><path fill="#8d391c" d="M 294.585938 1277.351562 L 334.941406 1277.351562 L 334.941406 1317.679688 L 294.585938 1317.679688 L 294.585938 1277.351562 " fill-opacity="1" fill-rule="nonzero"/><path fill="#8d391c" d="M 334.863281 1277.351562 L 375.21875 1277.351562 L 375.21875 1317.679688 L 334.863281 1317.679688 L 334.863281 1277.351562 " fill-opacity="1" fill-rule="nonzero"/><path fill="#8d391c" d="M 375.292969 1277.351562 L 415.628906 1277.351562 L 415.628906 1317.679688 L 375.292969 1317.679688 L 375.292969 1277.351562 " fill-opacity="1" fill-rule="nonzero"/><path fill="#8d391c" d="M 415.5625 1277.351562 L 455.917969 1277.351562 L 455.917969 1317.679688 L 415.5625 1317.679688 L 415.5625 1277.351562 " fill-opacity="1" fill-rule="nonzero"/><path fill="#8d391c" d="M 455.984375 1277.351562 L 496.335938 1277.351562 L 496.335938 1317.679688 L 455.984375 1317.679688 L 455.984375 1277.351562 " fill-opacity="1" fill-rule="nonzero"/><path fill="#8d391c" d="M 496.269531 1277.351562 L 536.613281 1277.351562 L 536.613281 1317.679688 L 496.269531 1317.679688 L 496.269531 1277.351562 " fill-opacity="1" fill-rule="nonzero"/><path fill="#8d391c" d="M 536.683594 1277.351562 L 577.027344 1277.351562 L 577.027344 1317.679688 L 536.683594 1317.679688 L 536.683594 1277.351562 " fill-opacity="1" fill-rule="nonzero"/><path fill="#8d391c" d="M 576.960938 1277.351562 L 617.3125 1277.351562 L 617.3125 1317.679688 L 576.960938 1317.679688 L 576.960938 1277.351562 " fill-opacity="1" fill-rule="nonzero"/><path fill="#8d391c" d="M 617.386719 1277.351562 L 657.734375 1277.351562 L 657.734375 1317.679688 L 617.386719 1317.679688 L 617.386719 1277.351562 " fill-opacity="1" fill-rule="nonzero"/><path fill="#8d391c" d="M 657.703125 1317.679688 L 698.054688 1317.679688 L 698.054688 1277.351562 L 657.703125 1277.351562 L 657.703125 1317.679688 " fill-opacity="1" fill-rule="nonzero"/><path fill="#8d391c" d="M 698.054688 1317.679688 L 738.410156 1317.679688 L 738.410156 1277.351562 L 698.054688 1277.351562 L 698.054688 1317.679688 " fill-opacity="1" fill-rule="nonzero"/><path fill="#bf4b25" d="M 254.171875 995.34375 L 294.519531 995.34375 L 294.519531 1035.675781 L 254.171875 1035.675781 L 254.171875 995.34375 " fill-opacity="1" fill-rule="nonzero"/><path fill="#8d391c" d="M 294.585938 995.34375 L 334.941406 995.34375 L 334.941406 1035.675781 L 294.585938 1035.675781 L 294.585938 995.34375 " fill-opacity="1" fill-rule="nonzero"/><path fill="#8d391c" d="M 334.863281 995.34375 L 375.21875 995.34375 L 375.21875 1035.675781 L 334.863281 1035.675781 L 334.863281 995.34375 " fill-opacity="1" fill-rule="nonzero"/><path fill="#8d391c" d="M 375.292969 995.34375 L 415.628906 995.34375 L 415.628906 1035.675781 L 375.292969 1035.675781 L 375.292969 995.34375 " fill-opacity="1" fill-rule="nonzero"/><path fill="#8d391c" d="M 415.5625 995.34375 L 455.917969 995.34375 L 455.917969 1035.675781 L 415.5625 1035.675781 L 415.5625 995.34375 " fill-opacity="1" fill-rule="nonzero"/><path fill="#8d391c" d="M 455.984375 995.34375 L 496.335938 995.34375 L 496.335938 1035.675781 L 455.984375 1035.675781 L 455.984375 995.34375 " fill-opacity="1" fill-rule="nonzero"/><path fill="#8d391c" d="M 496.269531 995.34375 L 536.613281 995.34375 L 536.613281 1035.675781 L 496.269531 1035.675781 L 496.269531 995.34375 " fill-opacity="1" fill-rule="nonzero"/><path fill="#8d391c" d="M 536.683594 995.34375 L 577.027344 995.34375 L 577.027344 1035.675781 L 536.683594 1035.675781 L 536.683594 995.34375 " fill-opacity="1" fill-rule="nonzero"/><path fill="#8d391c" d="M 576.960938 995.34375 L 617.3125 995.34375 L 617.3125 1035.675781 L 576.960938 1035.675781 L 576.960938 995.34375 " fill-opacity="1" fill-rule="nonzero"/><path fill="#8d391c" d="M 617.386719 995.34375 L 657.734375 995.34375 L 657.734375 1035.675781 L 617.386719 1035.675781 L 617.386719 995.34375 " fill-opacity="1" fill-rule="nonzero"/><path fill="#8d391c" d="M 657.703125 1035.675781 L 698.054688 1035.675781 L 698.054688 995.34375 L 657.703125 995.34375 L 657.703125 1035.675781 " fill-opacity="1" fill-rule="nonzero"/><path fill="#8d391c" d="M 698.054688 1035.675781 L 738.410156 1035.675781 L 738.410156 995.34375 L 698.054688 995.34375 L 698.054688 1035.675781 " fill-opacity="1" fill-rule="nonzero"/><path fill="#fff647" d="M 173.476562 1076 L 213.8125 1076 L 213.8125 1116.328125 L 173.476562 1116.328125 L 173.476562 1076 " fill-opacity="1" fill-rule="nonzero"/><path fill="#fbc308" d="M 173.476562 1116.328125 L 213.8125 1116.328125 L 213.8125 1156.652344 L 173.476562 1156.652344 L 173.476562 1116.328125 " fill-opacity="1" fill-rule="nonzero"/><path fill="#fbc308" d="M 173.476562 1156.652344 L 213.8125 1156.652344 L 213.8125 1196.980469 L 173.476562 1196.980469 L 173.476562 1156.652344 " fill-opacity="1" fill-rule="nonzero"/><path fill="#fbc308" d="M 173.476562 1196.980469 L 213.8125 1196.980469 L 213.8125 1237.304688 L 173.476562 1237.304688 L 173.476562 1196.980469 " fill-opacity="1" fill-rule="nonzero"/><path fill="#fbc308" d="M 173.476562 1237.304688 L 213.8125 1237.304688 L 213.8125 1277.636719 L 173.476562 1277.636719 L 173.476562 1237.304688 " fill-opacity="1" fill-rule="nonzero"/><path fill="#fbc308" d="M 173.476562 1277.636719 L 213.8125 1277.636719 L 213.8125 1317.957031 L 173.476562 1317.957031 L 173.476562 1277.636719 " fill-opacity="1" fill-rule="nonzero"/><path fill="#e97a12" d="M 738.355469 1035.675781 L 778.710938 1035.675781 L 778.710938 1076 L 738.355469 1076 L 738.355469 1035.675781 " fill-opacity="1" fill-rule="nonzero"/><path fill="#e97a12" d="M 738.355469 1076 L 778.710938 1076 L 778.710938 1116.328125 L 738.355469 1116.328125 L 738.355469 1076 " fill-opacity="1" fill-rule="nonzero"/><path fill="#e97a12" d="M 738.355469 1116.328125 L 778.710938 1116.328125 L 778.710938 1156.652344 L 738.355469 1156.652344 L 738.355469 1116.328125 " fill-opacity="1" fill-rule="nonzero"/><path fill="#e97a12" d="M 738.355469 1156.652344 L 778.710938 1156.652344 L 778.710938 1196.980469 L 738.355469 1196.980469 L 738.355469 1156.652344 " fill-opacity="1" fill-rule="nonzero"/><path fill="#e97a12" d="M 738.355469 1196.980469 L 778.710938 1196.980469 L 778.710938 1237.304688 L 738.355469 1237.304688 L 738.355469 1196.980469 " fill-opacity="1" fill-rule="nonzero"/><path fill="#e97a12" d="M 738.355469 1237.304688 L 778.710938 1237.304688 L 778.710938 1277.636719 L 738.355469 1277.636719 L 738.355469 1237.304688 " fill-opacity="1" fill-rule="nonzero"/><path fill="#e97a12" d="M 738.355469 1277.636719 L 778.710938 1277.636719 L 778.710938 1317.957031 L 738.355469 1317.957031 L 738.355469 1277.636719 " fill-opacity="1" fill-rule="nonzero"/><g clip-path="url(#340849be96)"><path fill="#fbc308" d="M 173.476562 1317.957031 L 213.8125 1317.957031 L 213.8125 1358.289062 L 173.476562 1358.289062 L 173.476562 1317.957031 " fill-opacity="1" fill-rule="nonzero"/></g><g clip-path="url(#e0b7ae7bb6)"><path fill="#f89f0e" d="M 213.957031 1317.957031 L 254.308594 1317.957031 L 254.308594 1358.289062 L 213.957031 1358.289062 L 213.957031 1317.957031 " fill-opacity="1" fill-rule="nonzero"/></g><g clip-path="url(#b71b4ef7a5)"><path fill="#f89f0e" d="M 254.308594 1317.957031 L 294.652344 1317.957031 L 294.652344 1358.289062 L 254.308594 1358.289062 L 254.308594 1317.957031 " fill-opacity="1" fill-rule="nonzero"/></g><g clip-path="url(#0b614da113)"><path fill="#f89f0e" d="M 294.472656 1317.957031 L 334.820312 1317.957031 L 334.820312 1358.289062 L 294.472656 1358.289062 L 294.472656 1317.957031 " fill-opacity="1" fill-rule="nonzero"/></g><g clip-path="url(#07e7eb463e)"><path fill="#f89f0e" d="M 334.820312 1317.957031 L 375.171875 1317.957031 L 375.171875 1358.289062 L 334.820312 1358.289062 L 334.820312 1317.957031 " fill-opacity="1" fill-rule="nonzero"/></g><g clip-path="url(#7acd5499b0)"><path fill="#f89f0e" d="M 375.59375 1317.957031 L 415.9375 1317.957031 L 415.9375 1358.289062 L 375.59375 1358.289062 L 375.59375 1317.957031 " fill-opacity="1" fill-rule="nonzero"/></g><g clip-path="url(#744a0ef50d)"><path fill="#f89f0e" d="M 416.082031 1317.957031 L 456.433594 1317.957031 L 456.433594 1358.289062 L 416.082031 1358.289062 L 416.082031 1317.957031 " fill-opacity="1" fill-rule="nonzero"/></g><g clip-path="url(#5cebce7162)"><path fill="#f89f0e" d="M 456.433594 1317.957031 L 496.777344 1317.957031 L 496.777344 1358.289062 L 456.433594 1358.289062 L 456.433594 1317.957031 " fill-opacity="1" fill-rule="nonzero"/></g><g clip-path="url(#1af3460c6c)"><path fill="#e97a12" d="M 496.589844 1317.957031 L 536.945312 1317.957031 L 536.945312 1358.289062 L 496.589844 1358.289062 L 496.589844 1317.957031 " fill-opacity="1" fill-rule="nonzero"/></g><g clip-path="url(#493d316a56)"><path fill="#e97a12" d="M 536.945312 1317.957031 L 577.289062 1317.957031 L 577.289062 1358.289062 L 536.945312 1358.289062 L 536.945312 1317.957031 " fill-opacity="1" fill-rule="nonzero"/></g><g clip-path="url(#1abe28cb2a)"><path fill="#e97a12" d="M 577.71875 1317.957031 L 618.0625 1317.957031 L 618.0625 1358.289062 L 577.71875 1358.289062 L 577.71875 1317.957031 " fill-opacity="1" fill-rule="nonzero"/></g><g clip-path="url(#746383c077)"><path fill="#e97a12" d="M 618.199219 1317.957031 L 658.550781 1317.957031 L 658.550781 1358.289062 L 618.199219 1358.289062 L 618.199219 1317.957031 " fill-opacity="1" fill-rule="nonzero"/></g><g clip-path="url(#4318160a1d)"><path fill="#e97a12" d="M 658.550781 1317.957031 L 698.894531 1317.957031 L 698.894531 1358.289062 L 658.550781 1358.289062 L 658.550781 1317.957031 " fill-opacity="1" fill-rule="nonzero"/></g><g clip-path="url(#c0cdecc68a)"><path fill="#e97a12" d="M 698.714844 1317.957031 L 739.0625 1317.957031 L 739.0625 1358.289062 L 698.714844 1358.289062 L 698.714844 1317.957031 " fill-opacity="1" fill-rule="nonzero"/></g><path fill="#fbc308" d="M 213.957031 1116.328125 L 254.308594 1116.328125 L 254.308594 1156.652344 L 213.957031 1156.652344 L 213.957031 1116.328125 " fill-opacity="1" fill-rule="nonzero"/><path fill="#fbc308" d="M 254.308594 1116.328125 L 294.652344 1116.328125 L 294.652344 1156.652344 L 254.308594 1156.652344 L 254.308594 1116.328125 " fill-opacity="1" fill-rule="nonzero"/><path fill="#fbc308" d="M 294.472656 1116.328125 L 334.820312 1116.328125 L 334.820312 1156.652344 L 294.472656 1156.652344 L 294.472656 1116.328125 " fill-opacity="1" fill-rule="nonzero"/><path fill="#fff647" d="M 334.820312 1116.328125 L 375.171875 1116.328125 L 375.171875 1156.652344 L 334.820312 1156.652344 L 334.820312 1116.328125 " fill-opacity="1" fill-rule="nonzero"/><path fill="#fbc308" d="M 375.59375 1116.328125 L 415.9375 1116.328125 L 415.9375 1156.652344 L 375.59375 1156.652344 L 375.59375 1116.328125 " fill-opacity="1" fill-rule="nonzero"/><path fill="#4d1d0d" d="M 416.082031 1116.328125 L 456.433594 1116.328125 L 456.433594 1156.652344 L 416.082031 1156.652344 L 416.082031 1116.328125 " fill-opacity="1" fill-rule="nonzero"/><path fill="#4d1d0d" d="M 456.433594 1116.328125 L 496.777344 1116.328125 L 496.777344 1156.652344 L 456.433594 1156.652344 L 456.433594 1116.328125 " fill-opacity="1" fill-rule="nonzero"/><path fill="#4d1d0d" d="M 496.589844 1116.328125 L 536.945312 1116.328125 L 536.945312 1156.652344 L 496.589844 1156.652344 L 496.589844 1116.328125 " fill-opacity="1" fill-rule="nonzero"/><path fill="#fbc308" d="M 536.945312 1116.328125 L 577.289062 1116.328125 L 577.289062 1156.652344 L 536.945312 1156.652344 L 536.945312 1116.328125 " fill-opacity="1" fill-rule="nonzero"/><path fill="#e98410" d="M 577.71875 1116.328125 L 618.0625 1116.328125 L 618.0625 1156.652344 L 577.71875 1156.652344 L 577.71875 1116.328125 " fill-opacity="1" fill-rule="nonzero"/><path fill="#e98410" d="M 618.199219 1116.328125 L 658.550781 1116.328125 L 658.550781 1156.652344 L 618.199219 1156.652344 L 618.199219 1116.328125 " fill-opacity="1" fill-rule="nonzero"/><path fill="#e98410" d="M 658.550781 1116.328125 L 698.894531 1116.328125 L 698.894531 1156.652344 L 658.550781 1156.652344 L 658.550781 1116.328125 " fill-opacity="1" fill-rule="nonzero"/><path fill="#e98410" d="M 698.714844 1116.328125 L 739.0625 1116.328125 L 739.0625 1156.652344 L 698.714844 1156.652344 L 698.714844 1116.328125 " fill-opacity="1" fill-rule="nonzero"/><g clip-path="url(#c598ea7931)"><path fill="#e97a12" d="M 739.0625 1317.957031 L 779.414062 1317.957031 L 779.414062 1358.289062 L 739.0625 1358.289062 L 739.0625 1317.957031 " fill-opacity="1" fill-rule="nonzero"/></g></svg>