<svg xmlns="http://www.w3.org/2000/svg" xmlns:xlink="http://www.w3.org/1999/xlink" width="1265" zoomAndPan="magnify" viewBox="0 0 948.75 1287.749962" height="1717" preserveAspectRatio="xMidYMid meet" version="1.0"><defs><clipPath id="3d41a51f7e"><path d="M 95 0.1875 L 143 0.1875 L 143 48 L 95 48 Z M 95 0.1875 " clip-rule="nonzero"/></clipPath><clipPath id="ac58fcb52a"><path d="M 663 0.1875 L 901 0.1875 L 901 48 L 663 48 Z M 663 0.1875 " clip-rule="nonzero"/></clipPath><clipPath id="b3ddc2f157"><path d="M 0.289062 1192 L 238 1192 L 238 1287.457031 L 0.289062 1287.457031 Z M 0.289062 1192 " clip-rule="nonzero"/></clipPath><clipPath id="4146f70aa4"><path d="M 240 905.191406 L 280 905.191406 L 280 944 L 240 944 Z M 240 905.191406 " clip-rule="nonzero"/></clipPath><clipPath id="d24b5bbefa"><path d="M 279 905.191406 L 318 905.191406 L 318 944 L 279 944 Z M 279 905.191406 " clip-rule="nonzero"/></clipPath><clipPath id="de0fd39256"><path d="M 317 905.191406 L 356 905.191406 L 356 944 L 317 944 Z M 317 905.191406 " clip-rule="nonzero"/></clipPath><clipPath id="7cd2d4a75c"><path d="M 355 905.191406 L 394 905.191406 L 394 944 L 355 944 Z M 355 905.191406 " clip-rule="nonzero"/></clipPath><clipPath id="2087b23cf4"><path d="M 393 905.191406 L 432 905.191406 L 432 944 L 393 944 Z M 393 905.191406 " clip-rule="nonzero"/></clipPath><clipPath id="658c43a926"><path d="M 432 905.191406 L 471 905.191406 L 471 944 L 432 944 Z M 432 905.191406 " clip-rule="nonzero"/></clipPath><clipPath id="dcf9de8d89"><path d="M 470 905.191406 L 509 905.191406 L 509 944 L 470 944 Z M 470 905.191406 " clip-rule="nonzero"/></clipPath><clipPath id="65aa6f1a82"><path d="M 508 905.191406 L 547 905.191406 L 547 944 L 508 944 Z M 508 905.191406 " clip-rule="nonzero"/></clipPath><clipPath id="8e7ee3b56a"><path d="M 546 905.191406 L 585 905.191406 L 585 944 L 546 944 Z M 546 905.191406 " clip-rule="nonzero"/></clipPath><clipPath id="6e79d73526"><path d="M 584 905.191406 L 624 905.191406 L 624 944 L 584 944 Z M 584 905.191406 " clip-rule="nonzero"/></clipPath><clipPath id="0a3da421e6"><path d="M 623 905.191406 L 662 905.191406 L 662 944 L 623 944 Z M 623 905.191406 " clip-rule="nonzero"/></clipPath><clipPath id="45966b1e99"><path d="M 164 1249 L 203 1249 L 203 1287.457031 L 164 1287.457031 Z M 164 1249 " clip-rule="nonzero"/></clipPath><clipPath id="69efc4123e"><path d="M 202 1249 L 241 1249 L 241 1287.457031 L 202 1287.457031 Z M 202 1249 " clip-rule="nonzero"/></clipPath><clipPath id="8e9f015389"><path d="M 240 1249 L 280 1249 L 280 1287.457031 L 240 1287.457031 Z M 240 1249 " clip-rule="nonzero"/></clipPath><clipPath id="99cdec8ae4"><path d="M 279 1249 L 318 1249 L 318 1287.457031 L 279 1287.457031 Z M 279 1249 " clip-rule="nonzero"/></clipPath><clipPath id="c7f27e1bb4"><path d="M 317 1249 L 356 1249 L 356 1287.457031 L 317 1287.457031 Z M 317 1249 " clip-rule="nonzero"/></clipPath><clipPath id="c8c7761555"><path d="M 355 1249 L 395 1249 L 395 1287.457031 L 355 1287.457031 Z M 355 1249 " clip-rule="nonzero"/></clipPath><clipPath id="886f99d1f8"><path d="M 394 1249 L 433 1249 L 433 1287.457031 L 394 1287.457031 Z M 394 1249 " clip-rule="nonzero"/></clipPath><clipPath id="98be7a2139"><path d="M 432 1249 L 471 1249 L 471 1287.457031 L 432 1287.457031 Z M 432 1249 " clip-rule="nonzero"/></clipPath><clipPath id="1df73a082e"><path d="M 470 1249 L 509 1249 L 509 1287.457031 L 470 1287.457031 Z M 470 1249 " clip-rule="nonzero"/></clipPath><clipPath id="f1196efaab"><path d="M 508 1249 L 547 1249 L 547 1287.457031 L 508 1287.457031 Z M 508 1249 " clip-rule="nonzero"/></clipPath><clipPath id="1f6f0d5c15"><path d="M 547 1249 L 586 1249 L 586 1287.457031 L 547 1287.457031 Z M 547 1249 " clip-rule="nonzero"/></clipPath><clipPath id="d6edb82f97"><path d="M 585 1249 L 624 1249 L 624 1287.457031 L 585 1287.457031 Z M 585 1249 " clip-rule="nonzero"/></clipPath><clipPath id="7a089afc1d"><path d="M 623 1249 L 663 1249 L 663 1287.457031 L 623 1287.457031 Z M 623 1249 " clip-rule="nonzero"/></clipPath><clipPath id="e722f5b1e4"><path d="M 661 1249 L 701 1249 L 701 1287.457031 L 661 1287.457031 Z M 661 1249 " clip-rule="nonzero"/></clipPath><clipPath id="7cdd55f77b"><path d="M 700 1249 L 739 1249 L 739 1287.457031 L 700 1287.457031 Z M 700 1249 " clip-rule="nonzero"/></clipPath></defs><path fill="#d21e25" d="M 189.890625 143.320312 L 189.890625 620.050781 L 237.269531 620.050781 L 237.269531 667.734375 L 379.410156 667.734375 L 379.410156 620.050781 L 521.535156 620.050781 L 521.535156 572.386719 L 663.691406 572.386719 L 663.691406 524.707031 L 853.199219 524.707031 L 853.199219 572.386719 L 900.578125 572.386719 L 900.578125 47.957031 L 663.691406 47.957031 L 663.691406 95.636719 L 568.933594 95.636719 L 568.933594 143.320312 L 426.792969 143.320312 L 426.792969 190.984375 L 237.269531 190.984375 L 237.269531 143.320312 L 189.890625 143.320312 " fill-opacity="1" fill-rule="nonzero"/><g clip-path="url(#3d41a51f7e)"><path fill="#100f0d" d="M 142.507812 0.277344 L 95.128906 0.277344 L 95.128906 47.957031 L 142.507812 47.957031 L 142.507812 0.277344 " fill-opacity="1" fill-rule="nonzero"/></g><path fill="#100f0d" d="M 284.648438 190.984375 L 426.792969 190.984375 L 426.792969 143.320312 L 237.269531 143.320312 L 237.269531 190.984375 L 284.648438 190.984375 " fill-opacity="1" fill-rule="nonzero"/><path fill="#100f0d" d="M 521.535156 143.320312 L 568.933594 143.320312 L 568.933594 95.636719 L 426.792969 95.636719 L 426.792969 143.320312 L 521.535156 143.320312 " fill-opacity="1" fill-rule="nonzero"/><path fill="#100f0d" d="M 663.691406 95.636719 L 663.691406 47.957031 L 568.933594 47.957031 L 568.933594 95.636719 L 663.691406 95.636719 " fill-opacity="1" fill-rule="nonzero"/><g clip-path="url(#ac58fcb52a)"><path fill="#100f0d" d="M 758.4375 47.957031 L 900.578125 47.957031 L 900.578125 0.277344 L 663.691406 0.277344 L 663.691406 47.957031 L 758.4375 47.957031 " fill-opacity="1" fill-rule="nonzero"/></g><path fill="#100f0d" d="M 900.578125 47.957031 L 900.578125 572.386719 L 853.199219 572.386719 L 853.199219 620.050781 L 947.960938 620.050781 L 947.960938 47.957031 L 900.578125 47.957031 " fill-opacity="1" fill-rule="nonzero"/><path fill="#100f0d" d="M 805.820312 524.707031 L 663.691406 524.707031 L 663.691406 572.386719 L 853.199219 572.386719 L 853.199219 524.707031 L 805.820312 524.707031 " fill-opacity="1" fill-rule="nonzero"/><path fill="#100f0d" d="M 568.933594 572.386719 L 521.535156 572.386719 L 521.535156 620.050781 L 663.691406 620.050781 L 663.691406 572.386719 L 568.933594 572.386719 " fill-opacity="1" fill-rule="nonzero"/><path fill="#100f0d" d="M 426.792969 620.050781 L 379.410156 620.050781 L 379.410156 667.734375 L 521.535156 667.734375 L 521.535156 620.050781 L 426.792969 620.050781 " fill-opacity="1" fill-rule="nonzero"/><path fill="#100f0d" d="M 284.648438 667.734375 L 237.269531 667.734375 L 237.269531 715.414062 L 379.410156 715.414062 L 379.410156 667.734375 L 284.648438 667.734375 " fill-opacity="1" fill-rule="nonzero"/><path fill="#100f0d" d="M 189.890625 620.050781 L 189.890625 143.320312 L 237.269531 143.320312 L 237.269531 95.636719 L 189.890625 95.636719 L 189.890625 47.957031 L 142.507812 47.957031 L 142.507812 1192.144531 L 189.890625 1192.144531 L 189.890625 667.734375 L 237.269531 667.734375 L 237.269531 620.050781 L 189.890625 620.050781 " fill-opacity="1" fill-rule="nonzero"/><g clip-path="url(#b3ddc2f157)"><path fill="#100f0d" d="M 142.507812 1239.828125 L 47.75 1239.828125 L 47.75 1192.144531 L 0.367188 1192.144531 L 0.367188 1287.507812 L 237.269531 1287.507812 L 237.269531 1192.144531 L 189.890625 1192.144531 L 189.890625 1239.828125 L 142.507812 1239.828125 " fill-opacity="1" fill-rule="nonzero"/></g><path fill="#100f0d" d="M 95.128906 1144.480469 L 95.128906 47.957031 L 47.75 47.957031 L 47.75 1192.144531 L 95.128906 1192.144531 L 95.128906 1144.480469 " fill-opacity="1" fill-rule="nonzero"/><path fill="#571615" d="M 142.507812 1192.144531 L 142.507812 47.957031 L 95.128906 47.957031 L 95.128906 1192.144531 L 47.75 1192.144531 L 47.75 1239.828125 L 189.890625 1239.828125 L 189.890625 1192.144531 L 142.507812 1192.144531 " fill-opacity="1" fill-rule="nonzero"/><path fill="#281412" d="M 142.507812 47.957031 L 95.128906 47.957031 L 95.128906 95.636719 L 142.507812 95.636719 L 142.507812 47.957031 " fill-opacity="1" fill-rule="nonzero"/><path fill="#281412" d="M 142.507812 620.050781 L 95.128906 620.050781 L 95.128906 667.734375 L 142.507812 667.734375 L 142.507812 620.050781 " fill-opacity="1" fill-rule="nonzero"/><path fill="#5f1316" d="M 237.269531 143.320312 L 189.890625 143.320312 L 189.890625 190.984375 L 237.269531 190.984375 L 237.269531 143.320312 " fill-opacity="1" fill-rule="nonzero"/><path fill="#5f1316" d="M 237.269531 572.386719 L 189.890625 572.386719 L 189.890625 620.050781 L 237.269531 620.050781 L 237.269531 572.386719 " fill-opacity="1" fill-rule="nonzero"/><path fill="#5f1316" d="M 379.410156 620.050781 L 237.269531 620.050781 L 237.269531 667.734375 L 379.410156 667.734375 L 379.410156 620.050781 " fill-opacity="1" fill-rule="nonzero"/><path fill="#5f1316" d="M 521.535156 572.386719 L 379.410156 572.386719 L 379.410156 620.050781 L 521.535156 620.050781 L 521.535156 572.386719 " fill-opacity="1" fill-rule="nonzero"/><path fill="#5f1316" d="M 663.691406 524.707031 L 521.535156 524.707031 L 521.535156 572.386719 L 663.691406 572.386719 L 663.691406 524.707031 " fill-opacity="1" fill-rule="nonzero"/><path fill="#5f1316" d="M 853.199219 477.039062 L 663.691406 477.039062 L 663.691406 524.707031 L 853.199219 524.707031 L 853.199219 477.039062 " fill-opacity="1" fill-rule="nonzero"/><path fill="#5f1316" d="M 900.578125 143.320312 L 853.199219 143.320312 L 853.199219 572.386719 L 900.578125 572.386719 L 900.578125 143.320312 " fill-opacity="1" fill-rule="nonzero"/><path fill="#5f1316" d="M 900.578125 47.957031 L 663.691406 47.957031 L 663.691406 95.636719 L 900.578125 95.636719 L 900.578125 47.957031 " fill-opacity="1" fill-rule="nonzero"/><path fill="#5f1316" d="M 663.691406 95.636719 L 568.933594 95.636719 L 568.933594 143.320312 L 663.691406 143.320312 L 663.691406 95.636719 " fill-opacity="1" fill-rule="nonzero"/><path fill="#5f1316" d="M 237.269531 190.984375 L 189.890625 190.984375 L 189.890625 238.652344 L 237.269531 238.652344 L 237.269531 190.984375 " fill-opacity="1" fill-rule="nonzero"/><path fill="#5f1316" d="M 568.933594 143.320312 L 426.792969 143.320312 L 426.792969 190.984375 L 568.933594 190.984375 L 568.933594 143.320312 " fill-opacity="1" fill-rule="nonzero"/><path fill="#5f1316" d="M 426.792969 190.984375 L 237.269531 190.984375 L 237.269531 238.652344 L 426.792969 238.652344 L 426.792969 190.984375 " fill-opacity="1" fill-rule="nonzero"/><path fill="#5f1316" d="M 900.578125 95.636719 L 663.691406 95.636719 L 663.691406 143.320312 L 900.578125 143.320312 L 900.578125 95.636719 " fill-opacity="1" fill-rule="nonzero"/><path fill="#5f1316" d="M 663.691406 143.320312 L 568.933594 143.320312 L 568.933594 190.984375 L 663.691406 190.984375 L 663.691406 143.320312 " fill-opacity="1" fill-rule="nonzero"/><path fill="#5f1316" d="M 237.269531 238.652344 L 189.890625 238.652344 L 189.890625 286.332031 L 237.269531 286.332031 L 237.269531 238.652344 " fill-opacity="1" fill-rule="nonzero"/><path fill="#5f1316" d="M 568.933594 190.984375 L 426.792969 190.984375 L 426.792969 238.652344 L 568.933594 238.652344 L 568.933594 190.984375 " fill-opacity="1" fill-rule="nonzero"/><path fill="#5f1316" d="M 426.792969 238.652344 L 237.269531 238.652344 L 237.269531 286.332031 L 426.792969 286.332031 L 426.792969 238.652344 " fill-opacity="1" fill-rule="nonzero"/><path fill="#281412" d="M 189.890625 1192.144531 L 47.75 1192.144531 L 47.75 1239.828125 L 189.890625 1239.828125 L 189.890625 1192.144531 " fill-opacity="1" fill-rule="nonzero"/><path fill="#fbc308" d="M 164.398438 981.65625 L 202.605469 981.65625 L 202.605469 1019.890625 L 164.398438 1019.890625 L 164.398438 981.65625 " fill-opacity="1" fill-rule="nonzero"/><path fill="#8d391c" d="M 202.605469 943.414062 L 240.839844 943.414062 L 240.839844 981.65625 L 202.605469 981.65625 L 202.605469 943.414062 " fill-opacity="1" fill-rule="nonzero"/><g clip-path="url(#4146f70aa4)"><path fill="#5a2310" d="M 240.839844 905.175781 L 279.054688 905.175781 L 279.054688 943.414062 L 240.839844 943.414062 L 240.839844 905.175781 " fill-opacity="1" fill-rule="nonzero"/></g><g clip-path="url(#d24b5bbefa)"><path fill="#bf4b25" d="M 279.121094 905.175781 L 317.34375 905.175781 L 317.34375 943.414062 L 279.121094 943.414062 L 279.121094 905.175781 " fill-opacity="1" fill-rule="nonzero"/></g><g clip-path="url(#de0fd39256)"><path fill="#5a2310" d="M 317.273438 905.175781 L 355.496094 905.175781 L 355.496094 943.414062 L 317.273438 943.414062 L 317.273438 905.175781 " fill-opacity="1" fill-rule="nonzero"/></g><g clip-path="url(#7cd2d4a75c)"><path fill="#5a2310" d="M 355.566406 905.175781 L 393.777344 905.175781 L 393.777344 943.414062 L 355.566406 943.414062 L 355.566406 905.175781 " fill-opacity="1" fill-rule="nonzero"/></g><g clip-path="url(#2087b23cf4)"><path fill="#5a2310" d="M 393.714844 905.175781 L 431.9375 905.175781 L 431.9375 943.414062 L 393.714844 943.414062 L 393.714844 905.175781 " fill-opacity="1" fill-rule="nonzero"/></g><g clip-path="url(#658c43a926)"><path fill="#5a2310" d="M 432.003906 905.175781 L 470.226562 905.175781 L 470.226562 943.414062 L 432.003906 943.414062 L 432.003906 905.175781 " fill-opacity="1" fill-rule="nonzero"/></g><g clip-path="url(#dcf9de8d89)"><path fill="#5a2310" d="M 470.164062 905.175781 L 508.378906 905.175781 L 508.378906 943.414062 L 470.164062 943.414062 L 470.164062 905.175781 " fill-opacity="1" fill-rule="nonzero"/></g><g clip-path="url(#65aa6f1a82)"><path fill="#5a2310" d="M 508.445312 905.175781 L 546.660156 905.175781 L 546.660156 943.414062 L 508.445312 943.414062 L 508.445312 905.175781 " fill-opacity="1" fill-rule="nonzero"/></g><g clip-path="url(#8e7ee3b56a)"><path fill="#5a2310" d="M 546.597656 905.175781 L 584.820312 905.175781 L 584.820312 943.414062 L 546.597656 943.414062 L 546.597656 905.175781 " fill-opacity="1" fill-rule="nonzero"/></g><g clip-path="url(#6e79d73526)"><path fill="#5a2310" d="M 584.890625 905.175781 L 623.109375 905.175781 L 623.109375 943.414062 L 584.890625 943.414062 L 584.890625 905.175781 " fill-opacity="1" fill-rule="nonzero"/></g><g clip-path="url(#0a3da421e6)"><path fill="#5a2310" d="M 623.082031 943.414062 L 661.304688 943.414062 L 661.304688 905.175781 L 623.082031 905.175781 L 623.082031 943.414062 " fill-opacity="1" fill-rule="nonzero"/></g><path fill="#8d391c" d="M 240.839844 981.65625 L 279.054688 981.65625 L 279.054688 1019.890625 L 240.839844 1019.890625 L 240.839844 981.65625 " fill-opacity="1" fill-rule="nonzero"/><path fill="#bf4b25" d="M 202.605469 981.65625 L 240.839844 981.65625 L 240.839844 1019.890625 L 202.605469 1019.890625 L 202.605469 981.65625 " fill-opacity="1" fill-rule="nonzero"/><path fill="#8d391c" d="M 279.121094 981.65625 L 317.34375 981.65625 L 317.34375 1019.890625 L 279.121094 1019.890625 L 279.121094 981.65625 " fill-opacity="1" fill-rule="nonzero"/><path fill="#8d391c" d="M 317.273438 981.65625 L 355.496094 981.65625 L 355.496094 1019.890625 L 317.273438 1019.890625 L 317.273438 981.65625 " fill-opacity="1" fill-rule="nonzero"/><path fill="#8d391c" d="M 355.566406 981.65625 L 393.777344 981.65625 L 393.777344 1019.890625 L 355.566406 1019.890625 L 355.566406 981.65625 " fill-opacity="1" fill-rule="nonzero"/><path fill="#8d391c" d="M 393.714844 981.65625 L 431.9375 981.65625 L 431.9375 1019.890625 L 393.714844 1019.890625 L 393.714844 981.65625 " fill-opacity="1" fill-rule="nonzero"/><path fill="#8d391c" d="M 432.003906 981.65625 L 470.226562 981.65625 L 470.226562 1019.890625 L 432.003906 1019.890625 L 432.003906 981.65625 " fill-opacity="1" fill-rule="nonzero"/><path fill="#8d391c" d="M 470.164062 981.65625 L 508.378906 981.65625 L 508.378906 1019.890625 L 470.164062 1019.890625 L 470.164062 981.65625 " fill-opacity="1" fill-rule="nonzero"/><path fill="#8d391c" d="M 508.445312 981.65625 L 546.660156 981.65625 L 546.660156 1019.890625 L 508.445312 1019.890625 L 508.445312 981.65625 " fill-opacity="1" fill-rule="nonzero"/><path fill="#8d391c" d="M 546.597656 981.65625 L 584.820312 981.65625 L 584.820312 1019.890625 L 546.597656 1019.890625 L 546.597656 981.65625 " fill-opacity="1" fill-rule="nonzero"/><path fill="#8d391c" d="M 584.890625 981.65625 L 623.109375 981.65625 L 623.109375 1019.890625 L 584.890625 1019.890625 L 584.890625 981.65625 " fill-opacity="1" fill-rule="nonzero"/><path fill="#8d391c" d="M 623.082031 1019.890625 L 661.304688 1019.890625 L 661.304688 981.65625 L 623.082031 981.65625 L 623.082031 1019.890625 " fill-opacity="1" fill-rule="nonzero"/><path fill="#8d391c" d="M 661.304688 1019.890625 L 699.527344 1019.890625 L 699.527344 981.65625 L 661.304688 981.65625 L 661.304688 1019.890625 " fill-opacity="1" fill-rule="nonzero"/><path fill="#8d391c" d="M 240.839844 1019.628906 L 279.054688 1019.628906 L 279.054688 1057.863281 L 240.839844 1057.863281 L 240.839844 1019.628906 " fill-opacity="1" fill-rule="nonzero"/><path fill="#8d391c" d="M 202.605469 1019.628906 L 240.839844 1019.628906 L 240.839844 1057.863281 L 202.605469 1057.863281 L 202.605469 1019.628906 " fill-opacity="1" fill-rule="nonzero"/><path fill="#8d391c" d="M 279.121094 1019.628906 L 317.34375 1019.628906 L 317.34375 1057.863281 L 279.121094 1057.863281 L 279.121094 1019.628906 " fill-opacity="1" fill-rule="nonzero"/><path fill="#8d391c" d="M 317.273438 1019.628906 L 355.496094 1019.628906 L 355.496094 1057.863281 L 317.273438 1057.863281 L 317.273438 1019.628906 " fill-opacity="1" fill-rule="nonzero"/><path fill="#fff647" d="M 355.566406 1019.628906 L 393.777344 1019.628906 L 393.777344 1057.863281 L 355.566406 1057.863281 L 355.566406 1019.628906 " fill-opacity="1" fill-rule="nonzero"/><path fill="#fbc308" d="M 393.714844 1019.628906 L 431.9375 1019.628906 L 431.9375 1057.863281 L 393.714844 1057.863281 L 393.714844 1019.628906 " fill-opacity="1" fill-rule="nonzero"/><path fill="#fbc308" d="M 432.003906 1019.628906 L 470.226562 1019.628906 L 470.226562 1057.863281 L 432.003906 1057.863281 L 432.003906 1019.628906 " fill-opacity="1" fill-rule="nonzero"/><path fill="#fbc308" d="M 470.164062 1019.628906 L 508.378906 1019.628906 L 508.378906 1057.863281 L 470.164062 1057.863281 L 470.164062 1019.628906 " fill-opacity="1" fill-rule="nonzero"/><path fill="#fbc308" d="M 508.445312 1019.628906 L 546.660156 1019.628906 L 546.660156 1057.863281 L 508.445312 1057.863281 L 508.445312 1019.628906 " fill-opacity="1" fill-rule="nonzero"/><path fill="#8d391c" d="M 546.597656 1019.628906 L 584.820312 1019.628906 L 584.820312 1057.863281 L 546.597656 1057.863281 L 546.597656 1019.628906 " fill-opacity="1" fill-rule="nonzero"/><path fill="#8d391c" d="M 584.890625 1019.628906 L 623.109375 1019.628906 L 623.109375 1057.863281 L 584.890625 1057.863281 L 584.890625 1019.628906 " fill-opacity="1" fill-rule="nonzero"/><path fill="#8d391c" d="M 623.082031 1057.863281 L 661.304688 1057.863281 L 661.304688 1019.628906 L 623.082031 1019.628906 L 623.082031 1057.863281 " fill-opacity="1" fill-rule="nonzero"/><path fill="#8d391c" d="M 661.304688 1057.863281 L 699.527344 1057.863281 L 699.527344 1019.628906 L 661.304688 1019.628906 L 661.304688 1057.863281 " fill-opacity="1" fill-rule="nonzero"/><path fill="#5a2310" d="M 240.839844 1096.503906 L 279.054688 1096.503906 L 279.054688 1134.738281 L 240.839844 1134.738281 L 240.839844 1096.503906 " fill-opacity="1" fill-rule="nonzero"/><path fill="#5a2310" d="M 202.605469 1096.503906 L 240.839844 1096.503906 L 240.839844 1134.738281 L 202.605469 1134.738281 L 202.605469 1096.503906 " fill-opacity="1" fill-rule="nonzero"/><path fill="#5a2310" d="M 279.121094 1096.503906 L 317.34375 1096.503906 L 317.34375 1134.738281 L 279.121094 1134.738281 L 279.121094 1096.503906 " fill-opacity="1" fill-rule="nonzero"/><path fill="#5a2310" d="M 317.273438 1096.503906 L 355.496094 1096.503906 L 355.496094 1134.738281 L 317.273438 1134.738281 L 317.273438 1096.503906 " fill-opacity="1" fill-rule="nonzero"/><path fill="#fbc308" d="M 355.566406 1096.503906 L 393.777344 1096.503906 L 393.777344 1134.738281 L 355.566406 1134.738281 L 355.566406 1096.503906 " fill-opacity="1" fill-rule="nonzero"/><path fill="#fbc308" d="M 393.714844 1096.503906 L 431.9375 1096.503906 L 431.9375 1134.738281 L 393.714844 1134.738281 L 393.714844 1096.503906 " fill-opacity="1" fill-rule="nonzero"/><path fill="#fbc308" d="M 432.003906 1096.503906 L 470.226562 1096.503906 L 470.226562 1134.738281 L 432.003906 1134.738281 L 432.003906 1096.503906 " fill-opacity="1" fill-rule="nonzero"/><path fill="#fbc308" d="M 470.164062 1096.503906 L 508.378906 1096.503906 L 508.378906 1134.738281 L 470.164062 1134.738281 L 470.164062 1096.503906 " fill-opacity="1" fill-rule="nonzero"/><path fill="#fbc308" d="M 508.445312 1096.503906 L 546.660156 1096.503906 L 546.660156 1134.738281 L 508.445312 1134.738281 L 508.445312 1096.503906 " fill-opacity="1" fill-rule="nonzero"/><path fill="#5a2310" d="M 546.597656 1096.503906 L 584.820312 1096.503906 L 584.820312 1134.738281 L 546.597656 1134.738281 L 546.597656 1096.503906 " fill-opacity="1" fill-rule="nonzero"/><path fill="#5a2310" d="M 584.890625 1096.503906 L 623.109375 1096.503906 L 623.109375 1134.738281 L 584.890625 1134.738281 L 584.890625 1096.503906 " fill-opacity="1" fill-rule="nonzero"/><path fill="#5a2310" d="M 623.082031 1134.738281 L 661.304688 1134.738281 L 661.304688 1096.503906 L 623.082031 1096.503906 L 623.082031 1134.738281 " fill-opacity="1" fill-rule="nonzero"/><path fill="#5a2310" d="M 661.304688 1134.738281 L 699.527344 1134.738281 L 699.527344 1096.503906 L 661.304688 1096.503906 L 661.304688 1134.738281 " fill-opacity="1" fill-rule="nonzero"/><path fill="#8d391c" d="M 240.839844 1134.609375 L 279.054688 1134.609375 L 279.054688 1172.84375 L 240.839844 1172.84375 L 240.839844 1134.609375 " fill-opacity="1" fill-rule="nonzero"/><path fill="#8d391c" d="M 202.605469 1134.609375 L 240.839844 1134.609375 L 240.839844 1172.84375 L 202.605469 1172.84375 L 202.605469 1134.609375 " fill-opacity="1" fill-rule="nonzero"/><path fill="#8d391c" d="M 279.121094 1134.609375 L 317.34375 1134.609375 L 317.34375 1172.84375 L 279.121094 1172.84375 L 279.121094 1134.609375 " fill-opacity="1" fill-rule="nonzero"/><path fill="#8d391c" d="M 317.273438 1134.609375 L 355.496094 1134.609375 L 355.496094 1172.84375 L 317.273438 1172.84375 L 317.273438 1134.609375 " fill-opacity="1" fill-rule="nonzero"/><path fill="#8d391c" d="M 355.566406 1134.609375 L 393.777344 1134.609375 L 393.777344 1172.84375 L 355.566406 1172.84375 L 355.566406 1134.609375 " fill-opacity="1" fill-rule="nonzero"/><path fill="#8d391c" d="M 393.714844 1134.609375 L 431.9375 1134.609375 L 431.9375 1172.84375 L 393.714844 1172.84375 L 393.714844 1134.609375 " fill-opacity="1" fill-rule="nonzero"/><path fill="#8d391c" d="M 432.003906 1134.609375 L 470.226562 1134.609375 L 470.226562 1172.84375 L 432.003906 1172.84375 L 432.003906 1134.609375 " fill-opacity="1" fill-rule="nonzero"/><path fill="#8d391c" d="M 470.164062 1134.609375 L 508.378906 1134.609375 L 508.378906 1172.84375 L 470.164062 1172.84375 L 470.164062 1134.609375 " fill-opacity="1" fill-rule="nonzero"/><path fill="#8d391c" d="M 508.445312 1134.609375 L 546.660156 1134.609375 L 546.660156 1172.84375 L 508.445312 1172.84375 L 508.445312 1134.609375 " fill-opacity="1" fill-rule="nonzero"/><path fill="#8d391c" d="M 546.597656 1134.609375 L 584.820312 1134.609375 L 584.820312 1172.84375 L 546.597656 1172.84375 L 546.597656 1134.609375 " fill-opacity="1" fill-rule="nonzero"/><path fill="#8d391c" d="M 584.890625 1134.609375 L 623.109375 1134.609375 L 623.109375 1172.84375 L 584.890625 1172.84375 L 584.890625 1134.609375 " fill-opacity="1" fill-rule="nonzero"/><path fill="#8d391c" d="M 623.082031 1172.84375 L 661.304688 1172.84375 L 661.304688 1134.609375 L 623.082031 1134.609375 L 623.082031 1172.84375 " fill-opacity="1" fill-rule="nonzero"/><path fill="#8d391c" d="M 661.304688 1172.84375 L 699.527344 1172.84375 L 699.527344 1134.609375 L 661.304688 1134.609375 L 661.304688 1172.84375 " fill-opacity="1" fill-rule="nonzero"/><path fill="#8d391c" d="M 240.839844 1172.710938 L 279.054688 1172.710938 L 279.054688 1210.953125 L 240.839844 1210.953125 L 240.839844 1172.710938 " fill-opacity="1" fill-rule="nonzero"/><path fill="#8d391c" d="M 202.605469 1172.710938 L 240.839844 1172.710938 L 240.839844 1210.953125 L 202.605469 1210.953125 L 202.605469 1172.710938 " fill-opacity="1" fill-rule="nonzero"/><path fill="#8d391c" d="M 279.121094 1172.710938 L 317.34375 1172.710938 L 317.34375 1210.953125 L 279.121094 1210.953125 L 279.121094 1172.710938 " fill-opacity="1" fill-rule="nonzero"/><path fill="#8d391c" d="M 317.273438 1172.710938 L 355.496094 1172.710938 L 355.496094 1210.953125 L 317.273438 1210.953125 L 317.273438 1172.710938 " fill-opacity="1" fill-rule="nonzero"/><path fill="#8d391c" d="M 355.566406 1172.710938 L 393.777344 1172.710938 L 393.777344 1210.953125 L 355.566406 1210.953125 L 355.566406 1172.710938 " fill-opacity="1" fill-rule="nonzero"/><path fill="#8d391c" d="M 393.714844 1172.710938 L 431.9375 1172.710938 L 431.9375 1210.953125 L 393.714844 1210.953125 L 393.714844 1172.710938 " fill-opacity="1" fill-rule="nonzero"/><path fill="#8d391c" d="M 432.003906 1172.710938 L 470.226562 1172.710938 L 470.226562 1210.953125 L 432.003906 1210.953125 L 432.003906 1172.710938 " fill-opacity="1" fill-rule="nonzero"/><path fill="#8d391c" d="M 470.164062 1172.710938 L 508.378906 1172.710938 L 508.378906 1210.953125 L 470.164062 1210.953125 L 470.164062 1172.710938 " fill-opacity="1" fill-rule="nonzero"/><path fill="#8d391c" d="M 508.445312 1172.710938 L 546.660156 1172.710938 L 546.660156 1210.953125 L 508.445312 1210.953125 L 508.445312 1172.710938 " fill-opacity="1" fill-rule="nonzero"/><path fill="#8d391c" d="M 546.597656 1172.710938 L 584.820312 1172.710938 L 584.820312 1210.953125 L 546.597656 1210.953125 L 546.597656 1172.710938 " fill-opacity="1" fill-rule="nonzero"/><path fill="#8d391c" d="M 584.890625 1172.710938 L 623.109375 1172.710938 L 623.109375 1210.953125 L 584.890625 1210.953125 L 584.890625 1172.710938 " fill-opacity="1" fill-rule="nonzero"/><path fill="#8d391c" d="M 623.082031 1210.953125 L 661.304688 1210.953125 L 661.304688 1172.710938 L 623.082031 1172.710938 L 623.082031 1210.953125 " fill-opacity="1" fill-rule="nonzero"/><path fill="#8d391c" d="M 661.304688 1210.953125 L 699.527344 1210.953125 L 699.527344 1172.710938 L 661.304688 1172.710938 L 661.304688 1210.953125 " fill-opacity="1" fill-rule="nonzero"/><path fill="#8d391c" d="M 240.839844 1210.816406 L 279.054688 1210.816406 L 279.054688 1249.058594 L 240.839844 1249.058594 L 240.839844 1210.816406 " fill-opacity="1" fill-rule="nonzero"/><path fill="#8d391c" d="M 202.605469 1210.816406 L 240.839844 1210.816406 L 240.839844 1249.058594 L 202.605469 1249.058594 L 202.605469 1210.816406 " fill-opacity="1" fill-rule="nonzero"/><path fill="#8d391c" d="M 279.121094 1210.816406 L 317.34375 1210.816406 L 317.34375 1249.058594 L 279.121094 1249.058594 L 279.121094 1210.816406 " fill-opacity="1" fill-rule="nonzero"/><path fill="#8d391c" d="M 317.273438 1210.816406 L 355.496094 1210.816406 L 355.496094 1249.058594 L 317.273438 1249.058594 L 317.273438 1210.816406 " fill-opacity="1" fill-rule="nonzero"/><path fill="#8d391c" d="M 355.566406 1210.816406 L 393.777344 1210.816406 L 393.777344 1249.058594 L 355.566406 1249.058594 L 355.566406 1210.816406 " fill-opacity="1" fill-rule="nonzero"/><path fill="#8d391c" d="M 393.714844 1210.816406 L 431.9375 1210.816406 L 431.9375 1249.058594 L 393.714844 1249.058594 L 393.714844 1210.816406 " fill-opacity="1" fill-rule="nonzero"/><path fill="#8d391c" d="M 432.003906 1210.816406 L 470.226562 1210.816406 L 470.226562 1249.058594 L 432.003906 1249.058594 L 432.003906 1210.816406 " fill-opacity="1" fill-rule="nonzero"/><path fill="#8d391c" d="M 470.164062 1210.816406 L 508.378906 1210.816406 L 508.378906 1249.058594 L 470.164062 1249.058594 L 470.164062 1210.816406 " fill-opacity="1" fill-rule="nonzero"/><path fill="#8d391c" d="M 508.445312 1210.816406 L 546.660156 1210.816406 L 546.660156 1249.058594 L 508.445312 1249.058594 L 508.445312 1210.816406 " fill-opacity="1" fill-rule="nonzero"/><path fill="#8d391c" d="M 546.597656 1210.816406 L 584.820312 1210.816406 L 584.820312 1249.058594 L 546.597656 1249.058594 L 546.597656 1210.816406 " fill-opacity="1" fill-rule="nonzero"/><path fill="#8d391c" d="M 584.890625 1210.816406 L 623.109375 1210.816406 L 623.109375 1249.058594 L 584.890625 1249.058594 L 584.890625 1210.816406 " fill-opacity="1" fill-rule="nonzero"/><path fill="#8d391c" d="M 623.082031 1249.058594 L 661.304688 1249.058594 L 661.304688 1210.816406 L 623.082031 1210.816406 L 623.082031 1249.058594 " fill-opacity="1" fill-rule="nonzero"/><path fill="#8d391c" d="M 661.304688 1249.058594 L 699.527344 1249.058594 L 699.527344 1210.816406 L 661.304688 1210.816406 L 661.304688 1249.058594 " fill-opacity="1" fill-rule="nonzero"/><path fill="#bf4b25" d="M 240.839844 943.414062 L 279.054688 943.414062 L 279.054688 981.65625 L 240.839844 981.65625 L 240.839844 943.414062 " fill-opacity="1" fill-rule="nonzero"/><path fill="#8d391c" d="M 279.121094 943.414062 L 317.34375 943.414062 L 317.34375 981.65625 L 279.121094 981.65625 L 279.121094 943.414062 " fill-opacity="1" fill-rule="nonzero"/><path fill="#8d391c" d="M 317.273438 943.414062 L 355.496094 943.414062 L 355.496094 981.65625 L 317.273438 981.65625 L 317.273438 943.414062 " fill-opacity="1" fill-rule="nonzero"/><path fill="#8d391c" d="M 355.566406 943.414062 L 393.777344 943.414062 L 393.777344 981.65625 L 355.566406 981.65625 L 355.566406 943.414062 " fill-opacity="1" fill-rule="nonzero"/><path fill="#8d391c" d="M 393.714844 943.414062 L 431.9375 943.414062 L 431.9375 981.65625 L 393.714844 981.65625 L 393.714844 943.414062 " fill-opacity="1" fill-rule="nonzero"/><path fill="#8d391c" d="M 432.003906 943.414062 L 470.226562 943.414062 L 470.226562 981.65625 L 432.003906 981.65625 L 432.003906 943.414062 " fill-opacity="1" fill-rule="nonzero"/><path fill="#8d391c" d="M 470.164062 943.414062 L 508.378906 943.414062 L 508.378906 981.65625 L 470.164062 981.65625 L 470.164062 943.414062 " fill-opacity="1" fill-rule="nonzero"/><path fill="#8d391c" d="M 508.445312 943.414062 L 546.660156 943.414062 L 546.660156 981.65625 L 508.445312 981.65625 L 508.445312 943.414062 " fill-opacity="1" fill-rule="nonzero"/><path fill="#8d391c" d="M 546.597656 943.414062 L 584.820312 943.414062 L 584.820312 981.65625 L 546.597656 981.65625 L 546.597656 943.414062 " fill-opacity="1" fill-rule="nonzero"/><path fill="#8d391c" d="M 584.890625 943.414062 L 623.109375 943.414062 L 623.109375 981.65625 L 584.890625 981.65625 L 584.890625 943.414062 " fill-opacity="1" fill-rule="nonzero"/><path fill="#8d391c" d="M 623.082031 981.65625 L 661.304688 981.65625 L 661.304688 943.414062 L 623.082031 943.414062 L 623.082031 981.65625 " fill-opacity="1" fill-rule="nonzero"/><path fill="#8d391c" d="M 661.304688 981.65625 L 699.527344 981.65625 L 699.527344 943.414062 L 661.304688 943.414062 L 661.304688 981.65625 " fill-opacity="1" fill-rule="nonzero"/><path fill="#fff647" d="M 164.398438 1019.890625 L 202.605469 1019.890625 L 202.605469 1058.132812 L 164.398438 1058.132812 L 164.398438 1019.890625 " fill-opacity="1" fill-rule="nonzero"/><path fill="#fbc308" d="M 164.398438 1058.132812 L 202.605469 1058.132812 L 202.605469 1096.367188 L 164.398438 1096.367188 L 164.398438 1058.132812 " fill-opacity="1" fill-rule="nonzero"/><path fill="#fbc308" d="M 164.398438 1096.367188 L 202.605469 1096.367188 L 202.605469 1134.609375 L 164.398438 1134.609375 L 164.398438 1096.367188 " fill-opacity="1" fill-rule="nonzero"/><path fill="#fbc308" d="M 164.398438 1134.609375 L 202.605469 1134.609375 L 202.605469 1172.84375 L 164.398438 1172.84375 L 164.398438 1134.609375 " fill-opacity="1" fill-rule="nonzero"/><path fill="#fbc308" d="M 164.398438 1172.84375 L 202.605469 1172.84375 L 202.605469 1211.085938 L 164.398438 1211.085938 L 164.398438 1172.84375 " fill-opacity="1" fill-rule="nonzero"/><path fill="#fbc308" d="M 164.398438 1211.085938 L 202.605469 1211.085938 L 202.605469 1249.320312 L 164.398438 1249.320312 L 164.398438 1211.085938 " fill-opacity="1" fill-rule="nonzero"/><path fill="#e97a12" d="M 699.480469 981.65625 L 737.703125 981.65625 L 737.703125 1019.890625 L 699.480469 1019.890625 L 699.480469 981.65625 " fill-opacity="1" fill-rule="nonzero"/><path fill="#e97a12" d="M 699.480469 1019.890625 L 737.703125 1019.890625 L 737.703125 1058.132812 L 699.480469 1058.132812 L 699.480469 1019.890625 " fill-opacity="1" fill-rule="nonzero"/><path fill="#e97a12" d="M 699.480469 1058.132812 L 737.703125 1058.132812 L 737.703125 1096.367188 L 699.480469 1096.367188 L 699.480469 1058.132812 " fill-opacity="1" fill-rule="nonzero"/><path fill="#e97a12" d="M 699.480469 1096.367188 L 737.703125 1096.367188 L 737.703125 1134.609375 L 699.480469 1134.609375 L 699.480469 1096.367188 " fill-opacity="1" fill-rule="nonzero"/><path fill="#e97a12" d="M 699.480469 1134.609375 L 737.703125 1134.609375 L 737.703125 1172.84375 L 699.480469 1172.84375 L 699.480469 1134.609375 " fill-opacity="1" fill-rule="nonzero"/><path fill="#e97a12" d="M 699.480469 1172.84375 L 737.703125 1172.84375 L 737.703125 1211.085938 L 699.480469 1211.085938 L 699.480469 1172.84375 " fill-opacity="1" fill-rule="nonzero"/><path fill="#e97a12" d="M 699.480469 1211.085938 L 737.703125 1211.085938 L 737.703125 1249.320312 L 699.480469 1249.320312 L 699.480469 1211.085938 " fill-opacity="1" fill-rule="nonzero"/><g clip-path="url(#45966b1e99)"><path fill="#fbc308" d="M 164.398438 1249.320312 L 202.605469 1249.320312 L 202.605469 1287.5625 L 164.398438 1287.5625 L 164.398438 1249.320312 " fill-opacity="1" fill-rule="nonzero"/></g><g clip-path="url(#69efc4123e)"><path fill="#f89f0e" d="M 202.742188 1249.320312 L 240.964844 1249.320312 L 240.964844 1287.5625 L 202.742188 1287.5625 L 202.742188 1249.320312 " fill-opacity="1" fill-rule="nonzero"/></g><g clip-path="url(#8e9f015389)"><path fill="#f89f0e" d="M 240.964844 1249.320312 L 279.183594 1249.320312 L 279.183594 1287.5625 L 240.964844 1287.5625 L 240.964844 1249.320312 " fill-opacity="1" fill-rule="nonzero"/></g><g clip-path="url(#99cdec8ae4)"><path fill="#f89f0e" d="M 279.011719 1249.320312 L 317.230469 1249.320312 L 317.230469 1287.5625 L 279.011719 1287.5625 L 279.011719 1249.320312 " fill-opacity="1" fill-rule="nonzero"/></g><g clip-path="url(#c7f27e1bb4)"><path fill="#f89f0e" d="M 317.230469 1249.320312 L 355.453125 1249.320312 L 355.453125 1287.5625 L 317.230469 1287.5625 L 317.230469 1249.320312 " fill-opacity="1" fill-rule="nonzero"/></g><g clip-path="url(#c8c7761555)"><path fill="#f89f0e" d="M 355.851562 1249.320312 L 394.070312 1249.320312 L 394.070312 1287.5625 L 355.851562 1287.5625 L 355.851562 1249.320312 " fill-opacity="1" fill-rule="nonzero"/></g><g clip-path="url(#886f99d1f8)"><path fill="#f89f0e" d="M 394.203125 1249.320312 L 432.429688 1249.320312 L 432.429688 1287.5625 L 394.203125 1287.5625 L 394.203125 1249.320312 " fill-opacity="1" fill-rule="nonzero"/></g><g clip-path="url(#98be7a2139)"><path fill="#f89f0e" d="M 432.429688 1249.320312 L 470.644531 1249.320312 L 470.644531 1287.5625 L 432.429688 1287.5625 L 432.429688 1249.320312 " fill-opacity="1" fill-rule="nonzero"/></g><g clip-path="url(#1df73a082e)"><path fill="#e97a12" d="M 470.46875 1249.320312 L 508.691406 1249.320312 L 508.691406 1287.5625 L 470.46875 1287.5625 L 470.46875 1249.320312 " fill-opacity="1" fill-rule="nonzero"/></g><g clip-path="url(#f1196efaab)"><path fill="#e97a12" d="M 508.691406 1249.320312 L 546.910156 1249.320312 L 546.910156 1287.5625 L 508.691406 1287.5625 L 508.691406 1249.320312 " fill-opacity="1" fill-rule="nonzero"/></g><g clip-path="url(#1f6f0d5c15)"><path fill="#e97a12" d="M 547.3125 1249.320312 L 585.53125 1249.320312 L 585.53125 1287.5625 L 547.3125 1287.5625 L 547.3125 1249.320312 " fill-opacity="1" fill-rule="nonzero"/></g><g clip-path="url(#d6edb82f97)"><path fill="#e97a12" d="M 585.660156 1249.320312 L 623.882812 1249.320312 L 623.882812 1287.5625 L 585.660156 1287.5625 L 585.660156 1249.320312 " fill-opacity="1" fill-rule="nonzero"/></g><g clip-path="url(#7a089afc1d)"><path fill="#e97a12" d="M 623.882812 1249.320312 L 662.101562 1249.320312 L 662.101562 1287.5625 L 623.882812 1287.5625 L 623.882812 1249.320312 " fill-opacity="1" fill-rule="nonzero"/></g><g clip-path="url(#e722f5b1e4)"><path fill="#e97a12" d="M 661.929688 1249.320312 L 700.148438 1249.320312 L 700.148438 1287.5625 L 661.929688 1287.5625 L 661.929688 1249.320312 " fill-opacity="1" fill-rule="nonzero"/></g><path fill="#fbc308" d="M 202.742188 1058.132812 L 240.964844 1058.132812 L 240.964844 1096.367188 L 202.742188 1096.367188 L 202.742188 1058.132812 " fill-opacity="1" fill-rule="nonzero"/><path fill="#fbc308" d="M 240.964844 1058.132812 L 279.183594 1058.132812 L 279.183594 1096.367188 L 240.964844 1096.367188 L 240.964844 1058.132812 " fill-opacity="1" fill-rule="nonzero"/><path fill="#fbc308" d="M 279.011719 1058.132812 L 317.230469 1058.132812 L 317.230469 1096.367188 L 279.011719 1096.367188 L 279.011719 1058.132812 " fill-opacity="1" fill-rule="nonzero"/><path fill="#fff647" d="M 317.230469 1058.132812 L 355.453125 1058.132812 L 355.453125 1096.367188 L 317.230469 1096.367188 L 317.230469 1058.132812 " fill-opacity="1" fill-rule="nonzero"/><path fill="#fbc308" d="M 355.851562 1058.132812 L 394.070312 1058.132812 L 394.070312 1096.367188 L 355.851562 1096.367188 L 355.851562 1058.132812 " fill-opacity="1" fill-rule="nonzero"/><path fill="#4d1d0d" d="M 394.203125 1058.132812 L 432.429688 1058.132812 L 432.429688 1096.367188 L 394.203125 1096.367188 L 394.203125 1058.132812 " fill-opacity="1" fill-rule="nonzero"/><path fill="#4d1d0d" d="M 432.429688 1058.132812 L 470.644531 1058.132812 L 470.644531 1096.367188 L 432.429688 1096.367188 L 432.429688 1058.132812 " fill-opacity="1" fill-rule="nonzero"/><path fill="#4d1d0d" d="M 470.46875 1058.132812 L 508.691406 1058.132812 L 508.691406 1096.367188 L 470.46875 1096.367188 L 470.46875 1058.132812 " fill-opacity="1" fill-rule="nonzero"/><path fill="#fbc308" d="M 508.691406 1058.132812 L 546.910156 1058.132812 L 546.910156 1096.367188 L 508.691406 1096.367188 L 508.691406 1058.132812 " fill-opacity="1" fill-rule="nonzero"/><path fill="#e98410" d="M 547.3125 1058.132812 L 585.53125 1058.132812 L 585.53125 1096.367188 L 547.3125 1096.367188 L 547.3125 1058.132812 " fill-opacity="1" fill-rule="nonzero"/><path fill="#e98410" d="M 585.660156 1058.132812 L 623.882812 1058.132812 L 623.882812 1096.367188 L 585.660156 1096.367188 L 585.660156 1058.132812 " fill-opacity="1" fill-rule="nonzero"/><path fill="#e98410" d="M 623.882812 1058.132812 L 662.101562 1058.132812 L 662.101562 1096.367188 L 623.882812 1096.367188 L 623.882812 1058.132812 " fill-opacity="1" fill-rule="nonzero"/><path fill="#e98410" d="M 661.929688 1058.132812 L 700.148438 1058.132812 L 700.148438 1096.367188 L 661.929688 1096.367188 L 661.929688 1058.132812 " fill-opacity="1" fill-rule="nonzero"/><g clip-path="url(#7cdd55f77b)"><path fill="#e97a12" d="M 700.148438 1249.320312 L 738.371094 1249.320312 L 738.371094 1287.5625 L 700.148438 1287.5625 L 700.148438 1249.320312 " fill-opacity="1" fill-rule="nonzero"/></g></svg>