<?xml version="1.0" encoding="utf-8"?>
<svg viewBox="-47.7188 -65.3137 806.5195 693.2074" xmlns="http://www.w3.org/2000/svg"
    preserveAspectRatio="xMidYMid slice">
    <g clip-path="url(#4872e6a7b2)" transform="matrix(1, 0, 0, 1, -50.685854316615405, -111.42570230777699)">
        <g clip-path="url(#8ba6b65763)">
            <g clip-path="url(#25a67191ee)">
                <path fill="#bf9439"
                    d="M 651.679688 103.375 C 652.976562 107.640625 653.964844 111.707031 653.230469 116.179688 C 652.769531 118.984375 653.257812 121.933594 652.988281 124.789062 C 652.703125 127.816406 651.820312 130.789062 651.5625 133.816406 C 651.183594 138.269531 650.660156 142.785156 651.035156 147.203125 C 651.71875 155.316406 650.109375 162.425781 644.65625 168.714844 C 640.140625 173.929688 634.78125 178.226562 629.40625 182.316406 C 618.617188 190.523438 612.667969 201.324219 609.738281 214.195312 C 609.152344 216.765625 610.253906 218.863281 611.632812 220.730469 C 614.390625 224.464844 617.609375 227.875 620.210938 231.710938 C 622.730469 235.445312 624.542969 239.613281 625.554688 244.007812 C 626.6875 248.839844 626.367188 253.714844 625.394531 258.449219 C 624.347656 263.527344 624.789062 268.445312 625.699219 273.410156 C 625.867188 274.296875 626.183594 275.148438 626.628906 275.933594 C 630.878906 283.410156 635.175781 290.855469 639.4375 298.324219 C 641.039062 301.132812 642.75 303.894531 644.128906 306.8125 C 646.289062 311.398438 649.886719 314.699219 653.835938 317.511719 C 658.699219 320.980469 662.6875 325.277344 666.714844 329.578125 C 670.535156 333.652344 672.355469 338.867188 673.71875 344.007812 C 675.257812 349.824219 677.695312 355.191406 680.253906 360.515625 C 682.261719 364.6875 684.953125 368.53125 687.308594 372.539062 C 692.328125 381.074219 698.851562 388.179688 707.6875 392.753906 C 711.480469 394.714844 715.730469 395.808594 719.796875 397.21875 C 725.742188 399.277344 731.808594 401.019531 737.640625 403.355469 C 744.820312 406.226562 751.898438 409.402344 758.867188 412.765625 C 764.082031 415.28125 768.84375 418.535156 771.492188 424.035156 C 771.550781 424.207031 771.640625 424.367188 771.761719 424.5 C 776.441406 428.175781 777.285156 434.0625 780.109375 438.800781 C 783.136719 443.875 785.75 449.179688 788.554688 454.351562 C 793.035156 462.605469 799.023438 469.734375 804.066406 477.542969 C 807.082031 482.050781 808.921875 487.238281 809.417969 492.636719 C 809.707031 494.8125 809.074219 497.011719 807.667969 498.699219 C 804.734375 502.109375 801.90625 505.527344 797.785156 507.742188 C 795.828125 508.796875 794.257812 510.765625 792.847656 512.578125 C 791.554688 514.308594 790.480469 516.195312 789.660156 518.191406 C 785.617188 527.613281 779.207031 535.410156 772.4375 542.863281 C 769.4375 546.226562 765.492188 548.597656 761.117188 549.675781 C 755.703125 551.015625 750.246094 551.804688 744.785156 552.773438 C 736.503906 554.242188 728.316406 556.191406 719.992188 557.519531 C 715.414062 558.253906 710.824219 559.097656 706.246094 559.9375 C 696.761719 561.679688 688.488281 559.09375 680.765625 553.875 C 678.832031 552.570312 676.925781 551.199219 675.121094 549.71875 C 670.046875 545.554688 664.351562 545.410156 658.28125 546.714844 C 653.558594 547.730469 648.785156 548.5625 644 549.242188 C 640.144531 549.785156 636.472656 548.425781 632.984375 547.085938 C 627.285156 544.878906 621.246094 543.667969 615.136719 543.507812 C 612.132812 543.429688 609.117188 544.246094 606.097656 544.554688 C 597.550781 545.417969 590.320312 549.308594 583.769531 554.515625 C 578.152344 558.984375 572.738281 563.679688 568.042969 569.207031 C 563.453125 574.609375 559.480469 580.304688 556.832031 586.894531 C 555.6875 589.738281 554.371094 592.527344 553.402344 595.429688 C 551.976562 599.730469 549.164062 602.9375 545.753906 605.671875 C 540.019531 610.273438 534.238281 614.8125 528.402344 619.285156 C 523.910156 622.742188 521.765625 627.179688 522.355469 632.855469 C 522.648438 635.699219 523.078125 638.535156 523.3125 641.386719 C 524.179688 651.921875 523.171875 662.167969 518.882812 671.992188 C 517.453125 675.265625 516.550781 678.773438 515.480469 682.195312 C 513.703125 687.878906 511.605469 693.421875 507.984375 698.21875 C 506.011719 700.828125 505.269531 703.476562 506.050781 706.78125 C 506.746094 709.714844 506.589844 712.84375 507.15625 715.816406 C 507.625 718.527344 506.917969 721.308594 505.207031 723.464844 C 501.1875 728.992188 495.953125 732.890625 489.011719 734.191406 C 480.371094 735.808594 471.988281 735.019531 463.632812 732.335938 C 457.28125 730.304688 450.675781 729.195312 444.011719 729.046875 C 441.144531 729.015625 438.292969 729.453125 435.566406 730.335938 C 429.238281 732.339844 422.960938 734.542969 416.777344 736.964844 C 409.035156 740 401.472656 740.214844 393.726562 736.941406 C 385.75 733.570312 378.316406 729.246094 370.894531 724.859375 C 363.183594 720.304688 354.78125 717.441406 345.898438 717.050781 C 340.308594 716.78125 334.722656 717.769531 329.5625 719.941406 C 324.9375 721.933594 320.015625 723.164062 314.996094 723.585938 C 311.957031 723.792969 308.90625 723.476562 305.976562 722.640625 C 300.933594 721.25 295.96875 719.25 291.984375 715.824219 C 288.84375 713.128906 285.449219 712.273438 281.578125 712.222656 C 275.070312 712.203125 268.652344 710.675781 262.832031 707.765625 C 260.917969 706.796875 259.117188 705.613281 257.46875 704.242188 C 253.347656 700.738281 250.085938 696.335938 247.9375 691.371094 C 246.726562 688.617188 246.128906 685.589844 244.042969 683.265625 C 243.351562 682.492188 242.523438 681.574219 241.597656 681.335938 C 237.957031 680.382812 234.289062 679.285156 230.566406 678.957031 C 221.445312 678.148438 212.292969 677.601562 203.144531 677.214844 C 196.480469 676.933594 190.359375 674.890625 184.597656 671.859375 C 181.328125 670.140625 178.539062 667.71875 177.753906 663.519531 C 177.269531 660.917969 175.691406 658.535156 174.71875 656.015625 C 171.476562 647.636719 170.089844 638.96875 172.195312 630.160156 C 173.691406 623.902344 175.605469 617.703125 180.800781 613.132812 C 183.738281 610.550781 186.144531 607.375 188.996094 604.679688 C 190.265625 603.480469 192.164062 602.960938 193.554688 601.859375 C 196.816406 599.359375 199.945312 596.695312 202.933594 593.875 C 204.550781 592.203125 205.875 590.269531 206.847656 588.15625 C 208.421875 584.921875 209.578125 581.484375 210.996094 578.171875 C 213.363281 572.652344 217.210938 568.59375 222.839844 566.300781 C 229.6875 563.507812 235.917969 559.558594 242.148438 555.664062 C 246.960938 552.652344 249.433594 548 250.5 542.402344 C 251.792969 535.609375 249.3125 531.054688 243.375 527.726562 C 239.351562 525.472656 234.882812 524.832031 230.6875 523.253906 C 222.417969 520.136719 213.613281 519.023438 205.148438 516.617188 C 204.457031 516.417969 203.792969 516.121094 203.121094 515.855469 C 195.988281 513.042969 194.664062 511.433594 194.765625 503.855469 C 194.847656 498.042969 193.832031 492.429688 192.488281 486.863281 C 191.640625 483.335938 188.914062 480.972656 185.929688 479.324219 C 182.160156 477.234375 178.140625 475.71875 173.609375 475.789062 C 168.523438 475.871094 164.355469 477.285156 162.125 482.191406 C 160.796875 485.109375 158.085938 485.71875 155.503906 486.210938 C 149.699219 487.320312 143.859375 488.5 137.980469 488.917969 C 131.695312 489.414062 125.371094 488.964844 119.21875 487.582031 C 118.339844 487.378906 117.496094 487.015625 116.609375 486.878906 C 107.941406 485.53125 102.46875 480.355469 100.828125 472.023438 C 99.722656 466.410156 97.046875 461.984375 93.542969 457.90625 C 89.523438 453.226562 88.28125 447.804688 88.542969 441.921875 C 88.710938 438.15625 89.359375 434.414062 89.636719 430.648438 C 90.019531 425.492188 90.53125 420.324219 90.480469 415.167969 C 90.40625 407.316406 92.257812 399.886719 94.9375 392.660156 C 96.949219 387.441406 100.140625 382.757812 104.253906 378.96875 C 111.609375 371.96875 119.667969 366.050781 129.316406 362.589844 C 135.421875 360.402344 139.667969 356.085938 142.644531 350.605469 C 144.160156 347.820312 144.992188 344.566406 145.652344 341.425781 C 147.144531 334.339844 151.398438 329.214844 156.949219 325.066406 C 160.382812 322.5 164.195312 320.445312 167.765625 318.050781 C 170.90625 315.976562 173.683594 313.394531 175.984375 310.414062 C 178.179688 307.519531 179.351562 303.980469 179.316406 300.347656 C 179.417969 293.515625 178.304688 286.71875 176.035156 280.273438 C 173.277344 272.328125 171.140625 264.175781 169.648438 255.898438 C 168.445312 249.574219 167.214844 243.25 164.761719 237.195312 C 162.398438 231.359375 162.960938 225.769531 167.085938 220.550781 C 169.988281 216.878906 172.5625 213.027344 176.546875 210.335938 C 179.511719 208.296875 182.839844 206.839844 186.351562 206.046875 C 192.652344 204.65625 199.085938 203.863281 205.109375 201.277344 C 206.855469 200.527344 208.960938 200.511719 210.917969 200.351562 C 218.421875 199.742188 225.929688 199.136719 233.449219 198.675781 C 245.289062 197.945312 256.820312 195.109375 268.5625 193.703125 C 278 192.574219 287.410156 191.246094 296.800781 189.730469 C 302.09375 188.875 307.261719 187.195312 312.5625 186.40625 C 319.679688 185.34375 324.589844 181.105469 328.960938 175.972656 C 332.964844 171.277344 334.324219 165.453125 335.097656 159.570312 C 336.355469 150.339844 337 141.035156 337.03125 131.71875 C 336.988281 127.402344 337.542969 123.097656 338.683594 118.929688 C 340.703125 111.746094 345.605469 106.953125 351.40625 102.789062 C 355.832031 99.746094 359.039062 95.230469 360.453125 90.050781 C 361.746094 85.371094 363.351562 80.769531 365.035156 76.214844 C 367.457031 69.660156 372.148438 65.003906 378.339844 62.0625 C 383.851562 59.441406 389.453125 57.054688 395.523438 55.703125 C 399.691406 54.773438 403.597656 52.632812 407.582031 50.9375 C 419 46.078125 430.980469 45.277344 443.035156 46.824219 C 449.675781 47.679688 456.007812 50.125 461.5 53.953125 C 465.054688 56.425781 467.714844 59.492188 468.089844 63.964844 C 468.230469 65.96875 469.292969 67.796875 470.960938 68.917969 C 473.238281 70.652344 475.617188 72.242188 478.089844 73.683594 C 484.996094 77.511719 492.199219 80.84375 498.894531 85 C 504.972656 88.890625 510.265625 93.898438 514.492188 99.753906 C 515.988281 101.765625 517.4375 103.820312 519.050781 105.738281 C 523.871094 111.472656 530.222656 112.910156 537.0625 110.949219 C 540.390625 109.996094 543.203125 107.332031 546.34375 105.621094 C 553.425781 101.757812 559.660156 96.367188 567.453125 93.796875 C 570.996094 92.507812 574.613281 91.433594 578.285156 90.578125 C 583.757812 89.546875 589.121094 88.023438 594.320312 86.027344 C 596.46875 85.179688 598.8125 84.820312 601.070312 84.253906 C 605.414062 83.160156 609.765625 82.09375 614.101562 80.976562 C 618.863281 79.722656 623.925781 80.351562 628.234375 82.730469 C 635.378906 86.53125 642.183594 90.867188 647.359375 97.265625 C 648.925781 99.203125 650.246094 101.332031 651.679688 103.375 Z M 651.679688 103.375 "
                    fill-opacity="1" fill-rule="nonzero" />
            </g>
        </g>
    </g>
    <g clip-path="url(#307d9a5870)" transform="matrix(1, 0, 0, 1, -50.685854316615405, -111.42570230777699)">
        <g clip-path="url(#b27db09a51)">
            <g clip-path="url(#fd9d98e360)">
                <path fill="#bf9439"
                    d="M 99.242188 274.082031 C 95.363281 276.375 91.433594 278.589844 87.617188 280.980469 C 83.421875 283.609375 79.5 286.738281 75.125 288.992188 C 71.976562 290.613281 68.332031 291.460938 64.8125 292.105469 C 56.726562 293.589844 48.832031 293.675781 40.832031 290.5 C 34.703125 288.066406 30.917969 283.46875 27.058594 278.835938 C 25.25 276.667969 23.585938 274.839844 20.902344 273.863281 C 19.648438 273.367188 18.554688 272.535156 17.742188 271.457031 C 11.902344 263.617188 7.070312 255.167969 4.019531 245.871094 C 1.695312 238.785156 3.242188 235.695312 8.445312 231.761719 C 14.230469 227.386719 20.25 224.269531 27.820312 225.746094 C 28.949219 225.839844 30.082031 225.667969 31.128906 225.246094 C 38.792969 222.878906 46.707031 222.839844 54.585938 222.945312 C 57.523438 223.054688 60.425781 223.644531 63.171875 224.691406 C 70.800781 227.570312 78.921875 228.929688 87.070312 228.6875 C 93.386719 228.5625 99.695312 229.105469 105.898438 230.300781 C 114.972656 231.757812 123.019531 236.953125 128.078125 244.625 C 131.039062 248.992188 130.277344 253.105469 126.628906 255.746094 C 120.421875 260.234375 114.628906 265.289062 108.457031 269.832031 C 105.765625 271.8125 102.570312 273.109375 99.605469 274.71875 C 99.484375 274.507812 99.363281 274.292969 99.242188 274.082031 Z M 99.242188 274.082031 "
                    fill-opacity="1" fill-rule="nonzero" />
            </g>
        </g>
    </g>
    <g clip-path="url(#5f2d3311e7)" transform="matrix(1, 0, 0, 1, -50.685854316615405, -111.42570230777699)">
        <g clip-path="url(#5427d9fb32)">
            <g clip-path="url(#6df9708658)">
                <path fill="#bf9439"
                    d="M 677.476562 271.703125 C 672.675781 274.9375 666.859375 273.882812 661.425781 271.992188 C 655.945312 270.082031 653.15625 265.261719 652.03125 259.71875 C 651.382812 256.199219 650.949219 252.644531 650.738281 249.070312 C 650.40625 245.308594 649.066406 241.703125 646.863281 238.632812 C 645.265625 236.285156 644.167969 233.582031 643.003906 230.96875 C 642.738281 230.128906 642.691406 229.238281 642.867188 228.378906 C 643.472656 223.144531 645.890625 218.289062 649.699219 214.652344 C 652.058594 212.445312 653.875 209.722656 655 206.695312 C 656.621094 202.261719 659.546875 198.578125 662.097656 194.714844 C 665.746094 189.195312 671.023438 186.582031 677.761719 187.332031 C 678.832031 187.476562 679.910156 187.558594 680.988281 187.570312 C 683.707031 187.542969 685.871094 188.300781 687.203125 190.949219 C 687.835938 192.199219 688.96875 193.199219 689.878906 194.304688 C 690.335938 194.855469 691.109375 195.339844 691.21875 195.949219 C 692.128906 200.910156 695.722656 204.8125 696.597656 209.777344 C 696.75 210.84375 697.0625 211.878906 697.527344 212.847656 C 699.375 216.339844 698.917969 219.84375 697.578125 223.269531 C 696.535156 225.933594 695.175781 228.472656 693.902344 231.042969 C 692.945312 232.976562 691.765625 234.8125 690.941406 236.796875 C 690.007812 238.746094 689.707031 240.9375 690.085938 243.066406 C 690.710938 246.039062 691.011719 249.082031 691.398438 252.101562 C 692.605469 261.539062 688.855469 265.90625 681.59375 269.945312 C 680.496094 270.550781 679.28125 270.941406 677.476562 271.703125 Z M 677.476562 271.703125 "
                    fill-opacity="1" fill-rule="nonzero" />
            </g>
        </g>
    </g>
    <g clip-path="url(#f6fad575b1)" transform="matrix(1, 0, 0, 1, -50.685854316615405, -111.42570230777699)">
        <g clip-path="url(#60508aa7a3)">
            <g clip-path="url(#f55641da0c)">
                <path fill="#bf9439"
                    d="M 178.875 552.136719 C 176.378906 554.835938 174.105469 557.375 171.734375 559.824219 C 169.789062 562.015625 166.945312 563.203125 164.015625 563.042969 C 161.378906 562.890625 158.839844 563.195312 156.304688 561.511719 C 153.320312 559.535156 150.253906 557.957031 148.027344 554.890625 C 146.496094 552.777344 143.890625 551.46875 141.863281 549.691406 C 139.800781 547.988281 137.867188 546.132812 136.082031 544.140625 C 134.488281 542.34375 133.851562 539.890625 134.371094 537.546875 C 135.347656 533.355469 136.214844 529.101562 137.6875 525.074219 C 138.691406 522.378906 140.210938 519.90625 142.167969 517.792969 C 146.351562 513.304688 151.910156 512.394531 157.46875 514.210938 C 161.714844 515.632812 166.097656 516.613281 170.542969 517.136719 C 175.398438 517.683594 179.527344 520.105469 181.382812 524.9375 C 182.960938 529.046875 186.273438 530.4375 190.019531 531.304688 C 192.992188 531.988281 196.011719 532.519531 199.035156 532.917969 C 201.914062 533.3125 204.558594 534.722656 206.496094 536.890625 C 207.730469 538.191406 209.101562 539.367188 210.277344 540.71875 C 212.808594 543.628906 212.859375 545.910156 210.214844 548.789062 C 208.820312 550.164062 207.277344 551.378906 205.609375 552.410156 C 204.730469 553.011719 203.617188 553.25 202.675781 553.777344 C 196.933594 556.988281 191.234375 556.574219 185.753906 553.300781 C 183.714844 551.996094 181.230469 551.574219 178.875 552.136719 Z M 178.875 552.136719 "
                    fill-opacity="1" fill-rule="nonzero" />
            </g>
        </g>
    </g>
    <g clip-path="url(#540d16ccea)" transform="matrix(1, 0, 0, 1, -50.685854316615405, -111.42570230777699)">
        <g clip-path="url(#8d2471d49c)">
            <g clip-path="url(#20733e6b65)">
                <path fill="#4e7623"
                    d="M 466.601562 698.242188 C 464.660156 699.0625 462.382812 697.707031 460.5 697.773438 C 458.566406 697.839844 456.5625 699.410156 454.574219 699.203125 C 452.308594 698.964844 449.546875 699.398438 445.730469 699.304688 C 443.429688 699.242188 441.128906 699.3125 438.835938 699.511719 C 436.339844 699.730469 433.625 697.265625 431.445312 697.707031 C 428.964844 698.207031 426.878906 699.863281 424.777344 700.507812 C 422.304688 701.265625 420.195312 702.390625 418.199219 703.109375 C 416.066406 703.878906 413.5 702.925781 411.425781 703.476562 C 409.226562 704.058594 407.363281 707.574219 405.183594 707.464844 C 403.085938 707.355469 401.898438 703.671875 399.78125 702.5 C 397.722656 701.34375 394.542969 702.351562 392.539062 701.308594 C 390.445312 700.21875 389.480469 696.933594 387.445312 695.964844 C 385.3125 694.949219 382.480469 695.519531 380.410156 694.640625 C 378.234375 693.714844 375.921875 693.300781 373.808594 692.523438 C 371.59375 691.707031 369.511719 690.703125 367.355469 690.042969 C 365.101562 689.355469 362.535156 690.226562 360.335938 689.707031 C 358.050781 689.167969 356.152344 687.164062 353.914062 686.804688 C 351.605469 686.433594 349.210938 687.5 346.941406 687.320312 C 344.621094 687.136719 342.425781 686.699219 340.136719 686.710938 C 337.824219 686.726562 335.59375 686.699219 333.300781 686.910156 C 331.011719 687.121094 328.90625 688.035156 326.625 688.441406 C 324.074219 688.894531 321.429688 687.8125 319.175781 687.894531 C 316.59375 687.984375 313.972656 689.273438 311.726562 688.945312 C 309.210938 688.582031 307.121094 686.425781 304.941406 685.648438 C 302.605469 684.808594 299.988281 684.558594 297.941406 683.378906 C 295.828125 682.15625 295.042969 679.015625 293.125 677.578125 C 291.183594 676.121094 287.898438 677.285156 286.042969 675.757812 C 284.410156 675.925781 283.019531 674.582031 280.941406 674.089844 C 279.257812 673.6875 277.175781 673.179688 275.46875 671.933594 C 273.605469 670.578125 273.535156 667.953125 272.613281 666.339844 C 271.542969 664.644531 270.710938 662.8125 270.136719 660.890625 C 269.980469 660.792969 269.988281 659.808594 269.832031 659.710938 C 267.4375 658.21875 265.113281 657.992188 263.589844 657.28125 C 261.367188 656.242188 259.621094 656.539062 257.1875 656.863281 C 255.492188 657.085938 253.957031 658.03125 252.015625 658.636719 C 250.410156 659.136719 248.292969 658.597656 246.414062 659.394531 C 243.726562 660.53125 241.199219 662.234375 238.335938 663.621094 C 235.328125 665.078125 232.492188 667.25 229.242188 668.625 C 228.292969 669.027344 227.546875 670.046875 226.582031 670.417969 C 225.136719 670.972656 222.007812 671.382812 218.542969 672.09375 C 216.171875 672.582031 213.335938 671.046875 210.46875 670.941406 C 207.9375 670.851562 205.480469 670.835938 202.828125 669.890625 C 200.847656 669.1875 197.933594 669.945312 196.234375 668.707031 C 194.535156 667.46875 193.019531 665.511719 191.71875 663.855469 C 190.417969 662.203125 189.621094 659.953125 188.835938 658 C 187.78125 655.382812 188.019531 652.492188 188.082031 649.855469 C 188.144531 647.148438 188.46875 644.433594 189.703125 641.964844 C 191.042969 639.28125 191.90625 636.066406 193.789062 634.46875 C 196.15625 632.457031 199.675781 632.296875 201.632812 631.273438 C 202.328125 630.90625 201.800781 629.726562 202.398438 629.351562 C 202.484375 628.324219 203.953125 627.171875 203.871094 625.84375 C 203.683594 622.851562 201.816406 619.199219 202.425781 615.5 C 202.792969 613.253906 203.984375 610.988281 204.8125 609.035156 C 205.683594 606.976562 208.570312 606.046875 209.808594 604.289062 C 211.089844 602.472656 211.617188 600.121094 213.132812 598.601562 C 214.726562 597.003906 215.46875 594.316406 217.136719 593.027344 C 218.976562 591.597656 220.9375 590.269531 222.628906 589.179688 C 224.441406 588.007812 226.875 587.480469 228.960938 586.40625 C 230.863281 585.429688 233.714844 586.246094 235.894531 585.324219 C 238.164062 584.363281 239.902344 582.199219 242.144531 581.382812 C 244.460938 580.542969 246.710938 579.609375 248.964844 578.839844 C 250.855469 578.195312 253.261719 579.171875 255.027344 578.539062 C 256.929688 577.855469 258.496094 576.414062 260.195312 575.695312 C 262.828125 574.582031 265.136719 573.726562 266.78125 572.613281 C 269.132812 571.019531 269.90625 568.734375 270.632812 566.605469 C 271.292969 564.664062 270.214844 562.65625 269.886719 559.773438 C 269.621094 557.453125 271.113281 555.03125 271.269531 552.847656 C 271.433594 550.550781 272.890625 548.578125 273.382812 546.421875 C 273.9375 544.277344 274.605469 542.164062 275.382812 540.089844 C 276.121094 537.898438 274.558594 534.9375 275.335938 532.894531 C 276.390625 530.128906 278.828125 528.03125 279.546875 525.542969 C 280.984375 520.558594 279.800781 517.476562 278.660156 515.5625 C 277.632812 513.84375 276.441406 511.542969 274.429688 509.953125 C 272.804688 508.671875 270.027344 508.671875 267.84375 507.519531 C 265.855469 506.460938 263.804688 505.523438 261.707031 504.707031 C 259.6875 503.921875 257.652344 502.925781 255.375 502.261719 C 253.269531 501.644531 250.828125 502.234375 248.53125 501.734375 C 246.25 501.234375 244.074219 497.828125 241.246094 497.507812 C 239.210938 497.277344 236.757812 499.070312 234.476562 498.699219 C 232.371094 498.359375 230.03125 498.410156 227.867188 497.792969 C 225.789062 497.199219 224.5 494.546875 222.5 493.558594 C 220.574219 492.605469 219.210938 491.300781 217.472656 489.855469 C 215.855469 488.507812 213.117188 488.320312 211.761719 486.441406 C 210.289062 484.40625 208.59375 482.398438 207.71875 480.152344 C 206.824219 477.859375 205.546875 475.453125 205.101562 473.050781 C 204.652344 470.628906 205.507812 467.941406 205.335938 465.515625 C 205.160156 463.027344 204.351562 460.574219 204.277344 458.1875 C 204.21875 456.367188 204.375 453.695312 204.164062 451.144531 C 203.902344 448 203.523438 445.753906 202.703125 444.988281 C 202.6875 444.972656 201.261719 442.710938 193.710938 444.210938 C 192.96875 444.355469 191.945312 444.242188 191.039062 444.625 C 188.554688 445.675781 186.914062 449.335938 184.03125 451.203125 C 182.261719 452.347656 179.355469 451.753906 177.476562 452.847656 C 175.660156 453.90625 173.984375 455.222656 171.96875 456.074219 C 170 456.90625 168.398438 458.867188 166.488281 459.289062 C 164.441406 459.746094 162.171875 457.929688 160.171875 457.917969 C 158.140625 457.902344 156.195312 458.21875 154.183594 457.726562 C 151.910156 457.167969 150.214844 455.824219 148.335938 454.804688 C 146.308594 453.699219 143.425781 453.902344 141.816406 452.453125 C 140.097656 450.90625 139.640625 448.210938 138.351562 446.507812 C 136.980469 444.769531 135.738281 442.9375 134.632812 441.023438 C 133.273438 438.535156 132.128906 436.492188 131.546875 435.121094 C 130.617188 432.929688 128.59375 430.933594 127.941406 428.464844 C 127.363281 425.980469 127.089844 423.433594 127.128906 420.882812 C 127.113281 418.402344 129.125 416.292969 129.714844 414.105469 C 130.34375 411.761719 129.628906 408.910156 130.765625 406.902344 C 131.949219 404.808594 134.289062 403.46875 135.816406 401.726562 C 137.417969 399.894531 138.621094 397.667969 140.367188 396.210938 C 142.308594 394.585938 145.15625 394.429688 146.957031 393.253906 C 149.417969 391.652344 150.511719 388.644531 151.972656 387.84375 C 153.34375 387.089844 156.101562 387.324219 158.160156 386.019531 C 159.925781 384.898438 161.132812 382.878906 162.625 381.542969 C 164.484375 379.875 166.449219 378.585938 166.609375 376.886719 C 166.679688 376.167969 167.351562 374.902344 167.257812 373.652344 C 167.125 371.859375 165.644531 369.671875 165.820312 367.238281 C 166.003906 364.761719 165.640625 362.082031 166.351562 359.917969 C 167.105469 357.617188 170.289062 356.464844 171.507812 354.480469 C 172.757812 352.449219 174.433594 351.058594 176.019531 349.320312 C 177.625 347.558594 177.992188 344.628906 179.789062 343.125 C 181.636719 341.578125 184.453125 341.394531 186.34375 340.066406 C 188.363281 338.644531 190.171875 337.121094 192.042969 335.894531 C 193.121094 335.1875 191.792969 333.160156 192.875 332.453125 C 195.1875 330.941406 198.738281 331.699219 200.636719 330.375 C 202.949219 328.761719 203.152344 325.03125 204.847656 323.515625 C 206.945312 321.644531 208.257812 320.257812 209.398438 318.203125 C 210.59375 316.054688 211.582031 314.46875 211.726562 311.707031 C 211.835938 309.644531 214.234375 307.316406 213.84375 305.117188 C 213.484375 303.089844 210.558594 301.539062 209.941406 299.40625 C 209.359375 297.398438 210.21875 294.894531 209.546875 292.808594 C 208.867188 290.703125 208.273438 288.523438 207.621094 286.296875 C 206.996094 284.15625 206.871094 281.910156 206.394531 279.65625 C 205.925781 277.46875 204.621094 275.449219 204.40625 273.152344 C 204.195312 270.9375 205.632812 268.777344 205.757812 266.457031 C 205.832031 264.277344 206.097656 262.105469 206.542969 259.96875 C 207.050781 257.644531 206.625 255.285156 207.488281 253.203125 C 208.386719 251.03125 210.152344 249.5625 211.421875 247.671875 C 212.714844 245.75 213.496094 243.660156 215.15625 242.042969 C 216.785156 240.453125 218.113281 238.5 220.089844 237.21875 C 221.976562 235.996094 223.566406 233.808594 225.757812 232.882812 C 227.8125 232.007812 229.921875 231.265625 232.070312 230.65625 C 234.160156 230.078125 236.84375 232.019531 238.992188 231.644531 C 241.136719 231.269531 243.273438 231.417969 245.429688 231.1875 C 247.613281 230.957031 249.660156 229.800781 251.808594 229.664062 C 254.019531 229.519531 256.234375 230.171875 258.355469 230.066406 C 260.363281 229.964844 262.304688 229.398438 264.179688 229.277344 C 266.226562 229.144531 267.96875 226.859375 269.785156 226.640625 C 271.765625 226.40625 274.070312 228.296875 276.257812 228.140625 C 278.277344 228 280.304688 226.8125 282.464844 226.6875 C 284.867188 226.550781 287.472656 228.144531 289.957031 227.960938 C 292.425781 227.785156 294.597656 224.433594 297.007812 224.144531 C 299.539062 223.84375 302.140625 224.867188 304.449219 224.375 C 307.023438 223.828125 309.050781 222.398438 311.144531 221.515625 C 315.882812 219.511719 318.152344 218.542969 318.65625 216.894531 C 318.757812 216.5625 319.230469 216.707031 319.332031 216.371094 C 319.925781 214.429688 317.925781 211.367188 318.757812 209.167969 C 319.511719 207.175781 321.027344 205.199219 322.160156 203.226562 C 323.230469 201.363281 326.519531 201.121094 328.082031 199.464844 C 329.53125 197.929688 329.484375 194.429688 331.476562 193.222656 C 332.46875 192.625 334.402344 193.667969 335.515625 193.195312 C 338.820312 191.796875 341.660156 190.054688 344.21875 189.601562 C 346.152344 189.253906 348.035156 189.121094 349.792969 188.820312 C 352.765625 188.3125 355.195312 186.519531 357.585938 186.042969 C 360.835938 185.398438 363.921875 186.65625 365.894531 185.824219 C 367.386719 185.191406 369.316406 184.515625 370.660156 181.042969 C 371.257812 179.492188 373.085938 177.5 373.550781 174.589844 C 373.847656 172.703125 371.898438 170.171875 372.117188 167.546875 C 372.25 165.933594 371.171875 163.976562 371.234375 161.832031 C 371.289062 160.027344 374.855469 158.175781 374.894531 156.1875 C 374.9375 153.875 374.058594 151.488281 374.125 149.070312 C 374.195312 146.726562 375.210938 144.425781 375.34375 142.039062 C 375.476562 139.671875 374.222656 137.238281 374.460938 134.886719 C 374.699219 132.507812 375.339844 130.230469 375.726562 127.917969 C 376.128906 125.539062 376.300781 123.199219 376.902344 120.957031 C 377.53125 118.609375 377.582031 116.121094 378.480469 113.996094 C 379.429688 111.757812 381.683594 110.367188 382.988281 108.449219 C 384.335938 106.46875 385.433594 104.566406 387.226562 103.019531 C 389.8125 100.789062 392.582031 99.722656 394.917969 98.390625 C 396.398438 97.519531 397.769531 96.484375 399.011719 95.296875 C 400.375 93.980469 401.890625 90.996094 403.144531 88.003906 C 404.171875 85.558594 404.535156 82.460938 406.132812 79.707031 C 407.53125 77.304688 409.988281 75.683594 412.257812 73.523438 C 413.550781 72.292969 415.007812 71.601562 416.566406 70.605469 C 418.058594 69.648438 418.449219 66.539062 420.164062 65.8125 C 422.125 64.871094 424.152344 64.070312 426.226562 63.410156 C 428.574219 62.820312 431.007812 63.308594 432.699219 63.058594 C 435.386719 62.660156 438.023438 63.65625 440.425781 63.660156 C 443.144531 63.671875 445.773438 62.972656 448.125 63.5 C 450.6875 63.992188 453.167969 64.851562 455.484375 66.058594 C 457.710938 67.324219 459.449219 69.410156 461.160156 71.355469 C 462.683594 73.089844 464.277344 74.746094 465.167969 76.613281 C 466.148438 78.667969 464.976562 81.316406 465.449219 83.324219 C 465.988281 85.621094 468.128906 87.433594 468.394531 89.359375 C 468.492188 90.082031 467.285156 90.988281 467.394531 91.695312 C 467.671875 93.488281 468.730469 96.113281 470.027344 99 C 470.960938 101.082031 471.964844 103.527344 473.3125 105.917969 C 474.503906 108.023438 476.566406 109.792969 478.003906 111.980469 C 479.375 114.0625 481.371094 115.753906 482.910156 117.78125 C 484.460938 119.816406 486.757812 121.105469 488.417969 122.953125 C 490.070312 124.789062 491.828125 126.523438 493.6875 128.148438 C 495.730469 129.941406 496.933594 132.289062 498.964844 133.421875 C 500.570312 134.316406 503.136719 135.722656 504.921875 134.96875 C 505.050781 134.910156 505.578125 135.640625 505.707031 135.566406 C 506.496094 135.109375 506.988281 133.476562 508.105469 132.640625 C 510.738281 130.765625 513.578125 129.203125 516.574219 127.988281 C 519.222656 126.867188 521.683594 125.402344 523.878906 125.355469 C 526.558594 125.269531 529.230469 125.695312 531.746094 126.617188 C 535.648438 128.253906 537.347656 132.382812 539.058594 134.390625 C 539.09375 134.371094 539.582031 134.394531 539.621094 134.375 C 541.980469 133.007812 543.625 130.480469 545.925781 128.742188 C 548.097656 127.101562 551.347656 126.707031 553.585938 124.890625 C 555.773438 123.113281 557.914062 121.242188 560.234375 119.472656 C 562.472656 117.765625 563.972656 114.925781 566.4375 113.351562 C 569.410156 111.453125 572.90625 110.496094 576.054688 109.164062 C 578.324219 108.203125 580.945312 108.78125 583.195312 108.160156 C 585.574219 107.507812 587.320312 103.875 589.644531 103.605469 C 592.085938 103.324219 594.738281 103.851562 597.082031 103.988281 C 599.554688 104.101562 602.007812 104.449219 604.414062 105.027344 C 606.746094 105.640625 609.027344 106.960938 611.164062 108.050781 C 613.164062 109.066406 614.253906 111.480469 615.960938 112.898438 C 617.667969 114.324219 619.390625 115.605469 620.765625 117.375 C 622.121094 119.117188 623.292969 120.996094 624.265625 122.976562 C 625.234375 124.949219 624.957031 127.261719 625.550781 129.449219 C 626.121094 131.558594 628.296875 133.351562 628.496094 135.617188 C 628.691406 137.882812 627.441406 140.078125 627.242188 142.253906 C 627.03125 144.511719 626.109375 146.398438 625.496094 148.503906 C 624.867188 150.671875 625.332031 153.117188 624.296875 155.066406 C 623.25 157.046875 621.621094 158.570312 620.183594 160.265625 C 618.746094 161.957031 617.574219 163.902344 615.777344 165.246094 C 614.117188 166.46875 612.363281 167.558594 610.535156 168.507812 C 608.621094 169.53125 606.410156 169.667969 604.648438 170.464844 C 601.492188 171.894531 598.003906 173.265625 596.796875 174.773438 C 595.765625 176.066406 594.996094 178.707031 594.796875 181.191406 C 594.648438 183.078125 596.8125 185.226562 596.921875 187.414062 C 597.023438 189.457031 597.941406 191.464844 598.109375 193.492188 C 598.347656 196.355469 595.878906 199.445312 595.960938 202.351562 C 596.042969 205.273438 596.84375 208.15625 596.4375 211.003906 C 596.203125 212.648438 596.660156 214.511719 596.429688 216.382812 C 596.140625 218.707031 593.574219 220.867188 593.203125 223.425781 C 592.855469 225.8125 595.105469 228.714844 594.609375 231.1875 C 594.128906 233.597656 592.179688 235.714844 591.492188 238.101562 C 590.800781 240.488281 591.910156 243.613281 590.945312 245.875 C 589.964844 248.171875 586.96875 249.523438 585.632812 251.582031 C 584.28125 253.664062 581.886719 254.613281 580.097656 256.332031 C 579.011719 257.378906 579.101562 259.4375 578.171875 260.195312 C 577.589844 260.675781 575.21875 260.5 574.824219 260.890625 C 574.3125 262.382812 573.933594 265.71875 574.011719 268.679688 C 574.066406 270.867188 574.710938 273.414062 575.011719 275.820312 C 575.316406 278.234375 577.175781 280.433594 577.667969 282.570312 C 578.335938 285.457031 580.382812 286.691406 581.257812 288 C 582.511719 289.09375 583.988281 290.785156 586.542969 291.765625 C 587.667969 292.199219 588.117188 294.300781 589.21875 294.757812 C 591.207031 295.585938 593.121094 296.578125 594.945312 297.726562 C 596.742188 298.863281 598.398438 300.203125 599.886719 301.71875 C 601.644531 303.445312 604.527344 303.890625 605.519531 305.625 C 606.765625 307.8125 606.765625 310.296875 607.167969 312.175781 C 607.722656 314.757812 606.246094 317.054688 606.238281 318.765625 C 606.234375 318.851562 608.332031 318.328125 608.332031 318.421875 C 608.53125 318.488281 608.519531 317.984375 608.78125 318.035156 C 609.871094 318.261719 610.972656 319.667969 612.402344 319.824219 C 615.117188 320.113281 618.308594 320.03125 621.617188 321.050781 C 623.808594 321.726562 625.589844 323.378906 627.589844 324.542969 C 629.550781 325.6875 632.222656 326.023438 633.949219 327.589844 C 635.625 329.109375 635.65625 332.171875 637.066406 334.035156 C 638.425781 335.839844 641.65625 336.539062 642.722656 338.625 C 643.753906 340.632812 645.054688 342.828125 645.777344 345.058594 C 646.417969 347.035156 645.011719 349.566406 645.476562 351.46875 C 645.96875 353.464844 648.042969 355.085938 648.414062 357.019531 C 648.800781 359.027344 648.242188 361.183594 648.578125 363.136719 C 649.046875 365.863281 649.421875 368.476562 649.964844 370.980469 C 650.542969 373.644531 652.605469 375.628906 653.542969 378.078125 C 654.476562 380.519531 655.015625 382.8125 656.582031 385.082031 C 657.667969 386.660156 657.324219 389.316406 658.714844 390.699219 C 659.972656 391.953125 663.03125 391.414062 664.578125 392.800781 C 665.277344 393.429688 665.496094 394.625 666.21875 395.28125 C 668.007812 396.917969 668.800781 399.515625 670.339844 401.292969 C 671.925781 403.121094 674.78125 403.882812 676.242188 405.71875 C 677.5625 407.382812 677.449219 410.128906 678.710938 411.585938 C 680.191406 413.300781 682.589844 413.65625 684.003906 414.726562 C 685.410156 415.785156 686.601562 419.09375 689.171875 420.046875 C 690.957031 420.707031 693.011719 420.828125 694.972656 421.71875 C 696.804688 422.476562 698.574219 423.390625 700.253906 424.445312 C 703.15625 426.378906 706.703125 426.9375 708.753906 428.796875 C 710.800781 430.648438 711.542969 433.601562 713.382812 434.574219 C 715.101562 435.480469 717.179688 435.824219 719.09375 436.574219 C 720.898438 437.285156 722.59375 438.476562 724.527344 439.167969 C 726.800781 439.980469 729.414062 440.226562 731.855469 441.222656 C 734.132812 442.152344 737.074219 442.042969 739.363281 443.285156 C 741.527344 444.464844 742.835938 447.242188 744.898438 448.835938 C 746.914062 450.34375 748.78125 452.042969 750.472656 453.90625 C 752.074219 455.714844 754.847656 456.9375 756.214844 459.230469 C 757.75 461.800781 758.046875 465.578125 759.726562 468.773438 C 760.683594 470.59375 761.167969 472.8125 762.25 474.808594 C 763.097656 476.371094 764.261719 477.425781 764.898438 478.46875 C 765.820312 479.976562 768.925781 481.277344 769.757812 483.699219 C 770.433594 485.664062 770.410156 488.523438 770.160156 490.925781 C 769.949219 492.902344 768.214844 494.902344 766.898438 497.089844 C 764.800781 500.566406 765.25 503.636719 764.386719 505.554688 C 763.488281 507.554688 759.933594 508.476562 758.027344 510.683594 C 756.546875 512.394531 754.910156 513.371094 752.148438 514.535156 C 750.308594 515.316406 748.941406 517.535156 745.851562 518.082031 C 743.335938 518.527344 740.261719 518.320312 737.378906 519.386719 C 734.855469 520.324219 731.914062 520.785156 729.207031 521.910156 C 726.984375 522.835938 725.253906 525.078125 722.933594 525.980469 C 720.664062 526.863281 718.792969 529.097656 716.441406 529.835938 C 714.101562 530.566406 711.246094 529.496094 708.835938 529.960938 C 706.4375 530.332031 704.015625 530.507812 701.589844 530.488281 C 699.171875 530.566406 696.972656 529.824219 694.503906 529.417969 C 692.199219 528.945312 689.953125 528.230469 687.796875 527.285156 C 685.347656 526.332031 682.730469 526.207031 680.71875 525.1875 C 678.230469 523.929688 674.832031 524.320312 673.605469 524.535156 C 673.550781 524.542969 673.773438 524.46875 673.546875 524.5625 C 672.027344 525.132812 670.589844 525.902344 669.273438 526.847656 C 667.667969 528.050781 665.058594 528.3125 662.980469 529.546875 C 661.65625 530.335938 660.929688 532.542969 659.496094 533.148438 C 657.226562 534.109375 653.992188 531.804688 651.613281 532.28125 C 649.203125 532.761719 647.109375 534.210938 644.675781 534.203125 C 642.226562 534.195312 639.429688 536.183594 637.039062 535.691406 C 634.648438 535.195312 632.871094 532.261719 630.621094 531.292969 C 628.390625 530.328125 625.949219 529.742188 623.941406 528.320312 C 622.332031 527.277344 620.792969 526.136719 619.332031 524.902344 C 617.867188 523.539062 617.074219 521.621094 615.839844 520.335938 C 614.074219 518.496094 612.847656 516.050781 611.265625 514.90625 C 609.324219 513.5 606.585938 512.027344 604.128906 511.703125 C 601.824219 511.398438 599.160156 513.113281 596.722656 513.453125 C 594.3125 513.789062 592.394531 515.945312 590.160156 516.621094 C 587.617188 517.386719 584.433594 515.804688 582.527344 516.609375 C 580.308594 517.546875 578.585938 519.714844 576.398438 520.851562 C 574.234375 521.980469 571.316406 521.863281 569.230469 523.128906 C 567.121094 524.410156 565.953125 527.175781 563.96875 528.542969 C 561.910156 529.964844 559.015625 530.207031 557.144531 531.660156 C 555.125 533.230469 554.386719 536.222656 552.648438 537.753906 C 550.660156 539.507812 548.761719 541.015625 547.234375 542.609375 C 545.769531 544.136719 545.113281 546.246094 543.796875 547.902344 C 542.496094 549.550781 540.128906 550.371094 538.921875 552.128906 C 537.734375 553.851562 535.683594 555.054688 534.539062 556.859375 C 533.421875 558.625 534.632812 561.867188 533.511719 563.691406 C 532.359375 565.554688 530.828125 567.214844 529.640625 569.085938 C 528.46875 570.933594 525.710938 571.765625 524.460938 573.597656 C 523.226562 575.402344 521.179688 576.554688 519.824219 578.3125 C 518.492188 580.039062 518.765625 583.070312 517.28125 584.730469 C 515.832031 586.347656 514.890625 588.621094 513.257812 590.148438 C 511.679688 591.625 509.238281 592.269531 507.453125 593.644531 C 505.546875 595.039062 503.714844 596.53125 501.960938 598.113281 C 500.15625 599.824219 497.464844 600.648438 496.035156 602.390625 C 494.46875 604.25 493.03125 606.214844 491.738281 608.277344 C 490.472656 610.378906 491.628906 613.621094 490.769531 615.746094 C 489.859375 617.992188 487.941406 619.792969 487.410156 622.050781 C 486.859375 624.382812 485.570312 626.65625 485.335938 628.984375 C 485.097656 631.355469 485.503906 633.835938 485.503906 636.183594 C 485.5 638.566406 486.976562 640.890625 487.117188 643.230469 C 487.261719 645.621094 487.714844 647.945312 487.90625 650.265625 C 488.089844 652.519531 488.519531 655.214844 488.175781 657.683594 C 487.855469 659.960938 486.125 662.179688 485.46875 664.535156 C 484.835938 666.800781 484.355469 669.214844 483.511719 671.449219 C 482.660156 673.699219 480.082031 675.214844 479.117188 677.335938 C 478.089844 679.597656 478.542969 682.476562 477.503906 684.480469 C 476.296875 686.804688 475.417969 689.089844 474.371094 690.902344 C 472.261719 694.921875 468.605469 696.824219 466.398438 697.757812 Z M 466.601562 698.242188 "
                    fill-opacity="1" fill-rule="nonzero" />
            </g>
        </g>
    </g>
    <g clip-path="url(#6d79f63147)" transform="matrix(1, 0, 0, 1, -50.685854316615405, -111.42570230777699)">
        <g clip-path="url(#03e4e8719a)">
            <g clip-path="url(#f55c2fe554)">
                <path fill="#7ea356"
                    d="M 446.046875 686.085938 C 448.394531 686.140625 450.429688 686.007812 452.160156 686.152344 C 454.746094 686.363281 456.648438 687.34375 458.171875 687.464844 C 461.121094 687.699219 462.644531 687.066406 463.628906 685.066406 C 463.675781 684.972656 465.207031 682.492188 467.128906 678.75 C 468.105469 676.84375 469.394531 674.695312 470.453125 672.308594 C 471.40625 670.167969 470.996094 667.378906 471.8125 665.085938 C 472.640625 662.753906 472.597656 660.367188 473.082031 658.113281 C 473.636719 655.535156 477.121094 653.316406 476.941406 651.167969 C 476.761719 648.960938 476.128906 646.742188 475.984375 644.398438 C 475.851562 642.167969 474.3125 639.953125 474.289062 637.625 C 474.265625 635.375 475.714844 633.152344 475.859375 630.835938 C 476 628.59375 476.734375 626.5 477.09375 624.207031 C 477.445312 621.988281 475.628906 619.308594 476.242188 617.066406 C 476.832031 614.90625 478.800781 613.152344 479.679688 610.988281 C 480.519531 608.925781 480.878906 606.597656 482.023438 604.546875 C 483.101562 602.617188 485.503906 601.53125 486.894531 599.617188 C 488.1875 597.832031 489.796875 596.410156 491.386719 594.652344 C 492.863281 593.023438 492.746094 589.75 494.503906 588.148438 C 496.128906 586.667969 498.160156 585.46875 500.042969 584.019531 C 501.9375 582.5625 503.015625 580.382812 504.660156 578.761719 C 506.34375 577.101562 508.109375 575.695312 509.589844 573.894531 C 511.085938 572.085938 512.089844 570.007812 513.4375 568.09375 C 514.785156 566.179688 516.71875 564.707031 517.980469 562.726562 C 519.238281 560.757812 521.375 559.328125 522.605469 557.328125 C 523.832031 555.339844 524.769531 553.167969 526.027344 551.183594 C 527.28125 549.210938 527.886719 546.792969 529.226562 544.859375 C 530.558594 542.941406 533.054688 541.886719 534.523438 540.046875 C 535.976562 538.230469 536.304688 535.40625 537.945312 533.695312 C 539.398438 532.183594 541.699219 531.203125 543.535156 529.546875 C 545.152344 528.089844 546.371094 525.941406 548.238281 524.4375 C 549.964844 523.042969 551.847656 521.65625 553.753906 520.269531 C 555.570312 518.941406 558.582031 519.273438 560.527344 517.996094 C 562.425781 516.746094 563.675781 514.460938 565.664062 513.292969 C 567.640625 512.136719 569.648438 511.007812 571.6875 509.964844 C 573.742188 508.914062 576.488281 509.480469 578.578125 508.585938 C 580.710938 507.667969 582.722656 506.859375 584.863281 506.140625 C 587.078125 505.398438 588.585938 502.378906 590.773438 501.890625 C 593.070312 501.378906 595.5 501.480469 597.726562 501.300781 C 600.074219 501.113281 602.585938 499.769531 604.808594 500.003906 C 607.128906 500.25 609.304688 502.15625 611.4375 502.929688 C 613.570312 503.707031 614.785156 506.050781 616.683594 507.421875 C 618.320312 508.609375 621.214844 508.308594 622.644531 509.742188 C 624.066406 511.171875 624.667969 513.429688 626.097656 514.851562 C 627.53125 516.285156 628.140625 518.902344 629.792969 520.074219 C 631.699219 521.425781 635.023438 520.277344 637.238281 521.003906 C 639.449219 521.730469 641.453125 523.636719 643.785156 523.730469 C 646.179688 523.875 648.582031 523.695312 650.929688 523.199219 C 653.195312 522.65625 655.164062 520.972656 657.171875 519.777344 C 659.511719 518.386719 662.515625 517.789062 664.753906 516.203125 C 667.046875 514.582031 668.703125 512.554688 671.449219 512.082031 C 673.738281 511.574219 676.117188 511.636719 678.375 512.269531 C 680.652344 512.960938 682.867188 513.839844 685 514.890625 C 687.136719 515.96875 688.867188 518.09375 691.035156 518.933594 C 693.226562 519.785156 695.753906 519.683594 698 519.875 C 700.257812 520.0625 702.34375 518.140625 704.636719 517.816406 C 706.851562 517.5 709.234375 518.289062 711.46875 517.636719 C 713.625 517.003906 716.246094 517.496094 718.410156 516.671875 C 720.53125 515.863281 722.75 515.148438 724.867188 514.269531 C 726.988281 513.390625 729.125 512.601562 731.226562 511.765625 C 733.386719 510.90625 734.921875 508.492188 737.046875 507.808594 C 739.28125 507.085938 741.8125 508.003906 743.992188 507.617188 C 747.78125 506.945312 750.203125 506.027344 751.332031 504.675781 C 752.382812 503.421875 750.972656 500.171875 752.53125 496.9375 C 753.351562 495.234375 755.238281 493.527344 756.769531 490.984375 C 757.902344 489.109375 757.332031 488.007812 755.792969 485.445312 C 754.972656 484.074219 755.332031 481.5625 754.074219 479.242188 C 752.722656 476.75 751 474.632812 749.835938 472.421875 C 748.445312 469.78125 746.898438 467.503906 745.703125 465.5 C 744.378906 463.28125 743.164062 460.910156 741.527344 459.289062 C 739.765625 457.53125 737.382812 456.335938 735.34375 455.085938 C 733.28125 453.824219 730.621094 453.671875 728.371094 452.71875 C 726.15625 451.785156 723.550781 451.929688 721.25 451.105469 C 718.980469 450.292969 717.359375 447.65625 715.089844 446.761719 C 712.882812 445.816406 710.726562 444.75 708.636719 443.5625 C 706.828125 442.605469 704.0625 443.136719 702.578125 441.914062 C 701.046875 440.652344 699.363281 439.519531 697.886719 438.203125 C 696.4375 436.914062 695.707031 434.917969 694.027344 433.800781 C 692.179688 432.570312 690.1875 431.902344 688.121094 431.085938 C 686.054688 430.273438 683.628906 430.28125 681.597656 429.441406 C 679.527344 428.589844 679.042969 424.964844 677.277344 423.628906 C 675.5 422.285156 671.707031 422.992188 670.113281 421.238281 C 668.597656 419.570312 669.675781 415.609375 668.226562 413.789062 C 666.789062 411.984375 663.148438 411.964844 661.675781 410.222656 C 660.242188 408.492188 658.691406 406.863281 657.035156 405.339844 C 654.851562 403.34375 654.15625 400.050781 652.1875 398.128906 C 650.21875 396.207031 649.105469 393.863281 647.410156 391.402344 C 646.257812 389.667969 645.242188 387.847656 644.371094 385.957031 C 643.398438 383.96875 641.695312 382.507812 641.027344 380.496094 C 640.335938 378.425781 640.472656 376.25 639.992188 374.15625 C 639.511719 372.046875 638.605469 370.085938 638.226562 367.953125 C 637.851562 365.835938 636.824219 363.824219 636.441406 361.683594 C 636.0625 359.578125 634.664062 357.679688 634.171875 355.550781 C 633.695312 353.476562 634.722656 350.960938 634.042969 348.867188 C 633.246094 346.414062 631.445312 344.222656 630.042969 342.027344 C 628.628906 339.808594 625.929688 338.960938 623.957031 337.3125 C 621.957031 335.640625 620.730469 332.882812 618.210938 332.109375 C 616.273438 331.445312 614.277344 330.964844 612.253906 330.671875 C 610.25 330.449219 607.828125 332.5625 605.859375 332.15625 C 603.917969 331.753906 602.175781 329.574219 600.511719 328.496094 C 598.789062 327.378906 598.652344 325.316406 597.984375 323.382812 C 596.96875 320.457031 596.714844 317.582031 596.066406 314.554688 C 595.511719 311.980469 594.742188 308.914062 592.726562 307.207031 C 590.789062 305.558594 587.46875 305.542969 585.128906 304.566406 C 582.761719 303.578125 580.246094 302.792969 577.894531 301.746094 C 575.507812 300.679688 574.277344 298.1875 572.429688 296.351562 C 571.128906 295.050781 568.296875 293.972656 567.265625 291.1875 C 566.5 289.109375 567.566406 286.222656 567.007812 283.679688 C 566.5 281.375 564.1875 279.265625 563.886719 276.820312 C 563.589844 274.367188 563.6875 271.804688 563.628906 269.445312 C 563.554688 266.984375 563.660156 264.515625 563.949219 262.070312 C 564.320312 259.144531 566.199219 257.175781 567.277344 255.625 C 568.890625 253.15625 570.746094 250.859375 572.8125 248.761719 C 574.453125 247.1875 577.378906 246.3125 578.542969 244.167969 C 579.621094 242.183594 579.554688 239.429688 580.3125 237.125 C 581.03125 234.945312 582.558594 232.835938 583.058594 230.507812 C 583.554688 228.210938 584.261719 225.855469 584.613281 223.550781 C 584.976562 221.171875 582.699219 218.460938 582.980469 216.210938 C 583.289062 213.730469 586.085938 211.710938 586.386719 209.574219 C 586.699219 207.394531 583.898438 204.890625 583.816406 202.421875 C 583.742188 200.15625 583.496094 197.878906 583.300781 195.492188 C 583.109375 193.167969 586.058594 190.601562 585.933594 188.269531 C 585.730469 185.992188 585.660156 183.703125 585.714844 181.414062 C 585.855469 179 583.910156 176.332031 584.558594 174.160156 C 585.234375 171.894531 588.066406 170.824219 589.550781 168.96875 C 591.234375 166.867188 591.867188 163.589844 594.199219 162.285156 C 596.472656 161.019531 599.328125 160.621094 601.746094 159.503906 C 604.152344 158.460938 606.441406 157.164062 608.570312 155.636719 C 610.546875 154.15625 611.507812 152.121094 612.730469 150.066406 C 613.957031 148.007812 616.839844 146.472656 617.328125 144.09375 C 617.8125 141.746094 615.902344 139.136719 615.691406 136.726562 C 615.484375 134.316406 615.699219 131.902344 614.816406 129.671875 C 613.925781 127.410156 613.183594 124.9375 611.617188 123.117188 C 610.0625 121.304688 607.226562 121.234375 605.027344 120.113281 C 602.9375 119.050781 601.292969 117.398438 599.050781 117.015625 C 596.800781 116.632812 594.472656 115.75 592.15625 115.945312 C 589.898438 116.136719 588.023438 118.402344 585.789062 119.042969 C 583.640625 119.660156 581.546875 120.445312 579.523438 121.394531 C 577.421875 122.367188 575.054688 122.648438 573.144531 123.867188 C 571.203125 125.105469 569.257812 126.304688 567.417969 127.6875 C 565.582031 129.070312 563.597656 130.265625 561.804688 131.714844 C 560.015625 133.160156 558.367188 134.785156 556.566406 136.214844 C 554.761719 137.648438 553.230469 139.464844 551.359375 140.800781 C 549.488281 142.136719 547.800781 143.917969 545.804688 145.074219 C 544.304688 145.941406 542.226562 146.394531 540.542969 146.820312 C 538.78125 147.265625 536.171875 148.105469 534.527344 147.359375 C 532.808594 146.578125 533.25 142.785156 532.011719 141.308594 C 530.710938 139.679688 529.074219 138.355469 527.207031 137.425781 C 525.253906 136.601562 523.144531 138.449219 521.285156 139.242188 C 519.609375 139.960938 517.425781 140.175781 515.777344 141.390625 C 514.1875 142.488281 512.535156 143.496094 510.828125 144.40625 C 508.734375 145.621094 506.960938 146.695312 504.707031 146.8125 C 502.445312 146.882812 500.1875 146.519531 498.0625 145.738281 C 496.003906 145.050781 493.367188 145.109375 491.300781 143.839844 C 489.429688 142.6875 488.074219 140.519531 486.234375 138.988281 C 484.523438 137.5625 482.515625 136.316406 480.863281 134.636719 C 479.277344 133.027344 477.082031 131.828125 475.582031 130.046875 C 474.105469 128.300781 474.503906 125.039062 473.136719 123.191406 C 471.757812 121.332031 469.300781 120.257812 468.054688 118.359375 C 466.769531 116.394531 466.804688 113.691406 465.6875 111.753906 C 464.492188 109.675781 462.726562 108.054688 461.765625 106.089844 C 460.675781 103.867188 459.453125 101.894531 458.710938 99.929688 C 457.765625 97.425781 455.867188 95.386719 455.578125 93.527344 C 455.195312 91.066406 454.578125 88.648438 454.023438 86.207031 C 453.453125 83.691406 453.195312 81.777344 451.5 79.851562 C 450.050781 78.203125 448.660156 77.738281 446.636719 77.054688 C 444.679688 76.390625 443.027344 74.121094 440.847656 74.085938 C 438.714844 74.046875 436.71875 76.035156 434.664062 76.339844 C 431.980469 76.734375 428.835938 75.425781 426.277344 76.335938 C 423.671875 77.261719 421.824219 79.5625 419.828125 81.464844 C 418.261719 82.960938 415.394531 83.644531 414.367188 85.539062 C 413.359375 87.398438 412.3125 89.460938 411.476562 91.453125 C 410.640625 93.441406 410.019531 95.367188 409.015625 97.230469 C 407.996094 99.128906 407.550781 101.023438 405.992188 102.527344 C 404.300781 104.238281 402.398438 105.726562 400.332031 106.953125 C 398.195312 108.175781 396.40625 109.914062 394.550781 111.511719 C 392.972656 112.871094 390.226562 113.769531 389.128906 115.847656 C 388.167969 117.671875 389.503906 120.652344 388.84375 122.890625 C 388.25 124.90625 386.386719 126.71875 385.996094 128.96875 C 385.625 131.082031 386.441406 133.421875 386.210938 135.652344 C 385.984375 137.820312 386.914062 140.0625 386.785156 142.269531 C 386.65625 144.480469 385.421875 146.609375 385.355469 148.785156 C 385.285156 151.039062 384.308594 153.226562 384.269531 155.359375 C 384.222656 157.671875 385.839844 159.933594 385.785156 162.003906 C 385.714844 164.429688 382.957031 166.5 382.796875 168.429688 C 382.578125 171.042969 384.902344 173.71875 384.570312 175.875 C 384.160156 178.523438 380.757812 180.15625 380.148438 182.207031 C 379.371094 184.808594 380.8125 187.910156 379.660156 189.71875 C 378.300781 191.855469 376.605469 194.03125 374.628906 195.351562 C 372.765625 196.59375 369.566406 195.328125 367.074219 196.121094 C 364.992188 196.78125 363.242188 199.417969 360.667969 199.933594 C 358.5 200.371094 355.976562 199.910156 353.429688 200.347656 C 351.21875 200.726562 348.808594 200.839844 346.292969 201.289062 C 343.410156 201.746094 340.640625 202.730469 338.113281 204.1875 C 336.273438 205.214844 334.679688 206.640625 333.457031 208.359375 C 332.335938 210.058594 332.417969 212.394531 331.679688 214.386719 C 330.953125 216.351562 329.78125 218.160156 329.183594 220.117188 C 328.445312 222.523438 327.734375 225.027344 326.261719 226.816406 C 324.769531 228.636719 322.496094 229.914062 320.40625 231.199219 C 318.453125 232.40625 316.625 234.558594 314.285156 235.386719 C 312.109375 236.152344 309.089844 234.382812 306.6875 234.894531 C 304.398438 235.382812 302.3125 237.285156 299.914062 237.597656 C 297.554688 237.90625 295.007812 236.550781 292.632812 236.742188 C 290.21875 236.941406 288.011719 239.898438 285.675781 240.039062 C 283.207031 240.183594 280.746094 239.195312 278.46875 239.34375 C 275.917969 239.507812 273.453125 238.867188 271.285156 239.128906 C 269.003906 239.402344 266.707031 241.117188 264.230469 241.269531 C 261.890625 241.414062 259.371094 239.621094 256.941406 239.75 C 254.554688 239.871094 252.144531 240.121094 249.753906 240.3125 C 247.339844 240.507812 245.117188 242.128906 242.777344 242.476562 C 240.351562 242.835938 237.59375 241.453125 235.339844 242.074219 C 232.964844 242.726562 231.226562 245.019531 229.140625 246.070312 C 226.972656 247.164062 224.707031 247.964844 222.964844 249.613281 C 221.277344 251.207031 221.304688 253.882812 220.128906 256.113281 C 219.09375 258.082031 217.648438 259.734375 217.089844 262.28125 C 216.546875 264.746094 214.886719 267.007812 214.9375 269.414062 C 214.988281 271.863281 214.40625 274.578125 214.882812 276.992188 C 215.355469 279.375 218.96875 281.011719 219.671875 283.378906 C 220.371094 285.714844 218.273438 288.933594 219.023438 291.273438 C 219.773438 293.609375 220.464844 295.890625 221.097656 298.25 C 221.738281 300.625 222.777344 302.761719 223.117188 305.179688 C 223.460938 307.59375 225.976562 309.976562 225.847656 312.449219 C 225.710938 315.03125 224.816406 317.605469 224.152344 319.773438 C 223.421875 322.160156 220.527344 323.453125 219.261719 325.445312 C 217.976562 327.46875 217.59375 330.132812 215.871094 331.863281 C 214.210938 333.535156 211.988281 334.664062 210.03125 336.167969 C 208.160156 337.601562 206.257812 339.066406 204.210938 340.4375 C 202.246094 341.753906 201.066406 344.359375 199.019531 345.699219 C 197.253906 346.859375 194.472656 346.613281 192.667969 347.863281 C 190.886719 349.097656 189.628906 351.03125 187.976562 352.398438 C 186.277344 353.703125 184.6875 355.148438 183.222656 356.710938 C 181.769531 358.378906 181.484375 360.511719 180.574219 362.4375 C 179.664062 364.363281 177.109375 365.8125 176.945312 368.054688 C 176.707031 371.335938 179.515625 374.8125 179.203125 378.089844 C 178.953125 380.6875 177.472656 383.304688 176.179688 385.433594 C 174.910156 387.519531 173.523438 390.078125 171.589844 391.792969 C 169.753906 393.429688 166.421875 393.347656 164.285156 394.71875 C 162.148438 396.089844 160.945312 399.109375 158.804688 400.285156 C 156.667969 401.457031 153.554688 401.152344 151.453125 402.585938 C 149.417969 404.074219 147.515625 405.742188 145.769531 407.566406 C 143.941406 409.304688 142.402344 411.324219 141.214844 413.546875 C 140.082031 415.757812 137.914062 418.207031 137.925781 420.824219 C 137.945312 424.234375 140.953125 427.421875 142.285156 430.5625 C 143.25 432.835938 143.539062 435.632812 144.871094 437.785156 C 146.222656 439.980469 148.792969 441.207031 150.628906 442.839844 C 152.519531 444.527344 154.683594 444.777344 157.203125 445.394531 C 159.8125 446.03125 161.71875 446.390625 164.152344 445.761719 C 166.523438 445.148438 169.121094 445.074219 171.414062 443.773438 C 173.570312 442.550781 175.175781 440.292969 177.34375 438.894531 C 179.488281 437.507812 182.226562 437.046875 184.457031 435.902344 C 186.757812 434.714844 188.785156 432.296875 191.253906 431.808594 C 193.679688 431.328125 196.09375 431.765625 198.066406 431.652344 C 200.609375 431.5 202.578125 433.519531 204.464844 433.902344 C 206.453125 434.222656 208.3125 435.089844 209.839844 436.402344 C 211.558594 437.816406 214.019531 438.425781 214.878906 440.550781 C 215.664062 442.484375 215.785156 444.808594 216.109375 447.132812 C 216.402344 449.238281 215.550781 451.515625 215.652344 453.796875 C 215.753906 455.984375 216.101562 458.199219 216.183594 460.421875 C 216.265625 462.664062 217.832031 464.789062 218.054688 466.949219 C 218.28125 469.109375 218.699219 471.242188 219.300781 473.328125 C 219.933594 475.542969 219.863281 477.917969 221.128906 479.671875 C 222.457031 481.507812 224.355469 482.589844 226.195312 483.652344 C 228.015625 484.710938 229.527344 487.261719 231.683594 487.8125 C 233.714844 488.332031 236.394531 486.164062 238.578125 486.453125 C 240.707031 486.734375 242.886719 486.769531 245.023438 487.027344 C 247.207031 487.292969 249.019531 489.632812 251.074219 490.082031 C 253.265625 490.558594 255.492188 491.082031 257.808594 491.75 C 260.011719 492.382812 262.421875 492.425781 264.640625 493.246094 C 266.828125 494.054688 268.617188 495.695312 270.714844 496.699219 C 272.847656 497.71875 274.480469 499.269531 276.417969 500.503906 C 278.429688 501.789062 281.253906 501.734375 282.945312 503.261719 C 284.71875 504.867188 285.070312 507.453125 286.359375 509.347656 C 287.675781 511.28125 291.488281 512.097656 292.164062 514.355469 C 292.804688 516.507812 292.089844 519.308594 292.023438 521.769531 C 291.964844 523.941406 289.429688 525.761719 288.726562 528.191406 C 288.023438 530.636719 289.90625 533.964844 288.992188 536.386719 C 288.082031 538.796875 287.601562 541.316406 286.777344 543.734375 C 285.9375 546.199219 283.765625 548.148438 283.328125 550.648438 C 282.890625 553.175781 281.746094 555.792969 282.039062 558.390625 C 282.320312 560.835938 283.84375 563.03125 283.667969 565.074219 C 283.457031 567.503906 281.476562 569.292969 280.703125 571.234375 C 279.84375 573.394531 280.230469 576.269531 278.78125 577.9375 C 277.339844 579.601562 274.613281 580.015625 272.707031 581.3125 C 270.914062 582.523438 269.5625 584.757812 267.457031 585.75 C 265.492188 586.675781 263.246094 587.292969 261.089844 588.105469 C 259.035156 588.878906 256.980469 589.878906 254.820312 590.621094 C 252.722656 591.339844 250.246094 591.050781 248.109375 591.804688 C 246.003906 592.546875 243.695312 592.855469 241.609375 593.691406 C 239.523438 594.527344 237.03125 594.671875 235.027344 595.660156 C 232.972656 596.703125 230.980469 597.859375 229.058594 599.125 C 226.933594 600.5 226.011719 603.742188 224.042969 605.414062 C 222.042969 607.113281 220.066406 608.664062 218.636719 610.742188 C 217.222656 612.832031 216.304688 615.21875 215.953125 617.71875 C 215.601562 619.855469 215.878906 621.96875 216.011719 624.210938 C 216.144531 626.464844 216.554688 628.828125 216.394531 630.953125 C 216.226562 633.203125 214.003906 634.683594 212.597656 636.511719 C 210.90625 638.707031 209.167969 640.839844 206.644531 642.167969 C 204.0625 643.527344 201.550781 644.707031 200.28125 647.25 C 199.074219 649.660156 198.003906 653.082031 199.328125 655.425781 C 200.59375 657.671875 203.859375 659.316406 206.289062 660.183594 C 208.796875 661.078125 211.679688 661.015625 214.324219 660.648438 C 216.914062 660.292969 219.460938 659.164062 221.894531 658.226562 C 224.152344 657.359375 226.933594 657.582031 229.136719 656.554688 C 231.332031 655.527344 232.308594 651.925781 234.492188 650.875 C 236.683594 649.820312 238.902344 648.675781 241.121094 647.730469 C 243.363281 646.773438 246.195312 647.214844 248.503906 646.507812 C 250.816406 645.800781 253.417969 646.984375 255.839844 646.664062 C 258.074219 646.367188 260.007812 643.609375 261.859375 643.851562 C 263.964844 644.128906 265.074219 647.371094 266.90625 648.15625 C 268.738281 648.941406 270.796875 648.980469 272.59375 650.066406 C 274.253906 651.074219 275.859375 652.324219 277.691406 653.425781 C 279.238281 654.355469 281.835938 655.050781 282.253906 656.863281 C 282.703125 658.804688 280.601562 662.234375 281.867188 663.15625 C 284.191406 664.851562 288.46875 661.917969 289.832031 663.019531 C 291.933594 664.714844 294.027344 666.144531 295.886719 667.652344 C 297.976562 669.34375 300.785156 669.765625 302.816406 671.082031 C 304.992188 672.492188 306.335938 675.761719 308.753906 676.570312 C 311.023438 677.332031 313.976562 677.066406 316.738281 677.144531 C 319.027344 677.207031 321.386719 675.214844 324.179688 674.71875 C 326.507812 674.300781 329.105469 676.136719 331.402344 675.90625 C 333.746094 675.671875 335.953125 674.457031 338.265625 674.398438 C 340.613281 674.34375 342.972656 673.636719 345.292969 673.753906 C 347.628906 673.871094 350.011719 673.960938 352.320312 674.246094 C 354.636719 674.53125 356.527344 677.296875 358.816406 677.738281 C 361.105469 678.179688 363.347656 678.386719 365.609375 678.976562 C 367.863281 679.558594 370.703125 678.078125 372.929688 678.796875 C 375.140625 679.507812 376.503906 682.609375 378.695312 683.4375 C 380.867188 684.261719 383.859375 683.019531 386.011719 683.949219 C 388.144531 684.871094 390.765625 684.847656 392.878906 685.863281 C 394.972656 686.867188 396.410156 689.285156 398.488281 690.367188 C 400.546875 691.445312 402.28125 693.136719 404.324219 694.28125 C 405.742188 695.066406 408.109375 693.75 411.304688 692.65625 C 413.207031 692.003906 415.96875 692.722656 418.539062 691.847656 C 420.585938 691.148438 422.496094 689.453125 424.988281 688.796875 C 427.132812 688.234375 429.503906 688.179688 431.992188 687.761719 C 434.207031 687.390625 436.496094 687.152344 438.988281 686.976562 C 441.242188 686.820312 443.5625 686.027344 446.046875 686.085938 Z M 446.046875 686.085938 "
                    fill-opacity="1" fill-rule="nonzero" />
            </g>
        </g>
    </g>
</svg>