<?xml version="1.0" encoding="utf-8"?>
<svg viewBox="-43.2748 -210.9639 804.5862 760.3981" preserveAspectRatio="xMidYMid slice"
    xmlns="http://www.w3.org/2000/svg">
    <g clip-path="url(#03e18350ad)" transform="matrix(1, 0, 0, 1, -46.31774727930479, -239.75759433616324)">
        <g clip-path="url(#2db926204b)">
            <g clip-path="url(#32604ddaed)">
                <path fill="#edcc9a"
                    d="M 788.269531 490.03125 C 784.648438 494.390625 779.9375 496.953125 774.882812 499.234375 C 768.28125 502.09375 761.53125 504.597656 754.664062 506.734375 C 746.605469 509.371094 738.554688 512.628906 731.699219 517.988281 C 730.417969 518.875 729.277344 519.941406 728.304688 521.160156 C 725.976562 524.503906 723.886719 528.011719 721.660156 531.425781 C 720.703125 532.890625 719.859375 534.527344 718.59375 535.675781 C 713.273438 540.503906 708.28125 545.710938 702.121094 549.582031 C 698.339844 551.957031 694.773438 554.679688 691.164062 557.324219 C 687.71875 559.851562 684.503906 562.730469 680.898438 565 C 675.261719 568.632812 668.5625 570.242188 661.890625 569.570312 C 658.378906 569.238281 655.035156 567.902344 652.261719 565.71875 C 649.988281 563.882812 647.445312 562.414062 644.71875 561.363281 C 639.417969 559.386719 634.207031 557.398438 629.523438 554.082031 C 625.972656 551.566406 621.886719 551.460938 617.761719 552.75 C 611.238281 554.785156 604.984375 557.605469 599.140625 561.15625 C 594.300781 563.933594 591.226562 569.003906 591.007812 574.582031 C 590.621094 579.652344 589.53125 584.644531 587.769531 589.414062 C 586.378906 593.269531 584.734375 597.527344 580.566406 599.738281 C 579.910156 600.160156 579.332031 600.695312 578.863281 601.320312 C 573.3125 607.710938 566.535156 612.675781 559.605469 617.367188 C 554.949219 620.519531 552.25 624.746094 550.632812 629.910156 C 549.933594 632.140625 549.105469 634.335938 548.503906 636.59375 C 547.152344 641.671875 545.636719 646.730469 544.726562 651.894531 C 544.371094 654.601562 544.546875 657.355469 545.246094 659.996094 C 546.542969 665.636719 546.1875 671.332031 545.601562 676.898438 C 545.136719 680.59375 543.78125 684.121094 541.648438 687.171875 C 537.628906 692.914062 533.128906 698.417969 526.46875 701.464844 C 521.632812 703.679688 518.695312 707.78125 516 712.070312 C 513.832031 715.519531 511.902344 719.121094 509.796875 722.613281 C 506.878906 727.441406 503.84375 732.199219 500.953125 737.042969 C 496.769531 744.054688 492.996094 751.339844 488.425781 758.089844 C 485.167969 762.898438 480.929688 766.988281 476.558594 770.972656 C 467.082031 779.617188 455.484375 783.195312 443.578125 786.449219 C 438.074219 787.953125 432.660156 789.457031 426.871094 788.636719 C 425.96875 788.507812 424.976562 789.1875 424.027344 789.191406 C 420.917969 789.199219 417.8125 789.089844 414.703125 788.984375 C 412.203125 788.898438 409.703125 788.75 407.199219 788.632812 C 406.425781 788.65625 405.652344 788.628906 404.882812 788.550781 C 397.210938 787.175781 389.5 785.964844 381.890625 784.296875 C 376.5625 783.125 371.367188 781.351562 366.132812 779.777344 C 362.257812 778.613281 358.414062 777.339844 354.558594 776.113281 C 347.605469 773.898438 340.304688 774.464844 333.207031 773.441406 C 331.5 773.195312 329.800781 772.898438 328.105469 772.601562 C 322.179688 771.566406 316.164062 771.191406 310.332031 769.445312 C 305.300781 767.9375 300.0625 767.097656 296.082031 763.226562 C 295.492188 762.707031 294.84375 762.265625 294.148438 761.902344 C 288.1875 758.476562 284.796875 753.652344 282.019531 746.964844 C 278.183594 737.730469 277.253906 728.054688 277.089844 718.332031 C 277.003906 714.070312 275.953125 709.882812 274.027344 706.082031 C 270.789062 699.429688 266.589844 693.367188 262.289062 687.335938 C 257.753906 681.167969 255.5 673.617188 255.921875 665.972656 C 256.523438 654.160156 260.742188 643.601562 265.816406 633.203125 C 268.289062 628.136719 270.488281 622.9375 272.785156 617.785156 C 273.066406 617.058594 273.300781 616.3125 273.488281 615.554688 C 274.808594 611.195312 273.941406 607.449219 270.285156 604.570312 C 264.777344 600.234375 259.863281 595.203125 253.6875 591.621094 C 250.207031 589.601562 247.367188 586.464844 243.550781 584.785156 C 236.496094 581.683594 229.3125 580.84375 221.90625 583.300781 C 214.355469 585.910156 206.621094 587.960938 198.765625 589.429688 C 194.105469 590.3125 189.296875 589.144531 185.558594 586.222656 C 179.082031 581.402344 173.21875 575.8125 168.097656 569.570312 C 164.25 564.964844 160.308594 560.414062 156.164062 556.078125 C 153.074219 552.851562 145.886719 549.625 141.25 548.746094 C 137.417969 548.023438 133.621094 546.898438 129.757812 546.597656 C 126.070312 546.3125 122.964844 544.726562 119.96875 543.058594 C 117.824219 541.71875 116.023438 539.902344 114.699219 537.746094 C 110.429688 531.261719 108.207031 523.941406 107.410156 516.292969 C 106.296875 506.765625 106.242188 497.148438 107.25 487.609375 C 107.566406 484.914062 107.125 482.140625 107.253906 479.410156 C 107.441406 475.382812 105.390625 472.515625 102.1875 470.808594 C 99.179688 469.199219 96.640625 466.417969 92.855469 466.425781 C 87.292969 463.425781 81.269531 463.476562 75.207031 463.730469 C 72.453125 463.863281 69.746094 462.984375 67.597656 461.257812 C 62.65625 457.496094 57.496094 454.023438 52.472656 450.371094 C 46.550781 446.066406 40.78125 441.535156 34.746094 437.398438 C 29.652344 433.90625 26.3125 428.761719 21.898438 424.644531 C 18.589844 421.457031 15.625 417.933594 13.054688 414.125 C 12.328125 413.21875 11.6875 412.242188 11.144531 411.21875 C 9.46875 407.496094 7.917969 403.722656 6.289062 399.980469 C 4.878906 396.960938 4.050781 393.707031 3.84375 390.382812 C 3.582031 383.746094 3.0625 377.113281 3.042969 370.480469 C 3.027344 364.671875 5.789062 359.492188 8.179688 354.4375 C 11.582031 347.246094 16.136719 340.667969 20.675781 334.109375 C 24.304688 328.859375 25.769531 322.75 26.628906 316.515625 C 27.40625 310.90625 28.210938 305.292969 28.726562 299.65625 C 29.523438 290.9375 33.015625 283.042969 36.585938 275.3125 C 38.277344 271.644531 40.292969 267.617188 44.164062 265.1875 C 45.597656 264.285156 46.5625 262.636719 47.730469 261.316406 C 51.617188 256.9375 55.703125 252.777344 59.886719 248.664062 C 65.839844 242.808594 71.867188 236.804688 75.785156 229.1875 C 76.144531 228.488281 76.617188 227.855469 77.191406 227.3125 C 81.765625 223.054688 83.867188 217.300781 86.476562 211.871094 C 88.410156 207.847656 90.003906 203.65625 91.9375 199.628906 C 95.464844 192.28125 100.957031 186.410156 106.820312 180.941406 C 111.070312 176.980469 115.773438 173.507812 120.195312 169.722656 C 121.007812 168.890625 121.671875 167.921875 122.160156 166.867188 C 125.785156 160.421875 130.976562 156.179688 138.410156 154.789062 C 141.492188 154.171875 144.316406 152.640625 146.511719 150.386719 C 150.265625 146.730469 154.265625 143.300781 158.359375 140.023438 C 168.570312 131.851562 180.039062 126.277344 193.011719 124.140625 C 199.132812 123.132812 205.203125 121.726562 211.5 121.929688 C 218.125 122.109375 224.703125 123.035156 231.117188 124.695312 C 240.730469 127.226562 250.03125 130.507812 258.816406 135.292969 C 262.171875 137.121094 266.054688 138.035156 269.757812 139.164062 C 273.121094 140.1875 276.390625 139.394531 279.273438 137.59375 C 288.183594 132.027344 297.859375 127.601562 306.066406 121.046875 C 312.578125 115.84375 319.589844 111.320312 325.898438 105.855469 C 331.320312 101.164062 336.945312 96.703125 342.53125 92.199219 C 347.371094 88.292969 352.015625 84.054688 357.226562 80.71875 C 363.125 76.945312 369.496094 73.824219 376.890625 74.179688 C 386.058594 70.875 395.84375 72.117188 405.261719 70.371094 C 412.417969 69.046875 419.769531 68.238281 427.15625 69.472656 C 429.082031 69.683594 431.03125 69.425781 432.835938 68.726562 C 439.574219 66.378906 445.234375 62.359375 450.183594 57.214844 C 457.875 49.21875 465.976562 41.679688 475.078125 35.265625 C 481.261719 30.808594 488.753906 28.539062 496.375 28.816406 C 509.28125 29.09375 521.957031 31.007812 534.660156 32.882812 C 538.132812 33.394531 541.550781 34.300781 545.027344 34.75 C 549.050781 35.269531 552.09375 37.882812 555.648438 39.386719 C 556.59375 39.789062 557.285156 41.003906 557.882812 41.976562 C 560.230469 45.796875 562.585938 49.621094 564.769531 53.539062 C 567.941406 59.230469 573.085938 63.265625 576.996094 68.339844 C 580.078125 72.34375 583.71875 75.9375 586.566406 80.085938 C 589.085938 83.757812 590.984375 87.886719 592.929688 91.921875 C 596.683594 99.71875 602.125 106.363281 607.34375 113.128906 C 611.847656 118.96875 616.859375 124.421875 621.703125 130.003906 C 625.050781 133.796875 627.886719 138.019531 630.132812 142.558594 C 631.371094 145.210938 632.222656 148.027344 632.65625 150.921875 C 634.507812 161.839844 632.359375 172.261719 629.484375 182.691406 C 626.660156 193.253906 622.574219 203.441406 617.316406 213.03125 C 612.722656 221.273438 610.105469 230.253906 606.808594 238.996094 C 604.761719 244.433594 602.203125 249.757812 598.289062 254.1875 C 594.148438 258.871094 591.992188 264.34375 590.769531 270.398438 C 590.195312 273.28125 590.65625 276.269531 592.070312 278.847656 C 594.601562 283.945312 598.007812 288.441406 601.628906 292.785156 C 603.871094 295.46875 606.410156 297.929688 608.464844 300.746094 C 611.65625 305.113281 615.75 308.195312 620.425781 310.796875 C 622.804688 312.128906 625.585938 312.558594 628.253906 312.003906 C 636.710938 310.570312 644.988281 308.21875 652.941406 304.992188 C 660.535156 301.894531 668.371094 299.429688 676.367188 297.621094 C 681.285156 296.53125 686.359375 296.125 691.378906 295.554688 C 692.550781 295.402344 693.742188 295.617188 694.785156 296.175781 C 698.292969 298.265625 701.660156 300.582031 704.871094 303.101562 C 707.707031 305.441406 710 308.433594 712.71875 310.9375 C 716.320312 314.25 720.105469 317.363281 723.804688 320.574219 C 728.410156 324.523438 733.914062 327.285156 739.835938 328.621094 C 743.832031 329.578125 747.804688 330.628906 751.804688 331.5625 C 755.660156 332.460938 758.929688 334.5 762.332031 336.421875 C 770.09375 340.8125 774.558594 348.191406 779.734375 354.921875 C 784.027344 360.5 786.984375 366.890625 790.125 373.152344 C 790.53125 374.027344 790.878906 374.929688 791.164062 375.851562 C 793.386719 382.066406 796.09375 388.09375 799.265625 393.878906 C 800.617188 396.242188 802.234375 398.445312 804.085938 400.441406 C 807.003906 403.792969 807.535156 408.019531 807.621094 411.96875 C 807.761719 418.386719 806.027344 424.671875 804.617188 430.953125 C 803.050781 437.390625 801.828125 443.910156 800.957031 450.476562 C 799.632812 461.972656 797.3125 473.152344 792.398438 483.671875 C 791.339844 485.9375 789.664062 487.917969 788.269531 490.03125 Z M 788.269531 490.03125 "
                    fill-opacity="1" fill-rule="nonzero" />
            </g>
        </g>
    </g>
    <g clip-path="url(#4803de8b3d)" transform="matrix(1, 0, 0, 1, -46.31774727930479, -239.75759433616324)">
        <g clip-path="url(#312b396bdf)">
            <g clip-path="url(#cc9997b06a)">
                <path fill="#456424"
                    d="M 771.582031 444.785156 L 756.851562 460.621094 C 754.992188 462.730469 752.964844 464.6875 750.785156 466.46875 C 741.851562 473.378906 729.363281 473.832031 719.855469 479.933594 C 711.128906 485.527344 705.992188 495.109375 700.28125 503.761719 C 694.574219 512.414062 687.007812 521.054688 676.769531 522.671875 C 664.652344 524.589844 653.03125 516.816406 640.84375 518.695312 C 632.820312 519.933594 619.925781 524.480469 612.925781 528.730469 C 605.378906 533.3125 598.972656 539.292969 590.613281 542.65625 C 580.820312 546.601562 570.277344 545.238281 560.320312 548.367188 C 552.300781 551.023438 545.710938 556.839844 542.078125 564.46875 C 538.722656 571.460938 539.554688 578.785156 533.746094 584.453125 C 528.824219 589.257812 523.050781 590.835938 519.046875 597.054688 C 513.730469 605.316406 512.410156 615.765625 511.351562 625.304688 C 509 646.535156 511.777344 677.910156 493.027344 692.03125 C 487.960938 695.84375 483.960938 698.203125 480.21875 703.273438 C 476.90625 707.765625 475.222656 711.066406 470.359375 714.390625 C 462.832031 719.53125 452.640625 722.128906 448.320312 730.9375 C 445.546875 736.601562 446.074219 743.816406 440.5625 747.898438 C 437.027344 750.519531 431.230469 751.101562 427.09375 752.378906 C 415.804688 755.851562 407.074219 755.496094 395.738281 751.191406 C 391.828125 749.707031 387.917969 748.121094 383.792969 747.425781 C 373.308594 745.667969 361.484375 749.625 352.507812 743.925781 C 344.054688 738.5625 342.148438 727.09375 335.832031 719.328125 C 328.523438 710.34375 315.113281 705.984375 311.910156 694.855469 C 310.136719 688.703125 312.035156 681.65625 309.015625 676.011719 C 307.722656 673.59375 305.640625 671.703125 304.035156 669.480469 C 298.808594 662.261719 299.421875 651.398438 305.425781 644.8125 C 306.863281 643.230469 308.648438 641.734375 309.046875 639.632812 C 309.613281 636.644531 307.183594 634.046875 305.335938 631.632812 C 295.734375 619.09375 303.152344 606.667969 305.316406 593.457031 C 306.554688 585.882812 306.894531 574.457031 296.25 572.785156 C 293.984375 572.429688 291.542969 572.847656 289.476562 571.855469 C 286.511719 570.429688 285.359375 566.605469 282.476562 565.019531 C 278.402344 562.777344 272.839844 565.945312 268.84375 563.570312 C 266.929688 562.433594 265.871094 560.273438 264.164062 558.839844 C 257.453125 553.207031 241.011719 560.4375 233.769531 563.039062 C 223.191406 566.835938 213.320312 571.675781 201.816406 568.117188 C 195.242188 566.082031 191.136719 560.839844 185.15625 557.722656 C 181.441406 555.785156 177.738281 555.621094 174.660156 552.378906 C 171.964844 549.53125 172.289062 544.628906 168.597656 542.507812 C 167.328125 541.777344 165.816406 541.605469 164.460938 541.039062 C 158.363281 538.488281 158.035156 529.753906 153.351562 525.085938 C 150.691406 522.429688 146.867188 521.351562 143.71875 519.292969 C 136.5 514.582031 133.671875 504.199219 137.503906 496.480469 C 139.332031 492.789062 142.488281 488.558594 140.269531 485.09375 C 139.402344 483.742188 137.90625 482.964844 136.535156 482.128906 C 127.304688 476.484375 116.796875 457.859375 118.59375 446.660156 C 119.5 441.015625 113.964844 436.253906 108.4375 434.796875 C 102.910156 433.34375 96.976562 433.890625 91.515625 432.210938 C 85.253906 430.234375 80.214844 425.542969 77.796875 419.4375 C 77.128906 417.710938 76.65625 415.847656 75.488281 414.410156 C 73.988281 412.5625 71.609375 411.730469 69.433594 410.761719 C 55.371094 404.496094 46.324219 388.5 48.203125 373.21875 C 49.367188 363.734375 59.992188 354.253906 63.792969 345.210938 C 69.144531 332.488281 70.441406 318.101562 71.84375 304.519531 C 71.957031 303.25 72.285156 302.011719 72.820312 300.855469 C 81.066406 283.742188 106.570312 266.449219 113.660156 258.65625 C 120.839844 250.558594 122.828125 233.835938 136.070312 219.398438 C 145.082031 209.5625 155.375 202.539062 163.792969 195.347656 C 181.511719 180.191406 189.0625 190.8125 193.898438 183.371094 C 218.054688 146.488281 266.609375 180.507812 295.542969 192.292969 C 299.136719 193.753906 303.191406 195.222656 306.769531 193.734375 C 310.058594 192.367188 311.949219 188.808594 312.566406 185.304688 C 314.6875 173.25 312.324219 165.769531 321.285156 156.542969 C 328.769531 148.835938 333.914062 140.386719 339.023438 130.824219 C 346.414062 117.011719 354.195312 115.121094 366.550781 113.222656 C 368.496094 112.9375 370.335938 112.164062 371.898438 110.976562 C 380.460938 104.40625 388.578125 98.425781 399.492188 96.390625 C 408.152344 94.777344 417.136719 95.648438 425.5625 98.046875 C 432.441406 100.003906 440.421875 105.828125 447.800781 104.570312 C 454.078125 103.503906 457.84375 97.265625 461.441406 92.011719 C 467 83.894531 480.738281 76.316406 489.175781 70.410156 C 499.605469 63.109375 511.429688 60.492188 523.859375 63.988281 C 543.828125 69.601562 548.835938 85.445312 552.265625 93.601562 C 553.242188 95.910156 554.941406 97.84375 557.109375 99.105469 C 578.3125 111.539062 593.242188 134.523438 586.90625 159.828125 C 586.414062 161.796875 585.800781 163.800781 586.039062 165.8125 C 586.234375 167.421875 586.960938 168.910156 587.453125 170.449219 C 589.640625 177.253906 587.230469 184.664062 584.042969 191.058594 C 580.855469 197.453125 576.8125 203.597656 575.46875 210.617188 C 573.960938 218.5 573.191406 221.699219 567.195312 227.160156 C 562.699219 231.257812 558.652344 233.652344 556.230469 239.429688 C 551.871094 249.824219 555.683594 260.007812 546.515625 268.699219 C 543.605469 271.539062 542.398438 275.699219 543.332031 279.65625 C 545.585938 289.691406 539.226562 306.777344 546.992188 313.742188 C 550.617188 316.996094 555.378906 318.792969 558.960938 322.097656 C 562.46875 325.332031 564.644531 329.820312 568.207031 332.996094 C 570.46875 335.007812 573.191406 336.410156 575.886719 337.785156 C 588.027344 344 600.058594 351.132812 612.570312 356.558594 C 624.128906 361.574219 629.566406 355.90625 640.648438 352.617188 C 656.664062 347.863281 677.351562 345.589844 692.605469 353.296875 C 699.667969 356.867188 706.78125 361.367188 714.695312 361.238281 C 721.636719 361.125 727.984375 357.429688 734.78125 356.011719 C 759.523438 350.84375 771.867188 376.949219 782.851562 394.1875 C 786.582031 400.039062 790.472656 406.765625 788.828125 413.507812 C 788 416.894531 785.84375 419.808594 784.753906 423.117188 C 783.769531 426.109375 783.667969 429.378906 782.316406 432.222656 C 781.222656 434.246094 779.828125 436.09375 778.175781 437.699219 Z M 771.582031 444.785156 "
                    fill-opacity="1" fill-rule="nonzero" />
            </g>
        </g>
    </g>
    <g clip-path="url(#e149e2d18a)" transform="matrix(1, 0, 0, 1, -46.31774727930479, -239.75759433616324)">
        <g clip-path="url(#2991b312d1)">
            <g clip-path="url(#cd5a085a39)">
                <path fill="#7ea356"
                    d="M 739.820312 456.449219 C 737.273438 457.800781 733.753906 457.335938 731.007812 457.984375 C 725.101562 459.378906 719.867188 461.222656 714.746094 462.140625 C 709.097656 463.15625 704.101562 464.382812 698.964844 466.6875 C 694.375 468.746094 689.039062 470.289062 684.507812 474.855469 C 683.3125 476.0625 678.042969 482 673.390625 488.109375 C 668.441406 494.609375 665.273438 500.351562 663.230469 499.070312 C 656.839844 495.058594 650.707031 495.019531 645.964844 494.210938 C 640.792969 493.332031 636.109375 493.242188 630.28125 499.332031 C 626.707031 503.066406 622.496094 506.445312 617.484375 507.996094 C 612.589844 509.511719 606.394531 508.261719 602.078125 510.886719 C 598.882812 512.832031 597.609375 518.117188 594.515625 520.339844 C 591.226562 522.707031 586.804688 522.667969 582.847656 522.277344 C 577.472656 521.742188 573.515625 517.507812 568.832031 514.8125 C 564.738281 512.363281 559.621094 512.414062 555.574219 514.9375 C 551.601562 517.347656 548.128906 520.496094 545.351562 524.21875 C 542.648438 527.9375 540.246094 531.859375 538.164062 535.957031 C 535.96875 540.148438 535.90625 545.25 534.371094 549.183594 C 532.648438 553.40625 531.308594 557.777344 530.371094 562.238281 C 529.300781 563.046875 526.957031 564.261719 524.6875 565.796875 C 520.945312 568.226562 517.300781 571.800781 513.273438 575.441406 C 509.585938 578.78125 505.625 581.953125 502.488281 585.804688 C 499.085938 589.984375 494.90625 593.550781 493.085938 597.738281 C 491.191406 601.980469 490.394531 606.628906 490.777344 611.261719 C 491.257812 615.652344 495.207031 619.695312 495.808594 623.957031 C 496.445312 628.488281 496.613281 633.640625 494.777344 637.726562 C 493.320312 640.976562 487.199219 641.617188 485.476562 644.734375 C 483.464844 648.371094 484.917969 653.316406 485.984375 657.441406 C 486.988281 661.316406 489.476562 665.132812 489.613281 669.03125 C 489.761719 673.144531 487.59375 676.863281 485.328125 680.300781 C 483.175781 683.730469 480.34375 686.6875 477.011719 688.984375 C 473.597656 691.214844 469.589844 692.113281 465.78125 693.578125 C 461.992188 695.035156 457.914062 695.769531 454.121094 697.195312 C 447.539062 699.667969 444.816406 704.199219 443.140625 708.234375 C 441.382812 712.457031 440.550781 716.828125 436.21875 721.164062 C 435.949219 721.433594 436.367188 722.78125 435.746094 723.363281 C 434.585938 723.800781 432.066406 724.398438 427.050781 725.769531 C 424.273438 725.769531 421.488281 724.160156 419.082031 724.425781 C 418.445312 724.40625 417.902344 725.496094 417.125 725.46875 C 417.042969 725.464844 416.996094 724.476562 416.917969 724.472656 C 415.921875 724.441406 414.71875 727.261719 413.023438 727.175781 C 412.589844 727.152344 411.964844 727.542969 411.457031 727.519531 C 410.714844 727.390625 410.367188 724.609375 409.671875 724.488281 C 404.019531 723.507812 400.351562 725.304688 397.3125 726.839844 C 393.980469 728.527344 391.21875 729.195312 385.867188 729.0625 C 379.160156 728.894531 372.617188 723.917969 367.511719 720.328125 C 362.773438 716.996094 359.664062 714.191406 355.757812 712.976562 C 352.050781 711.824219 347.785156 711.875 342.023438 711.007812 C 341.523438 710.929688 339.425781 711.292969 338.269531 711.089844 C 337.742188 705.207031 338.785156 699.113281 337.335938 694 C 335.71875 688.296875 334.550781 682.492188 332.246094 677.753906 C 329.277344 671.648438 325.976562 668.125 325.097656 664.648438 C 323.679688 659.050781 325.988281 656.007812 327.640625 650.40625 C 328.699219 646.816406 330.207031 642.253906 331.539062 635.816406 C 332.992188 628.808594 331.429688 620.550781 328.363281 614.085938 C 326.890625 611.261719 325.875 608.21875 325.355469 605.074219 C 324.835938 601.382812 324.1875 597.910156 325.042969 594.28125 C 326.417969 588.441406 328.027344 582.890625 327.011719 577.96875 C 325.914062 572.640625 321.484375 568.644531 318.171875 564.199219 C 314.917969 559.972656 311.113281 556.195312 306.863281 552.972656 C 303.375 550.226562 300.480469 545.582031 295.917969 543.15625 C 291.773438 540.957031 286.902344 539.460938 282.257812 537.804688 C 277.628906 536.289062 272.878906 535.15625 268.0625 534.414062 C 263.152344 533.542969 258.222656 533.667969 253.5625 533.941406 C 248.535156 534.238281 243.203125 533.90625 238.953125 535.894531 C 232.457031 538.933594 227.335938 544.742188 220.707031 547.480469 C 214.082031 550.214844 206.449219 549.78125 201.363281 544.722656 C 197.863281 541.246094 196.941406 535.757812 193.535156 532.1875 C 190.671875 529.1875 185.902344 527.824219 182.046875 526.28125 C 177.867188 524.609375 172.574219 524.832031 168.761719 522.433594 C 164.769531 519.980469 161.175781 516.933594 158.101562 513.390625 C 155.234375 509.941406 155.367188 504.527344 154.269531 500.175781 C 153.152344 495.757812 151.796875 491.34375 153.296875 487.039062 C 154.144531 484.601562 155.960938 482.394531 156.253906 479.828125 C 156.816406 474.859375 153.039062 471.394531 149.449219 467.621094 C 146.097656 464.101562 142.097656 460.472656 140.402344 456.132812 C 137.789062 449.445312 142.457031 442.066406 143.9375 435.042969 C 145.09375 429.527344 143.730469 423.785156 140.226562 419.375 C 137.203125 415.511719 131.441406 414.367188 126.269531 412.183594 C 121.394531 410.125 116.761719 406.871094 111.960938 405.53125 C 105.636719 403.199219 99.074219 401.570312 92.394531 400.667969 C 91.417969 399.976562 90.074219 400.472656 89.207031 399.84375 C 87.453125 398.566406 85.28125 397.710938 83.085938 396.066406 C 80.316406 393.996094 77.703125 390.1875 73.878906 387.476562 C 72.78125 386.238281 68.921875 384.242188 65.5 380.90625 C 65.480469 380.585938 65.867188 379.167969 65.847656 378.863281 C 66.917969 377.09375 67.972656 373.832031 71.25 369.089844 C 74.304688 364.78125 76.96875 360.207031 79.214844 355.425781 C 81.644531 350.113281 85.953125 345.910156 87.234375 341.25 C 88.96875 334.9375 87.828125 329.003906 88.375 325.054688 C 88.4375 324.585938 90.804688 324.433594 90.871094 323.949219 C 91.484375 319.542969 91.089844 313.574219 91.707031 307.449219 C 91.726562 307.402344 90.257812 306.320312 90.277344 306.265625 C 92.65625 303.78125 95.308594 302.746094 96.015625 301.8125 C 98.980469 297.898438 103.632812 295.78125 107.304688 292.53125 C 110.972656 289.289062 113.722656 284.988281 117.476562 281.871094 C 121.277344 278.714844 125.78125 276.210938 129.03125 272.636719 C 132.558594 268.757812 133.382812 263.273438 135.488281 258.777344 C 137.621094 254.226562 141.296875 250.40625 143.472656 245.835938 C 145.589844 241.390625 147.234375 236.796875 150.800781 232.902344 C 154.671875 228.679688 159.683594 225.859375 164.136719 222.242188 C 168.578125 218.632812 171.550781 213.230469 175.898438 209.515625 C 177.769531 207.917969 180.769531 208.59375 183.140625 207.9375 C 185.273438 207.34375 187.085938 204.351562 189.296875 204.363281 C 193.148438 204.378906 197.414062 205.933594 200.84375 204.179688 C 204.273438 202.421875 207.972656 199.8125 210.210938 196.675781 C 211.648438 194.667969 212.253906 192.238281 214.070312 190.566406 C 217.585938 187.332031 221.59375 184.214844 226.730469 184.578125 C 230.898438 184.871094 234.871094 188.96875 239.753906 190.792969 C 243.898438 192.34375 248.957031 192.496094 253.398438 194.644531 C 257.546875 196.652344 261.953125 198.5 266.199219 200.644531 C 270.453125 202.792969 273.628906 207.214844 277.816406 209.121094 C 282.3125 211.167969 287.835938 210.132812 292.0625 211.449219 C 296.988281 212.980469 301.296875 215.574219 305.566406 215.425781 C 310.453125 215.257812 314.265625 212.722656 317.847656 209.3125 C 321.21875 206.121094 323.703125 202.105469 325.046875 197.660156 C 327.222656 190.90625 328.96875 186.65625 330.613281 182.40625 C 332.246094 178.1875 333.210938 173.371094 337.707031 167.6875 C 341.234375 163.410156 344.5 158.925781 347.484375 154.253906 C 350.394531 149.492188 353.40625 144.808594 356.027344 139.910156 C 357.246094 137.632812 358.269531 134.28125 360.496094 132.96875 C 363.714844 131.070312 368.21875 131.347656 371.90625 130.710938 C 376.480469 129.921875 381.472656 130.054688 385.210938 127.21875 C 388.863281 124.449219 391.226562 119.613281 395.277344 117.589844 C 399.453125 115.503906 404.234375 116.054688 408.808594 116.035156 C 413.277344 116.015625 418.085938 115.121094 422.535156 116.457031 C 426.914062 117.773438 431 120.328125 434.988281 122.378906 C 440.191406 125.050781 446.429688 129.875 452.003906 128.105469 C 455.894531 126.871094 456.476562 121.464844 458.640625 118.226562 C 460.789062 115.003906 464.105469 112.476562 466.925781 110.039062 C 469.859375 107.648438 473.0625 105.605469 476.472656 103.957031 C 479.824219 102.203125 482.679688 99.707031 485.8125 97.535156 C 489.308594 95.109375 492.160156 92.097656 495.207031 89.382812 C 498.464844 86.480469 502.949219 86.011719 506.765625 84.558594 C 510.265625 83.226562 513.285156 82.957031 518.144531 84.320312 C 525.394531 86.359375 529.652344 88.859375 531.980469 93.875 C 534.320312 98.914062 533.992188 105.941406 538.023438 110.882812 C 540.566406 114 545.867188 113.519531 549.265625 115.601562 C 552.679688 117.828125 555.523438 120.820312 557.574219 124.339844 C 560.820312 129.65625 565.796875 133.210938 569.28125 138.378906 C 571.75 142.042969 571.964844 145.574219 571.425781 149.980469 C 570.910156 154.183594 569.121094 157.882812 567.34375 161.707031 C 565.511719 165.640625 566.164062 170.722656 564.480469 174.78125 C 562.816406 178.800781 559.78125 182.296875 558.222656 186.386719 C 556.667969 190.46875 556.125 194.933594 554.644531 199.035156 C 553.152344 203.160156 552.625 207.609375 551.171875 211.703125 C 550.496094 213.613281 550.058594 215.121094 549.570312 216.4375 C 548.214844 220.109375 543.933594 222.582031 541.414062 225.886719 C 538.945312 229.121094 538.222656 233.082031 537.074219 236.972656 C 535.785156 241.351562 535.246094 250.207031 532.730469 253.160156 C 530.867188 255.34375 528.039062 256.308594 525.949219 258.277344 C 521.707031 262.277344 522.917969 269.605469 523.65625 275.386719 C 524.398438 281.171875 526.878906 286.933594 526.9375 292.765625 C 526.992188 298.023438 522.492188 303.121094 522.1875 308.371094 C 521.878906 313.625 525.484375 318.226562 529.609375 321.492188 C 532.675781 323.917969 535.625 325.898438 539.617188 326.417969 C 543.609375 326.941406 547.753906 327.140625 550.8125 329.582031 C 556.054688 333.769531 555.292969 342.511719 559.25 347.929688 C 562.4375 352.300781 568.175781 353.503906 573.539062 354.628906 C 578.574219 355.6875 584.242188 354.703125 589.273438 355.417969 C 594.988281 356.234375 600.015625 358.4375 604.550781 360.234375 C 609.671875 362.261719 613.308594 366.902344 617.960938 368.972656 C 622.917969 371.050781 628.132812 372.449219 633.464844 373.132812 C 638.105469 373.824219 643.324219 372.71875 649.253906 371.511719 C 655.445312 370.253906 661.398438 370.011719 667.0625 368.898438 C 672.804688 367.769531 678.480469 365.105469 684.832031 366.667969 C 689.6875 367.867188 694.328125 370.253906 698.695312 372.683594 C 703.023438 375.089844 706.824219 378.75 711.914062 379.417969 C 716 379.957031 719.976562 377.621094 724.085938 377.089844 C 728.191406 376.558594 732.472656 377.546875 736.566406 377.957031 C 741.015625 378.402344 744.960938 380.09375 748.726562 382.347656 C 752.402344 384.542969 756.820312 386.300781 759.898438 389.519531 C 762.933594 392.6875 765.371094 396.625 767.882812 400.117188 C 770.628906 404.144531 772.5 408.703125 773.375 413.5 C 774.355469 418.253906 772.917969 422.621094 769.054688 425.558594 C 763.402344 429.855469 754.988281 429.570312 752.160156 436.082031 C 751.386719 437.859375 748.980469 439.226562 748.660156 441.136719 C 747.632812 447.226562 745.402344 453.488281 739.820312 456.449219 Z M 739.820312 456.449219 "
                    fill-opacity="1" fill-rule="nonzero" />
            </g>
        </g>
    </g>
</svg>