<?xml version="1.0" encoding="UTF-8" standalone="no"?><svg xmlns="http://www.w3.org/2000/svg" xmlns:xlink="http://www.w3.org/1999/xlink" fill="#000000" height="1001.6" preserveAspectRatio="xMidYMid meet" version="1" viewBox="-1.0 -0.2 990.6 1001.6" width="990.6" zoomAndPan="magnify"><g fill="#bf9439" id="change1_1"><path d="M988.0223,218.2432c-0.7033,6.69-1.7244,12.9227-5.37,18.7015c-2.2894,3.6294-3.343,8.0159-5.3953,11.8233 c-2.1769,4.0384-5.1508,7.65-7.2885,11.7061c-3.1416,5.96-6.52,11.93-8.5973,18.2878 c-3.8144,11.6738-10.2317,20.6045-21.5028,26.1439c-9.34,4.5905-19.31,7.4137-29.1794,9.9345 c-19.8145,5.0609-34.43,16.575-46.0615,32.7362c-2.3215,3.2258-2.0257,6.7894-1.2072,10.1924 c1.6385,6.8119,4.1075,13.4411,5.4694,20.2977c1.3029,6.6726,1.3686,13.5278,0.1939,20.2241 c-1.2642,7.3833-4.5705,13.9675-8.7064,19.9723c-4.438,6.4438-6.7153,13.5339-8.3679,20.9647 c-0.2858,1.3318-0.3498,2.7016-0.1895,4.0542c1.5094,12.8841,3.1029,25.7582,4.6374,38.6394 c0.5769,4.8429,1.33,9.6858,1.5286,14.548c0.3118,7.6427,3.37,14.3438,7.2019,20.5734c4.72,7.6749,7.7362,15.9913,10.8069,24.3315 c2.91,7.9038,2.3768,16.2219,1.2495,24.1632c-1.2759,8.9875-1.0476,17.8754-0.6182,26.7758 c0.3365,6.9793,1.815,13.9013,2.7358,20.8554c1.9605,14.8043,6.8459,28.509,16.44,40.0591 c4.1151,4.9541,9.3779,8.9675,14.201,13.3176c7.0465,6.3553,14.4516,12.3414,21.1831,19.01 c8.29,8.2137,16.2569,16.7819,23.9632,25.5487c5.7678,6.5613,10.4747,13.88,10.9233,23.08 c-0.0244,0.2723,0.0087,0.5468,0.0971,0.8055c4.3438,7.8518,2.0572,16.5315,3.199,24.7707 c1.2239,8.83,1.7362,17.7365,2.596,26.5717c1.3721,14.1013,5.5054,27.5276,7.9262,41.3371 c1.5381,8.0331,1.0441,16.3231-1.437,24.1167c-0.8776,3.1937-3.0502,5.8751-5.9925,7.3958 c-6.0813,3.0138-12.0171,6.1013-19.0455,6.7583c-3.338,0.3122-6.6789,2.1229-9.7026,3.8181 c-2.8156,1.6423-5.413,3.633-7.7305,5.9251c-11.1488,10.712-24.6413,17.78-38.4243,24.158 c-6.1407,2.9094-13.0189,3.8901-19.728,2.8129c-8.3134-1.3156-16.3577-3.4307-24.5135-5.2928 c-12.37-2.8242-24.8893-4.9285-37.2387-7.9705c-6.7942-1.6738-13.6683-3.1993-20.518-4.72 c-14.2059-3.1532-24.1806-11.6052-31.8444-23.3935c-1.92-2.9536-3.76-5.9766-5.3977-9.0937 c-4.6036-8.7644-12.4347-12.3152-21.6359-14.07c-7.1595-1.3653-14.2794-3.0111-21.3242-4.8815 c-5.6814-1.5083-9.9835-5.5555-14.0389-9.4673c-6.6239-6.4164-14.3022-11.6457-22.6989-15.459 c-4.1229-1.874-8.7954-2.51-13.172-3.8594c-12.382-3.8173-24.7143-2.6595-36.8758,0.7253 c-10.4323,2.9037-20.7136,6.25-30.4849,11.17c-9.55,4.8076-18.4185,10.3881-25.9689,17.9857 c-3.2618,3.2822-6.7325,6.3781-9.78,9.8468c-4.5105,5.1334-10.3022,7.937-16.6476,9.7355 c-10.6695,3.0241-21.3721,5.931-32.1078,8.7209c-8.2713,2.1626-13.8589,7.0635-16.3767,15.2956 c-1.2627,4.1289-2.3353,8.3185-3.6842,12.4181c-4.9839,15.1478-12.4052,28.7933-24.1381,39.9234 c-3.9074,3.7068-7.2226,8.0483-10.72,12.1744c-5.81,6.854-11.98,13.3238-19.8349,17.8619 c-4.2715,2.4678-6.86,5.7064-7.7163,10.7589c-0.76,4.485-2.8147,8.7378-3.7743,13.2056c-0.9401,4.0408-3.5596,7.4885-7.2007,9.4771 c-8.8349,5.318-18.3962,7.6621-28.8059,5.389c-12.9573-2.8292-24.1366-8.8526-34.1721-17.4931 c-7.629-6.5512-16.1592-11.9729-25.3296-16.0989c-3.9644-1.7261-8.183-2.7961-12.4908-3.1679 c-9.97-0.9375-19.9878-1.5664-29.999-1.83c-12.544-0.3308-23.1762-4.4781-32.0163-13.5794 c-9.1-9.3684-16.8887-19.7447-24.6248-30.2018c-8.0343-10.86-18.0273-19.7777-30.1392-25.5369 c-7.6135-3.6595-15.9498-5.568-24.3972-5.5854c-7.6,0.0525-15.1582-1.1284-22.38-3.4966c-4.3461-1.4937-8.3996-3.7308-11.98-6.6118 c-6.189-4.8973-11.91-10.59-15.4352-17.6916c-2.7756-5.5916-6.99-8.7755-12.3416-11.12 c-9.0314-3.8527-17.0491-9.7426-23.4259-17.2089c-2.0936-2.47-3.8993-5.1702-5.3821-8.0486 c-3.6696-7.2872-5.6128-15.3212-5.679-23.48c-0.0673-4.54,0.8819-9.0982-0.6468-13.5528c-0.507-1.4773-1.1222-3.24-2.2665-4.1194 c-4.4992-3.4592-8.9513-7.1414-13.9283-9.7855c-12.1994-6.4812-24.5914-12.62-37.0779-18.5339 c-9.0938-4.3066-16.3954-10.7437-22.6222-18.3376c-3.5354-4.3116-5.9842-9.3169-4.6078-15.6113 c0.8522-3.897,0.0622-8.1338,0.19-12.2124c0.4232-13.5447,3.5883-26.4,11.6875-37.4009 c5.7558-7.8176,12.0572-15.3066,21.9619-18.6045c5.5977-1.8639,10.81-4.86,16.3518-6.9285 c2.4736-0.9234,5.412-0.5258,7.9967-1.2427c5.9983-1.5572,11.913-3.4203,17.7208-5.5822c3.2308-1.371,6.2059-3.2796,8.7989-5.6448 c4.0871-3.5708,7.7135-7.6632,11.6328-11.4331c6.5268-6.278,14.2612-9.657,23.4288-9.5386 c11.1546,0.1443,22.1326-1.6791,33.0779-3.4334c8.4575-1.3554,14.6286-6.3658,19.3954-13.5136 c5.7879-8.6792,5.0183-16.47-1.2762-24.58c-4.264-5.4937-10.0991-9.0106-14.9973-13.671 c-9.66-9.1907-21.2389-15.9126-31.5851-24.2287c-0.8454-0.6795-1.5907-1.4854-2.3681-2.2475 c-8.262-8.0982-9.1532-11.1149-4.5584-21.58c3.5271-8.0331,5.4166-16.4246,6.8213-24.9508 c0.8894-5.3984-1.5095-10.2841-4.683-14.3311c-4.0116-5.1156-8.7072-9.5836-15.0432-12.1475 c-7.1148-2.879-13.736-3.36-19.72,2.1452c-3.5568,3.2723-7.6811,2.5272-11.5606,1.6942 c-8.7185-1.8721-17.5256-3.6633-25.9386-6.5359c-9.0243-3.0043-17.5466-7.346-25.2821-12.88 c-1.0991-0.7985-2.0626-1.8009-3.2111-2.5114c-11.2533-6.963-15.8152-17.3688-13.1982-29.9136 c1.7629-8.45,0.6417-16.1693-1.8276-23.8939C1.3681,374.0084,2.83,365.7512,6.6509,357.73 c2.4457-5.1346,5.5453-9.9533,8.1428-15.0208c3.5574-6.94,7.3065-13.8209,10.27-21.017 c4.5095-10.9513,11.4486-20.1847,19.4129-28.651c5.8655-6.067,13.0487-10.7025,20.9934-13.5475 c14.33-5.4047,29.01-8.894,44.4435-8.0313c9.7739,0.5464,18.2064-2.9591,25.5638-8.8194c3.7446-2.9825,6.81-7.0118,9.576-10.9894 c6.2378-8.9692,15.1568-13.59,25.3069-16.0928c6.2791-1.5482,12.7828-2.1633,19.1486-3.3894 c5.5841-1.0407,10.9587-2.9937,15.9082-5.7806c4.7502-2.7335,8.4592-6.9657,10.546-12.0334 c4.1558-9.4332,6.6053-19.5288,7.2349-29.8176c0.84-12.6619,2.6617-25.2394,5.4486-37.6193 c2.0446-9.4948,4.0554-19.0059,4.2028-28.86c0.142-9.495,4.2122-16.9311,13.0089-21.7586 c6.1912-3.3975,12.0313-7.2377,19.1456-8.6336c5.321-1.093,10.8018-1.1598,16.1479-0.197 c9.5711,1.7671,18.9734,4.4491,28.86,4.3951c2.8711-0.0156,5.804,1.1949,8.6156,2.1244c10.7873,3.5662,21.576,7.1358,32.2916,10.91 c16.8785,5.9448,34.5692,8.7826,51.7117,13.7273c13.775,3.9733,27.6308,7.6628,41.5672,11.0685 c7.8592,1.9274,16.0241,2.63,23.8551,4.6459c10.5112,2.706,19.8222-0.2986,28.9161-4.86 c8.3171-4.1713,13.63-11.4645,18.1648-19.1845c7.1684-12.0877,13.5312-24.6353,19.047-37.561 c2.4799-6.0259,5.7819-11.6795,9.812-16.8c7.0321-8.7945,16.6585-12.57,27.162-14.9475 c7.9398-1.6286,15.0458-6.0173,20.0571-12.3875c4.5439-5.7388,9.4821-11.1861,14.4966-16.5269 c7.2178-7.6876,16.4692-11.3981,26.8024-11.8482c9.1968-0.4007,18.3836-0.4294,27.6105,1.2583 c6.3363,1.159,13.025,0.4836,19.5559,0.4683c18.7209-0.0436,35.8387,5.8824,51.6786,15.1177 c8.7212,5.0887,16.0842,12.2086,21.4628,20.754c3.4886,5.5269,5.3825,11.3516,3.2767,17.7829 c-0.9824,2.8701-0.5853,6.0329,1.0762,8.571c2.144,3.7458,4.5167,7.3559,7.1046,10.81 c7.3484,9.374,15.3965,18.2364,22.2571,27.9447c6.1614,8.983,10.5723,19.0481,13.001,29.6669 c0.8978,3.6748,1.7074,7.3809,2.82,10.9919c3.3274,10.8038,11.3114,16.5307,21.9625,17.8248 c5.1846,0.63,10.6566-1.414,16.0282-1.9494c12.11-1.2074,23.939-5.0324,36.2776-4.025c5.6806,0.2927,11.3386,0.9264,16.9432,1.8977 c8.2073,1.7764,16.5574,2.8132,24.95,3.098c3.4847,0.0826,6.9519,0.9632,10.4243,1.4994 c6.678,1.0312,13.3486,2.1119,20.0321,3.1049c7.3535,1.0544,14.0175,4.9028,18.606,10.7449 c7.6888,9.476,14.5977,19.5,18.0295,31.4324C986.6448,210.8277,987.23,214.5653,988.0223,218.2432z"/><path d="M120.1385,130.8116c-6.7376,0.9069-13.4967,1.68-20.2071,2.7569 c-7.3738,1.1834-14.6585,3.2325-22.066,3.7906c-5.3212,0.4009-10.8838-0.5608-16.1569-1.7329 c-12.1028-2.69-23.1238-7.2068-32.3733-16.3217C22.25,112.3224,19.691,103.7054,17.05,95.0053 c-1.2382-4.0791-2.477-7.5929-5.63-10.531c-1.4532-1.4243-2.4842-3.2227-2.979-5.1964C4.9373,64.9505,3.1854,50.371,4.4093,35.6616 c0.9329-11.2108,4.8985-14.5925,14.4434-17.0041c10.6079-2.68,20.8-3.471,30.4548,3.0272c1.5107,0.7914,3.1849,1.2199,4.89,1.2516 C66.2381,24.15,77.2547,28.7429,88.1427,33.52c4.0168,1.8795,7.699,4.4035,10.9008,7.4719 c8.9081,8.4848,19.3914,15.1431,30.8583,19.5991c8.8476,3.5377,17.2984,7.9965,25.2129,13.3028 c11.7517,7.3556,19.8775,19.3051,22.398,32.938c1.55,7.8029-1.925,13.0738-8.55,14.5974c-11.26,2.59-22.28,6.2087-33.5212,8.8919 c-4.9053,1.1708-10.1074,1.0983-15.1747,1.59C120.2241,131.5448,120.1813,131.1783,120.1385,130.8116z"/><path d="M924.953,467.2857c-8.572,1.6721-16.0336-3.2141-22.4688-9.0327 c-6.4942-5.8718-7.5375-14.2076-5.8436-22.5727c1.1661-5.2713,2.655-10.4659,4.4583-15.5546 c1.7524-5.424,2.012-11.2199,0.7516-16.7789c-0.838-4.2011-0.7751-8.6029-0.8593-12.92c0.1264-1.3183,0.5848-2.583,1.3324-3.6761 c3.9178-6.9139,10.129-12.2411,17.5591-15.06c4.5739-1.6777,8.6959-4.3944,12.0412-7.9361 c4.8571-5.2124,11.0875-8.6087,16.9031-12.4773c8.3083-5.527,17.1778-6.0548,26.0982-1.0512 c1.402,0.8296,2.853,1.5733,4.3451,2.227c3.7934,1.5565,6.3534,3.8818,6.6509,8.3457c0.14,2.1072,1.1279,4.1594,1.7446,6.2327 c0.3077,1.0344,1.1,2.1611,0.8967,3.0737c-1.651,7.4277,1.0475,14.9613-0.6557,22.3749c-0.4154,1.5689-0.5874,3.1923-0.51,4.8134 c0.5134,5.9323-2.1768,10.5349-6.0546,14.505c-3.0152,3.0871-6.3971,5.8217-9.6743,8.6457 c-2.4649,2.1239-5.1826,3.9774-7.4928,6.2512c-2.4453,2.1586-4.1515,5.0302-4.8782,8.21c-0.8731,4.4966-2.2427,8.9008-3.48,13.3219 c-3.87,13.8259-11.6494,17.6889-24.1108,19.0308C929.8263,467.46,927.9058,467.2857,924.953,467.2857z"/><path d="M67.3934,563.9456c-5.0526,2.28-9.7045,4.4739-14.4341,6.485c-3.9952,1.9026-8.6403,1.8782-12.6153-0.0665 c-3.5754-1.7593-7.2836-2.83-9.8174-6.6543c-2.9838-4.5038-6.32-8.4964-7.6113-14.0691c-0.8879-3.8312-3.7363-7.18-5.5068-10.8425 c-1.8657-3.5789-3.4605-7.2927-4.7711-11.11c-1.1612-3.4337-0.6049-7.216,1.4957-10.17 c3.8226-5.2474,7.5278-10.649,11.9359-15.3766c2.9791-3.1565,6.5471-5.6995,10.5029-7.4857 c8.4559-3.7781,16.71-1.7739,23.3662,4.0119c5.0641,4.472,10.5762,8.4095,16.4487,11.75 c6.4262,3.6128,10.7348,9.4045,10.4757,17.21c-0.22,6.6365,3.5607,10.5152,8.2619,13.9184c3.7272,2.6981,7.608,5.211,11.5753,7.543 c3.7689,2.2409,6.6155,5.7518,8.029,9.9025c0.9531,2.5327,2.1684,4.974,3.0073,7.5409c1.8074,5.53,0.5375,8.73-4.8289,11.1766 c-2.7456,1.0906-5.6049,1.8698-8.5242,2.3227c-1.5739,0.32-3.2668-0.0006-4.8829,0.1777 c-9.8676,1.0877-17.5423-2.8363-23.2278-10.6061C74.203,566.5908,70.9982,564.5486,67.3934,563.9456z"/></g><g id="change2_1"><path d="M381.3192,936.0175c-3.1817,0-5.5469-3.2211-8.2019-4.2358c-2.7286-1.0428-6.4327-0.04-9.0723-1.4975 c-3.01-1.6623-7.1009-2.6814-12.35-5.0514c-3.158-1.4396-6.3959-2.6968-9.6978-3.7657c-3.5978-1.1624-5.92-6.1835-9.2091-6.852 c-3.742-0.76-7.6112,0.3144-10.9095-0.0263c-3.8823-0.401-7.4779-0.0775-10.6746-0.2491c-3.4149-0.1838-6.42-3.0172-9.6251-3.4727 c-3.3979-0.483-8.0532,3.3081-11.0118,1.8744c-2.8538-1.3829-2.3381-7.1983-4.5922-10.0727 c-2.1841-2.8152-7.1926-3.2857-9.3613-5.9095c-2.2708-2.7472-1.68-7.8777-3.94-10.42c-2.3674-2.6626-6.6346-3.5318-8.9973-5.9742 c-2.4779-2.5615-5.4459-4.4936-7.9268-6.8189c-2.5974-2.4345-4.8991-5.0543-7.5092-7.2367c-2.7263-2.28-6.8043-2.58-9.555-4.5925 c-2.8607-2.0929-4.3154-5.9937-7.2144-7.8062c-2.9934-1.8714-6.9471-1.8008-9.9946-3.3831 c-3.1167-1.6182-5.9073-3.5145-9.0949-4.8406c-3.2228-1.3408-6.3067-2.69-9.6167-3.7426c-3.3058-1.0517-6.7675-1.02-10.1751-1.7959 c-3.8118-0.8677-6.8478-3.9231-10.0282-5.1386c-3.6383-1.3906-8.0369-1.1393-10.9694-2.9137 c-3.2806-1.9849-4.9183-6.2072-7.4863-8.5715c-2.7559-2.5373-6.2451-4.42-8.3955-7.2666c-2.22-2.9386-1.466-7.7621-3.2817-10.8877 c-1.8391-3.166-7.0914-3.4816-8.7691-6.69c-2.3691-0.729-3.5144-3.4121-6.1074-5.3156c-2.1088-1.5481-4.6984-3.4753-6.3413-6.211 c-1.7893-2.9793-0.3458-6.6684-0.6779-9.4511c-0.4909-2.9839-0.5717-6.0209-0.24-9.0267c-0.16-0.23,0.43-1.591,0.27-1.819 c-2.4514-3.4828-5.546-5.1567-7.2435-7.0414c-2.4777-2.7509-5.0834-3.365-8.65-4.3463c-2.4859-0.6845-5.1785-0.2752-8.2283-0.574 c-2.5295-0.2479-5.1541-2.24-8.231-2.24c-4.4,0-8.9151,0.88-13.7061,1.1252c-5.0343,0.2586-10.2523,1.6132-15.5758,1.6132 c-1.5584,0-3.194,0.978-4.7473,0.9253c-2.3381-0.0766-6.9255-1.3469-12.1565-2.3939c-3.58-0.7166-6.6167-4.5152-10.5412-6.3435 c-3.4637-1.6135-6.8692-3.0791-9.9988-5.95c-2.3381-2.1448-6.8318-2.7984-8.4683-5.5242c-1.6315-2.7175-2.5872-6.3279-3.4233-9.3935 c-0.8347-3.06-0.62-6.6512-0.5648-9.83c0.0747-4.2506,2.1-8.1282,3.7375-11.7557c1.6814-3.7237,3.728-7.3072,6.89-10.01 c3.4423-2.9425,6.5252-6.9014,10.0829-8.0188c4.4711-1.4042,9.457,0.4427,12.7787,0.17c1.1791-0.0969,1.1381-2.0495,2.1878-2.218 c0.7248-1.3747,3.443-2.115,4.11-4.012c1.4989-4.267,1.0521-10.4376,4.0686-15.2184c1.8313-2.9023,4.8216-5.3543,7.1156-7.5816 c2.42-2.35,6.9786-1.9417,9.7295-3.6544c2.8511-1.7752,4.9637-4.7338,7.9625-5.9525c3.1512-1.2807,5.7625-4.58,8.8379-5.3942 c3.3989-0.9,6.9028-1.5936,9.8944-2.1179c3.2083-0.5624,6.8963,0.1334,10.425-0.1308c3.2171-0.2409,6.7034,2.5713,10.2727,2.5713 c3.7133,0,7.4037-1.9881,10.9987-1.801c3.71,0.193,7.3876,0.2163,10.9727,0.4712c3.0051,0.2136,5.7728,2.9845,8.5965,3.1425 c3.0479,0.1706,6.0685-0.9144,8.8523-0.9144c4.3129,0,8.02,0.17,10.9642-0.4111c4.2019-0.829,6.6178-3.5515,8.8785-6.0851 c2.0572-2.3055,1.74-5.7283,2.9788-9.93c0.9966-3.3792,4.4905-5.8645,5.9912-8.8071c1.5794-3.0971,4.7616-4.9826,6.7112-7.6882 c2.0315-2.6523,4.2003-5.1966,6.4976-7.6224c2.3172-2.61,1.8869-7.6439,4.166-10.0238c3.0913-3.2274,7.71-4.706,10.1688-7.74 c4.9254-6.0823,5.0934-11.06,4.6341-14.3884c-0.4148-2.9925-0.7224-6.8917-2.582-10.28c-1.5025-2.7373-5.3634-4.3667-7.7188-7.2534 c-2.1438-2.6365-4.4398-5.1454-6.8763-7.5139c-2.3441-2.2758-4.5885-4.8553-7.36-7.1189c-2.5609-2.0917-6.3024-2.71-9.1973-4.7546 c-2.877-2.0314-3.9015-8.0452-7.6393-10.1515c-2.6944-1.5193-7.1541-0.468-10.1089-2.322 c-2.7231-1.7086-6.0077-3.0133-8.6477-5.1414c-2.538-2.0458-2.775-6.4888-4.9717-9.04c-2.1149-2.4561-3.2445-5.0684-4.807-8.0976 c-1.4547-2.82-5.1507-4.696-5.9329-8.0991c-0.8492-3.6969-2.0208-7.48-1.9176-11.1177c0.1053-3.7094-0.26-7.8012,0.5341-11.4054 c0.7986-3.624,3.5688-6.8547,4.7554-10.3281c1.2174-3.5636,1.5371-7.4468,2.8328-10.8045c0.9895-2.5631,2.7762-6.1822,3.9827-9.8525 c1.486-4.5205,2.2789-7.8671,1.5878-9.4145c-0.0153-0.0272-0.6635-4.0064-12.0387-6.3645 c-1.1178-0.2314-2.4669-0.9929-3.9556-0.9929c-4.0662,0-8.4963,4.1241-13.6037,5.0241c-3.1293,0.5521-6.8177-1.9854-10.0738-1.5666 c-3.1454,0.4045-6.2469,1.2463-9.5447,1.2463c-3.2264,0-6.6031,1.78-9.5046,1.2475c-3.1124-0.5713-5.1971-4.4259-7.9724-5.6214 c-2.8136-1.2121-5.6973-1.9165-8.2037-3.7824c-2.8326-2.11-4.3983-4.972-6.41-7.498c-2.1678-2.7216-6.293-4.1373-7.6772-7.0925 c-1.4818-3.1637-0.5277-7.1775-1.3193-10.3014c-0.8836-3.2159-1.5338-6.4915-1.9456-9.8011 c-0.4292-4.2571-0.8151-7.7682-0.8185-10.0165c-0.0062-3.5935-1.6425-7.5553-1.0981-11.3658 c0.6553-3.7925,1.7711-7.4908,3.3227-11.0128c1.4411-3.457,5.4746-5.2053,7.5759-7.899c2.25-2.8846,2.9334-7.266,5.6953-9.3924 c2.8716-2.2109,6.915-2.6964,10.06-4.2213c3.3012-1.6009,6.283-3.9915,9.5628-4.99c3.6534-1.1127,7.7014,0.3385,10.8952-0.234 c4.3586-0.7812,7.649-4.3177,10.1468-4.5727c2.35-0.24,6.043,1.7043,9.67,1.1017c3.11-0.5166,5.9771-2.617,8.83-3.5962 c3.5676-1.2244,7.052-1.8583,8.2761-4.1241c0.5189-0.9613,2.1951-2.3258,2.8008-4.1139c0.8694-2.5691,0.0946-6.4829,1.7721-9.758 c1.7073-3.3341,2.7811-7.2726,5.0378-9.86c2.402-2.754,7.5012-2.4856,10.3615-4.5259c2.9263-2.0874,6.0724-3.0341,9.2992-4.5192 c3.2625-1.5016,5.4951-5.3559,8.8784-6.3921c3.4774-1.065,7.4985,0.3365,10.9026-0.3989c3.6443-0.7874,7.052-1.8405,10.3709-2.445 c1.9138-0.3473,1.262-3.9489,3.1761-4.2947c4.1038-0.74,8.5914,2.3972,12.0069,1.673c4.1648-0.8832,6.639-5.9461,9.8822-7.0537 c4.0144-1.3711,6.6507-2.5217,9.4451-4.7053c2.9221-2.2834,5.2277-3.91,7.0533-7.6618c1.3628-2.8016,6.0647-4.6251,6.8139-7.9087 c0.6919-3.0329-2.46-6.9054-2.0672-10.2305c0.37-3.1292,3.0388-6.1072,3.329-9.397c0.2928-3.3248,0.7482-6.7027,1.1511-10.1794 c0.3875-3.3447,1.5356-6.5337,2.1942-9.9487c0.6391-3.3137,0.0108-6.8882,1.0591-10.2043c1.0127-3.2037,4.2791-5.3607,5.8129-8.5089 c1.3879-2.9865,3.0286-5.8489,4.9042-8.5559c2.0728-2.9265,2.8679-6.46,5.2878-8.8438c2.5267-2.4891,5.8425-3.49,8.72-5.3729 c2.922-1.9123,5.2367-4.3549,8.4918-5.6277c3.2006-1.2516,6.195-3.1825,9.69-3.8012c3.3431-0.592,6.8374-2.6941,10.4248-2.6941 c3.3699-0.0094,6.737,0.1954,10.0809,0.6133c3.2418,0.4252,5.8281,4.6979,9.037,5.4391c3.2013,0.7394,6.0779,2.2025,9.2127,3.1522 c3.1678,0.96,6.6921,0.56,9.7574,1.6272c3.1591,1.1,5.8475,3.3073,8.86,4.4059c2.8485,1.0389,5.88,1.3954,8.5532,2.3282 c2.9217,1.0193,6.6877-1.1318,9.3414-0.3669c2.891,0.8341,4.98,4.8163,8.1071,5.8862c2.8943,0.99,6.4089,0.5332,9.4788,1.6282 c3.422,1.22,6.1029,4.9629,9.6638,6.1729c3.5363,1.2016,8.5223-2.1787,12.0412-1.16c3.6893,1.0682,6.7037,4.0165,10.2008,4.69 c3.9013,0.7516,7.5562-0.0388,10.9849-0.0392c7.7615,0,11.4811-0.0093,13.15-2.0033c0.3379-0.4039,0.9114,0.0744,1.249-0.33 c1.9634-2.35,0.9843-7.783,3.4325-10.3485c2.2171-2.3235,5.4859-4.184,8.2207-6.2574c2.583-1.9583,7.295-0.36,10.4387-1.743 c2.917-1.2837,4.904-6.1724,8.3836-6.6776c1.7336-0.2518,3.8026,2.3322,5.6264,2.3322c5.4154,0,10.3848-0.7552,14.2044,0.1176 c2.8905,0.6585,5.5837,1.5783,8.2055,2.1942c4.4273,1.0394,8.8573-0.0261,12.4616,0.72c4.8918,1.0122,8.44,4.5761,11.6723,4.5761 c2.4429,0,5.5216,0.1961,9.4306-3.8433c1.744-1.8022,5.4547-3.4954,7.8044-7.2646c1.524-2.4448,0.3029-7.1094,2.1488-10.6306 c1.1335-2.1634,0.7867-5.5144,2.134-8.4581c1.1319-2.4732,7.18-2.952,8.4014-5.6933c1.42-3.1844,1.5974-7.0219,3.1149-10.34 c1.47-3.2144,4.2349-5.8156,5.8212-9.0515c1.5734-3.21,1.266-7.328,2.9774-10.4584c1.731-3.1662,3.9577-5.9525,5.8539-8.9346 c1.9535-3.0722,3.5709-6.2187,5.7259-8.984c2.2523-2.89,3.7813-6.3176,6.2832-8.7459c2.63-2.5526,6.5805-3.1613,9.5206-5.0571 c3.0346-1.9568,5.6767-3.9606,9.08-5.0552c4.9049-1.5789,9.3756-1.4315,13.4061-1.91c2.5663-0.3396,5.0847-0.9747,7.505-1.8928 c2.666-1.026,6.5255-4.2863,10.0269-7.7043c2.8644-2.7964,5.1907-6.8872,9.03-9.772c3.3526-2.5194,7.7212-3.3248,12.14-4.9936 c2.52-0.9527,4.9533-1.0547,7.7056-1.5237c2.6346-0.4489,5.002-4.543,7.8136-4.543c3.2792-0.1559,6.5654-0.0803,9.834,0.2264 c3.6083,0.5554,6.7041,2.6667,9.2,3.3117c3.9659,1.0267,7.0457,3.9567,10.38,5.3789c3.7747,1.61,7.8365,2.1858,10.7933,4.296 c3.2736,2.1911,6.2117,4.8458,8.7224,7.8811c2.35,3.0662,3.5366,6.987,4.7715,10.6981c1.0991,3.3,2.3422,6.5435,2.4824,9.6571 c0.1547,3.4359-3.0316,6.4214-3.5557,9.4928c-0.5985,3.5074,1.3124,7.2834,0.545,10.1146 c-0.2876,1.0583-2.4947,1.6112-2.7584,2.6559c-0.6676,2.6588-0.7419,6.9249-0.6359,11.7012c0.0763,3.44,0.0316,7.4288,0.5015,11.54 c0.4141,3.6235,2.2407,7.2944,2.9557,11.1783c0.6816,3.7018,2.4585,7.2213,3.4095,10.9425c0.9552,3.738,3.3892,6.8827,4.6125,10.426 c1.2133,3.5196,2.6384,6.9626,4.2676,10.31c1.7881,3.6948,2.0756,7.665,4.2314,10.4292c1.7082,2.188,4.4475,5.6491,7.37,5.6491 c0.2144,0,0.5186,1.32,0.74,1.2928c1.3628-0.1719,3.0084-2.1524,5.0535-2.6526c4.7574-1.0618,9.623-1.5614,14.497-1.4886 c4.3419,0,8.6215-0.5925,11.7,0.6342c3.7726,1.4542,7.2316,3.6178,10.19,6.3738c4.4592,4.5715,4.3916,11.304,5.5894,15.098 c0.0629-0.0068,0.7264,0.3157,0.791,0.3089c4.081-0.51,7.8532-3.057,12.072-4.12c3.9807-1.0035,8.7306,0.3555,12.9025-0.8529 c4.0849-1.1824,8.1594-2.5252,12.4219-3.6191c4.1154-1.0561,7.8656-4.1252,12.2139-4.8607 c5.2486-0.8881,10.6714-0.1665,15.8231-0.1665c3.7228,0,7.0227,2.3386,10.5151,2.8029c3.688,0.49,8.2491-3.5292,11.6362-2.5392 c3.5586,1.04,6.9339,3.333,10.1093,4.9034c3.3685,1.6055,6.5754,3.5299,9.5768,5.747c2.8819,2.2223,5.2714,5.4005,7.6022,8.1673 c2.1831,2.5917,2.279,6.5814,3.8129,9.5571c1.5366,2.9809,3.1793,5.7789,4.0473,9.0449c0.861,3.2164,1.3881,6.5131,1.5728,9.8377 c0.1849,3.3062-1.56,6.36-2.0206,9.7468c-0.4442,3.2689,1.5266,7.0385,0.4677,10.3018s-4.0818,5.5791-5.6413,8.4861 c-1.6161,3.0124-4.007,5.09-6.0979,7.6581c-2.1483,2.6384-2.9395,6.3107-5.52,8.4129c-2.62,2.1342-5.7789,3.2952-8.7729,4.8061 c-2.9886,1.5082-5.7577,3.5173-9.0465,4.3335c-3.0262,0.7191-6.1033,1.2038-9.204,1.45c-3.2577,0.294-6.4113-0.8143-9.3254-0.74 c-5.2248,0.1327-10.878-0.012-13.4385,1.3712c-2.1967,1.1869-4.8177,4.4087-6.5525,7.7447c-1.3159,2.53,0.4262,6.7893-0.7053,9.89 c-1.059,2.9018-0.9646,6.23-1.9217,9.1433c-1.3529,4.1208-6.5966,6.9632-8.1894,11.0487c-1.6019,4.1089-2.1883,8.585-4.4251,12.3037 c-1.29,2.1454-1.75,5.005-3.17,7.4652c-1.7655,3.0587-6.6019,4.5553-8.6217,7.8938c-1.883,3.1125-0.4639,8.462-2.6041,11.61 c-2.0833,3.0645-6.0364,4.861-8.396,7.7718c-2.3619,2.9136-2.656,7.9061-5.3268,10.48c-2.7144,2.6163-7.6691,2.7366-10.7361,4.8093 c-3.1029,2.0968-6.9853,2.0086-10.4838,3.3487c-2.1233,0.8115-3.2054,3.7265-4.9425,4.2369 c-1.0922,0.32-4.2824-1.3166-5.0616-1.0053c-1.5866,1.7723-4.0726,6.1882-5.7069,10.3453c-1.2085,3.0742-1.81,6.9887-2.803,10.5141 c-0.9934,3.5283,0.2962,7.68-0.2748,10.9336c-0.7731,4.4053,1.35,7.323,1.7966,9.6555c1.0957,2.2559,2.1564,5.4768,5.1269,8.3385 c1.3118,1.2641,0.7007,4.4443,1.9631,5.7305c2.2764,2.3171,4.3533,4.822,6.2088,7.4881c1.8293,2.632,3.3458,5.4681,4.5189,8.451 c1.4307,3.4317,5.1758,5.7436,5.5329,8.7377c0.45,3.7708-1.0131,7.2212-1.5575,10.07c-0.7486,3.9131-4.1469,6.24-5.166,8.6065 c-0.0528,0.1208,3.1651,0.6263,3.109,0.7573c0.2433,0.2076,0.5224-0.5012,0.8542-0.2732c1.3831,0.9561,2.0834,3.5552,3.9838,4.6117 c3.6,1.9991,8.08,3.7575,12.08,7.1194c2.6488,2.2251,4.1531,5.57,6.2454,8.3643c2.0546,2.7434,5.567,4.779,7.0468,7.9686 c1.4363,3.0956-0.32,7.366,0.54,10.7877c0.83,3.3043,4.9063,6.1754,5.1676,9.6989c0.2517,3.3956,0.7688,7.2118,0.4636,10.7349 c-0.27,3.1212-3.7153,5.81-4.1842,8.7272c-0.493,3.067,1.44,6.5373,0.8188,9.4416c-0.6454,3.016-2.6854,5.6817-3.3667,8.5927 c-0.9522,4.0667-1.9687,7.9145-2.6849,11.7174c-0.7607,4.039,0.94,8.0059,0.801,11.9618 c-0.1387,3.9395-0.7326,7.4421,0.1072,11.5177c0.5838,2.834-1.4566,6.3221-0.34,9.0589c1.0123,2.48,5.5806,3.5264,6.9143,6.3652 c0.6022,1.2845,0.2053,3.0733,0.8212,4.4105c1.5259,3.3228,1.104,7.3978,2.1977,10.7734c1.1245,3.4706,4.647,6.2069,5.5957,9.618 c0.8578,3.0841-0.911,6.8381-0.0178,9.6024c1.05,3.25,4.1744,5.1523,5.514,7.4719c1.327,2.2969,1.0386,7.5953,4.05,10.428 c2.0933,1.9715,4.8776,3.3448,7.0786,5.7314c2.1028,2.1328,4.0214,4.4396,5.7352,6.8959c2.8957,4.3877,7.4976,7.2527,9.2568,11.0382 c1.7541,3.7753,1.0495,8.3176,3.035,10.7488c1.8534,2.27,4.5435,3.9663,6.758,6.1352c2.0909,2.0478,3.7477,4.7024,6.0265,6.7969 c2.6787,2.4623,6.166,4.3435,8.974,7.1614c2.6168,2.6258,6.77,4.2045,9.2168,7.2768c2.3182,2.9105,2.5037,7.5368,4.4316,10.964 c1.9131,3.281,3.5089,6.7371,4.7656,10.3212c1.1622,3.4537,4.2972,6.78,4.8506,10.7725c0.621,4.4728-1.1846,9.8924-0.7286,15.3214 c0.26,3.09-0.37,6.4575-0.0383,9.867c0.26,2.6694,1.258,4.8209,1.53,6.6413c0.3942,2.6374,3.9438,6.2738,3.6774,10.1275 c-0.2158,3.1226-1.9295,7.0833-3.6908,10.2712c-1.451,2.6262-5.0366,4.3874-8.1524,6.6516 c-4.956,3.5984-6.139,8.1248-8.4647,10.2872c-2.4217,2.251-7.9042,1.441-11.851,3.3867c-3.0573,1.5072-5.9084,1.9-10.43,1.9 c-3.0148,0-6.2175,2.2782-10.8332,1.2251c-3.7587-0.8578-7.9082-2.9535-12.5381-3.1631c-4.057-0.1836-8.4125-1.27-12.8382-1.2963 c-3.6321-0.0214-7.3554,2.0789-11.109,1.9685c-3.6731-0.1081-7.5811,1.8987-11.2829,1.5389 c-3.68-0.3578-7.0206-3.5235-10.6439-4.2926c-3.5468-0.8969-7.0161-2.0764-10.3745-3.5271 c-3.4086-1.3125-6.0233-3.6357-9.2148-5.6509c-2.9271-2.0079-5.6312-4.3229-8.0662-6.9055c-2.848-2.763-6.41-4.4744-8.606-7.0706 c-2.7154-3.2105-7.67-4.6646-9.4992-5.09c-0.0817-0.0187,0.2739,0.0089-0.0952,0.0089c-2.446-0.1027-4.8949,0.1206-7.2821,0.6639 c-2.9365,0.7282-6.7187-0.4426-10.3289,0.0524c-2.3053,0.3165-4.612,2.9562-6.9582,2.9562c-3.72,0-6.8606-5.1027-10.4444-5.8405 c-3.6275-0.7469-7.39,0.0393-10.7671-1.4026c-3.3966-1.45-8.4527-0.3324-11.4837-2.4229s-3.7788-7.214-6.3318-9.8833 c-2.5345-2.65-5.5841-4.8967-7.5359-8.0552c-1.6235-2.3897-3.0927-4.8806-4.3986-7.4576c-1.2333-2.7563-1.209-5.8832-2.1666-8.3932 c-1.373-3.5983-1.6393-7.7151-3.1637-10.2331c-1.8729-3.0949-4.8134-6.751-8.0348-8.6444c-3.0266-1.779-7.7324-0.9588-11.321-1.9189 c-3.5439-0.9481-7.4759,0.92-10.9779,0.5434c-3.9816-0.4278-7.4787-4.5025-10.5963-4.5025c-3.6364,0-7.3038,1.9988-11.0146,2.2955 c-3.6657,0.2931-7.6546-1.5816-11.2967-1.048c-3.6833,0.54-6.9274,3.6957-10.4882,4.4313 c-3.6985,0.764-7.8592-0.5986-11.3167,0.3213c-3.7292,0.9922-6.5089,4.7171-9.8238,5.8224 c-3.7963,1.2658-7.3192,2.2484-10.3764,3.5629c-2.9353,1.2613-5.0856,3.8061-7.886,5.34c-2.78,1.5226-6.55,1.2733-9.259,3.002 c-2.661,1.6983-6.2188,2.164-8.8685,4.002c-2.5885,1.7953-2.8126,7.0125-5.4448,8.8857c-2.6912,1.9151-5.7981,3.3172-8.5449,5.222 c-2.7135,1.8817-7.0361,1.4145-9.85,3.2222c-2.7748,1.7828-6.2976,2.1808-9.2138,3.83c-2.8622,1.619-4.2639,5.9862-7.304,7.4185 c-2.9632,1.396-5.6042,4.0033-8.7752,5.168c-3.0587,1.1234-6.8321,0.5859-10.1192,1.4453 c-3.4665,0.8196-6.8894,1.8139-10.2556,2.9791c-3.514,1.318-7.7333,0.8834-10.7441,2.4653c-3.2718,1.6613-6.4229,3.5502-9.43,5.6531 c-2.9931,2.1788-3.2953,7.362-5.7361,9.8074c-2.584,2.589-6.3067,3.9636-8.3714,6.7848c-2.1375,2.9207-5.2645,5.32-6.9573,8.415 c-1.727,3.1575-2.6143,6.8422-3.9979,10.1009c-1.4064,3.3124-0.7188,7.4072-1.8963,10.74c-1.2037,3.4072-1.9428,6.9014-3.0414,10.24 c-1.0662,3.24-2.0518,7.2366-3.9812,10.463c-1.7826,2.9809-5.4915,5.048-7.7858,7.9308c-2.21,2.7765-4.2991,5.8457-6.7864,8.456 c-2.5048,2.6285-6.9737,3.2164-9.5635,5.6012c-2.7539,2.5359-3.8187,6.8019-6.4385,8.9743 c-3.0442,2.5243-5.6094,5.181-8.1263,7.0821c-5.2912,4.347-11.49,4.84-15.1051,4.84L381.3192,936.0175z" fill="#456424"/></g><g id="change3_1"><path d="M359.9044,907.0508c3.2285,1.4577,6.1325,2.4656,8.4546,3.6815c3.4685,1.8162,5.5364,4.2958,7.5786,5.358 c3.9622,2.0608,6.45,2.0739,8.993-0.126c0.1183-0.1024,3.7087-2.65,8.5737-6.7208c2.4753-2.0715,5.5288-4.3009,8.4076-6.9945 c2.5806-2.4146,3.649-6.5309,6.13-9.237c2.5222-2.7514,3.8616-6.0949,5.8625-8.9424c2.2856-3.2527,8.4272-4.29,9.4435-7.3786 c1.0442-3.1736,1.47-6.6311,2.6483-9.9692c1.1226-3.18,0.2906-7.1611,1.6249-10.4121c1.2869-3.1356,4.605-5.3732,6.1687-8.5052 c1.5163-3.0373,3.7634-5.516,5.6127-8.4865c1.7912-2.8773,0.8435-7.6666,3.0132-10.4236c2.0874-2.6524,5.8511-3.9362,8.3479-6.4258 c2.3758-2.369,4.241-5.3937,7.0387-7.5706c2.6341-2.05,6.6116-2.1468,9.6627-3.9888c2.8468-1.7188,5.9183-2.75,9.1632-4.2573 c3.01-1.398,4.77-6.0139,8.15-7.2055c3.13-1.1036,6.6566-1.5752,10.1264-2.4824c3.4832-0.9107,6.2609-3.3045,9.5007-4.5921 c3.3126-1.3165,6.5953-2.2353,9.7122-3.8625c3.139-1.6386,5.7526-3.9342,8.7536-5.8022c2.9965-1.8652,6.548-2.7782,9.4674-4.7863 c2.9047-1.998,6.71-2.7263,9.5977-4.7813c2.8731-2.0443,5.4505-4.5136,8.3658-6.531c2.8983-2.0055,5.1638-5.0085,8.1615-6.9056 c2.9732-1.8815,7.06-1.88,10.1879-3.5749c3.0806-1.67,5.2-5.4,8.4846-6.812c2.9074-1.25,6.6828-1.26,10.2051-2.48 c3.1026-1.074,6.06-3.3448,9.5365-4.3391c3.22-0.9209,6.65-1.7424,10.11-2.5515c3.3044-0.7727,7.2937,1.4559,10.75,0.8223 c3.37-0.6179,6.45-3.0611,9.9016-3.5126c3.426-0.4482,6.8759-0.8339,10.3212-1.085c3.4716-0.2531,6.9552,2.148,10.3845,2.1286 c3.5057-0.02,6.7716,0.0394,10.1676,0.2994c3.5188,0.2694,7.3851-3.0421,10.7138-2.4329c3.4913,0.639,6.8059,2.2107,10.0051,3.2687 c3.3729,1.1154,7.6542,0.7247,10.6054,2.3586c3.078,1.7042,4.9767,5.6317,7.4853,7.96c2.5122,2.3317,2.822,6.3032,4.65,9.3227 c1.58,2.61,5.7767,3.8926,6.92,6.7272c1.1379,2.8226,0.6494,6.3127,1.7953,9.13c1.1508,2.83,0.4613,6.83,2.0654,9.4264 c1.8538,3,7.1526,3.3554,9.8016,5.6668c2.646,2.3086,4.3081,6.1367,7.4913,7.6374c3.2424,1.6071,6.6863,2.7704,10.2391,3.4587 c3.4686,0.573,7.1908-0.6074,10.6847-1.0861c4.069-0.5575,8.5931,0.3741,12.6338-0.51c4.138-0.905,7.63-2.7489,11.7258-1.795 c3.4797,0.6379,6.7481,2.1252,9.5148,4.33c2.7534,2.3019,5.3162,4.8226,7.6633,7.5375c2.3368,2.7538,3.49,6.7183,6.01,9.1632 c2.5436,2.4673,6.1164,3.8177,9.1259,5.4c3.0235,1.5894,7.0491,0.1428,10.4311,1.0391c3.2623,0.8645,6.1051,3.36,9.5985,3.7637 c3.3673,0.3887,6.7176,2.6151,10.2078,2.74c3.4223,0.1224,6.9283,0.4352,10.383,0.4575c3.4666,0.0223,6.895,0.1813,10.3086,0.2566 c3.5068,0.0773,7.0557-2.3777,10.4149-2.08c3.5278,0.3126,6.502,3.0727,9.7618,3.8169c5.6583,1.2918,9.5612,1.4422,11.9264,0.2265 c2.1924-1.1269,2.1458-6.4673,6.21-10.0471c2.1413-1.8862,5.7687-3.15,9.3881-5.7783c2.6756-1.9426,2.5309-3.8081,1.9-8.2742 c-0.3368-2.3833,1.6407-5.6649,1.2553-9.6263c-0.4145-4.2591-1.5626-8.2142-1.8811-11.9673 c-0.381-4.49-1.1923-8.5614-1.6751-12.0444c-0.5354-3.8637-0.8347-7.87-2.1494-11.0873c-1.4207-3.4771-4.0295-6.5351-6.1273-9.47 c-2.1229-2.97-5.73-4.7451-8.2977-7.3864c-2.5257-2.5984-6.2294-3.93-8.945-6.4291c-2.675-2.4621-3.3751-7.0768-6.0047-9.6521 c-2.5131-2.6119-4.8785-5.362-7.085-8.2376c-1.9551-2.3938-6.1059-3.2773-7.4515-5.8538c-1.3845-2.6508-3.06-5.2148-4.3392-7.9083 c-1.2551-2.6438-1.0982-5.8479-2.7739-8.3869c-1.8446-2.795-4.219-4.8917-6.6132-7.2412c-2.3909-2.3461-5.7679-3.7577-8.0979-6.1182 c-2.3711-2.4021-0.9145-7.72-2.5868-10.6156c-1.6806-2.91-7.3634-4.16-8.5475-7.5348c-1.1259-3.2085,2.7034-8.0755,1.7567-11.458 c-0.9373-3.3492-5.9851-5.517-7.0031-8.8029c-0.9815-3.2459-2.1775-6.4231-3.58-9.5105c-1.865-4.0592-0.8948-9.0429-2.5-12.8674 s-1.7734-7.74-2.6831-12.154c-0.5837-3.0867-0.9261-6.2142-1.0244-9.354c-0.1851-3.3345-1.69-6.36-1.4391-9.5533 c0.2577-3.2809,1.724-6.2215,2.2912-9.4152c0.57-3.2093,0.4613-6.4693,1.1891-9.6547c0.7225-3.162,0.4759-6.5589,1.2017-9.76 c0.7138-3.1487-0.1167-6.6088,0.4548-9.8559c0.556-3.16,3.4589-6.0534,3.7454-9.3621c0.3356-3.8772-0.8815-7.9792-1.5363-11.8546 c-0.6608-3.91-3.9152-6.6748-5.6886-10.1285c-1.7954-3.4966-1.8808-8.0466-4.9247-10.6041 c-2.3023-2.0587-4.7908-3.8994-7.4332-5.4983c-2.6514-1.4854-7.2617,0.0284-9.7576-1.695c-2.458-1.6971-3.6-5.75-5.2786-8.2287 c-1.7361-2.5634-0.7146-5.5047-0.5087-8.5872c0.3114-4.6605,1.6436-8.8039,2.5216-13.3916 c0.747-3.9032,1.4785-8.6131-0.3168-12.1736c-1.7283-3.4277-6.3281-5.4021-9.0068-8.1335c-2.7082-2.7617-5.7449-5.3344-8.3929-8.17 c-2.6917-2.8822-2.9378-7.0652-4.4223-10.706c-1.0484-2.5714-4.35-5.734-4.1424-10.21c0.1551-3.3368,3.3332-6.72,4.05-10.58 c0.65-3.5034-1.3227-7.79-0.3014-11.3661c1.0232-3.5823,2.6652-7.085,3.973-10.3969c1.3449-3.4665,2.9414-6.83,4.7768-10.0636 c2.236-3.8456,6.0031-5.4758,8.411-6.9988c3.6907-2.4791,7.6199-4.5833,11.7288-6.2815c3.2012-1.226,7.7789-0.7209,10.6583-3.015 c2.6658-2.1239,4.188-5.9869,6.5966-8.7433c2.28-2.61,5.6395-4.6441,7.7049-7.5832c2.0366-2.8983,4.4069-5.7579,6.2492-8.7538 c1.9019-3.0929,0.33-8.1983,2.0406-11.1555c1.89-3.2665,6.96-4.4308,8.6364-7.219c1.7115-2.8458-0.708-7.9723,0.631-11.4489 c1.229-3.1913,2.2238-6.4987,3.3538-9.9345c1.098-3.3387,6.7047-5.1734,7.9-8.4873c1.0616-3.2836,2.3059-6.5053,3.7272-9.65 c1.6115-3.2749,0.475-8.1233,2.6554-10.7613c2.2709-2.7473,6.8371-2.5751,9.989-4.2786c3.5707-1.9294,6.3769-6.1162,10.3821-6.5532 c3.9041-0.426,8.1043,0.7013,12.1234,0.5681c3.9554-0.0374,7.8958-0.4937,11.7551-1.3614c3.6127-0.8965,6.1452-3.1617,9.05-5.2964 c2.9154-2.1426,7.82-2.5787,9.9018-5.5993c2.0522-2.9772,0.9266-7.7216,2.0536-11.1948s2.8428-6.7005,2.93-10.3155 c0.0881-3.6679,0.509-7.5416-0.593-10.9879c-1.0979-3.4335-4.9986-5.2-7.3966-8.0471c-2.2777-2.7039-3.5874-5.9673-6.482-7.8154 c-2.9009-1.8521-5.6177-4.4493-8.9475-5.537c-3.2511-1.0619-7.1873,0.9849-10.6673,0.562 c-3.3472-0.4052-6.7213-0.5444-10.0906-0.4163c-3.49,0.1173-6.9436-0.8826-10.3144-0.3122c-3.4243,0.5794-6.8316,1.1-10.2012,1.9437 c-3.3637,0.8426-6.8256,1.3366-10.1642,2.2963c-3.337,0.9593-6.5819,2.2464-9.9231,3.176 c-3.3491,0.9319-6.5484,2.5559-9.9313,3.3108c-3.3866,0.7556-6.7759,2.2416-10.2261,2.6721 c-2.5932,0.3235-5.748-0.2631-8.3422-0.6639c-2.7076-0.4183-6.824-0.7846-8.6736-2.789c-1.93-2.0911,0.9162-7.1038,0.0631-9.8809 c-0.8505-3.0269-2.3499-5.8323-4.3938-8.2214c-2.2326-2.2887-6.2441-0.9649-9.2956-0.9533 c-2.7535,0.0105-5.9132-0.9725-8.9152-0.249c-2.856,0.5896-5.7432,1.0165-8.6476,1.2788c-3.6235,0.4553-6.7194,0.9094-9.9214-0.2526 c-3.1849-1.2331-6.1039-3.0651-8.5993-5.3969c-2.4543-2.1676-6.1551-3.6334-8.2822-6.6161c-1.9236-2.6975-2.53-6.5037-4.1856-9.7116 c-1.5423-2.9877-3.598-5.8983-4.9079-9.2045c-1.2554-3.1689-3.6011-6.1263-4.6429-9.48c-1.0236-3.2949,1.448-7.5907,0.6308-10.9628 c-0.823-3.396-3.6038-6.3275-4.2173-9.7c-0.6345-3.4873,1.0022-7.22,0.5919-10.5709c-0.4393-3.5872-1.9411-6.8767-2.1234-10.1731 c-0.206-3.7266-0.7452-7.1847-0.6225-10.3508c0.1565-4.0393-1.2833-7.9844-0.5913-10.74c0.9157-3.6456,1.4778-7.3647,2.1427-11.0836 c0.6848-3.83,1.448-6.64,0.2253-10.3129c-1.0453-3.1405-2.7038-4.607-5.1141-6.7477c-2.3286-2.0681-3.29-6.1916-6.294-7.5244 c-2.9436-1.3059-6.8827,0.2827-9.916-0.5022c-3.9647-1.0259-7.5616-4.694-11.6554-4.9319c-4.1623-0.2418-8.08,1.8669-11.9747,3.3384 c-3.0536,1.1537-7.4383,0.42-9.98,2.4507c-2.4948,1.9925-5.1615,4.241-7.492,6.516c-2.3286,2.2731-4.322,4.5817-6.8113,6.5816 c-2.5364,2.0377-4.27,4.4121-7.3139,5.5843c-3.356,1.3825-6.8745,2.3319-10.4705,2.825c-3.6861,0.4411-7.1909,1.805-10.7078,2.9364 c-2.99,0.962-7.3332,0.594-10.0788,2.8392c-2.4089,1.97-2.3061,6.8956-4.5339,9.6159c-2.0108,2.4553-5.6656,3.8773-7.5341,6.7724 c-1.753,2.7161-1.9962,6.4484-3.6282,9.4126c-1.5855,2.88-1.6136,6.54-3.0886,9.5282c-1.48,2.9977-4.4452,5.2329-5.8174,8.2158 c-1.4209,3.089-4.06,5.5574-5.37,8.4946c-1.4221,3.1887-0.5028,7.2814-1.7993,10.1213c-1.5212,3.3321-6.5713,4.5886-7.9276,7.176 c-1.836,3.5026-0.1792,8.5838-1.91,11.3857c-2.124,3.4391-7.8156,3.71-9.8659,6.1975c-2.6049,3.16-2.4293,8.318-5.0872,10.1519 c-3.1492,2.1729-6.785,4.1986-10.3039,4.87c-3.3185,0.6331-7.0217-3.0045-10.9457-3.3691c-3.2823-0.305-7.2654,2.3281-11.144,1.5357 c-3.2681-0.6677-6.5057-2.7906-10.3-3.6789c-3.2959-0.7716-6.7107-2.0327-10.47-2.89c-4.2715-1.0554-8.7004-1.3182-13.0668-0.7755 c-3.1644,0.3447-6.2123,1.3898-8.9224,3.0593c-2.554,1.7009-3.8167,4.9965-6.0131,7.3321 c-2.1625,2.2993-4.8546,4.1266-6.8337,6.4907c-2.4372,2.9115-4.9,5.97-7.9969,7.5964c-3.1436,1.6508-7.0511,2.0862-10.7109,2.6479 c-3.4227,0.5253-7.2283,2.4452-10.9633,2.2184c-3.4777-0.2112-6.6321-4.4443-10.2677-5.1451 c-3.4692-0.6688-7.487,0.75-11.0034-0.2257c-3.4591-0.96-6.1972-4.339-9.6113-5.4649c-3.4686-1.1438-8.274,1.67-11.6027,0.4889 c-3.5141-1.2465-6.3539-4.0675-9.6041-5.2c-3.644-1.2694-6.6922-3.6088-9.8566-4.5216c-3.3306-0.9607-7.53,0.0778-11.06-1.1663 c-3.3389-1.1769-5.785-5.1464-9.2364-6.4c-3.3838-1.229-6.8846-2.2988-10.3161-3.4375c-3.4659-1.15-7.5116-0.2026-10.9647-1.0945 c-3.5792-0.9244-6.5993-4.4636-10.0972-4.9278c-3.6851-0.489-7.4467,1.6762-10.9634,1.91c-3.6556,0.243-7.2746,0.0276-10.66,1.2915 c-3.28,1.2244-4.8179,4.959-7.76,7.3673c-2.5969,2.1255-5.5759,3.5722-7.85,6.7829c-2.1983,3.1037-5.8342,5.27-7.18,8.6435 c-1.3707,3.435-3.7717,6.8661-4.528,10.5c-0.747,3.589,3.3135,7.9847,2.903,11.6882c-0.4052,3.6557-5.2125,6.8963-5.5428,10.5873 c-0.33,3.688-0.7088,7.2623-1.2146,10.91c-0.51,3.6779-0.3227,7.2577-1.2675,10.8168c-0.9441,3.5565,1.1537,8.3437-0.481,11.7042 c-1.7064,3.5079-4.4572,6.5581-6.6563,9.1817c-2.42,2.8873-7.1966,2.9818-10.1267,5.0063c-2.977,2.0568-5.0756,5.5346-8.4845,6.9277 c-3.2891,1.3442-7.0407,1.61-10.6448,2.5451c-3.4378,0.8924-6.9444,1.809-10.5929,2.5122 c-3.5063,0.6758-6.6721,3.6019-10.3057,4.2645c-3.1351,0.5716-6.8545-1.4046-10.0956-0.7276 c-3.2,0.6684-6.0868,2.6136-9.1866,3.5426c-3.1285,0.8163-6.1853,1.8862-9.14,3.199c-2.9975,1.4643-4.6478,4.2608-7.0445,6.4023 s-6.7945,2.6552-8.338,5.6694c-2.2625,4.4184-0.4045,10.9033-2.7642,15.27c-1.8717,3.4639-5.4659,6.2324-8.5118,8.4279 c-2.9912,2.1562-6.4233,4.8925-10.1158,6.1424c-3.515,1.19-8.0939-0.8774-11.8666-0.2309c-3.7784,0.6475-7.2223,4.14-10.8893,4.5149 c-3.6565,0.3735-7.8056-1.878-11.5641-1.1235c-3.7066,0.8739-7.329,2.0731-10.825,3.5834 c-3.5601,1.3386-6.8828,3.2386-9.8421,5.6278c-2.8742,2.406-7.3275,4.5377-8.847,8.1832 c-1.9791,4.748,0.3271,10.9442,0.3353,16.0881c0.0059,3.7286-1.2347,7.7824-0.6538,11.5587 c0.5915,3.8457,3.441,7.0551,5.0317,10.4066c1.6392,3.4539,4.4951,5.0729,7.6339,7.41c3.2518,2.4213,5.6882,4.0382,9.4395,4.5956 c3.6565,0.5433,7.3044,1.9647,11.2607,1.5041c3.7148-0.4324,7.27-2.6283,11.1021-3.2985c3.7969-0.6641,7.8729,0.3089,11.6448,0.0242 c3.8921-0.2938,8.1332-2.4641,11.8484-1.6939c3.65,0.7565,6.7473,2.788,9.5587,3.7854c3.6222,1.2849,5.1674,5.2459,7.5637,6.8857 c2.5747,1.614,4.6511,3.9107,5.998,6.6347c1.5594,2.9743,4.619,5.2684,4.5683,8.7279c-0.0462,3.1439-1.2456,6.4441-2.16,9.8639 c-0.8289,3.1-3.35,5.76-4.5484,8.9939c-1.1465,3.0943-1.9649,6.3764-3.1561,9.5134c-1.2018,3.1652-0.2792,7.04-1.2331,10.17 c-0.9551,3.1336-1.631,6.3456-2.02,9.5983c-0.4244,3.4473-1.9181,6.7072-1.1884,9.8834c0.7657,3.3328,2.7706,5.9511,4.6982,8.5109 c1.9121,2.5391,2.5093,6.9712,5.1815,9.0035c2.52,1.9168,7.5149,0.4785,10.3818,2.1631c2.7912,1.64,5.7978,2.9706,8.6179,4.5888 c2.8735,1.6489,4.0185,5.964,6.6124,7.7954c2.7613,1.95,5.548,3.9885,8.3745,6.274c2.6913,2.1761,6.0155,3.654,8.6121,6.0936 c2.5644,2.4093,4.0858,5.7412,6.4126,8.3689c2.3634,2.6692,3.7206,5.7854,5.6886,8.64c2.0435,2.9641,5.9969,4.5471,7.4478,7.6669 c1.52,3.2674,0.4888,7.07,1.1681,10.458c0.6944,3.4634,5.511,6.8375,5.1215,10.372c-0.371,3.3661-3.0143,6.8354-4.5526,10.217 c-1.3576,2.9844-5.9508,4.0243-8.3493,6.9858c-2.4174,2.9849-1.7565,8.7172-4.45,11.5431c-2.6831,2.8147-4.83,6.0331-7.3922,8.9064 c-2.6142,2.9314-6.7806,4.3626-8.8549,7.5821c-2.0958,3.2528-5.2243,6.2156-6.34,9.9978c-1.05,3.56-0.2211,7.5067-1.6666,10.242 c-1.72,3.2537-5.5213,4.5758-7.739,6.8193c-2.4655,2.4941-3.616,6.7156-6.61,8.1836c-2.9814,1.4619-7.01,0.4417-10.424,1.1177 c-3.2017,0.634-6.3933,2.9421-9.8981,3.0821c-3.2761,0.1309-6.7576-0.3291-10.2351-0.4686 c-3.3087-0.1327-6.75,0.0534-10.1871-0.1864c-3.3362-0.2327-6.611-2.09-10.0192-2.2994c-3.3651-0.2065-6.7515-1.1335-10.14-1.1979 c-3.3905-0.0645-6.938-1.3271-10.3055-1.1311c-3.4643,0.2417-6.9122,0.6782-10.3274,1.3075c-3.76,0.659-6.9466,4.62-10.6646,5.7875 c-3.7758,1.1857-7.4351,2.1805-10.64,4.2261c-3.1943,2.0757-5.873,4.8528-7.832,8.12c-1.7407,2.7581-2.5983,5.8619-3.7305,9.0534 c-1.1392,3.2113-1.9579,6.7369-3.4284,9.5941c-1.5566,3.0248-5.5169,3.7791-8.5409,5.49c-3.642,2.06-7.3121,3.9963-11.5969,4.3593 c-4.39,0.372-8.5713,0.5375-11.83,3.3229c-3.09,2.6414-6.5874,6.7667-6.1286,10.8c0.4393,3.8625,4.0075,8.07,6.8765,10.7018 c2.9601,2.7188,7.0046,4.3234,10.894,5.3692c3.8087,1.0244,8.0058,0.9523,11.9411,1.0818c3.6424,0.12,7.379,2.0653,11.0446,1.93 c3.6509-0.1342,7.1256-4.567,10.7754-4.7451c3.665-0.1788,7.4217-0.4588,11.0613-0.4713c3.6739-0.0125,7.3527,2.268,10.9758,2.641 c3.6279,0.3735,6.5486,3.546,10.1,4.5239c3.2773,0.9024,7.5864-1.7928,10.0139-0.3667c2.7631,1.6232,2.4,6.7752,4.4876,8.9465 c2.0807,2.164,4.919,3.4276,6.7786,5.9981c1.7162,2.3722,3.2128,5.0521,5.1081,7.658c1.6024,2.2031,4.8021,4.6939,4.32,7.4617 c-0.5161,2.96-5.454,6.4873-4.2362,8.5156c2.2317,3.7171,9.8968,2.1578,11.1475,4.4882c1.9266,3.59,3.99,6.8074,5.6908,9.9945 c1.9086,3.576,5.5652,5.8175,7.6135,8.8408c2.1933,3.2373,2.1365,8.5669,5.022,11.1128c2.7091,2.39,6.9685,3.7574,10.7581,5.4875 c3.1429,1.435,7.5933,0.0508,11.7658,1c3.4761,0.7913,6.0109,4.87,9.3361,5.8977c3.395,1.0491,7.1779,0.6589,10.4238,1.9405 c3.2949,1.3009,6.9893,1.702,10.1393,3.2279c3.1788,1.54,6.4357,3.0614,9.4758,4.8152c3.0516,1.76,4.0543,6.709,6.9751,8.67 c2.9187,1.9593,5.9149,3.5657,8.712,5.71c2.7856,2.1353,7.6023,1.7472,10.2762,4.0507c2.6565,2.2884,2.7253,7.4009,5.28,9.84 c2.5346,2.42,7.4247,2.4538,9.8679,5.0081c2.4215,2.5315,6.0784,4.0448,8.4184,6.694c2.32,2.6262,2.895,6.828,5.1428,9.556 c2.2289,2.7051,3.6456,6.0743,5.8117,8.8662c1.5108,1.9264,5.5707,1.4883,10.6541,1.8441c3.0235,0.2116,6.44,2.8336,10.5284,3.1263 c3.2523,0.2329,6.9065-1.0017,10.7488-0.4478c3.3143,0.4778,6.6417,1.7966,10.3433,2.6789c3.2942,0.7852,6.6146,1.7988,10.18,3.0192 C352.7967,905.2452,356.4833,905.5062,359.9044,907.0508z" fill="#7ea356"/></g></svg>