<?xml version="1.0" encoding="UTF-8" standalone="no"?><svg xmlns="http://www.w3.org/2000/svg" xmlns:xlink="http://www.w3.org/1999/xlink" fill="#000000" height="1000.9" preserveAspectRatio="xMidYMid meet" version="1" viewBox="-1.1 -0.7 1001.4 1000.9" width="1001.4" zoomAndPan="magnify"><g id="change1_1"><path d="M735.9145,999.9947c-7.8851,0.1392-14.868-2.5007-21.8586-5.7591 c-9.0085-4.3607-17.7757-9.2033-26.2633-14.507c-10.097-6.099-20.8418-11.627-32.716-13.99 c-2.0967-0.5455-4.2619-0.7809-6.4268-0.6987c-5.6385,0.5809-11.2349,1.5609-16.8573,2.3134 c-2.412,0.3229-4.9018,0.9188-7.2619,0.6274c-9.9208-1.2249-19.9434-1.7572-29.615-4.74c-5.9376-1.8313-12.0488-3.1177-18.1118-4.52 c-5.7942-1.34-11.7488-2.1159-17.4148-3.8515c-8.9444-2.6478-16.7265-8.2506-22.075-15.893 c-2.8387-4.0053-4.4648-8.7429-4.6841-13.6473c-0.1273-4.062-0.8875-8.0792-2.2533-11.9068 c-2.7306-7.3833-5.3663-14.6826-6.1219-22.6289c-0.573-6.0274-4.17-10.4327-9.275-13.61 c-8.0697-5.0339-16.7237-9.0639-25.77-12.0007c-7.3228-2.5833-15.4596-1.2165-21.5365,3.6175 c-5.6975,4.1963-11.9511,7.5795-18.581,10.0523c-5.3235,2.0345-11.3057,4.1663-17.4195,1.78 c-1.0428-0.3096-2.1324-0.431-3.2178-0.3585c-11.7776-0.05-23.1636-2.6864-34.4028-5.7337 c-7.5476-2.0464-14.4546-1.0564-21.3681,1.9275c-2.9869,1.2892-6.0525,2.411-8.9772,3.8263 c-6.5825,3.1855-13.2925,6.1817-19.5616,9.9093c-3.1792,2.0826-5.921,4.7662-8.0713,7.9 c-4.7685,6.4906-11.0963,11.2861-17.4969,15.7263c-4.3156,2.8652-9.2649,4.6345-14.4189,5.1543 c-9.7012,0.9812-19.5908,1.23-28.8538-3.023c-6.723-3.0865-13.7119-2.4593-20.68-1.4067c-5.6079,0.8469-11.1557,2.0839-16.75,3.031 c-7.738,1.31-15.5092,2.4266-23.24,3.778c-11.1936,1.9568-22.3,4.5934-33.5646,5.9007c-8.0275,0.9317-16.1873,0.1768-24.3585-0.8111 c-17.7169-2.1422-32.0188-11.1188-46.2592-20.7183c-6.5805-4.4361-13.08-8.7774-17.4728-15.6263 c-0.6848-1.0676-2.3027-1.4949-3.1694-2.4952c-2.8307-3.2676-5.5373-6.6441-8.2456-10.0157 c-2.1815-2.7158-4.2926-5.4881-6.443-8.2289c-0.7262-0.7958-1.4001-1.638-2.0172-2.5212 c-5.516-9.3372-11.2428-18.564-16.391-28.1021c-3.6042-6.6772-6.4507-13.7682-9.5445-20.7149 c-2.29-5.1428-4.4358-10.35-6.6427-15.53c-3.9788-9.3391-11.2048-16.5193-16.57-24.9362c-1.2885-2.0214-2.5176-4.0814-3.7468-6.14 c-4.2896-7.184-9.3583-13.8676-12.809-21.6008c-2.9789-6.6761-6.8514-12.9573-6.3852-20.67c0.014-1.09-0.1063-2.1774-0.3582-3.238 c-1.801-9.4002,0.2079-17.3552,4.7348-26.3512C11.6445,687.1382,21,677.3686,31.1031,668.37 c4.4132-3.9632,7.8769-8.8696,10.1339-14.3549c4.0744-9.452,6.6487-19.3824,9.1072-29.3926 c2.3804-10.3824,8.2982-19.6136,16.7389-26.111c12.9977-10.0894,27.96-15.2306,43.528-19.3207 c7.5864-1.9933,15.0662-4.3947,22.5824-6.6508c1.0237-0.3651,2.0235-0.7936,2.9938-1.2833c5.79-2.5674,8.9551-6.886,8.67-13.3525 c-0.4289-9.7435,0.4154-19.49-1.4181-29.2519c-1.0341-5.5053-0.3032-11.3449-2-16.8961c-3.1328-10.25-8.7684-18.5883-18.081-24.1662 c-9.6108-5.5905-18.7946-11.8849-27.4761-18.8313c-5.158-4.1107-8.2953-10.2441-8.61-16.8323 c-0.7968-11.2043-0.2253-22.464,1.702-33.53c1.3623-8.2408,2.5824-16.5222,3.3887-24.8319c0.6-6.1859-2.5267-16.6953-5.81-22.377 c-2.7161-4.6993-4.9772-9.7239-8.17-14.0674c-3.0466-4.1442-4.1951-8.8632-5.157-13.5331 c-0.5332-3.4765-0.253-7.0292,0.8186-10.3791c2.96-10.3887,8.6548-19.38,15.9982-27.1638 c9.0319-9.8223,19.1244-18.6136,30.0928-26.2128c3.1289-2.1118,5.6534-5.0975,8.6448-7.44c4.4182-3.46,5.5791-8.2246,4.474-13.15 c-1.0394-4.6335-0.41-9.8387-3.8562-13.82c-1.8892-8.587-7.4078-14.8916-13.1838-21.0513 c-2.6374-2.7834-4.1661-6.435-4.2983-10.2671c-0.5236-8.6241-1.5479-17.2165-2.2589-25.8307 c-0.8379-10.1531-1.2974-20.3448-2.4159-30.465c-0.9441-8.5406,1.4476-16.7336,1.7771-25.1256 c0.3567-6.3814,1.3826-12.7076,3.0609-18.8747c0.2999-1.5893,0.7462-3.1475,1.3333-4.6545c2.4-5.1447,4.9726-10.2089,7.4385-15.3234 c1.9025-4.2254,4.5827-8.0553,7.9009-11.29c6.7552-6.301,13.2738-12.8712,20.2506-18.9142c6.1111-5.2932,14.081-7.0815,21.58-9.1485 c10.6689-2.9408,21.7413-4.1154,32.776-5.2877c8.83-0.9382,16.6-4.9426,23.9561-9.6948 c6.6173-4.2746,13.2634-8.5228,19.6733-13.0959c9.918-7.076,21.4109-10.566,32.8-13.8194c5.4062-1.5442,11.48-3.0741,17.5546-1.2027 c2.2527,0.694,4.8706,0.2136,7.3222,0.2487c8.145,0.1168,16.2417,0.6477,24.3748,1.3235 c11.5758,0.9618,23.3819,1.8659,34.9681-0.9189c1.0629-0.2578,2.1619-0.3329,3.25-0.2222c8.6475,0.9559,16.6195-2.0544,24.7107-4.23 c6.0019-1.6139,11.8665-3.7389,17.8672-5.3578c10.9492-2.9543,22.1246-2.4965,33.2137-1.2771 c8.0367,0.8836,15.9687,2.6894,23.9732,3.9149c1.6147,0.0975,3.2343-0.0793,4.79-0.5228 c10.0888-2.0275,19.2759-0.4086,27.4921,6.1656c3.4461,2.6917,7.6271,4.2755,11.9916,4.5427 c7.2651,0.636,14.514,1.7381,21.6879,3.0811c17.8821,3.3478,34.171,10.3762,48.2029,22.112 c6.6215,5.538,13.6159,10.662,19.1191,17.4853c5.8247,7.1437,10.8218,14.9239,14.8957,23.1921 c6.057,12.4312,11.0428,25.2151,13.9741,38.8227c1.12,5.1984,3.6834,10.1184,5.8559,15.0476 c1.9741,4.4794,5.7825,7.2045,10.295,8.608c13.956,4.34,27.41,10.5238,41.7708,13.2231 c11.3984,2.1427,22.5331,5.4256,34.0212,7.1166c9.8711,1.453,19.68,3.3379,29.4985,5.1343 c8.5138,1.5578,17.1971,2.6041,25.4486,5.0706c9.3321,2.79,18.41,6.6738,24.7442,14.791 c11.8131,6.6657,19.3873,18.11,29.7756,26.4535c7.8936,6.34,15.4218,13.36,20.8305,22.2664 c1.5256,2.2202,3.5627,4.0411,5.9394,5.3092c8.595,4.9723,17.9685,7.2918,27.888,7.8379c15.41,0.8483,30.7172,2.543,45.7411,6.3157 c10.3141,2.4736,19.5107,8.3119,26.1379,16.5932c11.4264,13.8595,20.9147,28.9619,30.4744,44.0553 c2.6132,4.1259,4.76,8.5517,7.4437,12.6273c3.1037,4.7132,3.1155,10.2938,4.7527,15.4075c0.4361,1.362-0.2162,3.1952-0.6984,4.707 c-1.8967,5.9454-3.7891,11.8988-5.9367,17.7562c-3.1225,8.5161-2.7055,17.6024-4.5059,26.3316 c-1.4193,6.8814-1.9031,13.9836-3.692,20.7527c-1.5837,5.9927-4.21,11.7411-6.7016,17.4558 c-4.81,11.0344-6.8774,22.8062-9.27,34.4493c-2.0662,10.0536-3.2662,20.2882-4.7513,30.4571 c-0.962,6.9778-2.8392,13.7985-5.5831,20.286c-1.6708,3.7159-3.8691,7.1713-6.5269,10.2593 c-9.8285,11.8639-22.7649,19.0576-36.3711,25.4969c-13.7018,6.6162-28.1501,11.5591-43.0333,14.7221 c-12.86,2.6387-24.7038,8.0331-36.9142,12.4968c-7.5907,2.7749-15.5272,4.9112-23.7516,4.8089 c-8.6967-0.1081-16.4231,2.5851-23.9174,6.793c-3.558,2.012-6.2938,5.2127-7.7273,9.0406 c-3.0747,7.2983-4.7239,14.9717-6.0108,22.7333c-0.7963,4.8034-1.0884,9.7121-2.19,14.4378 c-1.7073,7.3268-1.2391,14.4431,0.2673,21.7327c0.753,3.7173,2.8246,7.0369,5.833,9.3467 c9.1914,7.6166,19.1857,14.2087,29.8057,19.6594c10.1581,5.1957,19.8716,11.2184,29.042,18.0071 c5.6123,4.1939,10.6486,9.1741,15.8055,13.95c1.2275,1.0954,2.0806,2.5482,2.439,4.1539c0.9803,5.595,1.5995,11.2474,1.8538,16.922 c0.1109,5.1175-0.9631,10.249-1.1329,15.387c-0.2249,6.8053-0.07,13.6228-0.0934,20.4352c0.0203,8.4442,2.1044,16.7553,6.0706,24.21 c2.6185,5.0807,5.1173,10.2234,7.7667,15.2876c2.5536,4.8814,3.3739,10.1788,4.4338,15.51c2.42,12.17-1.3035,23.5764-3.6989,35.1451 c-1.9862,9.5928-6.0354,18.51-9.7879,27.5044c-0.5535,1.2242-1.1893,2.4095-1.903,3.5478 c-4.5319,7.9832-8.4265,16.3118-11.6472,24.9081c-1.2665,3.5716-2.1207,7.2763-2.5458,11.0419 c-0.881,6.1192-4.8538,10.5133-8.9409,14.1919c-6.64,5.9764-14.84,9.8519-22.7408,14.0675 c-8.2094,4.1965-16.1901,8.826-23.9085,13.869c-13.3183,9.0453-27.2145,16.7477-42.7651,21.1174 C743.0131,999.5138,739.4049,999.5444,735.9145,999.9947z" fill="#b56f4d"/></g><g id="change2_1"><path d="M768.4633,941.3209l-30.0693-1.153c-3.9141-0.0438-7.8181-0.4067-11.6732-1.085 c-15.3981-3.1445-27.2168-15.9-42.2789-20.3858c-13.8211-4.116-28.5884-0.8324-42.892,1.0033s-30.2862,1.7044-41.288-7.6189 c-13.0218-11.0351-15.377-30.3461-28.4236-41.4862c-8.5887-7.3337-25.0921-16.7988-35.9258-20.3192 c-11.6858-3.7974-23.8079-5.1231-34.9413-10.8779c-13.0523-6.7467-21.1879-19.0978-33.5225-26.7526 c-10.0853-6.0438-22.2005-7.7096-33.5427-4.612c-10.4191,2.8094-17.3832,10.336-28.63,9.3612 c-9.534-0.8264-16.4415-5.484-26.6344-4.0571c-13.5359,1.8948-25.75,9.9912-36.7681,17.5389 c-24.517,16.794-55.0727,48.2125-86.9837,41.2618c-8.6186-1.8773-14.7379-3.9557-23.4792-3.2933 c-7.7438,0.5868-12.7546,1.81-20.6764-0.302c-12.2533-3.267-24.2447-11.6526-37.4523-8.2065 c-8.4884,2.2148-15.6192,9.3227-24.9273,7.2191c-5.9718-1.35-11.8495-6.93-16.95-10.136 c-13.9139-8.7447-21.4653-18.2723-27.22-34.1313c-1.985-5.47-3.8606-11.0356-6.8763-16.0123 c-7.6652-12.65-22.5685-21.5233-24.7133-36.1578c-2.02-13.781,8.3379-26.2062,10.7913-39.9166 c2.8388-15.8637-4.7436-33.9564,4.0807-47.4414c4.8767-7.4524,14.0321-11.85,17.2386-20.1584 c1.3737-3.5595,1.4806-7.4688,2.3627-11.1808c2.8671-12.0649,14.8745-21.2821,27.2705-20.9335 c2.9737,0.0837,6.1725,0.6061,8.7488-0.8813c3.6639-2.1152,4.1972-7.0392,5.0636-11.18c4.5-21.5057,24.336-24.9629,40.2289-34.6816 c9.11-5.57,21.4663-15.5859,13.5612-28.3239c-1.6826-2.7114-4.34-4.9044-5.1693-7.9858c-1.19-4.4222,1.798-9.1078,0.8524-13.5886 c-1.3356-6.3289-9.7287-9.3159-10.8538-15.6856c-0.539-3.052,0.7793-6.1311,0.7394-9.23 c-0.157-12.1883-22.7062-22.9577-32.0195-28.23c-13.61-7.7037-27.6749-13.7157-34.3669-29.0749 c-3.8247-8.7783-2.025-17.8689-4.1682-27.003c-1.332-5.6767-4.5241-9.7287-3.8942-15.9165c0.5525-5.4278,6.0149-9.538,4.9-15.3529 c-0.3844-2.0037-1.5762-3.7552-2.2084-5.6949c-2.8507-8.7462,6.061-17.0238,6.7336-26.1982 c0.3827-5.2186-1.9512-10.2279-2.6434-15.4145c-1.5867-11.8892,6.79-24.2954,18.411-27.2665 c5.5493-1.4189,12.8761-1.9333,14.5139-7.422c0.6382-2.1386,0.0952-4.4237-0.265-6.6263 c-2.43-14.8558,7.6649-42.8453,21.1046-51.1184c6.7723-4.169,6.7684-14.33,3.2828-21.478s-9.4493-12.904-12.6377-20.19 c-3.6001-8.3956-3.2286-17.9659,1.0115-26.0571c1.2139-2.2752,2.7482-4.4614,3.2035-7c0.585-3.2607-0.6977-6.523-1.6508-9.6958 c-6.1638-20.5178,2.4866-44.5773,20.3044-56.4727c11.0568-7.3817,30.6957-4.7879,43.68-8.99 c18.2733-5.9145,34.6156-17.6043,50.2108-28.4593c1.4382-1.0334,3.0439-1.8111,4.7464-2.2988 c25.5328-6.8426,66.9159,4.3412,81.5708,4.7383c15.0568,0.22,34.4876-12.8681,61.7328-12.015 c18.5531,0.5726,35.3062,5.0449,50.5284,7.3881c32.0641,4.92,27.7236,22.5237,39.9564,20.8661 c60.8212-8.02,69.04,74.0563,82.887,115.26c1.7183,5.1132,3.852,10.7236,8.6722,13.1449c4.4252,2.223,9.8953,0.986,14.1512-1.5461 c14.6344-8.7069,20.3744-17.99,38.2355-16.9207c14.9247,0.8934,28.5024-1.3553,43.2233-4.6491 c21.27-4.7515,30.3257,1.7347,43.55,13.0391c2.0653,1.7887,4.549,3.0267,7.2205,3.5992c14.701,3.0564,28.3759,6.187,40.4294,15.8448 c9.5675,7.6659,16.8015,17.9294,21.9251,28.9865c4.1845,9.03,5.2923,22.7334,13.3121,29.3707 c6.8268,5.65,16.8224,3.954,25.63,2.9776c13.6032-1.508,34.0652,6.094,47.95,9.6252c17.1695,4.3666,30.66,14.4571,38.2647,30.7361 c12.2087,26.1464,0.0557,45.8142-5.4274,56.8326c-1.55,3.1276-2.0441,6.6734-1.4081,10.1056 c6.1468,33.6424-4.5314,70.246-36.9616,86.5465c-2.5209,1.2671-5.191,2.4373-7.095,4.5194c-1.5209,1.6632-2.43,3.7793-3.6063,5.7017 c-5.1891,8.48-15.1891,12.6709-24.8253,15.1151S845.89,517,837.27,521.9566c-9.6768,5.5656-13.75,7.6614-24.95,6.2989 c-8.4044-1.0224-14.6046-3.1134-22.8938-0.4221c-14.9125,4.8416-22.1867,18.108-39.6771,16.3356 c-5.6367-0.4909-11.1176,2.0117-14.4385,6.5925c-8.5342,11.4831-32.32,20.2949-32.6145,34.803 c-0.1376,6.78,2.2895,13.4288,2.06,20.2067c-0.2244,6.6363-2.9842,13.0045-3.0945,19.6436 c-0.07,4.2087,0.9288,8.3533,1.9212,12.4439c4.4745,18.4435,7.8767,37.6022,13.5146,55.7179 c5.21,16.74,16.1214,17.3283,29.6512,26.0245c19.552,12.567,40.732,32.3124,46.4556,55.3928 c2.6495,10.6845,4.367,22.2713,11.6851,30.4945c6.4223,7.2165,16.0816,10.5538,23.7486,16.431 c27.9119,21.3963,11.5968,58.1077,3.3972,85.34c-2.7841,9.2465-6.3423,19.4569-14.945,23.8434 c-4.319,2.2022-9.3468,2.5767-13.826,4.4316c-4.0468,1.6759-7.5878,4.5363-11.8118,5.6954 c-3.1276,0.6871-6.3418,0.892-9.5313,0.6074L768.4633,941.3209z" fill="#456424"/></g><g id="change3_1"><path d="M727.3291,918.4257c-3.74-1.46-6.4473-5.5922-9.621-7.8966c-6.833-4.9615-13.5286-8.8058-19.1487-13.3689 c-6.2015-5.0352-12.0259-9.1885-19.12-12.5112c-6.3376-2.9684-12.812-7.194-21.74-7.8227c-2.3548-0.1658-13.3975-0.33-24.0679,0.312 c-11.3443,0.6825-20.2734,2.56-20.7771-0.7593c-1.5745-10.3775-7.0994-16.8836-10.5552-22.6147 c-3.77-6.2519-7.9262-11.2689-19.6384-11.8837c-7.1827-0.377-14.5668-1.752-20.7532-5.6281 c-6.04-3.7841-10.35-11.4482-17.0325-13.6142c-4.9549-1.606-11.6814,1.8522-16.8357,0.61c-5.4778-1.32-9.4547-6.0137-12.635-10.5447 c-4.3172-6.1508-3.4443-14.1694-4.8537-21.5508c-1.1376-6.5375-5.8368-11.8893-12.1722-13.8629 c-6.1451-2.0033-12.6189-2.8025-19.0667-2.3539c-6.3705,0.5287-12.6893,1.5591-18.8977,3.0818 c-6.4158,1.4906-11.85,6.0578-17.3915,8.0118c-6.0155,2.0181-11.8372,4.5734-17.3946,7.635 c-1.8247-0.3944-5.2309-1.7629-8.9111-2.7607c-5.96-1.7384-13.0337-2.338-20.5283-3.2746 c-6.8714-0.8589-13.81-2.1537-20.7184-1.9626c-7.4959,0.2075-15.05-0.9607-21.1173,0.9246c-6.194,1.8491-11.82,5.2339-16.3553,9.84 c-4.1936,4.4968-4.8673,12.3307-8.8181,16.8336c-4.1977,4.7843-9.4752,9.6374-15.45,11.4161c-4.75,1.4141-10.9815-4.46-15.833-3.446 c-5.6589,1.183-9.5552,7.2033-12.9347,12.0764c-3.1718,4.5737-4.94,10.6621-8.9235,14.347 c-4.2023,3.8878-10.0891,4.9831-15.7719,5.7152c-5.571,0.844-11.2555,0.5437-16.7066-0.8825 c-5.4489-1.5759-10.0352-4.9858-15.0391-7.67c-4.9764-2.669-9.453-6.302-14.4021-9.0093c-8.5789-4.6928-15.83-3.4477-21.6061-1.5547 c-6.0451,1.9814-11.4115,5.0738-19.9119,4.4435c-0.53-0.0393-1.5738,1.6227-2.7509,1.4967 c-1.5153-0.8218-4.4311-2.9381-10.4325-6.9821c-2.5209-2.9291-3.3529-7.3258-5.82-9.62c-0.5558-0.6885-2.1962-0.27-2.8748-1.1153 c-0.07-0.0876,0.9288-1.0363,0.8595-1.1226c-0.8683-1.081-4.9357,0.2129-6.3814-1.6494c-0.37-0.4771-1.35-0.7847-1.7851-1.3433 c-0.5362-0.8971,2.08-3.79,1.5745-4.6348c-4.0984-6.8462-9.3241-9.0824-13.7037-10.8912 c-4.7994-1.9822-8.0122-4.2861-12.7307-10.0506c-5.9122-7.2226-6.605-18.6381-7.4588-27.2785 c-0.7927-8.0225-0.6575-13.8479-2.9222-19.0669c-2.15-4.9532-6.0765-9.4069-10.394-16.27c-0.374-0.5947-2.6563-2.4775-3.4957-3.88 c5.7243-5.8968,13.0935-10.3295,17.17-16.5026c4.5453-6.8825,9.6052-13.383,12.5071-20.115 c3.74-8.6765,4.4585-15.3561,7.3233-19.4367c4.6176-6.5775,9.92-6.9041,17.3247-10.2485 c4.7461-2.1437,10.9262-4.6989,18.9232-9.1373c8.7056-4.8325,15.9936-13.9742,20.0245-23.0788 c1.6391-4.1195,3.9241-7.9515,6.7691-11.3518c3.422-3.9,6.4918-7.7365,11.0944-10.1312 c7.4035-3.8522,14.7177-7.1918,18.9858-12.7335c4.62-5.9984,4.8133-14.2929,6.4911-21.8209 c1.5013-7.27,2.0278-14.7075,1.5656-22.1164c-0.2706-6.1691,1.998-13.44,0.4124-20.4485c-1.4409-6.3693-4.2881-12.8619-6.7614-19.26 c-2.6048-6.2603-5.7202-12.2957-9.3147-18.045c-3.538-5.9711-8.1446-11.0533-12.6668-15.7163 c-4.8777-5.03-9.3673-10.9562-15.3231-13.6318c-9.1006-4.0883-19.8757-4.21-28.7775-8.7145s-15.374-12.9458-14.6607-22.8973 c0.4907-6.8469,5.44-12.8,6.11-19.6321c0.5636-5.7473-2.3327-12.012-4.2046-17.475c-2.0308-5.9264-7.0736-11.3015-8.003-17.5 c-1.0412-6.4368-1.0916-12.995-0.1494-19.447c1.0342-6.1537,6.8657-10.9322,10.4509-16.04c3.6428-5.19,7.07-10.626,12.9678-12.9536 c3.34-1.3185,7.32-1.4084,10.2881-3.43c5.7521-3.9178,5.9727-11.043,6.6894-18.2577c0.668-6.7253,0.8628-14.2362,3.9-19.9688 c4.6756-8.8252,16.6944-10.6022,25.4434-15.4191c6.8615-3.7908,11.6802-10.4383,13.1485-18.1385 c1.3274-6.6958-2.6954-13.8088-5.0914-21.2471c-2.2572-7.0075-3.0313-14.8474-5.9787-21.1231 c-3.2846-8.7838-7.523-17.1807-12.6392-25.04c-0.1564-1.6623-1.8994-2.6281-2.022-4.1131c-0.2483-3.0092-1.3162-6.073-1.5783-9.88 c-0.3305-4.8013,1.31-11.0119,0.6981-17.5058c0.3085-2.2839-1.0909-8.1625-0.6843-14.7992c0.3246-0.3108,2.1687-1.1944,2.476-1.4882 c2.835-0.48,7.23-2.33,15.2049-3.1774c7.3171-0.6944,14.5581-2.0368,21.6378-4.0115c7.8083-2.26,16.1486-1.5342,22.2252-4.4157 c8.2316-3.9035,13.4513-10.4931,18.1111-13.5032c0.5525-0.357,2.86,1.9991,3.4334,1.6292c5.197-3.3541,11.1355-9.188,18.1474-14.1 c0.07-0.0244-0.1247-2.5531-0.0475-2.58c4.7776,0.25,8.2777,2.1079,9.9078,2.006c6.8154-0.426,13.2709,2.5519,20.0313,3.4743 c6.7493,0.9209,13.7826-0.0848,20.4762,1.0429c6.7786,1.142,13.5053,3.6176,20.226,3.7991 c7.2919,0.1969,13.8212-3.9165,20.4726-5.7758c6.7359-1.8829,14.0964-1.478,20.8922-3.3337 c6.6121-1.8056,12.9447-4.244,20.2872-4.0168c7.9725,0.2468,15.4932,2.9692,23.35,4.3778c7.8366,1.405,16.23-0.3639,24.0928,0.8467 c3.3849,0.5211,5.396,4.3006,8.2447,6.2017c2.5594,1.708,7.3566,0.9031,9.3542,3.2436c3.4813,4.0788,5.7177,9.986,10.6817,12.0085 s11.0717,3.5482,16.4123,3.0638c3.4209-0.31,6.5339-1.8777,9.9457-1.48c6.6,0.77,13.5267,2.1649,17.807,7.907 c3.4772,4.6646,2.7629,12.5728,5.2712,19.3771c2.1284,5.774,6.5638,11.247,8.33,17.8807c1.65,6.1978,3.7021,12.5222,5.2954,18.9426 c1.5968,6.4345-0.1792,13.8,1.6131,19.946c1.924,6.5971,8.0305,11.4792,10.4816,17.13c2.8565,6.5859,4.0356,13.4815,8.0676,17.8487 c4.6127,4.996,10.7487,6.714,17.5938,7.3962c6.4276,0.6573,12.9155-0.3747,18.8219-2.994c9.0969-3.8331,15.1618-5.8565,21.1358-7.98 c5.931-2.1084,11.884-5.4626,21.96-5.884c7.71-0.1626,15.4031-0.7933,23.0366-1.8886c7.6612-1.2556,15.3333-2.3305,22.8778-4.0182 c3.5079-0.7847,7.9722-2.748,11.3761-1.5926c4.9273,1.6723,8.7218,6.6737,12.738,9.982c4.9858,4.107,9.38,9.4862,15.7668,10.8552 c6.232,1.3357,13.4775-0.5644,19.2908,1.87c5.9885,2.5075,9.7467,8.0513,13.9231,12.8548c4.0772,4.69,9.384,8.948,12.017,14.8526 c2.5917,5.8122,3.6025,12.4406,5.0634,18.506c1.9052,7.91,2.4841,18.8677,9.41,23.1386c4.8355,2.982,11.0651-1.3128,16.4432-1.9741 c5.3473-0.6575,11.0223,0.54,16.1511,1.3023c5.1867,0.9235,10.2484,2.447,15.0831,4.54c4.8912,1.9416,10.1173,2.6886,15.2524,4.0183 c5.73,1.4838,11.4924,1.7532,17.1246,2.5018c6.0166,0.8,10.5784,5.1022,15.5763,7.8051c4.5833,2.4786,7.6121,5.419,10.5835,11.7815 c4.4324,9.4911,5.6652,16.253,2.491,23.2609c-3.19,7.0422-10.8949,13.0753-12.4438,21.814 c-0.9765,5.5094,4.3388,10.66,5.2317,16.1335c0.7529,5.6188,0.1819,11.3358-1.6674,16.6948 c-2.6571,8.25-1.8882,16.7253-4.1729,25.09c-1.619,5.9274-5.149,9.36-10.2821,12.79c-4.9,3.2735-10.4259,4.7466-16.07,6.3433 c-5.81,1.6438-10.5765,6.9442-16.3806,8.8546c-5.7526,1.8936-12.1919,1.87-17.9181,3.9411 c-5.7155,2.0677-10.9168,5.5468-16.5856,7.7087c-5.7014,2.1742-10.8723,5.66-16.5058,7.845c-2.63,1.02-4.615,1.9256-6.4443,2.6078 c-5.1068,1.9046-11.5976-0.3658-17.37-0.022c-5.6519,0.3366-10.4823,3.1726-15.6245,5.494 c-5.7892,2.6136-15.6131,10.0887-21.012,10.1181c-3.9963,0.0191-7.5787-2.09-11.5535-2.5041 c-8.07-0.8405-14.69,7.09-20.1177,13.1207s-9.2476,13.8759-15.3411,19.2339c-5.4968,4.8335-14.9518,4.7169-20.767,9.1623 s-7.3959,12.4239-7.0921,19.7373c0.2259,5.4387,0.8172,10.3418,3.8916,15.0236c3.076,4.6843,6.6259,9.2321,6.8284,14.6748 c0.3471,9.3318-9.56,16.4624-11.6832,25.556c-1.7108,7.3263,2.2315,14.4694,5.911,21.1441 c3.4575,6.272,9.6438,11.353,13.4548,17.3074c4.3282,6.7627,6.57,14.0667,8.7933,20.4755c2.5119,7.2418,0.926,15.29,2.9648,22.0728 c2.3124,7.1123,5.572,13.8808,9.6909,20.1231c3.488,5.5194,9.388,10.0158,16.0426,15.1726 c6.9495,5.3854,12.6138,11.4425,18.9274,16.4007c6.4054,5.03,14.366,8.5937,18.4819,16.71c3.1482,6.2084,4.8446,13.27,6.249,20.0759 c1.393,6.75,0.9853,14.0784,4.9,20.0546c3.1426,4.7961,9.2148,6.8654,13.5091,10.7163c4.2862,3.8436,7.1289,9.2559,10.4135,13.9426 c3.5729,5.0979,5.3683,10.79,6.4145,16.8068c1.0209,5.8716,3.1785,12.1215,2.5842,18.2911 c-0.5853,6.0757-2.5253,12.22-3.9257,18.0356c-1.7529,6.5529-4.8607,12.6652-9.1226,17.9423 c-4.1213,5.3529-10.0275,7.8025-16.6347,6.3944c-9.6625-2.0593-17-11.1844-26.4352-8.2566 c-2.5761,0.7994-6.2008-0.4939-8.5091,0.9013C744.1438,918.2851,735.5154,921.6208,727.3291,918.4257z" fill="#7ea356"/></g></svg>