<?xml version="1.0" encoding="utf-8"?>
<svg viewBox="-82.9362 -221.341 804.0003 759.8433" preserveAspectRatio="xMidYMid slice"
    xmlns="http://www.w3.org/2000/svg">
    <g clip-path="url(#59cf8c17af)" transform="matrix(1, 0, 0, 1, -86.27204517746156, -247.8462330034177)">
        <g clip-path="url(#9e3dbd5fa4)">
            <g clip-path="url(#9c2df5d484)">
                <path fill="#b56f4d"
                    d="M 787.992188 487.40625 C 784.371094 491.761719 779.664062 494.324219 774.613281 496.601562 C 768.019531 499.460938 761.273438 501.964844 754.410156 504.097656 C 746.359375 506.734375 738.3125 509.988281 731.460938 515.34375 C 730.183594 516.230469 729.039062 517.296875 728.070312 518.515625 C 725.742188 521.855469 723.652344 525.359375 721.429688 528.773438 C 720.472656 530.234375 719.628906 531.871094 718.367188 533.019531 C 713.050781 537.84375 708.0625 543.046875 701.90625 546.914062 C 698.125 549.285156 694.5625 552.007812 690.957031 554.652344 C 687.511719 557.175781 684.300781 560.054688 680.699219 562.324219 C 675.066406 565.949219 668.371094 567.558594 661.703125 566.886719 C 658.195312 566.554688 654.855469 565.21875 652.082031 563.039062 C 649.8125 561.207031 647.269531 559.738281 644.546875 558.6875 C 639.25 556.710938 634.039062 554.726562 629.363281 551.410156 C 625.8125 548.898438 621.730469 548.792969 617.609375 550.082031 C 611.085938 552.113281 604.835938 554.933594 599 558.480469 C 594.160156 561.253906 591.089844 566.324219 590.875 571.894531 C 590.488281 576.964844 589.398438 581.953125 587.636719 586.71875 C 586.25 590.570312 584.605469 594.824219 580.441406 597.035156 C 579.785156 597.457031 579.207031 597.992188 578.738281 598.617188 C 573.191406 605.003906 566.417969 609.964844 559.492188 614.652344 C 554.84375 617.800781 552.144531 622.023438 550.527344 627.183594 C 549.828125 629.414062 549.003906 631.605469 548.402344 633.863281 C 547.050781 638.9375 545.535156 643.992188 544.625 649.152344 C 544.269531 651.859375 544.445312 654.609375 545.144531 657.246094 C 546.441406 662.882812 546.082031 668.574219 545.5 674.140625 C 545.035156 677.832031 543.679688 681.355469 541.546875 684.402344 C 537.535156 690.140625 533.035156 695.640625 526.378906 698.6875 C 521.546875 700.898438 518.613281 704.996094 515.921875 709.28125 C 513.753906 712.730469 511.828125 716.332031 509.71875 719.820312 C 506.804688 724.644531 503.773438 729.394531 500.882812 734.238281 C 496.703125 741.246094 492.933594 748.523438 488.363281 755.269531 C 485.109375 760.074219 480.875 764.160156 476.507812 768.144531 C 467.035156 776.78125 455.449219 780.359375 443.550781 783.609375 C 438.050781 785.109375 432.644531 786.613281 426.855469 785.792969 C 425.953125 785.664062 424.964844 786.347656 424.011719 786.347656 C 420.910156 786.359375 417.800781 786.25 414.699219 786.140625 C 412.199219 786.054688 409.699219 785.90625 407.199219 785.792969 C 406.425781 785.8125 405.652344 785.785156 404.882812 785.707031 C 397.214844 784.332031 389.511719 783.125 381.90625 781.457031 C 376.585938 780.289062 371.390625 778.515625 366.160156 776.941406 C 362.289062 775.777344 358.449219 774.503906 354.597656 773.277344 C 347.648438 771.066406 340.355469 771.632812 333.257812 770.609375 C 331.554688 770.363281 329.859375 770.066406 328.164062 769.769531 C 322.242188 768.738281 316.230469 768.363281 310.402344 766.617188 C 305.375 765.109375 300.140625 764.273438 296.160156 760.402344 C 295.574219 759.886719 294.925781 759.441406 294.230469 759.082031 C 288.273438 755.65625 284.882812 750.832031 282.109375 744.152344 C 278.28125 734.925781 277.347656 725.257812 277.183594 715.542969 C 277.097656 711.28125 276.050781 707.097656 274.125 703.296875 C 270.890625 696.652344 266.691406 690.597656 262.394531 684.566406 C 257.863281 678.40625 255.613281 670.859375 256.03125 663.21875 C 256.632812 651.417969 260.847656 640.863281 265.917969 630.476562 C 268.390625 625.414062 270.585938 620.21875 272.882812 615.070312 C 273.164062 614.339844 273.398438 613.597656 273.585938 612.839844 C 274.902344 608.484375 274.035156 604.738281 270.382812 601.863281 C 264.878906 597.527344 259.972656 592.5 253.800781 588.921875 C 250.320312 586.90625 247.484375 583.773438 243.667969 582.09375 C 236.621094 578.996094 229.441406 578.152344 222.042969 580.605469 C 214.496094 583.21875 206.765625 585.265625 198.917969 586.734375 C 194.261719 587.613281 189.453125 586.445312 185.722656 583.53125 C 179.25 578.710938 173.390625 573.125 168.273438 566.890625 C 164.425781 562.285156 160.492188 557.738281 156.347656 553.40625 C 153.261719 550.179688 146.078125 546.957031 141.445312 546.082031 C 137.617188 545.355469 133.820312 544.230469 129.960938 543.933594 C 126.277344 543.648438 123.171875 542.0625 120.179688 540.398438 C 118.039062 539.058594 116.234375 537.238281 114.914062 535.085938 C 110.648438 528.605469 108.425781 521.292969 107.628906 513.648438 C 106.519531 504.128906 106.464844 494.519531 107.46875 484.988281 C 107.785156 482.292969 107.34375 479.523438 107.472656 476.796875 C 107.660156 472.769531 105.609375 469.90625 102.414062 468.199219 C 99.402344 466.589844 96.867188 463.808594 93.082031 463.820312 C 87.527344 460.824219 81.507812 460.871094 75.449219 461.128906 C 72.699219 461.257812 69.996094 460.378906 67.847656 458.65625 C 62.90625 454.898438 57.753906 451.425781 52.730469 447.777344 C 46.8125 443.476562 41.050781 438.949219 35.019531 434.8125 C 29.929688 431.324219 26.589844 426.183594 22.179688 422.070312 C 18.875 418.886719 15.910156 415.363281 13.339844 411.558594 C 12.617188 410.648438 11.976562 409.675781 11.433594 408.652344 C 9.757812 404.933594 8.207031 401.160156 6.582031 397.421875 C 5.171875 394.40625 4.34375 391.152344 4.140625 387.832031 C 3.875 381.199219 3.355469 374.574219 3.335938 367.945312 C 3.320312 362.136719 6.082031 356.964844 8.472656 351.914062 C 11.875 344.730469 16.421875 338.152344 20.957031 331.597656 C 24.585938 326.351562 26.046875 320.246094 26.910156 314.015625 C 27.683594 308.414062 28.488281 302.804688 29.003906 297.171875 C 29.800781 288.460938 33.289062 280.570312 36.855469 272.847656 C 38.546875 269.179688 40.5625 265.15625 44.429688 262.730469 C 45.863281 261.828125 46.828125 260.179688 47.996094 258.859375 C 51.875 254.484375 55.960938 250.324219 60.140625 246.214844 C 66.089844 240.367188 72.113281 234.367188 76.027344 226.757812 C 76.386719 226.058594 76.859375 225.421875 77.429688 224.882812 C 82.003906 220.625 84.101562 214.875 86.710938 209.453125 C 88.644531 205.429688 90.238281 201.242188 92.167969 197.21875 C 95.691406 189.875 101.179688 184.007812 107.039062 178.542969 C 111.289062 174.585938 115.988281 171.113281 120.40625 167.332031 C 121.21875 166.5 121.878906 165.535156 122.367188 164.480469 C 125.992188 158.039062 131.179688 153.800781 138.609375 152.410156 C 141.6875 151.796875 144.507812 150.261719 146.699219 148.011719 C 150.453125 144.359375 154.449219 140.929688 158.542969 137.65625 C 168.746094 129.492188 180.203125 123.921875 193.167969 121.785156 C 199.285156 120.777344 205.351562 119.375 211.644531 119.578125 C 218.261719 119.753906 224.835938 120.679688 231.246094 122.339844 C 240.851562 124.871094 250.144531 128.148438 258.921875 132.929688 C 262.277344 134.757812 266.15625 135.667969 269.855469 136.796875 C 273.21875 137.820312 276.488281 137.027344 279.367188 135.226562 C 288.269531 129.667969 297.941406 125.242188 306.140625 118.695312 C 312.648438 113.496094 319.652344 108.972656 325.957031 103.515625 C 331.375 98.824219 337 94.367188 342.578125 89.867188 C 347.414062 85.964844 352.054688 81.730469 357.265625 78.394531 C 363.15625 74.625 369.523438 71.503906 376.910156 71.863281 C 386.074219 68.558594 395.851562 69.796875 405.261719 68.054688 C 412.414062 66.730469 419.761719 65.925781 427.144531 67.15625 C 429.066406 67.367188 431.011719 67.109375 432.816406 66.410156 C 439.550781 64.066406 445.207031 60.050781 450.152344 54.910156 C 457.835938 46.917969 465.933594 39.382812 475.027344 32.976562 C 481.207031 28.523438 488.695312 26.253906 496.308594 26.527344 C 509.207031 26.804688 521.871094 28.722656 534.566406 30.59375 C 538.035156 31.105469 541.449219 32.011719 544.925781 32.460938 C 548.945312 32.980469 551.988281 35.589844 555.539062 37.09375 C 556.484375 37.496094 557.175781 38.710938 557.773438 39.679688 C 560.121094 43.5 562.472656 47.320312 564.652344 51.234375 C 567.824219 56.925781 572.964844 60.957031 576.871094 66.027344 C 579.953125 70.023438 583.589844 73.617188 586.433594 77.761719 C 588.953125 81.433594 590.851562 85.554688 592.792969 89.589844 C 596.542969 97.378906 601.980469 104.023438 607.195312 110.78125 C 611.699219 116.617188 616.707031 122.066406 621.542969 127.640625 C 624.890625 131.4375 627.722656 135.652344 629.96875 140.1875 C 631.207031 142.839844 632.054688 145.65625 632.492188 148.546875 C 634.339844 159.457031 632.191406 169.871094 629.320312 180.292969 C 626.5 190.847656 622.417969 201.027344 617.164062 210.609375 C 612.570312 218.847656 609.957031 227.820312 606.664062 236.558594 C 604.617188 241.988281 602.058594 247.308594 598.148438 251.734375 C 594.011719 256.417969 591.855469 261.886719 590.636719 267.9375 C 590.0625 270.816406 590.523438 273.804688 591.933594 276.378906 C 594.464844 281.472656 597.867188 285.964844 601.488281 290.304688 C 603.726562 292.988281 606.261719 295.449219 608.316406 298.261719 C 611.503906 302.625 615.597656 305.707031 620.269531 308.304688 C 622.648438 309.636719 625.425781 310.0625 628.089844 309.507812 C 636.542969 308.078125 644.816406 305.726562 652.757812 302.503906 C 660.347656 299.410156 668.179688 296.945312 676.171875 295.136719 C 681.082031 294.050781 686.152344 293.644531 691.167969 293.074219 C 692.339844 292.921875 693.53125 293.136719 694.574219 293.695312 C 698.078125 295.78125 701.445312 298.09375 704.652344 300.617188 C 707.488281 302.953125 709.777344 305.945312 712.492188 308.445312 C 716.09375 311.757812 719.875 314.867188 723.570312 318.074219 C 728.175781 322.019531 733.675781 324.78125 739.589844 326.117188 C 743.582031 327.074219 747.554688 328.125 751.550781 329.054688 C 755.40625 329.953125 758.671875 331.988281 762.070312 333.910156 C 769.828125 338.296875 774.289062 345.671875 779.460938 352.394531 C 783.753906 357.972656 786.707031 364.355469 789.84375 370.613281 C 790.25 371.488281 790.597656 372.390625 790.882812 373.3125 C 793.101562 379.519531 795.808594 385.542969 798.976562 391.324219 C 800.328125 393.6875 801.945312 395.890625 803.792969 397.886719 C 806.710938 401.234375 807.242188 405.453125 807.328125 409.402344 C 807.46875 415.816406 805.734375 422.097656 804.324219 428.371094 C 802.761719 434.804688 801.539062 441.320312 800.667969 447.882812 C 799.347656 459.371094 797.027344 470.542969 792.113281 481.054688 C 791.058594 483.316406 789.382812 485.296875 787.992188 487.40625 Z M 787.992188 487.40625 "
                    fill-opacity="1" fill-rule="nonzero" />
            </g>
        </g>
    </g>
    <g clip-path="url(#1c8c3ae4ad)" transform="matrix(1, 0, 0, 1, -86.27204517746156, -247.8462330034177)">
        <g clip-path="url(#7a74cc560d)">
            <g clip-path="url(#8088398dec)">
                <path fill="#456424"
                    d="M 771.316406 442.195312 L 756.597656 458.015625 C 754.738281 460.128906 752.710938 462.082031 750.535156 463.863281 C 741.605469 470.765625 729.125 471.222656 719.625 477.316406 C 710.90625 482.90625 705.773438 492.484375 700.066406 501.128906 C 694.363281 509.773438 686.800781 518.410156 676.570312 520.027344 C 664.460938 521.941406 652.847656 514.171875 640.671875 516.050781 C 632.65625 517.289062 619.769531 521.832031 612.777344 526.078125 C 605.234375 530.65625 598.828125 536.632812 590.480469 539.996094 C 580.691406 543.9375 570.15625 542.574219 560.210938 545.699219 C 552.195312 548.355469 545.609375 554.167969 541.980469 561.792969 C 538.625 568.777344 539.457031 576.097656 533.65625 581.761719 C 528.738281 586.5625 522.964844 588.136719 518.964844 594.351562 C 513.652344 602.609375 512.332031 613.050781 511.277344 622.582031 C 508.925781 643.796875 511.703125 675.148438 492.960938 689.257812 C 487.902344 693.070312 483.902344 695.425781 480.167969 700.492188 C 476.855469 704.980469 475.171875 708.28125 470.3125 711.601562 C 462.789062 716.738281 452.605469 719.335938 448.292969 728.136719 C 445.519531 733.796875 446.042969 741.007812 440.539062 745.085938 C 437.003906 747.703125 431.210938 748.289062 427.078125 749.5625 C 415.796875 753.035156 407.074219 752.679688 395.746094 748.378906 C 391.839844 746.894531 387.929688 745.304688 383.808594 744.613281 C 373.332031 742.859375 361.519531 746.808594 352.546875 741.117188 C 344.101562 735.757812 342.195312 724.296875 335.882812 716.535156 C 328.582031 707.558594 315.179688 703.203125 311.976562 692.082031 C 310.207031 685.933594 312.105469 678.890625 309.085938 673.25 C 307.792969 670.835938 305.714844 668.945312 304.109375 666.726562 C 298.886719 659.511719 299.5 648.65625 305.5 642.074219 C 306.9375 640.496094 308.722656 639 309.121094 636.898438 C 309.6875 633.914062 307.257812 631.316406 305.410156 628.902344 C 295.8125 616.375 303.230469 603.960938 305.390625 590.757812 C 306.628906 583.1875 306.96875 571.769531 296.332031 570.101562 C 294.066406 569.746094 291.628906 570.164062 289.5625 569.171875 C 286.597656 567.746094 285.449219 563.925781 282.566406 562.339844 C 278.496094 560.097656 272.9375 563.265625 268.945312 560.894531 C 267.03125 559.757812 265.972656 557.597656 264.269531 556.164062 C 257.5625 550.539062 241.132812 557.761719 233.898438 560.359375 C 223.328125 564.15625 213.460938 568.992188 201.96875 565.4375 C 195.398438 563.402344 191.292969 558.164062 185.320312 555.046875 C 181.605469 553.113281 177.902344 552.949219 174.832031 549.707031 C 172.136719 546.863281 172.460938 541.964844 168.773438 539.84375 C 167.503906 539.117188 165.992188 538.941406 164.640625 538.378906 C 158.542969 535.832031 158.214844 527.101562 153.539062 522.433594 C 150.878906 519.78125 147.058594 518.703125 143.910156 516.648438 C 136.695312 511.941406 133.871094 501.566406 137.699219 493.851562 C 139.53125 490.164062 142.683594 485.9375 140.464844 482.472656 C 139.597656 481.125 138.101562 480.347656 136.734375 479.511719 C 127.511719 473.871094 117.007812 455.257812 118.804688 444.066406 C 119.710938 438.429688 114.179688 433.667969 108.65625 432.214844 C 103.132812 430.761719 97.207031 431.308594 91.746094 429.628906 C 85.488281 427.652344 80.457031 422.964844 78.039062 416.867188 C 77.371094 415.140625 76.898438 413.28125 75.730469 411.84375 C 74.230469 409.996094 71.855469 409.164062 69.679688 408.195312 C 55.625 401.933594 46.585938 385.949219 48.464844 370.679688 C 49.628906 361.203125 60.246094 351.730469 64.042969 342.695312 C 69.390625 329.976562 70.6875 315.605469 72.089844 302.03125 C 72.203125 300.765625 72.53125 299.527344 73.0625 298.371094 C 81.308594 281.269531 106.789062 263.988281 113.875 256.199219 C 121.050781 248.109375 123.035156 231.402344 136.269531 216.972656 C 145.273438 207.144531 155.5625 200.125 163.96875 192.9375 C 181.675781 177.796875 189.222656 188.40625 194.050781 180.972656 C 218.195312 144.117188 266.710938 178.109375 295.625 189.886719 C 299.214844 191.347656 303.265625 192.816406 306.84375 191.328125 C 310.128906 189.960938 312.019531 186.40625 312.636719 182.902344 C 314.753906 170.859375 312.394531 163.382812 321.347656 154.164062 C 328.828125 146.460938 333.96875 138.019531 339.074219 128.460938 C 346.457031 114.660156 354.230469 112.773438 366.582031 110.875 C 368.523438 110.589844 370.359375 109.816406 371.925781 108.632812 C 380.476562 102.0625 388.589844 96.089844 399.496094 94.054688 C 408.152344 92.441406 417.128906 93.316406 425.546875 95.710938 C 432.421875 97.664062 440.398438 103.484375 447.769531 102.230469 C 454.042969 101.164062 457.804688 94.929688 461.402344 89.679688 C 466.957031 81.566406 480.683594 73.996094 489.113281 68.09375 C 499.539062 60.796875 511.351562 58.183594 523.773438 61.675781 C 543.726562 67.285156 548.734375 83.117188 552.160156 91.265625 C 553.136719 93.574219 554.832031 95.507812 557 96.769531 C 578.1875 109.191406 593.105469 132.160156 586.773438 157.445312 C 586.28125 159.414062 585.667969 161.414062 585.910156 163.425781 C 586.101562 165.035156 586.828125 166.519531 587.320312 168.0625 C 589.503906 174.859375 587.097656 182.265625 583.914062 188.65625 C 580.726562 195.042969 576.6875 201.183594 575.34375 208.199219 C 573.839844 216.074219 573.070312 219.273438 567.078125 224.730469 C 562.582031 228.824219 558.539062 231.21875 556.121094 236.992188 C 551.765625 247.375 555.574219 257.550781 546.414062 266.238281 C 543.503906 269.078125 542.296875 273.234375 543.234375 277.1875 C 545.484375 287.214844 539.128906 304.289062 546.886719 311.246094 C 550.511719 314.5 555.269531 316.296875 558.851562 319.597656 C 562.355469 322.828125 564.527344 327.316406 568.089844 330.488281 C 570.347656 332.5 573.070312 333.898438 575.761719 335.273438 C 587.894531 341.484375 599.917969 348.609375 612.417969 354.035156 C 623.96875 359.042969 629.402344 353.382812 640.476562 350.09375 C 656.480469 345.34375 677.152344 343.074219 692.394531 350.773438 C 699.453125 354.339844 706.5625 358.835938 714.46875 358.707031 C 721.40625 358.59375 727.75 354.902344 734.539062 353.484375 C 759.265625 348.324219 771.597656 374.40625 782.574219 391.632812 C 786.300781 397.484375 790.191406 404.203125 788.546875 410.941406 C 787.71875 414.324219 785.566406 417.234375 784.476562 420.542969 C 783.492188 423.53125 783.390625 426.796875 782.042969 429.640625 C 780.949219 431.664062 779.554688 433.511719 777.90625 435.113281 Z M 771.316406 442.195312 "
                    fill-opacity="1" fill-rule="nonzero" />
            </g>
        </g>
    </g>
    <g clip-path="url(#79b9e29987)" transform="matrix(1, 0, 0, 1, -86.27204517746156, -247.8462330034177)">
        <g clip-path="url(#62dcf387e7)">
            <g clip-path="url(#c4d66095e1)">
                <path fill="#7ea356"
                    d="M 739.578125 453.847656 C 737.03125 455.199219 733.511719 454.738281 730.769531 455.382812 C 724.867188 456.777344 719.636719 458.617188 714.519531 459.539062 C 708.875 460.554688 703.882812 461.777344 698.75 464.078125 C 694.164062 466.136719 688.832031 467.679688 684.304688 472.246094 C 683.109375 473.449219 677.847656 479.382812 673.195312 485.488281 C 668.25 491.980469 665.085938 497.722656 663.042969 496.441406 C 656.65625 492.433594 650.527344 492.390625 645.789062 491.585938 C 640.621094 490.707031 635.941406 490.617188 630.117188 496.703125 C 626.546875 500.433594 622.335938 503.808594 617.328125 505.359375 C 612.4375 506.871094 606.246094 505.625 601.9375 508.246094 C 598.738281 510.191406 597.46875 515.472656 594.378906 517.695312 C 591.09375 520.058594 586.671875 520.023438 582.71875 519.628906 C 577.347656 519.09375 573.390625 514.863281 568.714844 512.167969 C 564.625 509.726562 559.507812 509.773438 555.464844 512.296875 C 551.496094 514.703125 548.027344 517.851562 545.246094 521.570312 C 542.550781 525.285156 540.148438 529.207031 538.066406 533.296875 C 535.871094 537.488281 535.8125 542.585938 534.277344 546.519531 C 532.554688 550.738281 531.21875 555.101562 530.28125 559.5625 C 529.210938 560.371094 526.867188 561.582031 524.601562 563.117188 C 520.859375 565.546875 517.21875 569.117188 513.195312 572.753906 C 509.507812 576.089844 505.550781 579.261719 502.417969 583.109375 C 499.019531 587.285156 494.84375 590.851562 493.023438 595.035156 C 491.128906 599.273438 490.332031 603.921875 490.714844 608.546875 C 491.195312 612.9375 495.144531 616.976562 495.742188 621.238281 C 496.378906 625.761719 496.546875 630.910156 494.714844 634.996094 C 493.257812 638.242188 487.140625 638.882812 485.417969 641.996094 C 483.410156 645.628906 484.859375 650.574219 485.925781 654.695312 C 486.929688 658.566406 489.414062 662.382812 489.554688 666.277344 C 489.699219 670.386719 487.535156 674.101562 485.269531 677.539062 C 483.121094 680.964844 480.292969 683.917969 476.960938 686.214844 C 473.550781 688.441406 469.542969 689.339844 465.738281 690.804688 C 461.953125 692.261719 457.878906 692.996094 454.085938 694.421875 C 447.511719 696.890625 444.789062 701.417969 443.113281 705.449219 C 441.359375 709.667969 440.523438 714.039062 436.199219 718.367188 C 435.929688 718.640625 436.34375 719.984375 435.722656 720.566406 C 434.566406 721.007812 432.046875 721.601562 427.035156 722.972656 C 424.257812 722.972656 421.476562 721.363281 419.070312 721.632812 C 418.4375 721.609375 417.894531 722.699219 417.117188 722.671875 C 417.035156 722.667969 416.988281 721.683594 416.910156 721.679688 C 415.914062 721.644531 414.710938 724.464844 413.019531 724.378906 C 412.585938 724.355469 411.960938 724.746094 411.453125 724.71875 C 410.714844 724.59375 410.363281 721.8125 409.667969 721.691406 C 404.023438 720.714844 400.355469 722.507812 397.320312 724.042969 C 393.992188 725.726562 391.230469 726.394531 385.882812 726.261719 C 379.179688 726.09375 372.644531 721.121094 367.542969 717.535156 C 362.804688 714.207031 359.695312 711.402344 355.796875 710.191406 C 352.09375 709.039062 347.828125 709.089844 342.070312 708.222656 C 341.570312 708.144531 339.476562 708.503906 338.320312 708.304688 C 337.792969 702.425781 338.835938 696.339844 337.386719 691.226562 C 335.769531 685.527344 334.605469 679.726562 332.300781 674.992188 C 329.332031 668.890625 326.035156 665.367188 325.15625 661.898438 C 323.742188 656.300781 326.046875 653.261719 327.699219 647.664062 C 328.757812 644.078125 330.261719 639.515625 331.59375 633.085938 C 333.046875 626.082031 331.484375 617.832031 328.421875 611.371094 C 326.945312 608.546875 325.933594 605.507812 325.414062 602.367188 C 324.898438 598.675781 324.246094 595.207031 325.101562 591.582031 C 326.476562 585.746094 328.085938 580.199219 327.070312 575.28125 C 325.972656 569.957031 321.546875 565.960938 318.238281 561.519531 C 314.984375 557.296875 311.183594 553.523438 306.9375 550.304688 C 303.453125 547.558594 300.558594 542.917969 296 540.496094 C 291.859375 538.292969 286.992188 536.800781 282.351562 535.148438 C 277.722656 533.632812 272.976562 532.496094 268.164062 531.757812 C 263.257812 530.886719 258.332031 531.011719 253.675781 531.285156 C 248.652344 531.582031 243.324219 531.25 239.074219 533.238281 C 232.585938 536.273438 227.46875 542.078125 220.84375 544.8125 C 214.222656 547.546875 206.59375 547.113281 201.511719 542.058594 C 198.015625 538.582031 197.097656 533.101562 193.691406 529.535156 C 190.828125 526.535156 186.0625 525.171875 182.210938 523.632812 C 178.035156 521.960938 172.746094 522.183594 168.9375 519.785156 C 164.945312 517.335938 161.355469 514.289062 158.285156 510.75 C 155.421875 507.304688 155.550781 501.890625 154.453125 497.546875 C 153.335938 493.132812 151.984375 488.71875 153.480469 484.417969 C 154.328125 481.984375 156.144531 479.773438 156.4375 477.210938 C 157 472.246094 153.226562 468.785156 149.636719 465.015625 C 146.289062 461.5 142.292969 457.871094 140.597656 453.53125 C 137.984375 446.851562 142.652344 439.480469 144.128906 432.460938 C 145.285156 426.949219 143.925781 421.210938 140.421875 416.804688 C 137.402344 412.941406 131.644531 411.796875 126.472656 409.617188 C 121.601562 407.558594 116.972656 404.304688 112.175781 402.96875 C 105.855469 400.640625 99.300781 399.011719 92.625 398.113281 C 91.648438 397.417969 90.304688 397.914062 89.4375 397.285156 C 87.683594 396.007812 85.515625 395.152344 83.324219 393.511719 C 80.554688 391.441406 77.945312 387.636719 74.121094 384.929688 C 73.023438 383.691406 69.167969 381.695312 65.75 378.363281 C 65.730469 378.042969 66.113281 376.625 66.097656 376.320312 C 67.167969 374.550781 68.21875 371.292969 71.496094 366.554688 C 74.546875 362.246094 77.210938 357.679688 79.453125 352.898438 C 81.882812 347.589844 86.1875 343.394531 87.46875 338.734375 C 89.203125 332.425781 88.0625 326.496094 88.609375 322.550781 C 88.671875 322.082031 91.035156 321.929688 91.105469 321.445312 C 91.714844 317.046875 91.324219 311.078125 91.9375 304.960938 C 91.957031 304.910156 90.488281 303.832031 90.507812 303.777344 C 92.882812 301.292969 95.535156 300.261719 96.246094 299.324219 C 99.207031 295.417969 103.851562 293.300781 107.523438 290.054688 C 111.1875 286.8125 113.9375 282.511719 117.6875 279.398438 C 121.488281 276.246094 125.988281 273.746094 129.234375 270.171875 C 132.761719 266.296875 133.582031 260.816406 135.6875 256.324219 C 137.820312 251.777344 141.488281 247.960938 143.664062 243.390625 C 145.78125 238.945312 147.421875 234.359375 150.988281 230.46875 C 154.859375 226.246094 159.863281 223.429688 164.3125 219.8125 C 168.75 216.207031 171.722656 210.808594 176.066406 207.097656 C 177.9375 205.5 180.9375 206.179688 183.304688 205.519531 C 185.433594 204.925781 187.246094 201.9375 189.453125 201.949219 C 193.304688 201.964844 197.570312 203.515625 200.996094 201.761719 C 204.421875 200.011719 208.117188 197.402344 210.355469 194.269531 C 211.789062 192.261719 212.394531 189.832031 214.210938 188.160156 C 217.722656 184.929688 221.730469 181.816406 226.859375 182.175781 C 231.027344 182.472656 234.996094 186.566406 239.875 188.390625 C 244.015625 189.9375 249.074219 190.089844 253.511719 192.238281 C 257.65625 194.242188 262.0625 196.089844 266.300781 198.234375 C 270.550781 200.378906 273.726562 204.796875 277.914062 206.703125 C 282.40625 208.75 287.921875 207.714844 292.148438 209.027344 C 297.070312 210.5625 301.375 213.152344 305.640625 213.003906 C 310.523438 212.835938 314.332031 210.300781 317.914062 206.894531 C 321.28125 203.707031 323.761719 199.691406 325.105469 195.25 C 327.28125 188.5 329.023438 184.253906 330.667969 180.007812 C 332.300781 175.789062 333.265625 170.980469 337.757812 165.296875 C 341.285156 161.027344 344.546875 156.542969 347.527344 151.875 C 350.433594 147.117188 353.445312 142.441406 356.0625 137.542969 C 357.28125 135.265625 358.304688 131.917969 360.527344 130.605469 C 363.746094 128.707031 368.25 128.988281 371.929688 128.351562 C 376.503906 127.5625 381.488281 127.691406 385.226562 124.859375 C 388.875 122.09375 391.238281 117.261719 395.285156 115.238281 C 399.457031 113.152344 404.238281 113.707031 408.808594 113.683594 C 413.269531 113.664062 418.074219 112.773438 422.523438 114.105469 C 426.902344 115.421875 430.980469 117.976562 434.96875 120.023438 C 440.164062 122.695312 446.398438 127.515625 451.96875 125.75 C 455.859375 124.515625 456.441406 119.113281 458.601562 115.875 C 460.75 112.65625 464.0625 110.128906 466.878906 107.695312 C 469.8125 105.304688 473.015625 103.265625 476.421875 101.613281 C 479.769531 99.863281 482.625 97.371094 485.757812 95.199219 C 489.25 92.773438 492.097656 89.765625 495.144531 87.050781 C 498.398438 84.152344 502.878906 83.6875 506.691406 82.234375 C 510.1875 80.898438 513.207031 80.628906 518.0625 81.996094 C 525.304688 84.03125 529.5625 86.53125 531.890625 91.542969 C 534.226562 96.578125 533.898438 103.597656 537.929688 108.539062 C 540.46875 111.652344 545.761719 111.171875 549.160156 113.25 C 552.570312 115.476562 555.414062 118.464844 557.464844 121.984375 C 560.707031 127.296875 565.679688 130.851562 569.164062 136.015625 C 571.628906 139.671875 571.84375 143.203125 571.304688 147.605469 C 570.789062 151.804688 569 155.503906 567.222656 159.324219 C 565.394531 163.253906 566.046875 168.332031 564.367188 172.386719 C 562.699219 176.40625 559.667969 179.898438 558.113281 183.984375 C 556.558594 188.066406 556.015625 192.527344 554.535156 196.625 C 553.046875 200.746094 552.519531 205.195312 551.066406 209.285156 C 550.390625 211.191406 549.953125 212.699219 549.464844 214.011719 C 548.109375 217.683594 543.832031 220.152344 541.3125 223.453125 C 538.847656 226.6875 538.128906 230.648438 536.980469 234.53125 C 535.6875 238.910156 535.152344 247.757812 532.636719 250.710938 C 530.777344 252.894531 527.949219 253.855469 525.859375 255.824219 C 521.621094 259.820312 522.835938 267.140625 523.574219 272.921875 C 524.3125 278.703125 526.789062 284.457031 526.847656 290.285156 C 526.902344 295.542969 522.410156 300.632812 522.101562 305.878906 C 521.796875 311.128906 525.398438 315.726562 529.519531 318.992188 C 532.585938 321.417969 535.53125 323.394531 539.519531 323.914062 C 543.511719 324.4375 547.648438 324.636719 550.707031 327.074219 C 555.945312 331.261719 555.183594 339.996094 559.136719 345.410156 C 562.324219 349.777344 568.058594 350.980469 573.414062 352.105469 C 578.449219 353.164062 584.113281 352.175781 589.140625 352.894531 C 594.847656 353.707031 599.875 355.910156 604.402344 357.707031 C 609.523438 359.734375 613.160156 364.367188 617.804688 366.4375 C 622.761719 368.511719 627.972656 369.910156 633.296875 370.59375 C 637.9375 371.285156 643.148438 370.179688 649.074219 368.976562 C 655.261719 367.71875 661.214844 367.472656 666.871094 366.363281 C 672.609375 365.234375 678.28125 362.570312 684.625 364.136719 C 689.480469 365.332031 694.121094 367.71875 698.480469 370.144531 C 702.808594 372.550781 706.605469 376.207031 711.691406 376.878906 C 715.773438 377.414062 719.746094 375.078125 723.855469 374.546875 C 727.957031 374.015625 732.234375 375.007812 736.324219 375.414062 C 740.773438 375.859375 744.710938 377.550781 748.476562 379.800781 C 752.148438 382 756.5625 383.753906 759.640625 386.96875 C 762.671875 390.132812 765.109375 394.070312 767.617188 397.558594 C 770.359375 401.582031 772.230469 406.140625 773.105469 410.929688 C 774.085938 415.683594 772.652344 420.046875 768.789062 422.980469 C 763.140625 427.273438 754.734375 426.992188 751.90625 433.496094 C 751.132812 435.273438 748.730469 436.640625 748.40625 438.550781 C 747.382812 444.632812 745.152344 450.890625 739.578125 453.847656 Z M 739.578125 453.847656 "
                    fill-opacity="1" fill-rule="nonzero" />
            </g>
        </g>
    </g>
</svg>