<?xml version="1.0" encoding="utf-8"?>
<svg viewBox="-43.3699 -181.8937 805.5374 692.3643" preserveAspectRatio="xMidYMid slice"
    xmlns="http://www.w3.org/2000/svg">
    <g clip-path="url(#c0c9b4b649)" transform="matrix(1, 0, 0, 1, -46.10422340501344, -228.39226790035923)">
        <g clip-path="url(#d70414efd2)">
            <g clip-path="url(#21d8e8a909)">
                <path fill="#bf9439"
                    d="M 650.65625 103.691406 C 651.953125 107.949219 652.9375 112.015625 652.207031 116.480469 C 651.746094 119.28125 652.234375 122.230469 651.964844 125.078125 C 651.679688 128.105469 650.796875 131.074219 650.539062 134.097656 C 650.160156 138.542969 649.640625 143.054688 650.011719 147.464844 C 650.699219 155.566406 649.085938 162.667969 643.644531 168.953125 C 639.132812 174.160156 633.78125 178.453125 628.414062 182.535156 C 617.636719 190.730469 611.691406 201.523438 608.765625 214.375 C 608.183594 216.941406 609.28125 219.039062 610.660156 220.902344 C 613.414062 224.632812 616.628906 228.039062 619.230469 231.871094 C 621.746094 235.601562 623.550781 239.765625 624.5625 244.152344 C 625.695312 248.980469 625.378906 253.847656 624.402344 258.574219 C 623.359375 263.648438 623.800781 268.558594 624.707031 273.519531 C 624.878906 274.402344 625.191406 275.253906 625.636719 276.039062 C 629.882812 283.507812 634.171875 290.945312 638.429688 298.40625 C 640.03125 301.207031 641.738281 303.96875 643.113281 306.882812 C 645.273438 311.460938 648.867188 314.757812 652.8125 317.570312 C 657.667969 321.03125 661.652344 325.324219 665.675781 329.617188 C 669.488281 333.6875 671.308594 338.898438 672.667969 344.03125 C 674.207031 349.839844 676.640625 355.203125 679.195312 360.519531 C 681.203125 364.6875 683.890625 368.527344 686.242188 372.53125 C 691.257812 381.050781 697.769531 388.148438 706.597656 392.71875 C 710.386719 394.675781 714.628906 395.765625 718.691406 397.175781 C 724.628906 399.234375 730.6875 400.972656 736.511719 403.304688 C 743.6875 406.175781 750.753906 409.347656 757.714844 412.703125 C 762.921875 415.21875 767.679688 418.46875 770.324219 423.960938 C 770.382812 424.132812 770.472656 424.292969 770.59375 424.425781 C 775.265625 428.09375 776.109375 433.976562 778.933594 438.707031 C 781.957031 443.777344 784.5625 449.074219 787.367188 454.242188 C 791.839844 462.484375 797.824219 469.605469 802.859375 477.402344 C 805.871094 481.90625 807.707031 487.085938 808.203125 492.480469 C 808.492188 494.652344 807.859375 496.847656 806.457031 498.535156 C 803.527344 501.941406 800.703125 505.355469 796.585938 507.566406 C 794.632812 508.617188 793.0625 510.585938 791.652344 512.398438 C 790.359375 514.125 789.289062 516.007812 788.46875 518.003906 C 784.433594 527.410156 778.027344 535.199219 771.269531 542.644531 C 768.273438 546 764.332031 548.375 759.964844 549.445312 C 754.554688 550.789062 749.105469 551.574219 743.652344 552.542969 C 735.378906 554.007812 727.203125 555.953125 718.886719 557.285156 C 714.3125 558.015625 709.726562 558.859375 705.160156 559.699219 C 695.683594 561.4375 687.421875 558.855469 679.707031 553.644531 C 677.777344 552.339844 675.875 550.96875 674.070312 549.492188 C 669.003906 545.335938 663.3125 545.1875 657.25 546.492188 C 652.53125 547.503906 647.765625 548.335938 642.988281 549.015625 C 639.136719 549.558594 635.46875 548.199219 631.984375 546.863281 C 626.292969 544.65625 620.261719 543.449219 614.15625 543.289062 C 611.160156 543.210938 608.148438 544.027344 605.132812 544.332031 C 596.597656 545.199219 589.375 549.082031 582.832031 554.285156 C 577.21875 558.746094 571.8125 563.4375 567.125 568.957031 C 562.539062 574.351562 558.570312 580.042969 555.925781 586.621094 C 554.785156 589.464844 553.464844 592.246094 552.5 595.148438 C 551.074219 599.441406 548.265625 602.644531 544.859375 605.378906 C 539.136719 609.972656 533.359375 614.503906 527.53125 618.976562 C 523.046875 622.425781 520.902344 626.855469 521.488281 632.523438 C 521.785156 635.367188 522.210938 638.199219 522.445312 641.046875 C 523.3125 651.570312 522.304688 661.804688 518.023438 671.617188 C 516.59375 674.886719 515.695312 678.386719 514.625 681.804688 C 512.851562 687.484375 510.753906 693.019531 507.136719 697.8125 C 505.167969 700.417969 504.425781 703.0625 505.207031 706.363281 C 505.898438 709.292969 505.742188 712.417969 506.308594 715.386719 C 506.777344 718.09375 506.070312 720.871094 504.363281 723.023438 C 500.347656 728.546875 495.121094 732.441406 488.1875 733.738281 C 479.554688 735.355469 471.1875 734.566406 462.839844 731.882812 C 456.496094 729.855469 449.898438 728.75 443.242188 728.601562 C 440.378906 728.570312 437.53125 729.003906 434.808594 729.890625 C 428.488281 731.890625 422.214844 734.089844 416.042969 736.511719 C 408.308594 739.542969 400.757812 739.757812 393.019531 736.484375 C 385.054688 733.121094 377.628906 728.800781 370.214844 724.417969 C 362.515625 719.871094 354.121094 717.007812 345.25 716.621094 C 339.664062 716.351562 334.089844 717.339844 328.933594 719.507812 C 324.3125 721.496094 319.398438 722.726562 314.382812 723.144531 C 311.347656 723.355469 308.300781 723.035156 305.375 722.203125 C 300.335938 720.8125 295.378906 718.816406 291.398438 715.394531 C 288.265625 712.703125 284.875 711.847656 281.007812 711.796875 C 274.503906 711.777344 268.097656 710.253906 262.285156 707.34375 C 260.371094 706.378906 258.574219 705.199219 256.925781 703.824219 C 252.808594 700.328125 249.550781 695.929688 247.40625 690.972656 C 246.195312 688.222656 245.601562 685.195312 243.519531 682.875 C 242.828125 682.105469 242 681.1875 241.074219 680.945312 C 237.4375 680 233.773438 678.902344 230.058594 678.570312 C 220.945312 677.765625 211.808594 677.21875 202.667969 676.832031 C 196.011719 676.550781 189.902344 674.507812 184.144531 671.484375 C 180.878906 669.765625 178.09375 667.347656 177.308594 663.152344 C 176.824219 660.558594 175.25 658.175781 174.277344 655.65625 C 171.042969 647.289062 169.65625 638.632812 171.757812 629.835938 C 173.25 623.585938 175.164062 617.394531 180.351562 612.828125 C 183.285156 610.25 185.691406 607.078125 188.535156 604.386719 C 189.804688 603.1875 191.699219 602.671875 193.089844 601.566406 C 196.347656 599.070312 199.472656 596.410156 202.457031 593.59375 C 204.074219 591.925781 205.394531 589.992188 206.367188 587.882812 C 207.9375 584.652344 209.09375 581.21875 210.511719 577.910156 C 212.875 572.398438 216.71875 568.34375 222.339844 566.050781 C 229.179688 563.261719 235.402344 559.320312 241.625 555.429688 C 246.433594 552.421875 248.902344 547.773438 249.964844 542.1875 C 251.257812 535.402344 248.777344 530.847656 242.847656 527.527344 C 238.832031 525.277344 234.367188 524.636719 230.179688 523.058594 C 221.917969 519.945312 213.125 518.832031 204.671875 516.429688 C 203.980469 516.234375 203.316406 515.933594 202.648438 515.667969 C 195.519531 512.863281 194.199219 511.253906 194.300781 503.6875 C 194.382812 497.878906 193.371094 492.273438 192.027344 486.710938 C 191.175781 483.191406 188.453125 480.832031 185.476562 479.179688 C 181.710938 477.097656 177.695312 475.582031 173.171875 475.652344 C 168.089844 475.730469 163.925781 477.148438 161.699219 482.046875 C 160.375 484.960938 157.667969 485.570312 155.085938 486.0625 C 149.285156 487.167969 143.453125 488.347656 137.582031 488.765625 C 131.304688 489.261719 124.988281 488.808594 118.84375 487.429688 C 117.96875 487.226562 117.125 486.863281 116.238281 486.726562 C 107.582031 485.382812 102.117188 480.214844 100.476562 471.890625 C 99.375 466.28125 96.699219 461.863281 93.199219 457.792969 C 89.183594 453.113281 87.945312 447.703125 88.207031 441.828125 C 88.375 438.066406 89.023438 434.328125 89.300781 430.566406 C 89.679688 425.417969 90.191406 420.253906 90.144531 415.101562 C 90.066406 407.261719 91.917969 399.84375 94.589844 392.625 C 96.605469 387.414062 99.789062 382.734375 103.898438 378.949219 C 111.242188 371.960938 119.296875 366.046875 128.929688 362.59375 C 135.03125 360.40625 139.269531 356.09375 142.242188 350.621094 C 143.757812 347.835938 144.585938 344.589844 145.25 341.453125 C 146.738281 334.375 150.984375 329.257812 156.53125 325.113281 C 159.960938 322.550781 163.765625 320.496094 167.332031 318.105469 C 170.46875 316.03125 173.242188 313.457031 175.542969 310.480469 C 177.734375 307.589844 178.902344 304.050781 178.871094 300.421875 C 178.972656 293.597656 177.859375 286.8125 175.589844 280.375 C 172.839844 272.4375 170.707031 264.296875 169.210938 256.03125 C 168.011719 249.714844 166.785156 243.394531 164.332031 237.347656 C 161.972656 231.519531 162.535156 225.9375 166.652344 220.726562 C 169.554688 217.058594 172.125 213.210938 176.101562 210.523438 C 179.066406 208.484375 182.390625 207.03125 185.898438 206.238281 C 192.191406 204.847656 198.613281 204.058594 204.628906 201.476562 C 206.375 200.726562 208.476562 200.707031 210.429688 200.550781 C 217.929688 199.941406 225.429688 199.335938 232.9375 198.875 C 244.761719 198.148438 256.28125 195.316406 268.007812 193.910156 C 277.433594 192.78125 286.832031 191.457031 296.210938 189.941406 C 301.5 189.089844 306.660156 187.410156 311.953125 186.621094 C 319.0625 185.558594 323.964844 181.328125 328.332031 176.199219 C 332.328125 171.511719 333.6875 165.695312 334.460938 159.816406 C 335.714844 150.597656 336.359375 141.304688 336.390625 132 C 336.347656 127.6875 336.902344 123.390625 338.042969 119.226562 C 340.0625 112.050781 344.957031 107.265625 350.75 103.109375 C 355.171875 100.066406 358.371094 95.558594 359.785156 90.382812 C 361.074219 85.710938 362.683594 81.117188 364.363281 76.566406 C 366.78125 70.015625 371.464844 65.367188 377.652344 62.429688 C 383.15625 59.8125 388.75 57.425781 394.8125 56.074219 C 398.972656 55.148438 402.878906 53.011719 406.859375 51.316406 C 418.261719 46.464844 430.226562 45.664062 442.269531 47.210938 C 448.898438 48.0625 455.226562 50.507812 460.707031 54.328125 C 464.261719 56.800781 466.917969 59.863281 467.292969 64.328125 C 467.433594 66.332031 468.492188 68.160156 470.160156 69.277344 C 472.433594 71.007812 474.808594 72.597656 477.277344 74.039062 C 484.175781 77.859375 491.371094 81.1875 498.058594 85.335938 C 504.132812 89.226562 509.417969 94.226562 513.636719 100.074219 C 515.128906 102.085938 516.582031 104.136719 518.191406 106.050781 C 523.003906 111.78125 529.351562 113.214844 536.179688 111.257812 C 539.503906 110.304688 542.3125 107.644531 545.449219 105.933594 C 552.523438 102.074219 558.75 96.691406 566.535156 94.125 C 570.074219 92.835938 573.6875 91.765625 577.355469 90.910156 C 582.816406 89.878906 588.175781 88.355469 593.367188 86.367188 C 595.511719 85.519531 597.855469 85.160156 600.109375 84.59375 C 604.449219 83.5 608.792969 82.4375 613.125 81.320312 C 617.882812 80.066406 622.9375 80.695312 627.242188 83.074219 C 634.375 86.871094 641.171875 91.199219 646.34375 97.589844 C 647.90625 99.523438 649.226562 101.652344 650.65625 103.691406 Z M 650.65625 103.691406 "
                    fill-opacity="1" fill-rule="nonzero" />
            </g>
        </g>
    </g>
    <g clip-path="url(#6af35f4d4b)" transform="matrix(1, 0, 0, 1, -46.10422340501344, -228.39226790035923)">
        <g clip-path="url(#3c6c5207e2)">
            <g clip-path="url(#47fcdaa1d9)">
                <path fill="#bf9439"
                    d="M 98.890625 274.191406 C 95.019531 276.480469 91.09375 278.695312 87.28125 281.082031 C 83.089844 283.703125 79.175781 286.832031 74.804688 289.082031 C 71.664062 290.699219 68.023438 291.546875 64.503906 292.195312 C 56.429688 293.675781 48.546875 293.761719 40.554688 290.589844 C 34.433594 288.160156 30.652344 283.566406 26.796875 278.941406 C 24.988281 276.773438 23.328125 274.949219 20.648438 273.972656 C 19.394531 273.476562 18.300781 272.644531 17.492188 271.570312 C 11.660156 263.738281 6.832031 255.300781 3.785156 246.015625 C 1.464844 238.9375 3.007812 235.851562 8.207031 231.921875 C 13.984375 227.550781 19.996094 224.441406 27.558594 225.914062 C 28.683594 226.003906 29.816406 225.835938 30.863281 225.414062 C 38.519531 223.050781 46.421875 223.007812 54.292969 223.113281 C 57.226562 223.222656 60.121094 223.8125 62.867188 224.859375 C 70.484375 227.734375 78.59375 229.09375 86.738281 228.851562 C 93.042969 228.726562 99.347656 229.269531 105.542969 230.460938 C 114.605469 231.917969 122.640625 237.109375 127.695312 244.769531 C 130.652344 249.128906 129.890625 253.238281 126.246094 255.878906 C 120.046875 260.359375 114.261719 265.410156 108.097656 269.945312 C 105.40625 271.921875 102.21875 273.21875 99.253906 274.828125 C 99.132812 274.613281 99.011719 274.402344 98.890625 274.191406 Z M 98.890625 274.191406 "
                    fill-opacity="1" fill-rule="nonzero" />
            </g>
        </g>
    </g>
    <g clip-path="url(#50f1e895ab)" transform="matrix(1, 0, 0, 1, -46.10422340501344, -228.39226790035923)">
        <g clip-path="url(#cf0b15bb10)">
            <g clip-path="url(#e7ab59d701)">
                <path fill="#bf9439"
                    d="M 676.421875 271.816406 C 671.628906 275.046875 665.816406 273.992188 660.394531 272.101562 C 654.917969 270.195312 652.132812 265.382812 651.007812 259.84375 C 650.359375 256.328125 649.929688 252.777344 649.714844 249.210938 C 649.386719 245.449219 648.050781 241.847656 645.847656 238.785156 C 644.253906 236.4375 643.15625 233.738281 641.992188 231.128906 C 641.726562 230.292969 641.683594 229.402344 641.855469 228.542969 C 642.460938 223.316406 644.875 218.464844 648.679688 214.832031 C 651.035156 212.628906 652.847656 209.910156 653.976562 206.886719 C 655.59375 202.457031 658.515625 198.777344 661.066406 194.917969 C 664.707031 189.40625 669.976562 186.796875 676.707031 187.546875 C 677.777344 187.691406 678.851562 187.773438 679.929688 187.785156 C 682.644531 187.757812 684.808594 188.515625 686.140625 191.160156 C 686.769531 192.410156 687.898438 193.40625 688.808594 194.511719 C 689.265625 195.0625 690.039062 195.542969 690.148438 196.152344 C 691.058594 201.109375 694.648438 205.007812 695.519531 209.964844 C 695.671875 211.03125 695.984375 212.0625 696.449219 213.03125 C 698.292969 216.519531 697.839844 220.019531 696.5 223.4375 C 695.457031 226.097656 694.101562 228.636719 692.828125 231.207031 C 691.875 233.136719 690.695312 234.96875 689.871094 236.949219 C 688.9375 238.898438 688.636719 241.085938 689.015625 243.214844 C 689.640625 246.179688 689.941406 249.21875 690.328125 252.234375 C 691.535156 261.664062 687.785156 266.027344 680.535156 270.058594 C 679.441406 270.664062 678.222656 271.054688 676.421875 271.816406 Z M 676.421875 271.816406 "
                    fill-opacity="1" fill-rule="nonzero" />
            </g>
        </g>
    </g>
    <g clip-path="url(#fbabb22805)" transform="matrix(1, 0, 0, 1, -46.10422340501344, -228.39226790035923)">
        <g clip-path="url(#7ad4c9f60a)">
            <g clip-path="url(#c7a14d59e9)">
                <path fill="#bf9439"
                    d="M 178.429688 551.910156 C 175.933594 554.601562 173.664062 557.140625 171.296875 559.585938 C 169.351562 561.777344 166.515625 562.957031 163.589844 562.796875 C 160.953125 562.648438 158.417969 562.949219 155.886719 561.273438 C 152.90625 559.296875 149.839844 557.71875 147.617188 554.65625 C 146.085938 552.546875 143.488281 551.242188 141.464844 549.464844 C 139.402344 547.761719 137.472656 545.910156 135.6875 543.917969 C 134.09375 542.125 133.457031 539.675781 133.976562 537.332031 C 134.957031 533.148438 135.820312 528.898438 137.289062 524.878906 C 138.292969 522.183594 139.8125 519.714844 141.765625 517.605469 C 145.945312 513.121094 151.496094 512.214844 157.046875 514.027344 C 161.289062 515.445312 165.664062 516.425781 170.109375 516.949219 C 174.957031 517.496094 179.078125 519.914062 180.933594 524.742188 C 182.511719 528.84375 185.816406 530.234375 189.5625 531.097656 C 192.53125 531.78125 195.542969 532.3125 198.566406 532.710938 C 201.441406 533.105469 204.082031 534.515625 206.015625 536.679688 C 207.25 537.980469 208.621094 539.15625 209.792969 540.503906 C 212.320312 543.410156 212.371094 545.6875 209.730469 548.5625 C 208.335938 549.9375 206.796875 551.148438 205.132812 552.179688 C 204.253906 552.78125 203.140625 553.019531 202.199219 553.546875 C 196.464844 556.753906 190.773438 556.339844 185.300781 553.070312 C 183.261719 551.765625 180.78125 551.347656 178.429688 551.910156 Z M 178.429688 551.910156 "
                    fill-opacity="1" fill-rule="nonzero" />
            </g>
        </g>
    </g>
    <g clip-path="url(#ae00017b26)" transform="matrix(1, 0, 0, 1, -46.10422340501344, -228.39226790035923)">
        <g clip-path="url(#04ecbdaa5c)">
            <g clip-path="url(#1bcd0f099d)">
                <path fill="#456424"
                    d="M 465.804688 697.832031 C 463.863281 698.652344 461.59375 697.300781 459.710938 697.367188 C 457.777344 697.433594 455.777344 699 453.792969 698.792969 C 451.527344 698.554688 448.773438 698.988281 444.960938 698.898438 C 442.664062 698.832031 440.363281 698.902344 438.074219 699.101562 C 435.582031 699.320312 432.871094 696.859375 430.691406 697.296875 C 428.214844 697.800781 426.132812 699.453125 424.035156 700.097656 C 421.5625 700.851562 419.453125 701.976562 417.460938 702.695312 C 415.332031 703.464844 412.765625 702.511719 410.695312 703.0625 C 408.5 703.644531 406.636719 707.15625 404.464844 707.042969 C 402.367188 706.9375 401.183594 703.257812 399.066406 702.085938 C 397.007812 700.933594 393.832031 701.9375 391.832031 700.898438 C 389.742188 699.808594 388.777344 696.527344 386.742188 695.558594 C 384.613281 694.546875 381.789062 695.117188 379.71875 694.234375 C 377.546875 693.3125 375.238281 692.902344 373.125 692.121094 C 370.914062 691.308594 368.832031 690.304688 366.679688 689.644531 C 364.429688 688.957031 361.863281 689.828125 359.667969 689.308594 C 357.382812 688.769531 355.492188 686.769531 353.257812 686.410156 C 350.949219 686.039062 348.554688 687.105469 346.289062 686.925781 C 343.972656 686.742188 341.78125 686.304688 339.496094 686.320312 C 337.183594 686.332031 334.957031 686.304688 332.667969 686.515625 C 330.378906 686.726562 328.277344 687.640625 326 688.046875 C 323.449219 688.5 320.8125 687.417969 318.558594 687.496094 C 315.980469 687.589844 313.363281 688.875 311.117188 688.550781 C 308.605469 688.1875 306.519531 686.035156 304.34375 685.253906 C 302.007812 684.417969 299.394531 684.167969 297.347656 682.988281 C 295.238281 681.769531 294.453125 678.632812 292.539062 677.195312 C 290.601562 675.738281 287.316406 676.902344 285.46875 675.378906 C 283.835938 675.542969 282.445312 674.203125 280.371094 673.710938 C 278.6875 673.3125 276.613281 672.804688 274.902344 671.558594 C 273.042969 670.203125 272.972656 667.582031 272.054688 665.96875 C 270.984375 664.277344 270.152344 662.445312 269.578125 660.527344 C 269.421875 660.429688 269.429688 659.445312 269.273438 659.347656 C 266.882812 657.859375 264.5625 657.636719 263.042969 656.921875 C 260.820312 655.886719 259.074219 656.183594 256.648438 656.503906 C 254.953125 656.726562 253.417969 657.671875 251.480469 658.277344 C 249.875 658.777344 247.761719 658.238281 245.882812 659.03125 C 243.203125 660.167969 240.675781 661.867188 237.816406 663.253906 C 234.8125 664.710938 231.980469 666.882812 228.734375 668.253906 C 227.785156 668.65625 227.039062 669.675781 226.078125 670.042969 C 224.632812 670.597656 221.507812 671.007812 218.050781 671.71875 C 215.679688 672.203125 212.851562 670.671875 209.984375 670.566406 C 207.457031 670.476562 205.003906 670.460938 202.355469 669.519531 C 200.375 668.8125 197.464844 669.574219 195.765625 668.332031 C 194.070312 667.097656 192.554688 665.140625 191.253906 663.488281 C 189.957031 661.835938 189.160156 659.59375 188.375 657.640625 C 187.324219 655.027344 187.558594 652.140625 187.625 649.507812 C 187.6875 646.804688 188.011719 644.089844 189.242188 641.625 C 190.582031 638.945312 191.441406 635.734375 193.324219 634.136719 C 195.6875 632.128906 199.203125 631.96875 201.160156 630.945312 C 201.855469 630.582031 201.324219 629.402344 201.921875 629.027344 C 202.007812 628.003906 203.476562 626.851562 203.394531 625.523438 C 203.207031 622.535156 201.34375 618.886719 201.949219 615.191406 C 202.316406 612.949219 203.507812 610.683594 204.332031 608.734375 C 205.203125 606.679688 208.089844 605.75 209.324219 603.996094 C 210.605469 602.179688 211.128906 599.832031 212.644531 598.3125 C 214.234375 596.71875 214.976562 594.035156 216.640625 592.746094 C 218.484375 591.320312 220.441406 589.992188 222.128906 588.902344 C 223.941406 587.730469 226.371094 587.207031 228.453125 586.132812 C 230.351562 585.15625 233.203125 585.972656 235.378906 585.054688 C 237.644531 584.09375 239.382812 581.933594 241.621094 581.117188 C 243.933594 580.28125 246.183594 579.34375 248.433594 578.578125 C 250.324219 577.929688 252.726562 578.90625 254.488281 578.277344 C 256.390625 577.59375 257.953125 576.152344 259.648438 575.433594 C 262.28125 574.324219 264.582031 573.46875 266.230469 572.355469 C 268.578125 570.769531 269.347656 568.484375 270.074219 566.355469 C 270.734375 564.421875 269.65625 562.414062 269.328125 559.535156 C 269.066406 557.214844 270.554688 554.800781 270.710938 552.617188 C 270.875 550.320312 272.332031 548.351562 272.820312 546.199219 C 273.375 544.058594 274.042969 541.949219 274.816406 539.875 C 275.558594 537.6875 273.996094 534.726562 274.773438 532.6875 C 275.824219 529.921875 278.261719 527.832031 278.976562 525.347656 C 280.414062 520.367188 279.230469 517.289062 278.09375 515.378906 C 277.066406 513.660156 275.875 511.363281 273.867188 509.773438 C 272.246094 508.492188 269.472656 508.496094 267.289062 507.34375 C 265.304688 506.289062 263.257812 505.351562 261.160156 504.535156 C 259.144531 503.75 257.109375 502.757812 254.835938 502.089844 C 252.734375 501.476562 250.292969 502.0625 248 501.5625 C 245.722656 501.066406 243.546875 497.664062 240.726562 497.34375 C 238.691406 497.113281 236.242188 498.902344 233.960938 498.535156 C 231.859375 498.195312 229.519531 498.246094 227.363281 497.628906 C 225.289062 497.035156 223.996094 494.390625 222 493.398438 C 220.078125 492.449219 218.714844 491.144531 216.980469 489.703125 C 215.367188 488.355469 212.628906 488.167969 211.273438 486.292969 C 209.804688 484.257812 208.113281 482.253906 207.238281 480.007812 C 206.34375 477.71875 205.066406 475.316406 204.621094 472.914062 C 204.175781 470.5 205.03125 467.816406 204.859375 465.390625 C 204.683594 462.90625 203.875 460.453125 203.800781 458.074219 C 203.742188 456.253906 203.898438 453.585938 203.6875 451.039062 C 203.425781 447.898438 203.046875 445.652344 202.226562 444.886719 C 202.210938 444.875 200.789062 442.617188 193.246094 444.109375 C 192.503906 444.257812 191.484375 444.140625 190.578125 444.527344 C 188.097656 445.574219 186.460938 449.230469 183.578125 451.097656 C 181.8125 452.242188 178.90625 451.644531 177.03125 452.738281 C 175.21875 453.796875 173.542969 455.109375 171.53125 455.960938 C 169.566406 456.792969 167.964844 458.75 166.058594 459.171875 C 164.011719 459.628906 161.746094 457.816406 159.746094 457.800781 C 157.71875 457.789062 155.777344 458.101562 153.769531 457.609375 C 151.496094 457.054688 149.804688 455.710938 147.925781 454.691406 C 145.902344 453.589844 143.023438 453.792969 141.417969 452.347656 C 139.695312 450.800781 139.242188 448.105469 137.957031 446.40625 C 136.585938 444.671875 135.347656 442.84375 134.242188 440.929688 C 132.882812 438.445312 131.742188 436.402344 131.160156 435.035156 C 130.230469 432.84375 128.210938 430.851562 127.558594 428.386719 C 126.980469 425.902344 126.707031 423.363281 126.746094 420.8125 C 126.730469 418.332031 128.742188 416.226562 129.328125 414.042969 C 129.957031 411.703125 129.242188 408.855469 130.378906 406.847656 C 131.558594 404.757812 133.898438 403.417969 135.421875 401.679688 C 137.023438 399.851562 138.226562 397.625 139.96875 396.171875 C 141.910156 394.550781 144.75 394.390625 146.550781 393.21875 C 149.007812 391.617188 150.101562 388.613281 151.558594 387.8125 C 152.929688 387.058594 155.683594 387.292969 157.738281 385.992188 C 159.503906 384.875 160.710938 382.851562 162.195312 381.519531 C 164.058594 379.855469 166.019531 378.570312 166.179688 376.871094 C 166.25 376.152344 166.917969 374.886719 166.828125 373.640625 C 166.695312 371.851562 165.210938 369.664062 165.390625 367.234375 C 165.574219 364.761719 165.210938 362.082031 165.921875 359.921875 C 166.675781 357.625 169.851562 356.472656 171.070312 354.488281 C 172.316406 352.460938 173.992188 351.074219 175.578125 349.335938 C 177.179688 347.578125 177.546875 344.652344 179.34375 343.148438 C 181.1875 341.601562 184 341.421875 185.886719 340.09375 C 187.90625 338.675781 189.710938 337.152344 191.582031 335.929688 C 192.65625 335.222656 191.332031 333.195312 192.410156 332.492188 C 194.722656 330.980469 198.265625 331.738281 200.164062 330.414062 C 202.476562 328.800781 202.679688 325.078125 204.371094 323.566406 C 206.464844 321.695312 207.773438 320.3125 208.914062 318.261719 C 210.109375 316.113281 211.09375 314.527344 211.242188 311.769531 C 211.347656 309.710938 213.746094 307.382812 213.355469 305.1875 C 212.996094 303.160156 210.074219 301.613281 209.457031 299.484375 C 208.875 297.480469 209.734375 294.976562 209.0625 292.894531 C 208.386719 290.792969 207.792969 288.613281 207.140625 286.390625 C 206.515625 284.25 206.390625 282.011719 205.914062 279.757812 C 205.449219 277.574219 204.144531 275.554688 203.925781 273.261719 C 203.71875 271.046875 205.15625 268.890625 205.277344 266.574219 C 205.355469 264.398438 205.617188 262.226562 206.0625 260.09375 C 206.570312 257.773438 206.144531 255.414062 207.003906 253.335938 C 207.90625 251.167969 209.667969 249.703125 210.9375 247.8125 C 212.226562 245.894531 213.007812 243.804688 214.664062 242.191406 C 216.292969 240.601562 217.621094 238.652344 219.59375 237.375 C 221.480469 236.152344 223.066406 233.96875 225.253906 233.042969 C 227.308594 232.167969 229.414062 231.425781 231.558594 230.816406 C 233.648438 230.242188 236.324219 232.179688 238.472656 231.804688 C 240.617188 231.429688 242.746094 231.578125 244.902344 231.347656 C 247.082031 231.117188 249.128906 229.964844 251.273438 229.824219 C 253.484375 229.679688 255.691406 230.335938 257.8125 230.226562 C 259.816406 230.125 261.757812 229.5625 263.628906 229.441406 C 265.671875 229.308594 267.414062 227.027344 269.230469 226.808594 C 271.207031 226.570312 273.507812 228.460938 275.691406 228.308594 C 277.710938 228.164062 279.738281 226.980469 281.890625 226.855469 C 284.292969 226.71875 286.890625 228.308594 289.375 228.128906 C 291.84375 227.949219 294.011719 224.601562 296.417969 224.316406 C 298.945312 224.015625 301.542969 225.035156 303.847656 224.542969 C 306.421875 223.996094 308.445312 222.570312 310.539062 221.6875 C 315.269531 219.6875 317.535156 218.722656 318.039062 217.074219 C 318.140625 216.742188 318.613281 216.886719 318.714844 216.550781 C 319.308594 214.613281 317.308594 211.550781 318.140625 209.355469 C 318.894531 207.367188 320.40625 205.390625 321.539062 203.421875 C 322.609375 201.558594 325.894531 201.320312 327.453125 199.664062 C 328.902344 198.128906 328.855469 194.636719 330.84375 193.429688 C 331.835938 192.832031 333.765625 193.871094 334.878906 193.402344 C 338.179688 192.007812 341.015625 190.265625 343.570312 189.8125 C 345.5 189.46875 347.382812 189.332031 349.140625 189.03125 C 352.105469 188.523438 354.53125 186.734375 356.921875 186.257812 C 360.167969 185.613281 363.25 186.871094 365.222656 186.039062 C 366.710938 185.410156 368.636719 184.734375 369.980469 181.261719 C 370.578125 179.714844 372.40625 177.726562 372.867188 174.820312 C 373.164062 172.9375 371.21875 170.40625 371.433594 167.785156 C 371.566406 166.171875 370.492188 164.21875 370.554688 162.078125 C 370.605469 160.277344 374.171875 158.425781 374.210938 156.4375 C 374.253906 154.128906 373.371094 151.746094 373.441406 149.328125 C 373.511719 146.992188 374.523438 144.691406 374.65625 142.308594 C 374.789062 139.945312 373.539062 137.515625 373.777344 135.164062 C 374.015625 132.785156 374.65625 130.515625 375.042969 128.207031 C 375.441406 125.828125 375.617188 123.492188 376.214844 121.25 C 376.84375 118.910156 376.894531 116.425781 377.792969 114.296875 C 378.738281 112.0625 380.988281 110.671875 382.292969 108.757812 C 383.640625 106.785156 384.734375 104.878906 386.527344 103.335938 C 389.109375 101.105469 391.875 100.042969 394.210938 98.714844 C 395.6875 97.84375 397.058594 96.808594 398.296875 95.625 C 399.660156 94.308594 401.171875 91.328125 402.425781 88.339844 C 403.449219 85.894531 403.8125 82.800781 405.410156 80.050781 C 406.804688 77.652344 409.261719 76.035156 411.527344 73.875 C 412.816406 72.644531 414.273438 71.957031 415.832031 70.960938 C 417.324219 70.007812 417.710938 66.898438 419.425781 66.175781 C 421.382812 65.234375 423.40625 64.433594 425.480469 63.777344 C 427.824219 63.183594 430.253906 63.675781 431.945312 63.425781 C 434.628906 63.027344 437.261719 64.019531 439.660156 64.027344 C 442.378906 64.035156 445.003906 63.339844 447.351562 63.863281 C 449.910156 64.355469 452.386719 65.214844 454.703125 66.417969 C 456.925781 67.683594 458.660156 69.769531 460.371094 71.710938 C 461.890625 73.441406 463.484375 75.097656 464.375 76.960938 C 465.355469 79.015625 464.179688 81.660156 464.652344 83.667969 C 465.191406 85.960938 467.332031 87.769531 467.59375 89.695312 C 467.691406 90.414062 466.488281 91.320312 466.597656 92.023438 C 466.875 93.816406 467.929688 96.4375 469.226562 99.324219 C 470.160156 101.402344 471.160156 103.84375 472.507812 106.230469 C 473.695312 108.332031 475.757812 110.101562 477.195312 112.285156 C 478.5625 114.367188 480.554688 116.054688 482.09375 118.078125 C 483.640625 120.113281 485.9375 121.402344 487.597656 123.246094 C 489.242188 125.078125 491 126.8125 492.855469 128.433594 C 494.898438 130.226562 496.097656 132.570312 498.125 133.703125 C 499.734375 134.59375 502.296875 136 504.078125 135.246094 C 504.207031 135.191406 504.734375 135.917969 504.863281 135.84375 C 505.648438 135.386719 506.140625 133.753906 507.261719 132.921875 C 509.886719 131.046875 512.726562 129.488281 515.714844 128.277344 C 518.363281 127.15625 520.820312 125.691406 523.015625 125.644531 C 525.6875 125.558594 528.355469 125.988281 530.871094 126.902344 C 534.769531 128.542969 536.464844 132.664062 538.171875 134.667969 C 538.210938 134.648438 538.699219 134.675781 538.734375 134.652344 C 541.09375 133.289062 542.734375 130.765625 545.035156 129.027344 C 547.203125 127.390625 550.449219 126.992188 552.683594 125.179688 C 554.867188 123.40625 557.007812 121.535156 559.324219 119.769531 C 561.558594 118.066406 563.054688 115.226562 565.515625 113.65625 C 568.488281 111.761719 571.980469 110.804688 575.121094 109.472656 C 577.394531 108.515625 580.007812 109.089844 582.257812 108.472656 C 584.632812 107.820312 586.378906 104.191406 588.699219 103.921875 C 591.136719 103.640625 593.785156 104.167969 596.128906 104.304688 C 598.59375 104.417969 601.046875 104.761719 603.449219 105.339844 C 605.78125 105.953125 608.054688 107.273438 610.191406 108.359375 C 612.191406 109.378906 613.277344 111.785156 614.980469 113.203125 C 616.6875 114.625 618.410156 115.910156 619.78125 117.675781 C 621.136719 119.414062 622.308594 121.289062 623.277344 123.269531 C 624.242188 125.238281 623.964844 127.550781 624.558594 129.734375 C 625.128906 131.84375 627.304688 133.632812 627.5 135.894531 C 627.695312 138.160156 626.449219 140.351562 626.25 142.523438 C 626.039062 144.777344 625.117188 146.660156 624.503906 148.765625 C 623.875 150.929688 624.339844 153.375 623.308594 155.320312 C 622.261719 157.296875 620.636719 158.820312 619.199219 160.515625 C 617.765625 162.203125 616.59375 164.144531 614.800781 165.488281 C 613.140625 166.707031 611.390625 167.796875 609.5625 168.746094 C 607.652344 169.765625 605.441406 169.902344 603.683594 170.699219 C 600.53125 172.128906 597.046875 173.5 595.84375 175.003906 C 594.808594 176.292969 594.042969 178.933594 593.84375 181.414062 C 593.695312 183.296875 595.855469 185.445312 595.964844 187.628906 C 596.066406 189.667969 596.984375 191.675781 597.152344 193.699219 C 597.390625 196.558594 594.925781 199.644531 595.007812 202.546875 C 595.089844 205.464844 595.886719 208.347656 595.480469 211.191406 C 595.25 212.832031 595.707031 214.695312 595.472656 216.5625 C 595.1875 218.882812 592.621094 221.039062 592.253906 223.597656 C 591.90625 225.980469 594.152344 228.878906 593.660156 231.347656 C 593.179688 233.753906 591.230469 235.871094 590.542969 238.253906 C 589.855469 240.640625 590.960938 243.757812 589.996094 246.015625 C 589.015625 248.3125 586.027344 249.664062 584.691406 251.71875 C 583.339844 253.796875 580.949219 254.746094 579.160156 256.464844 C 578.078125 257.507812 578.167969 259.5625 577.242188 260.320312 C 576.65625 260.800781 574.289062 260.625 573.894531 261.015625 C 573.382812 262.503906 573.007812 265.839844 573.082031 268.792969 C 573.136719 270.980469 573.78125 273.523438 574.085938 275.929688 C 574.390625 278.335938 576.246094 280.535156 576.738281 282.667969 C 577.402344 285.550781 579.449219 286.785156 580.324219 288.089844 C 581.574219 289.183594 583.050781 290.875 585.597656 291.855469 C 586.726562 292.285156 587.171875 294.382812 588.273438 294.839844 C 590.257812 295.667969 592.171875 296.660156 593.992188 297.804688 C 595.785156 298.941406 597.441406 300.277344 598.925781 301.792969 C 600.683594 303.519531 603.5625 303.960938 604.554688 305.695312 C 605.800781 307.878906 605.796875 310.359375 606.199219 312.238281 C 606.753906 314.816406 605.28125 317.113281 605.269531 318.816406 C 605.269531 318.90625 607.359375 318.382812 607.359375 318.476562 C 607.5625 318.542969 607.550781 318.039062 607.8125 318.089844 C 608.902344 318.316406 610 319.722656 611.429688 319.875 C 614.140625 320.167969 617.324219 320.082031 620.632812 321.101562 C 622.820312 321.777344 624.601562 323.425781 626.597656 324.59375 C 628.558594 325.734375 631.222656 326.070312 632.949219 327.632812 C 634.625 329.152344 634.652344 332.207031 636.058594 334.074219 C 637.417969 335.875 640.644531 336.574219 641.710938 338.652344 C 642.742188 340.660156 644.042969 342.851562 644.765625 345.082031 C 645.402344 347.054688 643.996094 349.582031 644.464844 351.480469 C 644.953125 353.480469 647.027344 355.097656 647.398438 357.027344 C 647.78125 359.03125 647.226562 361.183594 647.558594 363.136719 C 648.027344 365.859375 648.402344 368.46875 648.945312 370.972656 C 649.523438 373.632812 651.582031 375.613281 652.519531 378.058594 C 653.449219 380.5 653.992188 382.789062 655.554688 385.054688 C 656.640625 386.632812 656.296875 389.285156 657.683594 390.667969 C 658.9375 391.917969 661.996094 391.378906 663.539062 392.765625 C 664.238281 393.394531 664.457031 394.585938 665.179688 395.242188 C 666.964844 396.875 667.757812 399.46875 669.296875 401.246094 C 670.878906 403.074219 673.730469 403.832031 675.1875 405.667969 C 676.507812 407.328125 676.398438 410.074219 677.65625 411.527344 C 679.132812 413.238281 681.527344 413.59375 682.945312 414.660156 C 684.34375 415.71875 685.535156 419.027344 688.101562 419.976562 C 689.886719 420.640625 691.9375 420.757812 693.898438 421.644531 C 695.730469 422.402344 697.492188 423.316406 699.171875 424.371094 C 702.070312 426.300781 705.613281 426.859375 707.664062 428.714844 C 709.707031 430.566406 710.449219 433.515625 712.285156 434.488281 C 714 435.394531 716.078125 435.734375 717.988281 436.484375 C 719.792969 437.195312 721.488281 438.386719 723.417969 439.074219 C 725.683594 439.886719 728.296875 440.132812 730.734375 441.128906 C 733.007812 442.054688 735.949219 441.945312 738.234375 443.1875 C 740.398438 444.367188 741.703125 447.140625 743.761719 448.730469 C 745.773438 450.238281 747.640625 451.933594 749.332031 453.796875 C 750.929688 455.601562 753.699219 456.824219 755.066406 459.113281 C 756.597656 461.683594 756.894531 465.453125 758.574219 468.644531 C 759.527344 470.460938 760.011719 472.679688 761.09375 474.671875 C 761.941406 476.230469 763.105469 477.285156 763.738281 478.328125 C 764.660156 479.832031 767.761719 481.136719 768.59375 483.554688 C 769.265625 485.515625 769.242188 488.371094 768.992188 490.769531 C 768.785156 492.746094 767.050781 494.742188 765.734375 496.925781 C 763.640625 500.398438 764.089844 503.464844 763.226562 505.382812 C 762.332031 507.378906 758.78125 508.300781 756.875 510.503906 C 755.398438 512.210938 753.761719 513.1875 751.003906 514.351562 C 749.164062 515.128906 747.800781 517.34375 744.714844 517.894531 C 742.203125 518.339844 739.128906 518.132812 736.253906 519.199219 C 733.730469 520.132812 730.796875 520.59375 728.089844 521.71875 C 725.871094 522.640625 724.140625 524.882812 721.824219 525.785156 C 719.554688 526.664062 717.691406 528.894531 715.339844 529.632812 C 713.003906 530.363281 710.152344 529.292969 707.742188 529.757812 C 705.347656 530.125 702.929688 530.300781 700.507812 530.285156 C 698.089844 530.363281 695.898438 529.621094 693.429688 529.214844 C 691.128906 528.746094 688.882812 528.03125 686.730469 527.082031 C 684.28125 526.132812 681.667969 526.007812 679.660156 524.992188 C 677.175781 523.734375 673.78125 524.125 672.554688 524.335938 C 672.5 524.347656 672.726562 524.273438 672.5 524.367188 C 670.980469 524.933594 669.546875 525.703125 668.230469 526.648438 C 666.628906 527.851562 664.019531 528.113281 661.945312 529.34375 C 660.621094 530.132812 659.894531 532.335938 658.464844 532.941406 C 656.195312 533.902344 652.964844 531.601562 650.589844 532.074219 C 648.1875 532.554688 646.09375 534.003906 643.664062 533.996094 C 641.21875 533.988281 638.421875 535.972656 636.035156 535.480469 C 633.648438 534.988281 631.871094 532.054688 629.625 531.085938 C 627.398438 530.125 624.957031 529.539062 622.953125 528.117188 C 621.347656 527.078125 619.808594 525.9375 618.347656 524.703125 C 616.886719 523.34375 616.09375 521.429688 614.863281 520.144531 C 613.097656 518.304688 611.875 515.863281 610.292969 514.722656 C 608.355469 513.316406 605.617188 511.847656 603.164062 511.523438 C 600.859375 511.21875 598.203125 512.933594 595.765625 513.273438 C 593.363281 513.605469 591.445312 515.761719 589.214844 516.433594 C 586.675781 517.199219 583.492188 515.617188 581.589844 516.421875 C 579.375 517.359375 577.652344 519.523438 575.464844 520.660156 C 573.304688 521.785156 570.390625 521.671875 568.308594 522.933594 C 566.199219 524.214844 565.035156 526.976562 563.054688 528.34375 C 560.996094 529.761719 558.109375 530.003906 556.238281 531.457031 C 554.21875 533.023438 553.484375 536.011719 551.746094 537.539062 C 549.757812 539.292969 547.863281 540.800781 546.339844 542.390625 C 544.875 543.914062 544.21875 546.019531 542.90625 547.679688 C 541.605469 549.324219 539.242188 550.144531 538.035156 551.898438 C 536.851562 553.617188 534.800781 554.820312 533.660156 556.625 C 532.546875 558.386719 533.753906 561.625 532.632812 563.445312 C 531.484375 565.308594 529.953125 566.964844 528.769531 568.835938 C 527.597656 570.683594 524.84375 571.511719 523.59375 573.339844 C 522.359375 575.144531 520.316406 576.292969 518.960938 578.050781 C 517.632812 579.777344 517.90625 582.800781 516.421875 584.457031 C 514.972656 586.074219 514.035156 588.34375 512.402344 589.875 C 510.828125 591.347656 508.386719 591.992188 506.605469 593.363281 C 504.703125 594.757812 502.871094 596.246094 501.121094 597.824219 C 499.316406 599.535156 496.632812 600.359375 495.203125 602.097656 C 493.636719 603.957031 492.203125 605.921875 490.910156 607.976562 C 489.648438 610.078125 490.800781 613.316406 489.941406 615.4375 C 489.035156 617.683594 487.121094 619.480469 486.589844 621.734375 C 486.039062 624.066406 484.75 626.335938 484.515625 628.660156 C 484.277344 631.03125 484.6875 633.507812 484.683594 635.851562 C 484.679688 638.230469 486.15625 640.550781 486.296875 642.886719 C 486.441406 645.277344 486.890625 647.597656 487.082031 649.917969 C 487.265625 652.167969 487.695312 654.859375 487.351562 657.324219 C 487.035156 659.601562 485.304688 661.816406 484.648438 664.167969 C 484.019531 666.429688 483.535156 668.839844 482.691406 671.074219 C 481.84375 673.320312 479.269531 674.832031 478.304688 676.957031 C 477.28125 679.210938 477.730469 682.085938 476.695312 684.089844 C 475.488281 686.414062 474.609375 688.695312 473.566406 690.503906 C 471.460938 694.515625 467.808594 696.417969 465.601562 697.347656 Z M 465.804688 697.832031 "
                    fill-opacity="1" fill-rule="nonzero" />
            </g>
        </g>
    </g>
    <g clip-path="url(#db398b3be4)" transform="matrix(1, 0, 0, 1, -46.10422340501344, -228.39226790035923)">
        <g clip-path="url(#493e752153)">
            <g clip-path="url(#a7a2e9fa43)">
                <path fill="#7ea356"
                    d="M 445.277344 685.691406 C 447.621094 685.75 449.652344 685.613281 451.382812 685.757812 C 453.964844 685.96875 455.867188 686.949219 457.382812 687.070312 C 460.332031 687.304688 461.851562 686.671875 462.835938 684.675781 C 462.882812 684.582031 464.414062 682.101562 466.332031 678.363281 C 467.304688 676.464844 468.59375 674.316406 469.652344 671.933594 C 470.605469 669.792969 470.195312 667.007812 471.007812 664.71875 C 471.839844 662.390625 471.792969 660.007812 472.277344 657.753906 C 472.832031 655.179688 476.3125 652.964844 476.132812 650.820312 C 475.953125 648.613281 475.320312 646.394531 475.179688 644.058594 C 475.042969 641.828125 473.507812 639.617188 473.484375 637.289062 C 473.460938 635.046875 474.90625 632.824219 475.050781 630.511719 C 475.191406 628.269531 475.925781 626.179688 476.285156 623.890625 C 476.636719 621.671875 474.824219 618.996094 475.433594 616.757812 C 476.023438 614.601562 477.988281 612.847656 478.867188 610.683594 C 479.707031 608.628906 480.0625 606.300781 481.207031 604.253906 C 482.285156 602.324219 484.6875 601.238281 486.070312 599.328125 C 487.363281 597.546875 488.972656 596.125 490.5625 594.371094 C 492.035156 592.742188 491.917969 589.472656 493.671875 587.875 C 495.296875 586.394531 497.324219 585.199219 499.207031 583.75 C 501.097656 582.296875 502.171875 580.121094 503.816406 578.5 C 505.496094 576.84375 507.261719 575.4375 508.742188 573.640625 C 510.234375 571.832031 511.234375 569.757812 512.585938 567.84375 C 513.929688 565.933594 515.859375 564.460938 517.121094 562.484375 C 518.378906 560.515625 520.511719 559.089844 521.742188 557.09375 C 522.96875 555.105469 523.902344 552.933594 525.160156 550.953125 C 526.410156 548.984375 527.015625 546.566406 528.355469 544.636719 C 529.683594 542.722656 532.175781 541.671875 533.644531 539.832031 C 535.09375 538.019531 535.425781 535.195312 537.0625 533.488281 C 538.511719 531.976562 540.8125 530.996094 542.644531 529.34375 C 544.261719 527.890625 545.480469 525.742188 547.34375 524.238281 C 549.070312 522.847656 550.949219 521.460938 552.847656 520.078125 C 554.664062 518.753906 557.671875 519.082031 559.617188 517.804688 C 561.511719 516.558594 562.761719 514.277344 564.75 513.109375 C 566.722656 511.953125 568.726562 510.828125 570.761719 509.785156 C 572.8125 508.738281 575.558594 509.304688 577.644531 508.40625 C 579.777344 507.492188 581.78125 506.683594 583.921875 505.96875 C 586.136719 505.222656 587.640625 502.207031 589.828125 501.722656 C 592.121094 501.210938 594.546875 501.3125 596.769531 501.132812 C 599.113281 500.945312 601.625 499.601562 603.84375 499.835938 C 606.160156 500.082031 608.332031 501.988281 610.460938 502.761719 C 612.597656 503.535156 613.808594 505.875 615.703125 507.246094 C 617.339844 508.429688 620.230469 508.128906 621.65625 509.5625 C 623.078125 510.992188 623.679688 513.246094 625.105469 514.667969 C 626.539062 516.097656 627.148438 518.714844 628.796875 519.882812 C 630.699219 521.234375 634.023438 520.085938 636.234375 520.8125 C 638.445312 521.535156 640.445312 523.441406 642.773438 523.535156 C 645.164062 523.679688 647.5625 523.5 649.90625 523.003906 C 652.171875 522.460938 654.136719 520.78125 656.144531 519.585938 C 658.480469 518.199219 661.480469 517.601562 663.714844 516.019531 C 666.003906 514.398438 667.660156 512.375 670.402344 511.898438 C 672.6875 511.390625 675.066406 511.457031 677.320312 512.085938 C 679.59375 512.78125 681.804688 513.65625 683.9375 514.707031 C 686.074219 515.785156 687.796875 517.902344 689.964844 518.746094 C 692.152344 519.59375 694.679688 519.496094 696.921875 519.683594 C 699.175781 519.875 701.257812 517.953125 703.550781 517.628906 C 705.765625 517.3125 708.140625 518.101562 710.375 517.445312 C 712.527344 516.816406 715.144531 517.308594 717.304688 516.484375 C 719.425781 515.675781 721.644531 514.964844 723.753906 514.085938 C 725.875 513.207031 728.007812 512.417969 730.109375 511.585938 C 732.265625 510.726562 733.796875 508.316406 735.921875 507.628906 C 738.152344 506.910156 740.679688 507.828125 742.859375 507.441406 C 746.640625 506.769531 749.0625 505.855469 750.191406 504.503906 C 751.234375 503.25 749.832031 500.007812 751.386719 496.773438 C 752.203125 495.074219 754.089844 493.367188 755.621094 490.832031 C 756.75 488.957031 756.179688 487.855469 754.644531 485.296875 C 753.824219 483.929688 754.183594 481.417969 752.929688 479.101562 C 751.578125 476.609375 749.855469 474.496094 748.695312 472.289062 C 747.304688 469.648438 745.761719 467.375 744.566406 465.375 C 743.246094 463.160156 742.027344 460.792969 740.398438 459.171875 C 738.632812 457.417969 736.253906 456.222656 734.21875 454.976562 C 732.160156 453.710938 729.5 453.558594 727.253906 452.613281 C 725.042969 451.679688 722.441406 451.820312 720.140625 451 C 717.875 450.1875 716.257812 447.554688 713.992188 446.660156 C 711.785156 445.714844 709.632812 444.648438 707.546875 443.464844 C 705.738281 442.507812 702.976562 443.042969 701.492188 441.816406 C 699.964844 440.558594 698.28125 439.425781 696.808594 438.113281 C 695.359375 436.824219 694.628906 434.832031 692.953125 433.714844 C 691.109375 432.484375 689.121094 431.820312 687.054688 431.003906 C 684.992188 430.191406 682.566406 430.199219 680.539062 429.363281 C 678.472656 428.507812 677.988281 424.890625 676.222656 423.554688 C 674.449219 422.214844 670.660156 422.917969 669.066406 421.164062 C 667.554688 419.5 668.632812 415.542969 667.183594 413.726562 C 665.75 411.925781 662.113281 411.90625 660.644531 410.164062 C 659.207031 408.4375 657.660156 406.808594 656.007812 405.289062 C 653.824219 403.292969 653.128906 400.003906 651.164062 398.085938 C 649.199219 396.167969 648.085938 393.824219 646.394531 391.367188 C 645.242188 389.636719 644.226562 387.816406 643.359375 385.925781 C 642.386719 383.941406 640.6875 382.484375 640.015625 380.472656 C 639.328125 378.40625 639.464844 376.234375 638.984375 374.140625 C 638.503906 372.039062 637.597656 370.078125 637.222656 367.945312 C 636.847656 365.832031 635.820312 363.824219 635.4375 361.6875 C 635.058594 359.582031 633.660156 357.6875 633.171875 355.558594 C 632.695312 353.488281 633.71875 350.976562 633.042969 348.882812 C 632.246094 346.433594 630.445312 344.246094 629.046875 342.050781 C 627.636719 339.835938 624.9375 338.992188 622.96875 337.34375 C 620.972656 335.671875 619.746094 332.921875 617.230469 332.144531 C 615.292969 331.484375 613.300781 331.003906 611.277344 330.710938 C 609.277344 330.488281 606.859375 332.601562 604.890625 332.191406 C 602.957031 331.792969 601.214844 329.613281 599.550781 328.535156 C 597.832031 327.421875 597.695312 325.363281 597.027344 323.429688 C 596.015625 320.507812 595.757812 317.640625 595.109375 314.613281 C 594.558594 312.042969 593.789062 308.980469 591.777344 307.273438 C 589.839844 305.628906 586.527344 305.613281 584.1875 304.636719 C 581.824219 303.652344 579.308594 302.867188 576.964844 301.820312 C 574.578125 300.757812 573.351562 298.269531 571.507812 296.429688 C 570.203125 295.132812 567.375 294.058594 566.347656 291.273438 C 565.582031 289.199219 566.648438 286.316406 566.089844 283.777344 C 565.582031 281.472656 563.273438 279.367188 562.972656 276.925781 C 562.671875 274.476562 562.769531 271.917969 562.714844 269.558594 C 562.640625 267.101562 562.746094 264.636719 563.03125 262.191406 C 563.402344 259.269531 565.28125 257.304688 566.355469 255.753906 C 567.96875 253.292969 569.820312 250.996094 571.886719 248.898438 C 573.523438 247.328125 576.445312 246.453125 577.609375 244.3125 C 578.6875 242.332031 578.621094 239.582031 579.378906 237.28125 C 580.09375 235.101562 581.617188 232.996094 582.121094 230.667969 C 582.613281 228.375 583.324219 226.023438 583.671875 223.71875 C 584.035156 221.34375 581.761719 218.636719 582.042969 216.390625 C 582.351562 213.910156 585.144531 211.894531 585.445312 209.761719 C 585.753906 207.585938 582.957031 205.082031 582.878906 202.617188 C 582.804688 200.355469 582.558594 198.082031 582.359375 195.695312 C 582.167969 193.375 585.117188 190.8125 584.988281 188.484375 C 584.789062 186.207031 584.71875 183.921875 584.773438 181.636719 C 584.914062 179.222656 582.96875 176.5625 583.617188 174.390625 C 584.292969 172.128906 587.125 171.058594 588.605469 169.207031 C 590.285156 167.109375 590.917969 163.832031 593.246094 162.53125 C 595.515625 161.265625 598.371094 160.871094 600.785156 159.75 C 603.1875 158.707031 605.472656 157.414062 607.601562 155.890625 C 609.574219 154.410156 610.535156 152.378906 611.753906 150.328125 C 612.980469 148.269531 615.859375 146.738281 616.347656 144.359375 C 616.832031 142.015625 614.921875 139.410156 614.714844 137.003906 C 614.507812 134.59375 614.71875 132.183594 613.839844 129.957031 C 612.949219 127.699219 612.207031 125.226562 610.644531 123.410156 C 609.089844 121.597656 606.257812 121.527344 604.058594 120.410156 C 601.972656 119.347656 600.332031 117.695312 598.09375 117.316406 C 595.84375 116.933594 593.519531 116.050781 591.207031 116.246094 C 588.953125 116.4375 587.078125 118.703125 584.847656 119.339844 C 582.703125 119.957031 580.609375 120.742188 578.589844 121.6875 C 576.488281 122.660156 574.125 122.941406 572.21875 124.160156 C 570.28125 125.394531 568.335938 126.589844 566.5 127.976562 C 564.664062 129.355469 562.679688 130.550781 560.894531 131.996094 C 559.105469 133.441406 557.457031 135.0625 555.660156 136.492188 C 553.859375 137.921875 552.328125 139.738281 550.460938 141.070312 C 548.589844 142.40625 546.90625 144.1875 544.914062 145.339844 C 543.414062 146.203125 541.339844 146.660156 539.65625 147.085938 C 537.894531 147.527344 535.292969 148.367188 533.644531 147.621094 C 531.929688 146.84375 532.371094 143.054688 531.136719 141.578125 C 529.835938 139.953125 528.199219 138.628906 526.335938 137.699219 C 524.386719 136.878906 522.28125 138.722656 520.421875 139.515625 C 518.746094 140.230469 516.566406 140.445312 514.921875 141.664062 C 513.332031 142.757812 511.683594 143.761719 509.980469 144.671875 C 507.886719 145.882812 506.117188 146.960938 503.863281 147.078125 C 501.605469 147.144531 499.351562 146.78125 497.230469 146.003906 C 495.171875 145.316406 492.539062 145.375 490.472656 144.105469 C 488.605469 142.957031 487.253906 140.792969 485.414062 139.261719 C 483.703125 137.839844 481.699219 136.59375 480.050781 134.914062 C 478.464844 133.308594 476.273438 132.109375 474.773438 130.332031 C 473.300781 128.585938 473.699219 125.332031 472.332031 123.484375 C 470.953125 121.625 468.5 120.554688 467.257812 118.65625 C 465.972656 116.695312 466.007812 113.996094 464.890625 112.058594 C 463.699219 109.984375 461.933594 108.367188 460.972656 106.402344 C 459.886719 104.183594 458.667969 102.214844 457.925781 100.25 C 456.980469 97.75 455.082031 95.714844 454.796875 93.855469 C 454.414062 91.394531 453.796875 88.984375 453.242188 86.542969 C 452.671875 84.03125 452.414062 82.121094 450.722656 80.199219 C 449.273438 78.550781 447.882812 78.085938 445.863281 77.402344 C 443.910156 76.742188 442.257812 74.472656 440.085938 74.4375 C 437.953125 74.398438 435.960938 76.382812 433.90625 76.6875 C 431.226562 77.085938 428.085938 75.773438 425.527344 76.6875 C 422.929688 77.613281 421.082031 79.90625 419.089844 81.808594 C 417.523438 83.300781 414.660156 83.984375 413.632812 85.878906 C 412.625 87.734375 411.582031 89.792969 410.746094 91.78125 C 409.914062 93.769531 409.292969 95.691406 408.289062 97.554688 C 407.269531 99.449219 406.824219 101.34375 405.269531 102.84375 C 403.582031 104.554688 401.679688 106.039062 399.613281 107.265625 C 397.480469 108.488281 395.695312 110.222656 393.84375 111.820312 C 392.265625 113.175781 389.523438 114.074219 388.429688 116.148438 C 387.46875 117.972656 388.800781 120.949219 388.144531 123.183594 C 387.550781 125.199219 385.6875 127.007812 385.296875 129.253906 C 384.925781 131.363281 385.742188 133.703125 385.511719 135.929688 C 385.285156 138.09375 386.214844 140.335938 386.085938 142.535156 C 385.957031 144.746094 384.722656 146.875 384.65625 149.046875 C 384.585938 151.296875 383.613281 153.484375 383.570312 155.613281 C 383.527344 157.921875 385.144531 160.179688 385.085938 162.246094 C 385.015625 164.671875 382.261719 166.738281 382.101562 168.667969 C 381.886719 171.277344 384.207031 173.949219 383.875 176.101562 C 383.464844 178.746094 380.0625 180.378906 379.457031 182.425781 C 378.683594 185.023438 380.117188 188.125 378.972656 189.929688 C 377.609375 192.066406 375.917969 194.238281 373.945312 195.554688 C 372.082031 196.796875 368.886719 195.535156 366.402344 196.324219 C 364.320312 196.984375 362.570312 199.617188 360 200.132812 C 357.835938 200.570312 355.316406 200.109375 352.773438 200.546875 C 350.5625 200.925781 348.15625 201.039062 345.640625 201.484375 C 342.765625 201.941406 339.996094 202.925781 337.472656 204.382812 C 335.632812 205.40625 334.042969 206.832031 332.824219 208.546875 C 331.703125 210.242188 331.785156 212.578125 331.046875 214.570312 C 330.320312 216.53125 329.152344 218.335938 328.554688 220.289062 C 327.816406 222.695312 327.105469 225.195312 325.636719 226.984375 C 324.144531 228.800781 321.875 230.074219 319.789062 231.359375 C 317.835938 232.5625 316.011719 234.714844 313.675781 235.539062 C 311.5 236.308594 308.484375 234.542969 306.085938 235.050781 C 303.800781 235.539062 301.714844 237.441406 299.320312 237.75 C 296.960938 238.058594 294.421875 236.703125 292.046875 236.898438 C 289.640625 237.09375 287.433594 240.050781 285.101562 240.1875 C 282.636719 240.335938 280.175781 239.347656 277.902344 239.492188 C 275.351562 239.660156 272.890625 239.019531 270.726562 239.277344 C 268.449219 239.550781 266.15625 241.269531 263.679688 241.417969 C 261.339844 241.5625 258.828125 239.773438 256.398438 239.898438 C 254.019531 240.023438 251.609375 240.273438 249.222656 240.464844 C 246.8125 240.65625 244.589844 242.277344 242.253906 242.625 C 239.832031 242.984375 237.078125 241.601562 234.824219 242.222656 C 232.453125 242.875 230.714844 245.164062 228.632812 246.214844 C 226.464844 247.304688 224.203125 248.105469 222.464844 249.75 C 220.78125 251.34375 220.804688 254.015625 219.632812 256.246094 C 218.597656 258.210938 217.15625 259.859375 216.597656 262.40625 C 216.054688 264.863281 214.398438 267.125 214.445312 269.527344 C 214.496094 271.976562 213.917969 274.6875 214.394531 277.097656 C 214.863281 279.480469 218.472656 281.113281 219.175781 283.476562 C 219.875 285.808594 217.777344 289.027344 218.527344 291.363281 C 219.277344 293.695312 219.96875 295.972656 220.601562 298.328125 C 221.238281 300.703125 222.277344 302.835938 222.617188 305.25 C 222.960938 307.664062 225.472656 310.039062 225.34375 312.511719 C 225.207031 315.089844 224.316406 317.660156 223.652344 319.828125 C 222.921875 322.210938 220.03125 323.5 218.765625 325.492188 C 217.484375 327.511719 217.101562 330.175781 215.378906 331.902344 C 213.722656 333.570312 211.503906 334.699219 209.546875 336.199219 C 207.679688 337.632812 205.777344 339.09375 203.734375 340.464844 C 201.769531 341.78125 200.59375 344.382812 198.550781 345.722656 C 196.785156 346.878906 194.007812 346.632812 192.207031 347.882812 C 190.425781 349.113281 189.167969 351.046875 187.519531 352.410156 C 185.820312 353.714844 184.234375 355.15625 182.769531 356.71875 C 181.320312 358.386719 181.035156 360.515625 180.125 362.441406 C 179.214844 364.363281 176.667969 365.8125 176.503906 368.046875 C 176.261719 371.324219 179.066406 374.800781 178.753906 378.070312 C 178.507812 380.664062 177.027344 383.28125 175.738281 385.40625 C 174.46875 387.492188 173.082031 390.046875 171.152344 391.757812 C 169.316406 393.390625 165.992188 393.3125 163.859375 394.679688 C 161.722656 396.046875 160.523438 399.066406 158.382812 400.238281 C 156.25 401.410156 153.136719 401.109375 151.042969 402.539062 C 149.007812 404.027344 147.105469 405.691406 145.363281 407.515625 C 143.539062 409.25 142.003906 411.265625 140.8125 413.484375 C 139.683594 415.691406 137.515625 418.140625 137.53125 420.753906 C 137.546875 424.160156 140.550781 427.34375 141.882812 430.480469 C 142.847656 432.75 143.136719 435.542969 144.464844 437.695312 C 145.816406 439.886719 148.382812 441.109375 150.21875 442.742188 C 152.105469 444.425781 154.265625 444.679688 156.78125 445.292969 C 159.390625 445.933594 161.292969 446.289062 163.722656 445.660156 C 166.09375 445.050781 168.683594 444.976562 170.980469 443.675781 C 173.132812 442.453125 174.734375 440.199219 176.898438 438.800781 C 179.042969 437.417969 181.777344 436.957031 184.003906 435.8125 C 186.300781 434.628906 188.328125 432.210938 190.792969 431.722656 C 193.214844 431.242188 195.625 431.683594 197.597656 431.566406 C 200.136719 431.417969 202.101562 433.433594 203.984375 433.816406 C 205.972656 434.136719 207.832031 435 209.355469 436.3125 C 211.070312 437.726562 213.53125 438.335938 214.390625 440.457031 C 215.171875 442.386719 215.292969 444.710938 215.617188 447.03125 C 215.910156 449.132812 215.058594 451.40625 215.164062 453.6875 C 215.261719 455.871094 215.609375 458.082031 215.691406 460.300781 C 215.773438 462.542969 217.335938 464.667969 217.5625 466.820312 C 217.789062 468.980469 218.203125 471.113281 218.804688 473.195312 C 219.4375 475.40625 219.367188 477.78125 220.628906 479.527344 C 221.957031 481.363281 223.855469 482.441406 225.691406 483.507812 C 227.511719 484.5625 229.019531 487.109375 231.171875 487.660156 C 233.203125 488.179688 235.878906 486.015625 238.058594 486.300781 C 240.183594 486.582031 242.359375 486.617188 244.5 486.878906 C 246.675781 487.144531 248.488281 489.480469 250.539062 489.925781 C 252.726562 490.402344 254.953125 490.929688 257.265625 491.59375 C 259.46875 492.226562 261.875 492.269531 264.089844 493.085938 C 266.273438 493.894531 268.058594 495.535156 270.15625 496.535156 C 272.285156 497.554688 273.917969 499.105469 275.855469 500.339844 C 277.863281 501.617188 280.683594 501.566406 282.371094 503.09375 C 284.140625 504.695312 284.492188 507.277344 285.78125 509.167969 C 287.097656 511.101562 290.90625 511.917969 291.578125 514.171875 C 292.222656 516.320312 291.503906 519.117188 291.4375 521.578125 C 291.378906 523.746094 288.847656 525.566406 288.148438 527.988281 C 287.445312 530.433594 289.324219 533.757812 288.410156 536.175781 C 287.5 538.585938 287.023438 541.101562 286.199219 543.511719 C 285.363281 545.976562 283.191406 547.921875 282.757812 550.421875 C 282.316406 552.945312 281.171875 555.558594 281.46875 558.152344 C 281.746094 560.59375 283.269531 562.785156 283.09375 564.828125 C 282.882812 567.253906 280.90625 569.042969 280.132812 570.980469 C 279.273438 573.136719 279.660156 576.007812 278.214844 577.675781 C 276.773438 579.335938 274.050781 579.753906 272.144531 581.046875 C 270.355469 582.257812 269.003906 584.488281 266.902344 585.476562 C 264.941406 586.402344 262.699219 587.019531 260.542969 587.832031 C 258.492188 588.605469 256.441406 589.605469 254.28125 590.34375 C 252.1875 591.0625 249.710938 590.773438 247.578125 591.527344 C 245.472656 592.269531 243.171875 592.578125 241.085938 593.410156 C 239.003906 594.246094 236.515625 594.390625 234.511719 595.378906 C 232.460938 596.417969 230.472656 597.574219 228.550781 598.839844 C 226.429688 600.210938 225.507812 603.449219 223.539062 605.117188 C 221.542969 606.816406 219.570312 608.367188 218.144531 610.441406 C 216.730469 612.527344 215.8125 614.914062 215.460938 617.410156 C 215.109375 619.542969 215.386719 621.65625 215.519531 623.894531 C 215.65625 626.144531 216.0625 628.507812 215.90625 630.628906 C 215.734375 632.875 213.515625 634.355469 212.113281 636.179688 C 210.421875 638.375 208.683594 640.5 206.164062 641.828125 C 203.582031 643.1875 201.078125 644.363281 199.808594 646.902344 C 198.605469 649.3125 197.535156 652.730469 198.855469 655.070312 C 200.121094 657.3125 203.382812 658.957031 205.808594 659.824219 C 208.316406 660.71875 211.195312 660.652344 213.835938 660.285156 C 216.421875 659.929688 218.964844 658.804688 221.398438 657.867188 C 223.648438 657 226.429688 657.222656 228.628906 656.195312 C 230.820312 655.171875 231.796875 651.574219 233.976562 650.523438 C 236.164062 649.46875 238.382812 648.328125 240.601562 647.382812 C 242.835938 646.429688 245.667969 646.871094 247.972656 646.164062 C 250.28125 645.457031 252.882812 646.636719 255.300781 646.316406 C 257.53125 646.023438 259.464844 643.269531 261.3125 643.511719 C 263.414062 643.789062 264.523438 647.023438 266.355469 647.808594 C 268.179688 648.59375 270.238281 648.632812 272.035156 649.71875 C 273.691406 650.722656 275.296875 651.972656 277.125 653.070312 C 278.667969 654 281.261719 654.695312 281.683594 656.507812 C 282.132812 658.445312 280.03125 661.871094 281.296875 662.792969 C 283.617188 664.484375 287.886719 661.554688 289.25 662.65625 C 291.351562 664.347656 293.4375 665.777344 295.296875 667.28125 C 297.382812 668.96875 300.191406 669.394531 302.222656 670.707031 C 304.394531 672.117188 305.734375 675.382812 308.148438 676.191406 C 310.417969 676.949219 313.367188 676.683594 316.125 676.761719 C 318.410156 676.828125 320.769531 674.835938 323.558594 674.335938 C 325.878906 673.921875 328.476562 675.757812 330.769531 675.527344 C 333.113281 675.289062 335.316406 674.078125 337.628906 674.019531 C 339.972656 673.964844 342.328125 673.257812 344.640625 673.375 C 346.976562 673.496094 349.355469 673.582031 351.664062 673.867188 C 353.976562 674.152344 355.863281 676.914062 358.152344 677.355469 C 360.4375 677.796875 362.679688 678.003906 364.9375 678.589844 C 367.1875 679.175781 370.023438 677.695312 372.246094 678.410156 C 374.457031 679.121094 375.816406 682.222656 378.003906 683.050781 C 380.175781 683.871094 383.164062 682.628906 385.3125 683.558594 C 387.441406 684.476562 390.0625 684.457031 392.171875 685.46875 C 394.265625 686.472656 395.699219 688.886719 397.773438 689.96875 C 399.828125 691.042969 401.5625 692.734375 403.601562 693.878906 C 405.023438 694.664062 407.382812 693.347656 410.574219 692.253906 C 412.472656 691.605469 415.234375 692.320312 417.800781 691.445312 C 419.84375 690.75 421.753906 689.054688 424.242188 688.402344 C 426.386719 687.835938 428.753906 687.785156 431.238281 687.367188 C 433.449219 686.996094 435.734375 686.757812 438.226562 686.582031 C 440.476562 686.425781 442.792969 685.632812 445.277344 685.691406 Z M 445.277344 685.691406 "
                    fill-opacity="1" fill-rule="nonzero" />
            </g>
        </g>
    </g>
</svg>