<svg xmlns="http://www.w3.org/2000/svg" xmlns:xlink="http://www.w3.org/1999/xlink" width="1080" zoomAndPan="magnify"
    viewBox="0 0 810 809.999993" height="1080" preserveAspectRatio="xMidYMid meet" version="1.0">
    <defs>
        <clipPath id="b9fb3dd899">
            <path d="M 0 205.03125 L 810 205.03125 L 810 604.78125 L 0 604.78125 Z M 0 205.03125 "
                clip-rule="nonzero" />
        </clipPath>
    </defs>
    <g clip-path="url(#b9fb3dd899)">
        <path fill="#d21e25"
            d="M 768.472656 286.785156 L 768.472656 245.914062 L 727.628906 245.914062 L 727.628906 205.03125 L 82.386719 205.03125 L 82.386719 245.914062 L 41.503906 245.914062 L 41.503906 286.785156 L 0.664062 286.785156 L 0.664062 523.207031 L 41.503906 523.207031 L 41.503906 564.121094 L 82.386719 564.121094 L 82.386719 605 L 727.628906 605 L 727.628906 564.121094 L 768.472656 564.121094 L 768.472656 523.207031 L 809.351562 523.207031 L 809.351562 286.785156 Z M 768.472656 286.785156 "
            fill-opacity="1" fill-rule="nonzero" />
    </g>
    <path fill="#ffffff"
        d="M 609.367188 527.652344 L 118.851562 527.652344 L 118.851562 568.535156 L 691.164062 568.535156 L 691.164062 527.652344 Z M 609.367188 527.652344 "
        fill-opacity="1" fill-rule="nonzero" />
    <path fill="#ffffff"
        d="M 732.003906 323.253906 L 732.003906 486.730469 L 772.886719 486.730469 L 772.886719 323.253906 Z M 732.003906 323.253906 "
        fill-opacity="1" fill-rule="nonzero" />
    <path fill="#ffffff"
        d="M 691.164062 527.652344 L 732.003906 527.652344 L 732.003906 486.738281 L 691.164062 486.738281 Z M 691.164062 527.652344 "
        fill-opacity="1" fill-rule="nonzero" />
    <path fill="#ffffff"
        d="M 732.003906 323.253906 L 732.003906 282.371094 L 691.164062 282.371094 L 691.164062 323.253906 Z M 732.003906 323.253906 "
        fill-opacity="1" fill-rule="nonzero" />
    <path fill="#ffffff"
        d="M 200.609375 282.378906 L 691.164062 282.378906 L 691.164062 241.496094 L 118.851562 241.496094 L 118.851562 282.378906 Z M 200.609375 282.378906 "
        fill-opacity="1" fill-rule="nonzero" />
    <path fill="#ffffff"
        d="M 77.96875 486.738281 L 77.96875 527.652344 L 118.851562 527.652344 L 118.851562 486.738281 Z M 77.96875 486.738281 "
        fill-opacity="1" fill-rule="nonzero" />
    <path fill="#ffffff"
        d="M 118.851562 282.378906 L 77.96875 282.378906 L 77.96875 323.261719 L 118.851562 323.261719 Z M 118.851562 282.378906 "
        fill-opacity="1" fill-rule="nonzero" />
    <path fill="#ffffff"
        d="M 77.96875 405.015625 L 77.96875 323.261719 L 37.128906 323.261719 L 37.128906 486.738281 L 77.96875 486.738281 Z M 77.96875 405.015625 "
        fill-opacity="1" fill-rule="nonzero" />
</svg>