<?xml version="1.0" encoding="UTF-8" standalone="no" ?>
<svg xmlns="http://www.w3.org/2000/svg" xmlns:xlink="http://www.w3.org/1999/xlink" version="1.1"
preserveAspectRatio="none" viewBox="0 0 1080 1080" xml:space="preserve">
	<defs>
	</defs>
	<g transform="matrix(1 0 0 1 540 540)" id="5aa24c92-2d68-431c-87ee-9d54346ada61">
		<rect
			style="stroke: none; stroke-width: 1; stroke-dasharray: none; stroke-linecap: butt; stroke-dashoffset: 0; stroke-linejoin: miter; stroke-miterlimit: 4; fill: rgb(255,255,255); fill-rule: nonzero; opacity: 1; visibility: hidden;"
			vector-effect="non-scaling-stroke" x="-540" y="-540" rx="0" ry="0" width="1080" height="1080" />
	</g>
	<g transform="matrix(1 0 0 1 540 540)" id="c2470a40-8dea-41f0-9274-cb734bbed3a5">
	</g>
	<g transform="matrix(1 0 0 1.24 540 540)">
		<g style="" vector-effect="non-scaling-stroke">
			<g transform="matrix(1.33 0 0 1.33 0 0)" clip-path="url(#CLIPPATH_3)">
				<clipPath id="CLIPPATH_3">
					<path transform="matrix(1 0 0 1 -0.01 -0.11) translate(-405, -404.91)" id="b9fb3dd899"
						d="M 0 205.03125 L 810 205.03125 L 810 604.78125 L 0 604.78125 Z M 0 205.03125"
						stroke-linecap="round" />
				</clipPath>
				<path
					style="stroke: none; stroke-width: 1; stroke-dasharray: none; stroke-linecap: butt; stroke-dashoffset: 0; stroke-linejoin: miter; stroke-miterlimit: 4; fill: rgb(210,30,37); fill-rule: nonzero; opacity: 1;"
					vector-effect="non-scaling-stroke" transform=" translate(-405.01, -405.02)"
					d="M 768.472656 286.785156 L 768.472656 245.914062 L 727.628906 245.914062 L 727.628906 205.03125 L 82.386719 205.03125 L 82.386719 245.914062 L 41.503906 245.914062 L 41.503906 286.785156 L 0.664062 286.785156 L 0.664062 523.207031 L 41.503906 523.207031 L 41.503906 564.121094 L 82.386719 564.121094 L 82.386719 605 L 727.628906 605 L 727.628906 564.121094 L 768.472656 564.121094 L 768.472656 523.207031 L 809.351562 523.207031 L 809.351562 286.785156 Z M 768.472656 286.785156"
					stroke-linecap="round" />
			</g>
			<g transform="matrix(1.33 0 0 1.33 0 190.77)">
				<path
					style="stroke: none; stroke-width: 1; stroke-dasharray: none; stroke-linecap: butt; stroke-dashoffset: 0; stroke-linejoin: miter; stroke-miterlimit: 4; fill: rgb(255,255,255); fill-rule: nonzero; opacity: 1;"
					vector-effect="non-scaling-stroke" transform=" translate(-405.01, -548.09)"
					d="M 609.367188 527.652344 L 118.851562 527.652344 L 118.851562 568.535156 L 691.164062 568.535156 L 691.164062 527.652344 Z M 609.367188 527.652344"
					stroke-linecap="round" />
			</g>
			<g transform="matrix(1.33 0 0 1.33 463.25 -0.03)">
				<path
					style="stroke: none; stroke-width: 1; stroke-dasharray: none; stroke-linecap: butt; stroke-dashoffset: 0; stroke-linejoin: miter; stroke-miterlimit: 4; fill: rgb(255,255,255); fill-rule: nonzero; opacity: 1;"
					vector-effect="non-scaling-stroke" transform=" translate(-752.45, -404.99)"
					d="M 732.003906 323.253906 L 732.003906 486.730469 L 772.886719 486.730469 L 772.886719 323.253906 Z M 732.003906 323.253906"
					stroke-linecap="round" />
			</g>
			<g transform="matrix(1.33 0 0 1.33 408.77 136.24)">
				<path
					style="stroke: none; stroke-width: 1; stroke-dasharray: none; stroke-linecap: butt; stroke-dashoffset: 0; stroke-linejoin: miter; stroke-miterlimit: 4; fill: rgb(255,255,255); fill-rule: nonzero; opacity: 1;"
					vector-effect="non-scaling-stroke" transform=" translate(-711.58, -507.2)"
					d="M 691.164062 527.652344 L 732.003906 527.652344 L 732.003906 486.738281 L 691.164062 486.738281 Z M 691.164062 527.652344"
					stroke-linecap="round" />
			</g>
			<g transform="matrix(1.33 0 0 1.33 408.77 -136.27)">
				<path
					style="stroke: none; stroke-width: 1; stroke-dasharray: none; stroke-linecap: butt; stroke-dashoffset: 0; stroke-linejoin: miter; stroke-miterlimit: 4; fill: rgb(255,255,255); fill-rule: nonzero; opacity: 1;"
					vector-effect="non-scaling-stroke" transform=" translate(-711.58, -302.81)"
					d="M 732.003906 323.253906 L 732.003906 282.371094 L 691.164062 282.371094 L 691.164062 323.253906 Z M 732.003906 323.253906"
					stroke-linecap="round" />
			</g>
			<g transform="matrix(1.33 0 0 1.33 0 -190.77)">
				<path
					style="stroke: none; stroke-width: 1; stroke-dasharray: none; stroke-linecap: butt; stroke-dashoffset: 0; stroke-linejoin: miter; stroke-miterlimit: 4; fill: rgb(255,255,255); fill-rule: nonzero; opacity: 1;"
					vector-effect="non-scaling-stroke" transform=" translate(-405.01, -261.94)"
					d="M 200.609375 282.378906 L 691.164062 282.378906 L 691.164062 241.496094 L 118.851562 241.496094 L 118.851562 282.378906 Z M 200.609375 282.378906"
					stroke-linecap="round" />
			</g>
			<g transform="matrix(1.33 0 0 1.33 -408.8 136.24)">
				<path
					style="stroke: none; stroke-width: 1; stroke-dasharray: none; stroke-linecap: butt; stroke-dashoffset: 0; stroke-linejoin: miter; stroke-miterlimit: 4; fill: rgb(255,255,255); fill-rule: nonzero; opacity: 1;"
					vector-effect="non-scaling-stroke" transform=" translate(-98.41, -507.2)"
					d="M 77.96875 486.738281 L 77.96875 527.652344 L 118.851562 527.652344 L 118.851562 486.738281 Z M 77.96875 486.738281"
					stroke-linecap="round" />
			</g>
			<g transform="matrix(1.33 0 0 1.33 -408.8 -136.26)">
				<path
					style="stroke: none; stroke-width: 1; stroke-dasharray: none; stroke-linecap: butt; stroke-dashoffset: 0; stroke-linejoin: miter; stroke-miterlimit: 4; fill: rgb(255,255,255); fill-rule: nonzero; opacity: 1;"
					vector-effect="non-scaling-stroke" transform=" translate(-98.41, -302.82)"
					d="M 118.851562 282.378906 L 77.96875 282.378906 L 77.96875 323.261719 L 118.851562 323.261719 Z M 118.851562 282.378906"
					stroke-linecap="round" />
			</g>
			<g transform="matrix(1.33 0 0 1.33 -463.28 -0.02)">
				<path
					style="stroke: none; stroke-width: 1; stroke-dasharray: none; stroke-linecap: butt; stroke-dashoffset: 0; stroke-linejoin: miter; stroke-miterlimit: 4; fill: rgb(255,255,255); fill-rule: nonzero; opacity: 1;"
					vector-effect="non-scaling-stroke" transform=" translate(-57.55, -405)"
					d="M 77.96875 405.015625 L 77.96875 323.261719 L 37.128906 323.261719 L 37.128906 486.738281 L 77.96875 486.738281 Z M 77.96875 405.015625"
					stroke-linecap="round" />
			</g>
		</g>
	</g>
</svg>