<?xml version="1.0" encoding="UTF-8"?><svg xmlns="http://www.w3.org/2000/svg" xmlns:xlink="http://www.w3.org/1999/xlink" height="32.2" preserveAspectRatio="xMidYMid meet" version="1.0" viewBox="-0.2 0.0 33.3 32.2" width="33.3" zoomAndPan="magnify"><g id="change1_1"><path d="M28.631,3.369C26.458,1.195,23.569,0,20.497,0c-3.074,0-5.963,1.195-8.137,3.369c-2.174,2.172-3.371,5.063-3.371,8.137 c0,2.672,0.908,5.203,2.572,7.248L9.34,20.975l-0.506-0.506l-6.738,6.736l2.697,2.697l6.736-6.736l-0.504-0.506l2.221-2.221 c2.045,1.666,4.576,2.572,7.248,2.572c3.074,0,5.963-1.197,8.137-3.371C33.118,15.154,33.118,7.855,28.631,3.369z M27.389,18.396 c-1.842,1.842-4.289,2.855-6.895,2.855c-2.604,0-5.051-1.014-6.893-2.855c-1.84-1.84-2.854-4.287-2.854-6.891 s1.014-5.053,2.855-6.893c1.84-1.842,4.287-2.855,6.893-2.855c2.604,0,5.051,1.014,6.893,2.855 C31.188,8.414,31.188,14.598,27.389,18.396z" fill="inherit"/><path d="M20.495,3.068c-2.254,0-4.371,0.879-5.965,2.471c-0.24,0.24-0.24,0.631,0,0.871s0.631,0.24,0.871,0 c1.361-1.361,3.17-2.109,5.094-2.109c1.926,0,3.734,0.748,5.096,2.109c0.119,0.121,0.277,0.18,0.436,0.18 c0.156,0,0.314-0.059,0.436-0.18c0.24-0.24,0.24-0.631,0-0.871C24.868,3.947,22.749,3.068,20.495,3.068z" fill="inherit"/><path d="M0.516,28.787c-0.688,0.686-0.688,1.801,0,2.486l0.209,0.211c0.688,0.686,1.801,0.686,2.488,0l0.926-0.926l-2.697-2.697 L0.516,28.787z" fill="inherit"/></g></svg>