<?xml version="1.0" encoding="iso-8859-1"?>
<!-- Uploaded to: SVG Repo, www.svgrepo.com, Generator: SVG Repo Mixer Tools -->
<svg version="1.1" id="Layer_1" xmlns="http://www.w3.org/2000/svg" xmlns:xlink="http://www.w3.org/1999/xlink" 
	 viewBox="0 0 512 512" xml:space="preserve">
<path style="fill:#FFFFFF;" d="M256,508C116.824,508,4,395.176,4,256S116.824,4,256,4s252,112.824,252,252
	C507.84,395.112,395.112,507.84,256,508z"/>
<path style="fill:#999999;" d="M256,8c136.968,0,248,111.032,248,248S392.968,504,256,504S8,392.968,8,256
	C8.152,119.096,119.096,8.152,256,8 M256,0C114.616,0,0,114.616,0,256s114.616,256,256,256s256-114.616,256-256S397.384,0,256,0z"/>
<path style="fill:#E2E2E2;" d="M126.4,361.712v-176.44h258.08v176.44H126.4z"/>
<rect x="96" y="361.68" width="319.016" height="19.952"/>
<rect x="215.24" y="269.44" width="80.4" height="92.28"/>
<path style="fill:#F91E1E;" d="M96.8,149v48.24c0,22.04,17.864,39.904,39.904,39.904s39.904-17.864,39.904-39.904
	c0,22.04,17.864,39.904,39.904,39.904s39.904-17.864,39.904-39.904c0.016,22.04,17.888,39.896,39.928,39.88
	c22.024-0.016,39.864-17.864,39.88-39.88c0.016,22.04,17.888,39.896,39.928,39.88c22.024-0.016,39.864-17.864,39.88-39.88V149
	L96.8,149L96.8,149z"/>
<polygon style="fill:#E21B1B;" points="147.776,98.336 96.776,149 416,149 365,98.336 "/>
</svg>